<svg width="210" height="120" viewBox="0 0 210 120" fill="none" xmlns="http://www.w3.org/2000/svg">
<path opacity="0.7" d="M184.054 113.207C184.054 113.207 4.75113 109.042 0 115.284C16.1538 122.233 208.749 120.875 210 115.284C210 113.299 184.83 113.207 184.054 113.207Z" fill="#E9E2DF"/>
<path d="M185.118 70.2753C185.118 70.2753 185.19 70.9155 185.315 72.0353C185.439 73.1604 185.603 74.7714 185.8 76.7047C185.995 78.639 186.501 86.9909 186.862 90.4224C186.923 91.7471 189.477 111.819 189.477 111.819C189.598 112.595 190.324 113.126 191.099 113.006C191.823 112.893 192.333 112.252 192.3 111.535L192.299 111.514C192.299 111.514 192.456 103.456 192.275 99.4236C192.273 99.1129 191.763 92.753 191.76 92.4388C191.76 92.1254 191.806 88.6525 191.806 88.6525L192.516 80.1587C192.516 80.1587 192.089 78.3518 192.083 76.3806C192.079 74.4093 192.051 72.7676 192.033 71.6154C192.009 70.4595 191.997 69.7985 191.997 69.7985C191.959 67.8914 190.383 66.3761 188.477 66.414C186.572 66.452 185.058 68.0295 185.096 69.9367C185.098 70.0405 185.105 70.1435 185.116 70.2446L185.118 70.2753Z" fill="#E9AC8A"/>
<path d="M192.919 71.1233C192.919 71.1233 192.978 71.76 193.083 72.8752C193.189 73.9895 193.332 75.5824 193.519 77.4923C193.892 81.3192 193.418 80.4298 194.681 90.1823C194.724 90.5082 198.247 111.181 198.315 111.476C198.387 111.775 198.425 111.934 198.425 111.934C198.607 112.698 199.373 113.169 200.136 112.987C200.849 112.816 201.246 112.554 201.177 112.005C201.111 111.454 200.731 100.731 200.636 99.7849C200.447 97.8921 199.829 93.0809 199.785 91.8447C199.779 91.6903 199.759 91.0744 199.755 90.9209C199.748 90.6148 199.768 81.0384 199.789 77.206C199.801 75.2862 199.799 73.6879 199.802 72.5682C199.804 71.4484 199.806 70.8091 199.806 70.8091C199.809 68.9019 198.268 67.3524 196.362 67.3488C194.457 67.3451 192.909 68.8884 192.905 70.7955C192.903 70.9039 192.909 71.0168 192.919 71.1233Z" fill="#E9AC8A"/>
<path d="M200.793 70.1669C200.793 70.1669 200.597 74.2548 201.243 83.0583H184.996C184.996 83.0583 185.067 69.5239 185.064 68.3067C185.06 67.0885 200.793 70.1669 200.793 70.1669Z" fill="#544B3F"/>
<path d="M191.053 45.1793C191.053 45.1793 191.018 45.2597 190.951 45.4096C190.937 45.4403 190.921 45.4755 190.905 45.5134C190.887 45.5559 190.867 45.6028 190.845 45.6534C190.803 45.7572 190.754 45.8755 190.699 46.0092C190.482 46.5501 190.186 47.3673 189.833 48.4022C189.477 49.4352 189.068 50.6796 188.534 52.0467C188.265 52.7303 187.964 53.4455 187.597 54.1814C187.227 54.9165 186.796 55.6759 186.206 56.4354C185.91 56.8137 185.57 57.1921 185.162 57.5506C184.752 57.9073 184.273 58.2468 183.714 58.5078L183.553 58.5827L183.486 58.6071L183.353 58.655L183.151 58.7263L182.936 58.7985C182.822 58.8301 182.707 58.8627 182.592 58.8943C182.483 58.9204 182.375 58.9466 182.267 58.9728C181.842 59.0685 181.442 59.1408 181.054 59.2031C180.282 59.3232 179.555 59.409 178.87 59.4776C178.185 59.5462 177.543 59.5986 176.951 59.642C175.768 59.7277 174.788 59.7756 174.1 59.8063C173.756 59.8198 173.485 59.8307 173.301 59.8379C173.113 59.8442 173.013 59.8478 173.013 59.8478C172.282 59.8731 171.667 59.3349 171.64 58.6468C171.616 58.0274 172.076 57.4973 172.701 57.3781L172.726 57.3736C172.726 57.3736 173.099 57.3023 173.75 57.1785C174.404 57.0503 175.341 56.8607 176.449 56.6105C177.003 56.485 177.6 56.3442 178.221 56.1852C178.843 56.0263 179.49 55.8484 180.126 55.647C180.441 55.545 180.753 55.4375 181.04 55.3238C181.108 55.2949 181.178 55.266 181.247 55.238C181.309 55.2091 181.372 55.1802 181.434 55.1513C181.449 55.1404 181.465 55.1314 181.481 55.1215L181.504 55.1079L181.54 55.089L181.663 55.0221L181.725 54.9887C181.742 54.9815 181.619 55.0384 181.672 55.0131L181.675 55.0113L181.68 55.0077L181.691 54.9996C181.803 54.9219 181.929 54.8054 182.064 54.6501C182.198 54.4939 182.338 54.2979 182.472 54.0731C182.743 53.6216 182.988 53.0635 183.199 52.4756C183.411 51.8869 183.592 51.2656 183.754 50.6471C184.077 49.4072 184.329 48.1809 184.563 47.1036C184.794 46.0263 185.011 45.0899 185.193 44.4145C185.24 44.2447 185.283 44.0921 185.32 43.9602C185.339 43.8934 185.358 43.8311 185.374 43.7742C185.393 43.7128 185.41 43.6577 185.424 43.6081C185.478 43.4356 185.505 43.3444 185.505 43.3444V43.3435C185.958 41.8734 187.591 41.0273 189.153 41.4535C190.715 41.8797 191.613 43.4166 191.16 44.8867C191.131 44.987 191.093 45.0854 191.053 45.1793Z" fill="#6CBF84"/>
<path d="M199.572 49.7128C199.248 53.538 198.71 56.1847 198.27 59.1592C198.005 60.9499 200.266 63.7113 200.405 67.68L187.322 67.9193C187.322 67.9193 187.686 58.649 186.593 51.9252C185.956 48.0107 182.711 39.4357 193.36 40.2764C200.781 40.8615 199.733 47.8138 199.572 49.7128Z" fill="white"/>
<path d="M200.432 66.7814L200.769 70.1668C200.99 72.5544 197.823 74.7523 194.335 75.0765C190.846 75.4006 186.704 73.2009 186.483 70.8134L186.969 66.0599L200.432 66.7814Z" fill="#544B3F"/>
<path d="M192.33 111.732C192.33 111.732 192.704 113.071 192.703 114.216C192.703 114.573 192.494 115.183 192.494 115.183L184.196 115.208C184.196 115.208 183.854 113.684 185.713 113.478C186.911 113.345 189.465 111.74 189.465 111.74L192.33 111.732Z" fill="#2F2B27"/>
<path d="M201.221 111.732C201.221 111.732 201.711 113.071 201.711 113.915C201.711 114.966 201.476 115.183 201.476 115.183L195.595 115.201C195.595 115.201 195.352 113.677 196.669 113.473C197.518 113.341 198.295 111.738 198.295 111.738L201.221 111.732Z" fill="#2F2B27"/>
<path d="M192.813 72.6379C195.736 72.9151 198.49 72.6469 201.427 72.6379C201.193 69.732 200.969 65.0183 200.241 61.3855C199.591 58.1428 200.291 54.5127 200.549 51.4488C200.88 47.5117 203.196 42.388 194.978 40.2244C195.057 40.5061 194.009 42.4006 193.796 44.3583C193.366 48.3081 192.871 48.3704 192.878 54.3249C192.881 57.061 192.852 66.008 192.813 72.6379Z" fill="#6CBF84"/>
<path d="M184.256 72.6373C185.347 72.9362 186.171 72.4224 187.283 72.6373C187.211 64.457 187.696 52.4325 188.002 50.0874C188.318 47.6646 189.211 42.4018 190.237 40.1588C190.257 40.1145 190.281 40.073 190.306 40.0323C184.007 40.7457 184.953 46.7589 184.25 51.7209C183.833 54.6584 184.479 58.2117 184.256 65.1315C184.232 65.8575 184.282 71.9221 184.256 72.6373Z" fill="#6CBF84"/>
<path d="M193.407 37.3827C193.407 37.3827 195.312 30.322 193.413 29.0118C191.931 27.9887 186.407 30.5839 186.407 30.5839C186.407 30.5839 185.799 39.2537 189.641 39.5364C192.699 39.7603 193.407 37.3827 193.407 37.3827Z" fill="#E9AC8A"/>
<path d="M193.522 37.6557C193.522 37.6548 193.524 37.6675 193.528 37.6729C193.532 37.6774 193.538 37.7009 193.546 37.7244C193.562 37.7777 193.584 37.8535 193.612 37.9456C193.67 38.1334 193.753 38.389 193.843 38.6436C193.933 38.8983 194.029 39.1511 194.105 39.3399C194.181 39.5277 194.231 39.6532 194.231 39.6532C194.626 40.6321 194.154 41.7464 193.177 42.1419C192.199 42.5374 191.086 42.0651 190.691 41.0872C190.595 40.847 190.549 40.5996 190.551 40.3557L190.552 40.2961C190.552 40.2961 190.554 40.1372 190.561 39.9006C190.568 39.6631 190.582 39.3471 190.604 39.0301C190.626 38.7132 190.656 38.3962 190.683 38.1542C190.697 38.0305 190.71 37.9276 190.719 37.8553C190.724 37.8156 190.728 37.7903 190.73 37.7614C190.733 37.7334 190.734 37.7271 190.734 37.7271L190.799 37.5058C191.019 36.7627 191.797 36.3383 192.54 36.5577C193.066 36.7121 193.431 37.1501 193.522 37.6557Z" fill="#E9AC8A"/>
<path d="M193.425 37.1547C193.425 37.1547 194.034 37.0545 194.703 34.7139C195.372 32.3742 194.625 28.6258 192.07 28.1084C189.834 27.6551 188.165 28.1174 186.465 29.6877C184.823 31.2057 186.511 32.5503 186.511 32.5503C186.511 32.5503 190.294 31.5985 190.892 32.1674C191.49 32.7363 191.888 34.3283 191.888 34.3283C191.888 34.3283 192.725 32.4735 193.256 33.5599C193.786 34.6453 193.438 35.4101 192.963 35.3713L193.425 37.1547Z" fill="#0E2E47"/>
<path d="M192.332 29.104C192.332 29.104 193.589 27.2781 195.041 28.2705C196.495 29.262 196.648 33.4872 194.753 33.1179C192.33 32.6456 192.332 29.104 192.332 29.104Z" fill="#0E2E47"/>
<path d="M193.493 55.6271L193.499 55.6394C193.484 55.6322 193.493 55.6271 193.493 55.6271Z" fill="#FFBC99"/>
<path d="M189.916 43.5894C189.916 43.5894 189.418 42.2078 189.555 41.5423C189.692 40.8849 189.505 40.0911 189.505 40.0911L190.543 39.5511C190.543 39.5511 190.466 41.2912 191.435 42.0362L189.916 43.5894Z" fill="#EAF1F7"/>
<path d="M190.108 43.0313C190.108 43.0313 189.645 41.8574 189.573 41.4195C189.466 40.7567 189.506 40.0911 189.506 40.0911L190.544 39.5511C190.544 39.5511 190.467 41.2912 191.436 42.0362L190.108 43.0313Z" fill="white"/>
<path d="M194.038 39.0618C194.038 39.0618 193.653 41.8512 191.435 42.0363L192.021 43.5299C192.021 43.5299 194.667 43.1082 195.161 40.307L194.038 39.0618Z" fill="#EAF1F7"/>
<path d="M194.038 39.0618C194.038 39.0618 193.653 41.8512 191.435 42.0363L192.058 43.0314C192.058 43.0314 194.205 43.231 195.16 40.3061L194.038 39.0618Z" fill="white"/>
<path d="M173.003 67.9311C177.411 67.9311 180.985 64.3543 180.985 59.9422C180.985 55.53 177.411 51.9532 173.003 51.9532C168.595 51.9532 165.022 55.53 165.022 59.9422C165.022 64.3543 168.595 67.9311 173.003 67.9311Z" fill="#FCC600"/>
<path opacity="0.5" d="M173.003 65.4275C176.03 65.4275 178.484 62.9714 178.484 59.9417C178.484 56.912 176.03 54.4559 173.003 54.4559C169.976 54.4559 167.522 56.912 167.522 59.9417C167.522 62.9714 169.976 65.4275 173.003 65.4275Z" fill="white"/>
<path d="M200.523 45.197C200.523 45.197 200.5 45.3216 200.457 45.5554C200.414 45.7821 200.351 46.1099 200.266 46.5253C200.096 47.3542 199.845 48.5309 199.501 49.9369C199.155 51.3437 198.723 52.9791 198.153 54.7346C197.866 55.6123 197.081 58.6455 196.698 59.5729C196.608 60.3856 195.766 62.0715 192.969 62.6585C192.732 62.7479 187.496 64.2387 181.71 64.9286C181.292 64.9395 180.963 64.9395 180.735 64.9377C180.496 64.9341 180.369 64.9313 180.369 64.9313C179.66 64.9196 179.093 64.3227 179.105 63.5976C179.115 62.9285 179.748 62.5212 180.127 62.4634C180.886 62.3469 186.958 59.6758 188.954 58.8198C190.006 58.3683 191.86 57.5456 192.487 57.375C192.487 57.375 193.635 50.755 193.721 49.9703C194.172 48.4054 195.886 41.6021 197.971 41.7456C199.546 41.854 200.703 43.3124 200.56 44.9197C200.553 45.0127 200.539 45.1076 200.523 45.197Z" fill="#6CBF84"/>
<path d="M181.796 63.2823C181.708 62.7992 181.415 62.4191 180.984 62.3278C180.899 62.2854 180.793 62.2348 180.664 62.1807C180.587 62.1472 180.502 62.1129 180.411 62.0786C180.321 62.0443 180.223 62.0109 180.122 61.9775C180.02 61.9459 179.916 61.9143 179.806 61.8872C179.698 61.8583 179.585 61.8357 179.473 61.8149L179.302 61.7878C179.244 61.7815 179.187 61.7761 179.13 61.7698C179.074 61.7626 179.015 61.7626 178.959 61.7598C178.931 61.7589 178.903 61.758 178.875 61.7562C178.841 61.7544 178.823 61.7571 178.796 61.7571C178.745 61.7589 178.694 61.7608 178.644 61.7626C178.593 61.7644 178.545 61.768 178.497 61.7707C178.403 61.7779 178.313 61.7851 178.231 61.7951C178.067 61.8131 177.93 61.8357 177.833 61.8538C177.737 61.8718 177.68 61.8854 177.676 61.8863C177.545 61.9088 177.456 62.0344 177.48 62.1662C177.503 62.298 177.628 62.3865 177.759 62.3631C177.755 62.364 177.802 62.3594 177.888 62.3585C177.975 62.3567 178.1 62.3567 178.25 62.3649C178.325 62.3685 178.407 62.3748 178.493 62.382C178.535 62.3865 178.58 62.3902 178.624 62.3956C178.669 62.401 178.715 62.4073 178.762 62.4127C178.856 62.4263 178.939 62.4389 179.031 62.4579C179.077 62.4678 179.122 62.4786 179.168 62.4895L179.184 62.494C178.985 62.5346 178.755 62.5762 178.506 62.6168C178.251 62.6565 177.979 62.6972 177.705 62.727C177.569 62.7441 177.432 62.7568 177.297 62.7694C177.162 62.7839 177.029 62.792 176.901 62.8019C176.772 62.8128 176.648 62.8173 176.53 62.8236C176.412 62.8308 176.3 62.8344 176.197 62.8353C175.99 62.8417 175.819 62.8408 175.699 62.8389C175.579 62.838 175.51 62.8371 175.51 62.8371H175.502C175.371 62.8362 175.261 62.9392 175.255 63.0719C175.249 63.2074 175.353 63.323 175.489 63.3293C175.489 63.3293 175.56 63.3329 175.684 63.3383C175.808 63.3455 175.986 63.3528 176.199 63.3546C176.305 63.3573 176.421 63.3582 176.542 63.3555C176.664 63.3537 176.793 63.3546 176.927 63.3483C177.059 63.3428 177.197 63.3401 177.337 63.3311C177.405 63.3275 177.473 63.3239 177.542 63.3194C177.52 63.4106 177.498 63.5081 177.478 63.6065C177.297 63.6345 177.108 63.6598 176.918 63.676C176.8 63.6896 176.68 63.695 176.564 63.7031C176.447 63.7131 176.332 63.7122 176.22 63.7167C176.108 63.7221 176.001 63.7167 175.899 63.7167C175.797 63.7176 175.701 63.7122 175.611 63.7067C175.522 63.7013 175.441 63.6995 175.369 63.6923C175.297 63.6851 175.234 63.6788 175.182 63.6742C175.078 63.6643 175.02 63.658 175.02 63.658L175.007 63.6571C174.873 63.6444 174.753 63.7384 174.734 63.872C174.714 64.0093 174.809 64.1366 174.947 64.1565C174.947 64.1565 175.01 64.1655 175.12 64.1808C175.175 64.189 175.241 64.198 175.317 64.2088C175.394 64.2188 175.481 64.2251 175.574 64.235C175.669 64.2449 175.771 64.254 175.879 64.2585C175.988 64.263 176.102 64.2729 176.22 64.2729C176.339 64.2729 176.461 64.2793 176.585 64.2738C176.709 64.2702 176.836 64.2702 176.961 64.2612C177.116 64.254 177.27 64.2413 177.42 64.2269C177.427 64.3 177.436 64.3705 177.449 64.4382C177.436 64.4409 177.423 64.4427 177.41 64.4454C177.294 64.4635 177.176 64.4806 177.058 64.4987C176.938 64.5131 176.819 64.5294 176.702 64.542C176.584 64.5529 176.468 64.5637 176.357 64.5745C176.244 64.5818 176.136 64.589 176.032 64.5962C175.929 64.6025 175.831 64.6043 175.74 64.608C175.56 64.617 175.408 64.6143 175.303 64.6161C175.197 64.617 175.137 64.617 175.137 64.617H175.13C175.011 64.6179 174.914 64.7109 174.908 64.8301C174.901 64.9538 174.997 65.0595 175.121 65.0649C175.121 65.0649 175.183 65.0676 175.292 65.073C175.401 65.0775 175.556 65.0893 175.743 65.0902C175.837 65.0911 175.938 65.0947 176.045 65.0947C176.153 65.0938 176.265 65.092 176.383 65.0911C176.5 65.0866 176.621 65.082 176.744 65.0775C176.867 65.0721 176.993 65.0613 177.118 65.0531C177.243 65.0414 177.368 65.0297 177.491 65.0179C177.538 65.0116 177.585 65.0062 177.632 65.0008C177.676 65.0938 177.725 65.1778 177.774 65.2536C177.76 65.2563 177.748 65.259 177.734 65.2626C177.633 65.2861 177.528 65.3033 177.423 65.324C177.318 65.3448 177.212 65.3593 177.109 65.3773C177.005 65.3954 176.901 65.408 176.802 65.4225C176.603 65.4523 176.415 65.4694 176.255 65.4893C176.174 65.4992 176.1 65.5037 176.034 65.511C175.969 65.5173 175.912 65.5218 175.865 65.5263C175.771 65.5344 175.717 65.5399 175.717 65.5399L175.711 65.5408C175.569 65.5534 175.463 65.6762 175.47 65.8198C175.477 65.967 175.602 66.0799 175.749 66.0717C175.749 66.0717 175.804 66.069 175.901 66.0636C175.95 66.0609 176.008 66.0582 176.075 66.0546C176.143 66.051 176.219 66.0483 176.302 66.041C176.468 66.0275 176.661 66.0167 176.869 65.9941C176.973 65.9832 177.08 65.9751 177.189 65.9598C177.298 65.9453 177.409 65.9345 177.52 65.9164C177.631 65.8984 177.742 65.8848 177.851 65.864C177.961 65.8442 178.068 65.8261 178.173 65.8026C178.276 65.7819 178.377 65.7584 178.473 65.7331C178.519 65.7223 178.563 65.7105 178.606 65.6979C179.843 65.5281 180.604 65.1109 181.048 64.8509C181.765 64.4337 181.907 63.8928 181.796 63.2823Z" fill="#E9AC8A"/>
<path d="M146.061 57.0771C146.061 57.0771 149.959 51.6067 149.548 50.0671C149.138 48.5274 149.075 49.7474 145.813 50.0671C144.764 50.17 144.582 48.4435 143.416 48.4462C142.179 48.4498 141.921 50.1754 140.807 50.0671C137.545 49.7474 137.287 48.5274 136.876 50.0671C136.466 51.6067 140.79 57.0771 140.79 57.0771C140.79 57.0771 126.001 69.4673 127.68 79.6795C128.402 84.0663 130.723 85.6141 143.204 85.6312C143.24 85.6312 143.274 85.6312 143.31 85.6312C143.346 85.6312 143.38 85.6312 143.415 85.6312C155.895 85.6141 158.217 84.0654 158.939 79.6795C160.619 69.4673 146.061 57.0771 146.061 57.0771Z" fill="#544B3F"/>
<path d="M149.407 82.6627C153.663 82.6627 157.114 79.2089 157.114 74.9483C157.114 70.6877 153.663 67.2339 149.407 67.2339C145.15 67.2339 141.699 70.6877 141.699 74.9483C141.699 79.2089 145.15 82.6627 149.407 82.6627Z" fill="#FCC600"/>
<path opacity="0.5" d="M149.407 80.2455C152.329 80.2455 154.699 77.8739 154.699 74.9484C154.699 72.0229 152.329 69.6514 149.407 69.6514C146.484 69.6514 144.115 72.0229 144.115 74.9484C144.115 77.8739 146.484 80.2455 149.407 80.2455Z" fill="white"/>
<path d="M142.138 89.4679C146.394 89.4679 149.845 86.014 149.845 81.7535C149.845 77.4929 146.394 74.0391 142.138 74.0391C137.881 74.0391 134.431 77.4929 134.431 81.7535C134.431 86.014 137.881 89.4679 142.138 89.4679Z" fill="#FCC600"/>
<path opacity="0.5" d="M142.138 87.0506C145.061 87.0506 147.43 84.679 147.43 81.7535C147.43 78.828 145.061 76.4564 142.138 76.4564C139.215 76.4564 136.846 78.828 136.846 81.7535C136.846 84.679 139.215 87.0506 142.138 87.0506Z" fill="white"/>
<path d="M170.333 75.6069C171.015 71.4013 168.162 67.4386 163.96 66.7561C159.758 66.0736 155.799 68.9296 155.118 73.1352C154.436 77.3407 157.289 81.3034 161.491 81.9859C165.692 82.6685 169.651 79.8125 170.333 75.6069Z" fill="#FCC600"/>
<path opacity="0.5" d="M167.949 75.2195C168.417 72.3317 166.458 69.6108 163.573 69.1422C160.688 68.6735 157.97 70.6346 157.501 73.5223C157.033 76.4101 158.992 79.131 161.878 79.5996C164.763 80.0683 167.481 78.1072 167.949 75.2195Z" fill="white"/>
<path d="M66.5093 65.6085H55.5669C55.2322 65.6085 54.9607 65.3367 54.9607 65.0017V62.8372C54.9607 62.5022 55.2322 62.2303 55.5669 62.2303H66.5093C66.844 62.2303 67.1156 62.5022 67.1156 62.8372V65.0017C67.1156 65.3367 66.844 65.6085 66.5093 65.6085Z" fill="#FCC600"/>
<path d="M66.5093 61.5082H55.5669C55.2322 61.5082 54.9607 61.2364 54.9607 60.9013V58.7368C54.9607 58.4018 55.2322 58.13 55.5669 58.13H66.5093C66.844 58.13 67.1156 58.4018 67.1156 58.7368V60.9013C67.1156 61.2364 66.844 61.5082 66.5093 61.5082Z" fill="#FCC600"/>
<path d="M66.5093 57.4075H55.5669C55.2322 57.4075 54.9607 57.1357 54.9607 56.8006V54.6361C54.9607 54.3011 55.2322 54.0293 55.5669 54.0293H66.5093C66.844 54.0293 67.1156 54.3011 67.1156 54.6361V56.8006C67.1156 57.1357 66.844 57.4075 66.5093 57.4075Z" fill="#FCC600"/>
<path d="M66.5093 53.3074H55.5669C55.2322 53.3074 54.9607 53.0356 54.9607 52.7005V50.536C54.9607 50.201 55.2322 49.9292 55.5669 49.9292H66.5093C66.844 49.9292 67.1156 50.201 67.1156 50.536V52.7005C67.1156 53.0356 66.844 53.3074 66.5093 53.3074Z" fill="#FCC600"/>
<path d="M66.5093 49.2064H55.5669C55.2322 49.2064 54.9607 48.9346 54.9607 48.5996V46.4351C54.9607 46.1001 55.2322 45.8282 55.5669 45.8282H66.5093C66.844 45.8282 67.1156 46.1001 67.1156 46.4351V48.5996C67.1156 48.9346 66.844 49.2064 66.5093 49.2064Z" fill="#FCC600"/>
<path d="M66.5093 45.1062H55.5669C55.2322 45.1062 54.9607 44.8344 54.9607 44.4994V42.3348C54.9607 41.9998 55.2322 41.728 55.5669 41.728H66.5093C66.844 41.728 67.1156 41.9998 67.1156 42.3348V44.4994C67.1156 44.8344 66.844 45.1062 66.5093 45.1062Z" fill="#FCC600"/>
<path d="M66.5093 41.0053H55.5669C55.2322 41.0053 54.9607 40.7335 54.9607 40.3985V38.234C54.9607 37.899 55.2322 37.6272 55.5669 37.6272H66.5093C66.844 37.6272 67.1156 37.899 67.1156 38.234V40.3985C67.1156 40.7335 66.844 41.0053 66.5093 41.0053Z" fill="#FCC600"/>
<path d="M66.5093 36.9039H55.5669C55.2322 36.9039 54.9607 36.6321 54.9607 36.2971V34.1326C54.9607 33.7976 55.2322 33.5258 55.5669 33.5258H66.5093C66.844 33.5258 67.1156 33.7976 67.1156 34.1326V36.2971C67.1156 36.633 66.844 36.9039 66.5093 36.9039Z" fill="#FCC600"/>
<path d="M79.8127 65.5336H68.8703C68.5356 65.5336 68.264 65.2618 68.264 64.9268V62.7623C68.264 62.4273 68.5356 62.1555 68.8703 62.1555H79.8127C80.1474 62.1555 80.4189 62.4273 80.4189 62.7623V64.9268C80.4189 65.2618 80.1474 65.5336 79.8127 65.5336Z" fill="#FCC600"/>
<path d="M79.8127 61.4332H68.8703C68.5356 61.4332 68.264 61.1614 68.264 60.8264V58.6619C68.264 58.3269 68.5356 58.0551 68.8703 58.0551H79.8127C80.1474 58.0551 80.4189 58.3269 80.4189 58.6619V60.8264C80.4189 61.1614 80.1474 61.4332 79.8127 61.4332Z" fill="#FCC600"/>
<path d="M79.8127 57.3328H68.8703C68.5356 57.3328 68.264 57.0609 68.264 56.7259V54.5614C68.264 54.2264 68.5356 53.9546 68.8703 53.9546H79.8127C80.1474 53.9546 80.4189 54.2264 80.4189 54.5614V56.7259C80.4189 57.0609 80.1474 57.3328 79.8127 57.3328Z" fill="#FCC600"/>
<path d="M79.8127 53.2322H68.8703C68.5356 53.2322 68.264 52.9604 68.264 52.6253V50.4608C68.264 50.1258 68.5356 49.854 68.8703 49.854H79.8127C80.1474 49.854 80.4189 50.1258 80.4189 50.4608V52.6253C80.4189 52.9604 80.1474 53.2322 79.8127 53.2322Z" fill="#FCC600"/>
<path d="M79.8127 49.131H68.8703C68.5356 49.131 68.264 48.8592 68.264 48.5242V46.3596C68.264 46.0246 68.5356 45.7528 68.8703 45.7528H79.8127C80.1474 45.7528 80.4189 46.0246 80.4189 46.3596V48.5242C80.4189 48.8592 80.1474 49.131 79.8127 49.131Z" fill="#FCC600"/>
<path d="M79.8127 45.0301H68.8703C68.5356 45.0301 68.264 44.7583 68.264 44.4233V42.2588C68.264 41.9238 68.5356 41.652 68.8703 41.652H79.8127C80.1474 41.652 80.4189 41.9238 80.4189 42.2588V44.4242C80.4189 44.7592 80.1474 45.0301 79.8127 45.0301Z" fill="#FCC600"/>
<path d="M129.274 115.358H73.5652V114.184C73.5652 110.466 76.5865 107.442 80.3007 107.442H122.537C126.252 107.442 129.273 110.466 129.273 114.184V115.358H129.274Z" fill="#C0A9A8"/>
<path d="M157.608 36.4291C157.339 36.4291 157.067 36.3947 156.796 36.3216L44.4181 6.18181C43.6079 5.96419 42.9304 5.44405 42.5109 4.71713C42.0914 3.9902 41.9804 3.14318 42.1969 2.33137C42.4143 1.52047 42.934 0.842309 43.6602 0.422409C44.3865 0.00250853 45.2327 -0.108562 46.0438 0.108161L158.422 30.248C159.232 30.4656 159.91 30.9857 160.329 31.7126C160.749 32.4396 160.86 33.2866 160.643 34.0984C160.267 35.5017 158.994 36.4291 157.608 36.4291Z" fill="#C0A9A8"/>
<path d="M106.188 115.175H96.6506L98.8898 7.15161H103.948L103.976 8.47813L106.188 115.175Z" fill="#C0A9A8"/>
<path d="M166.374 80.6277L144.495 32.2562L122.615 80.6277L120.894 79.8475L144.495 27.6698L168.097 79.8475L166.374 80.6277Z" fill="#C0A9A8"/>
<path d="M87.3395 56.0046C86.7044 65.3327 74.4421 72.7735 59.4058 72.7735C44.3694 72.7735 32.1063 65.3327 31.472 56.0046H87.3395Z" fill="#C0A9A8"/>
<path d="M82.346 57.7943L60.4658 9.42367L38.5865 57.7943L36.8643 57.0141L60.4658 4.83728L84.0673 57.0141L82.346 57.7943Z" fill="#C0A9A8"/>
<path d="M101.419 12.1749C98.2159 12.1749 95.6095 9.56609 95.6095 6.3595C95.6095 3.15291 98.2159 0.543213 101.419 0.543213C104.623 0.543213 107.229 3.15201 107.229 6.3586C107.229 9.56519 104.623 12.1749 101.419 12.1749Z" fill="#C0A9A8"/>
<path d="M49.0144 40.4797C52.1314 37.3599 52.1314 32.3016 49.0144 29.1818C45.8975 26.0619 40.844 26.0619 37.7271 29.1818C34.6101 32.3016 34.6101 37.3599 37.7271 40.4797C40.844 43.5995 45.8975 43.5995 49.0144 40.4797Z" fill="#FCC600"/>
<path opacity="0.5" d="M43.3713 40.3169C46.3982 40.3169 48.8519 37.8608 48.8519 34.8311C48.8519 31.8014 46.3982 29.3453 43.3713 29.3453C40.3444 29.3453 37.8906 31.8014 37.8906 34.8311C37.8906 37.8608 40.3444 40.3169 43.3713 40.3169Z" fill="white"/>
<path d="M47.2949 42.1463C47.9156 42.4308 48.5308 42.4272 49.1759 41.7734C49.6152 41.3282 50.3613 40.5254 50.8972 38.9867C50.8972 38.9867 50.5363 38.0575 49.4168 37.6999C49.0406 37.5798 48.004 37.6168 48.004 37.6168C48.004 37.6168 47.3463 39.2964 46.6697 40.4604C46.2556 41.172 46.6219 41.8384 47.2949 42.1463Z" fill="#E9AC8A"/>
<path d="M49.7523 39.5395C49.7523 39.5395 49.7568 39.535 49.7658 39.5269C49.7775 39.5151 49.8001 39.4926 49.8281 39.4591C49.856 39.4257 49.8921 39.3842 49.9309 39.33C49.9706 39.2785 50.0139 39.2144 50.0608 39.1458C50.1059 39.0745 50.1574 38.9986 50.2061 38.9128C50.2566 38.8288 50.308 38.7376 50.3594 38.6419C50.4127 38.5471 50.4623 38.4451 50.5137 38.343C50.566 38.241 50.6138 38.1326 50.6644 38.027C50.7149 37.9213 50.7591 37.8112 50.8069 37.7055C50.8547 37.5999 50.8953 37.4924 50.9377 37.3895C51.0234 37.1845 51.0929 36.9885 51.157 36.8224C51.1894 36.7393 51.2147 36.6616 51.2391 36.593C51.2634 36.5244 51.2842 36.4648 51.3013 36.416C51.3356 36.3176 51.3554 36.2616 51.3554 36.2616L51.3572 36.2553C51.4114 36.1027 51.5783 36.0223 51.7316 36.0765C51.8805 36.1289 51.9599 36.2905 51.9139 36.4404C51.9139 36.4404 51.8958 36.4991 51.8643 36.6002C51.8489 36.6508 51.8291 36.7131 51.8074 36.7844C51.7849 36.8558 51.7623 36.9361 51.7316 37.0228C51.6721 37.1962 51.608 37.4003 51.5277 37.6161C51.4881 37.7245 51.4502 37.8364 51.4041 37.9493C51.359 38.0622 51.3175 38.1778 51.2688 38.2916C51.2201 38.4053 51.175 38.52 51.1227 38.6311C51.0712 38.7422 51.0234 38.8523 50.9702 38.9571C50.9197 39.0627 50.8665 39.1639 50.815 39.2596C50.7654 39.3553 50.7104 39.4447 50.6617 39.5278C50.6102 39.61 50.5633 39.6858 50.5164 39.7526C50.4713 39.8194 50.4271 39.8772 50.3883 39.926C50.3504 39.9739 50.3152 40.0127 50.2891 40.0416C50.2575 40.0732 50.2404 40.0894 50.2404 40.0894C50.0951 40.2321 49.8623 40.2312 49.7198 40.0858C49.5773 39.9405 49.5791 39.7075 49.7234 39.5648C49.727 39.5612 49.7306 39.5576 49.7342 39.554L49.7523 39.5395Z" fill="#E9AC8A"/>
<path d="M48.9233 39.249C48.9233 39.249 48.9323 39.2373 48.9486 39.2147C48.9621 39.1958 48.9883 39.1578 49.0181 39.1136C49.0487 39.0675 49.0848 39.0106 49.1254 38.9438C49.1669 38.8779 49.2111 38.7993 49.2598 38.7163C49.3546 38.5456 49.4628 38.3442 49.5693 38.1221C49.6243 38.0119 49.6739 37.8945 49.729 37.7771C49.7795 37.657 49.8309 37.536 49.8823 37.4141C49.9301 37.2904 49.9798 37.1685 50.0249 37.0457C50.0682 36.9229 50.1115 36.8019 50.153 36.6845C50.1918 36.5662 50.2288 36.4515 50.2639 36.3431C50.2982 36.2348 50.3271 36.13 50.356 36.0343C50.4146 35.8438 50.4525 35.6812 50.4832 35.5693C50.5129 35.4564 50.5292 35.3923 50.5292 35.3923L50.531 35.3851C50.5653 35.2532 50.7006 35.1737 50.8323 35.2081C50.9595 35.2415 51.0371 35.3688 51.0118 35.4961C51.0118 35.4961 50.9983 35.5638 50.9748 35.6812C50.9505 35.7986 50.9198 35.9684 50.8702 36.1689C50.8458 36.2691 50.8224 36.3784 50.7935 36.493C50.7628 36.6077 50.7313 36.7278 50.6979 36.8533C50.6618 36.9771 50.6239 37.1053 50.5851 37.2362C50.5454 37.3663 50.5003 37.4972 50.4579 37.629C50.411 37.7591 50.365 37.89 50.319 38.0182C50.2684 38.1456 50.2224 38.272 50.171 38.3912C50.0727 38.6323 49.9689 38.8544 49.8769 39.044C49.8291 39.138 49.7867 39.2246 49.7443 39.3005C49.7037 39.3764 49.6658 39.4432 49.6342 39.4974C49.6008 39.5533 49.5774 39.5931 49.5557 39.6274C49.5368 39.6572 49.526 39.6734 49.526 39.6734C49.4159 39.845 49.1877 39.8938 49.0172 39.7836C48.8457 39.6734 48.797 39.445 48.9071 39.2743C48.9107 39.2689 48.9143 39.2635 48.9179 39.2581L48.9233 39.249Z" fill="#E9AC8A"/>
<path d="M48.1501 38.9177C48.1501 38.9177 48.1583 38.9042 48.1745 38.8798C48.1898 38.8554 48.2115 38.8184 48.2404 38.7723C48.2972 38.6757 48.3784 38.5357 48.4677 38.3614C48.5588 38.1881 48.6581 37.9822 48.7573 37.7573C48.806 37.6445 48.8574 37.528 48.9034 37.4079C48.9522 37.2887 48.9982 37.1659 49.0415 37.0422C49.0884 36.9193 49.1263 36.7938 49.1669 36.671C49.2093 36.5491 49.239 36.4254 49.2742 36.3071C49.3103 36.1897 49.3338 36.0732 49.3617 35.964C49.3897 35.8547 49.4114 35.7499 49.4294 35.6542C49.4474 35.5576 49.4673 35.4691 49.4799 35.3905C49.4917 35.312 49.5025 35.2425 49.5106 35.1865C49.5277 35.0727 49.5377 35.0086 49.5377 35.0086L49.5395 34.995C49.5629 34.8433 49.7037 34.7395 49.8552 34.763C50.0023 34.7855 50.1051 34.9201 50.0889 35.0673C50.0889 35.0673 50.0817 35.1368 50.0681 35.2578C50.0618 35.3183 50.0537 35.3924 50.0447 35.4763C50.0348 35.5603 50.0176 35.6551 50.0023 35.7581C49.9869 35.8619 49.9689 35.973 49.9445 36.0904C49.9202 36.2078 49.8994 36.3324 49.867 36.4588C49.8354 36.5852 49.8083 36.718 49.7695 36.8489C49.7325 36.9807 49.6973 37.1153 49.6531 37.248C49.6125 37.3808 49.5692 37.5135 49.5223 37.6427C49.479 37.7727 49.4294 37.8982 49.3825 38.0201C49.2869 38.263 49.1903 38.4879 49.1001 38.6775C49.0117 38.868 48.9296 39.0243 48.871 39.1335C48.8394 39.1895 48.815 39.2338 48.7988 39.2636C48.7817 39.2925 48.7726 39.3087 48.7726 39.3087C48.6707 39.4848 48.4451 39.5444 48.2692 39.4414C48.0933 39.3394 48.0338 39.1137 48.1366 38.9376C48.1393 38.934 48.1411 38.9294 48.1438 38.9258L48.1501 38.9177Z" fill="#E9AC8A"/>
<path d="M46.8167 39.8239C46.8167 39.8239 46.8518 39.7589 46.9123 39.6451C46.9727 39.5286 47.0584 39.3616 47.1568 39.1566C47.2551 38.9525 47.3652 38.7114 47.4788 38.4504C47.5907 38.1894 47.708 37.9086 47.8144 37.6251C47.8704 37.4842 47.9209 37.3406 47.9714 37.2006C48.0237 37.0607 48.0679 36.9207 48.1131 36.7862C48.16 36.6516 48.1979 36.5198 48.2367 36.3952C48.2763 36.2705 48.3106 36.1522 48.3395 36.043C48.3693 35.9337 48.3972 35.8326 48.4216 35.7441C48.4432 35.6547 48.4631 35.5761 48.4784 35.512C48.51 35.3829 48.5281 35.3097 48.5281 35.3097L48.5299 35.3016C48.5659 35.1562 48.7121 35.0677 48.8582 35.1029C48.9999 35.1382 49.0874 35.279 49.0585 35.4208C49.0585 35.4208 49.0432 35.4976 49.0152 35.6321C49.0017 35.6989 48.9845 35.7811 48.9656 35.875C48.9439 35.968 48.9196 36.0728 48.8925 36.1875C48.8664 36.3021 48.8357 36.4259 48.8005 36.5559C48.7662 36.6859 48.731 36.8241 48.6886 36.9641C48.6471 37.1049 48.6065 37.2512 48.5587 37.3975C48.5127 37.5447 48.4658 37.6946 48.4144 37.8418C48.316 38.1389 48.2069 38.4324 48.1022 38.7069C47.9958 38.9805 47.892 39.2342 47.7982 39.451C47.7053 39.6677 47.6223 39.8465 47.5636 39.972C47.5023 40.0984 47.4671 40.1707 47.4671 40.1707C47.3778 40.354 47.1577 40.4298 46.9745 40.3404C46.7914 40.251 46.7156 40.0307 46.8049 39.8474C46.8067 39.8438 46.8085 39.8393 46.8112 39.8356L46.8167 39.8239Z" fill="#E9AC8A"/>
<path d="M46.5551 41.2619C46.5551 41.2619 46.5506 41.2456 46.5425 41.2149C46.5334 41.1806 46.5235 41.14 46.5109 41.0849C46.4856 40.9765 46.4549 40.823 46.4261 40.6388C46.4107 40.5467 46.3981 40.4464 46.3855 40.3399C46.3729 40.2333 46.3638 40.1204 46.3557 40.004C46.3503 39.8866 46.344 39.7656 46.3449 39.6419C46.3431 39.5181 46.3503 39.3917 46.3584 39.2653C46.3638 39.2021 46.3701 39.1389 46.3756 39.0757C46.3846 39.0124 46.3936 38.9492 46.4026 38.8869C46.4098 38.8246 46.4261 38.7623 46.4387 38.7018C46.445 38.6711 46.4513 38.6413 46.4586 38.6106C46.4658 38.5736 46.4739 38.5546 46.4811 38.5257C46.4974 38.4715 46.5127 38.4174 46.528 38.365C46.5443 38.3108 46.5614 38.2611 46.5767 38.2106C46.6101 38.1112 46.6426 38.0182 46.6751 37.9324C46.7391 37.7618 46.7996 37.6218 46.8456 37.5234C46.869 37.4737 46.888 37.4349 46.9006 37.4087C46.9151 37.3798 46.9232 37.3644 46.9232 37.3644C46.9899 37.2326 47.1505 37.1802 47.2813 37.2471C47.3986 37.3067 47.4527 37.4412 47.4158 37.5631L47.4094 37.5821C47.4094 37.5821 47.4058 37.5929 47.3995 37.6146C47.3923 37.639 47.3824 37.6742 47.3688 37.7193C47.3436 37.8114 47.3093 37.9451 47.2768 38.1076C47.2606 38.1889 47.2443 38.2774 47.2299 38.3713C47.2236 38.4183 47.2146 38.467 47.2092 38.5149C47.2028 38.5646 47.1965 38.616 47.1902 38.6675C47.1875 38.6919 47.1821 38.7271 47.1821 38.7443C47.1803 38.7686 47.1776 38.793 47.1758 38.8183C47.1722 38.868 47.165 38.9167 47.1659 38.9682C47.165 39.0197 47.1631 39.0711 47.1622 39.1226L47.1677 39.2797C47.174 39.3845 47.1803 39.4901 47.1947 39.594C47.2056 39.6978 47.2245 39.7999 47.2407 39.8992C47.2597 39.9976 47.2795 40.0934 47.3012 40.1828C47.3228 40.2731 47.3445 40.357 47.367 40.4347C47.4103 40.59 47.4536 40.7173 47.4852 40.8031C47.5006 40.8456 47.5141 40.8808 47.5213 40.8988C47.5303 40.9205 47.5348 40.9314 47.5348 40.9314V40.9323C47.6422 41.1977 47.5141 41.4994 47.2489 41.6068C46.9836 41.7143 46.6823 41.586 46.5749 41.3206C46.5677 41.3034 46.5605 41.2808 46.5551 41.2619Z" fill="#E9AC8A"/>
<path d="M34.6339 38.2866C33.9581 37.8947 33.093 38.125 32.7005 38.8013L32.687 38.8248C32.687 38.8248 32.6419 38.9034 32.5562 39.0506C32.4669 39.2014 32.336 39.4226 32.17 39.7044C31.8335 40.2669 31.3437 41.0697 30.7338 42.0115C30.123 42.9516 29.3923 44.0361 28.5668 45.1269C28.1545 45.6714 27.7179 46.2178 27.2641 46.728C27.0376 46.9826 26.8067 47.2282 26.5757 47.4531C26.3845 47.6391 26.1923 47.8107 26.0101 47.9534C25.9325 47.8278 25.8441 47.6725 25.7584 47.5046C25.5211 47.0422 25.2974 46.4932 25.1061 45.955C24.913 45.4141 24.7479 44.875 24.6054 44.3702C24.4259 43.7327 24.2815 43.1493 24.1678 42.6527C23.1701 43.1439 22.1398 43.5747 21.0969 43.9819C21.0283 44.0298 20.9588 44.0767 20.8912 44.1246C20.8217 44.1734 20.4112 44.5228 20.7757 44.1941C20.561 44.3874 20.312 44.5535 20.0819 44.7296C19.713 45.0122 19.3404 45.2904 18.9678 45.5676C19.0869 45.8322 19.215 46.1094 19.353 46.3993C19.6236 46.9636 19.9313 47.5732 20.2967 48.2206C20.6656 48.869 21.0815 49.5535 21.6427 50.2813C21.9269 50.6452 22.2444 51.0227 22.6675 51.4146C22.8796 51.6096 23.1195 51.8092 23.4145 52.0052C23.7086 52.1993 24.0605 52.3943 24.5035 52.5397C24.7236 52.612 24.9681 52.6689 25.227 52.6987C25.2919 52.7068 25.3569 52.7122 25.4237 52.7158L25.5797 52.7239L25.6149 52.723C25.6059 52.7221 25.7457 52.7239 25.8323 52.7194L25.9045 52.7158L25.9577 52.7113L26.0597 52.7005C26.5965 52.6336 26.9979 52.4702 27.3254 52.3068C27.6538 52.1397 27.9091 51.9627 28.1383 51.7875C28.3656 51.6114 28.5623 51.4354 28.7427 51.2611C29.1027 50.9116 29.4022 50.5658 29.6783 50.2217C29.9534 49.8786 30.2033 49.5372 30.4379 49.1977C30.907 48.5204 31.3184 47.8522 31.6973 47.202C32.4524 45.9035 33.0776 44.6808 33.5946 43.6252C34.1106 42.5705 34.5139 41.6847 34.7917 41.0598C34.9289 40.7455 35.0371 40.499 35.1111 40.331C35.1851 40.1577 35.2248 40.0647 35.2248 40.0647C35.5035 39.4199 35.26 38.6496 34.6339 38.2866ZM25.6122 48.2261C25.5301 48.2712 25.4606 48.2965 25.4444 48.2902C25.4282 48.2875 25.4643 48.2468 25.6239 48.217L25.6284 48.2161C25.623 48.2197 25.6167 48.2233 25.6122 48.2261Z" fill="#2F2B27"/>
<path d="M23.7717 34.6558C23.7717 34.6558 20.542 27.7415 22.257 26.0519C23.5958 24.7335 29.7422 26.4041 29.7422 26.4041C29.7422 26.4041 31.4058 36.3715 28.0299 36.19C25.0708 36.0302 23.7717 34.6558 23.7717 34.6558Z" fill="#E9AC8A"/>
<path d="M27.3163 34.5789C27.3163 34.5789 27.3262 34.7803 27.3425 35.0819C27.3596 35.3862 27.3849 35.7935 27.4174 36.1953C27.4498 36.5971 27.4895 36.9927 27.5256 37.2807C27.5437 37.4243 27.559 37.5426 27.5725 37.6221C27.5843 37.7024 27.5915 37.7494 27.5915 37.7494C27.7521 38.8285 27.0078 39.8326 25.9297 39.9934C24.8516 40.1541 23.8484 39.4091 23.6878 38.33C23.6589 38.1332 23.6598 37.939 23.6869 37.7521L23.6941 37.7097C23.6941 37.7097 23.7031 37.6519 23.7185 37.5516C23.7329 37.4496 23.7573 37.3096 23.7861 37.1417C23.8448 36.8075 23.9305 36.3741 24.0234 35.9479C24.1163 35.5217 24.2156 35.1018 24.2923 34.7866C24.3716 34.4696 24.424 34.2574 24.424 34.2574C24.6206 33.47 25.4173 32.9905 26.2039 33.1874C26.8454 33.3472 27.282 33.908 27.3154 34.5356L27.3163 34.5789Z" fill="#E9AC8A"/>
<path d="M31.0377 25.0633C31.0377 25.0633 31.0602 27.5881 29.9388 27.8626C28.8175 28.1371 28.3177 29.973 28.3177 29.973C28.3177 29.973 28.0362 29.954 27.4795 29.9152C26.9229 29.8772 26.6974 31.472 27.1854 32.0092C27.6735 32.5465 26.064 35.615 26.064 35.615C26.064 35.615 24.4221 36.1956 23.6336 35.5924C22.7495 34.916 21.1057 32.095 21.3764 28.3259C21.5171 26.3699 22.487 24.4953 23.9025 24.1964C27.743 23.3864 29.5798 25.196 31.0377 25.0633Z" fill="#D67B51"/>
<path d="M33.149 68.7397C33.149 68.7397 33.1499 69.4098 33.1508 70.5828C33.1526 71.1679 33.1553 71.8795 33.158 72.6949C33.1589 73.1031 33.1598 73.5365 33.1616 73.9934C33.1652 74.4504 33.1688 74.9317 33.1724 75.4328C33.1842 77.4393 33.1986 79.7808 33.213 82.2903C33.2203 83.5464 33.2275 84.844 33.2347 86.1624C33.2374 87.4907 33.2401 88.8407 33.2419 90.1907V90.6937L33.2383 91.212L33.2338 91.7294C33.2329 91.9028 33.2311 92.0735 33.2275 92.2396C33.2157 92.9106 33.2058 93.5806 33.1887 94.2398C33.1616 95.5618 33.1282 96.8558 33.0931 98.1092C33.0588 99.3608 33.0254 100.571 32.9938 101.718C32.9595 102.864 32.9271 103.947 32.8973 104.947C32.8395 106.946 32.7917 108.611 32.7583 109.777C32.7277 110.944 32.7096 111.61 32.7096 111.61C32.6844 112.559 31.895 113.309 30.9468 113.283C30.0528 113.26 29.3364 112.556 29.2778 111.681L29.2769 111.672C29.2769 111.672 29.2661 111.506 29.2462 111.196C29.2255 110.885 29.1957 110.429 29.1569 109.849C29.1163 109.27 29.0658 108.564 29.009 107.757C28.9503 106.949 28.8872 106.038 28.8069 105.043C28.7275 104.05 28.6409 102.974 28.5488 101.835C28.5019 101.266 28.4532 100.682 28.4036 100.085C28.3549 99.4881 28.3017 98.8777 28.2448 98.2591C28.188 97.6396 28.1302 97.0103 28.0716 96.3736C28.0121 95.737 27.9516 95.0932 27.8858 94.4466C27.8217 93.7982 27.7504 93.1499 27.6819 92.4979C27.6647 92.3336 27.6467 92.1737 27.6277 92.0157L27.5718 91.5389L27.5168 91.0621L27.4554 90.57L27.3923 90.0742L27.3769 89.9505L27.3688 89.8882L27.367 89.8729C27.367 89.8783 27.3643 89.8385 27.367 89.881L27.3625 89.8503L27.3246 89.6056C27.2741 89.2796 27.2236 88.9536 27.173 88.6285C27.0693 87.9774 26.9664 87.3282 26.8636 86.6843C26.657 85.3948 26.445 84.1261 26.2357 82.898C26.03 81.669 25.8234 80.4816 25.6222 79.3555C25.4219 78.2295 25.2325 77.1648 25.0584 76.1814C24.97 75.6902 24.8861 75.2188 24.8058 74.7709C24.7228 74.323 24.6434 73.8986 24.5694 73.4995C24.4205 72.7021 24.2906 72.0059 24.1833 71.4334C24.0741 70.8618 23.9875 70.4121 23.9289 70.106C23.8693 69.7999 23.8377 69.6373 23.8377 69.6373C23.3425 67.0881 25.006 64.6193 27.5529 64.1244C30.0997 63.6287 32.5662 65.2938 33.0606 67.843C33.1174 68.1338 33.1454 68.4237 33.1472 68.709L33.149 68.7397Z" fill="#E9E2DF"/>
<path d="M26.4693 70.1341C26.4693 70.1341 26.2762 70.7824 25.9379 71.9175C25.771 72.4855 25.568 73.1754 25.3352 73.9664C25.2189 74.362 25.0953 74.7828 24.9644 75.227C24.8363 75.6713 24.701 76.1382 24.5603 76.6258C24.2788 77.6011 23.9748 78.6567 23.6518 79.7737C23.4903 80.3318 23.3252 80.9061 23.1556 81.4921C22.9896 82.0791 22.82 82.6787 22.6468 83.2891C22.3022 84.5091 21.9458 85.7697 21.584 87.0501C21.4036 87.6904 21.2205 88.336 21.0382 88.9844C20.9471 89.3086 20.8551 89.6328 20.7631 89.9578L20.625 90.4455L20.616 90.4762C20.6133 90.4861 20.6214 90.4473 20.616 90.4708L20.6124 90.4861L20.5962 90.5475L20.5646 90.6703L20.5005 90.915C20.3237 91.5824 20.1794 92.1865 20.0224 92.8204C19.8708 93.4669 19.7157 94.1081 19.5704 94.7519C19.4215 95.394 19.279 96.0324 19.1401 96.6663C19.0011 97.3002 18.864 97.926 18.7287 98.541C18.5943 99.1568 18.4634 99.7636 18.3399 100.359C18.2154 100.954 18.0936 101.535 17.9754 102.102C17.7408 103.236 17.5198 104.308 17.315 105.298C17.1102 106.289 16.9316 107.198 16.7719 108.004C16.614 108.81 16.476 109.513 16.3623 110.091C16.2513 110.67 16.1638 111.125 16.1043 111.436C16.0456 111.746 16.0141 111.911 16.0141 111.911L16.0132 111.914C15.8363 112.846 14.9378 113.46 14.0049 113.283C13.1271 113.117 12.5335 112.301 12.6147 111.428C12.6147 111.428 12.6797 110.754 12.7933 109.576C12.9052 108.397 13.064 106.715 13.2553 104.696C13.35 103.685 13.4537 102.591 13.5629 101.432C13.6748 100.274 13.7938 99.0511 13.9156 97.7869C14.0365 96.5209 14.1691 95.2134 14.3081 93.8787C14.3739 93.2132 14.4515 92.5359 14.5246 91.8578C14.6067 91.1697 14.6897 90.4446 14.779 89.7899L14.8494 89.267L14.9116 88.7641C14.9531 88.429 14.9946 88.094 15.0352 87.7599C15.1173 87.0917 15.1994 86.4253 15.2806 85.7643C15.443 84.4432 15.6036 83.1419 15.7588 81.8831C15.8354 81.2537 15.9112 80.6352 15.9861 80.0292C16.0574 79.4224 16.1268 78.8291 16.1945 78.2521C16.3298 77.0972 16.4588 76.0054 16.577 74.9968C16.6357 74.4929 16.6925 74.0098 16.7466 73.5502C16.7981 73.0905 16.8468 72.6544 16.8928 72.2444C16.9848 71.4245 17.0651 70.7093 17.131 70.1214C17.2591 68.943 17.3321 68.2703 17.3321 68.2703C17.6109 65.6976 19.9213 63.8383 22.4925 64.1173C25.0628 64.3963 26.9203 66.709 26.6416 69.2825C26.6109 69.5616 26.5577 69.8316 26.4819 70.0916L26.4693 70.1341Z" fill="#E9E2DF"/>
<path d="M17.5865 63.567C17.5865 63.567 17.3817 66.583 17.2951 67.7109C17.1038 70.2059 21.6092 72.5916 25.2504 72.9221C28.8915 73.2526 32.9675 72.1717 33.1939 69.6794L32.9991 63.5363L17.5865 63.567Z" fill="#E9E2DF"/>
<path d="M29.2993 111.621C28.2952 115.257 29.2957 115.223 29.2957 115.223L39.9249 115.234C39.9249 115.234 40.3589 113.642 37.9781 113.431C36.4435 113.295 32.8673 111.624 32.8673 111.624L29.2993 111.621Z" fill="#544B3F"/>
<path d="M12.6101 111.525C11.5582 114.322 12.2339 115.126 12.2339 115.126L19.8428 115.145C19.8428 115.145 20.2857 113.394 17.8959 113.342C17.4701 113.333 15.885 111.529 15.885 111.529L12.6101 111.525Z" fill="#544B3F"/>
<path d="M16.8963 49.7109C17.425 56.2207 18.218 56.8655 17.1661 67.8353C17.1661 67.8353 22.2561 68.5468 25.6103 68.5288C28.8626 68.5107 33.138 68.275 33.138 68.275C33.138 68.275 33.6162 57.6665 34.0149 49.3389C34.2125 45.2221 37.5586 38.5055 24.802 37.5889C15.8886 36.9478 16.5364 45.2772 16.8963 49.7109Z" fill="#2F2B27"/>
<path d="M48.4975 40.9569C47.6377 40.4259 46.842 40.9514 46.381 41.6928C45.8045 42.6211 42.7841 46.2512 42.0515 47.0621C39.9314 49.4099 39.6003 50.5504 39.345 50.4033C38.8479 50.1152 38.5484 49.5887 38.1993 49.139C37.7852 48.6054 33.0145 40.0096 30.7799 39.8425C28.6075 39.68 26.8969 41.8301 27.5402 43.9133C27.8063 44.7757 33.093 52.8378 36.8199 55.3247C39.2557 56.9501 40.0668 55.9468 41.6004 54.828C42.7705 53.9747 43.6312 52.6951 44.4053 51.4914C45.2037 50.2506 45.9263 48.963 46.6174 47.6599C47.2687 46.4318 47.893 45.1875 48.4894 43.9314C48.9332 42.9949 49.7037 41.7018 48.4975 40.9569C47.8326 40.546 49.1137 41.337 48.4975 40.9569ZM39.1195 51.1591C39.0356 51.1934 39.2927 51.0688 39.2629 51.0778C39.2151 51.1049 39.1673 51.132 39.1195 51.1591C39.0906 51.1708 39.1547 51.1455 39.1195 51.1591Z" fill="#2F2B27"/>
<path d="M32.9936 38.7238C32.9241 37.7829 34.1357 35.082 34.4966 34.8111C34.8575 34.5402 36.8422 32.7341 36.8422 32.7341C36.8422 32.7341 37.6244 33.005 36.9324 33.7274C36.4823 34.1979 35.489 35.3529 35.489 35.6238C35.489 35.8947 35.7596 37.7007 36.1205 38.1522C36.4814 38.6037 36.4814 38.6037 36.4814 38.6037C36.4814 38.6037 35.3392 39.8381 34.7979 39.9284C34.2566 40.0187 33.0369 39.3008 32.9936 38.7238Z" fill="#E9AC8A"/>
<path d="M131.134 74.1912V79.4368H132.477V74.1912C133.909 74.2039 137.393 73.9926 139.561 71.8226C142.342 69.0387 141.903 64.0856 141.903 64.0856C141.903 64.0856 136.955 63.6459 134.173 66.4299C132.222 68.3831 131.856 71.4027 131.811 73.0318H131.801C131.756 71.4027 131.39 68.3831 129.439 66.4299C126.657 63.6459 121.709 64.0856 121.709 64.0856C121.709 64.0856 121.27 69.0387 124.051 71.8226C126.218 73.9926 129.702 74.2039 131.134 74.1912Z" fill="#6CBF84"/>
<path d="M171.368 78.838C170.733 88.1661 158.471 95.6069 143.434 95.6069C128.398 95.6069 116.135 88.1661 115.5 78.838H171.368Z" fill="#C0A9A8"/>
</svg>
