<svg width="190" height="125" viewBox="0 0 190 125" fill="none" xmlns="http://www.w3.org/2000/svg">
<path d="M160 60C176.569 60 190 46.5685 190 30C190 13.4315 176.569 0 160 0C143.431 0 130 13.4315 130 30C130 46.5685 143.431 60 160 60Z" fill="white"/>
<mask id="mask0" mask-type="alpha" maskUnits="userSpaceOnUse" x="130" y="0" width="60" height="61">
<path d="M160 60.0002C176.569 60.0002 190 46.5688 190 30.0002C190 13.4317 176.569 0.000244141 160 0.000244141C143.431 0.000244141 130 13.4317 130 30.0002C130 46.5688 143.431 60.0002 160 60.0002Z" fill="white"/>
</mask>
<g mask="url(#mask0)">
<path d="M165.737 33.0731C165.753 33.0529 153.398 33.848 153.398 33.848C153.3 34.871 153.239 36.5447 153.212 36.8246C153.135 37.5922 152.971 38.266 152.761 38.8634L152.861 38.7191C152.861 38.7191 155.885 43.4503 159.614 43.8096C163.281 43.4561 166.402 38.8778 166.502 38.7335C166.314 38.1679 166.167 37.5374 166.095 36.8261C166.069 36.5663 165.827 34.0052 165.737 33.0731Z" fill="#E0A48B"/>
<path d="M169.373 22.7017C169.124 24.615 167.978 25.0753 168.001 23.8719C168.027 22.5459 168.01 21.1189 167.93 19.373C167.76 15.5913 166.942 14.6375 165.55 14.8366C164.407 14.9982 154.74 14.9982 153.597 14.8366C152.203 14.6361 151.386 15.5913 151.216 19.373C151.137 21.1189 151.119 22.5459 151.145 23.8719C151.17 25.0753 150.609 23.9974 149.773 22.7017C149.238 22.4709 148.708 22.5993 148.856 24.185C149.186 27.7576 150.245 29.4861 151.502 29.4443C151.609 30.9723 151.487 31.4917 153.15 33.9288C155.112 36.4235 156.435 38.4147 159.573 38.4147C162.711 38.4147 164.035 36.4235 165.997 33.9288C167.659 31.4932 167.538 30.9723 167.645 29.4443C168.901 29.4847 169.96 27.7576 170.291 24.185C170.438 22.5993 169.907 22.4723 169.373 22.7017Z" fill="#F5B99F"/>
<path d="M159.5 7.96713C152.857 7.58765 151.907 11.7633 151.907 11.7633C151.907 11.7633 148.3 13.2827 149.249 18.4063C149.444 19.4596 149.257 21.1665 149.773 22.7018C150.454 24.7232 151.121 24.7593 151.125 24.5414C151.158 23.2154 151.135 21.1189 151.215 19.3731C151.385 15.5913 152.203 15.7399 153.595 15.939C154.786 16.1078 156.233 16.7427 159.671 16.698C162.541 16.6604 164.366 15.9188 165.555 15.75C166.949 15.5494 167.766 16.1829 167.955 19.9632C168.033 21.5128 167.962 24.791 167.884 25.6106C168.386 25.3783 168.91 24.69 169.242 23.3626C169.883 20.7885 170.22 18.0701 170.314 17.1279C170.506 15.2306 169.552 8.54139 159.5 7.96713Z" fill="#52362B"/>
<path d="M181.469 44.9089C177.222 43.4472 169.406 40.4489 168.624 39.9728C168.275 40.4403 159.459 42.3117 159.459 42.3117C159.459 42.3117 150.945 40.4403 150.596 39.9728C149.814 40.4504 141.999 43.4472 137.751 44.9089C135.337 45.74 133.473 47.6821 132.74 50.1278L130.349 61.2062H188.872L186.481 50.1278C185.748 47.6821 183.884 45.74 181.469 44.9089Z" fill="white"/>
<path d="M153.243 36.1234L150.609 39.9341C150.609 39.9341 150.479 41.7088 152.109 43.8096C153.479 45.5757 155.164 47.1109 155.164 47.1109L158.174 43.5817L159.614 42.3134C155.689 41.9339 153.243 36.1234 153.243 36.1234Z" fill="#F0F0F0"/>
<path d="M159.614 42.3132L161.498 43.8384L164.215 47.1108C164.215 47.1108 165.866 45.3115 167.206 43.8095C168.788 42.0376 168.769 39.9339 168.769 39.9339C168.769 39.9339 166.49 36.8822 166.033 36.1233C165.939 35.966 163.473 41.941 159.614 42.3132Z" fill="#F0F0F0"/>
<path d="M153.243 36.1235L150.609 39.9342C150.609 39.9342 151.005 41.1087 152.636 43.2095C154.005 44.9756 155.164 46.2323 155.164 46.2323L158.174 43.5818L159.614 42.3135C155.689 41.934 153.243 36.1235 153.243 36.1235Z" fill="white"/>
<path d="M159.614 42.3133L161.498 43.8384L164.215 46.2307C164.215 46.2307 165.866 44.6262 167.206 43.1227C168.788 41.3509 168.769 39.9325 168.769 39.9325C168.769 39.9325 166.49 36.8808 166.033 36.1219C165.939 35.9661 163.473 41.941 159.614 42.3133Z" fill="white"/>
<path d="M137.753 44.1442C135.339 44.9753 133.475 46.9174 132.742 49.3631L130.351 61.2062H157.708C156.317 58.7533 152.411 47.7297 152.129 37.6743C150.526 38.4304 141.699 42.785 137.753 44.1442Z" fill="#002135"/>
<path d="M181.469 44.1442C177.523 42.785 168.695 38.4304 167.092 37.6758C166.811 47.7312 162.905 58.7548 161.514 61.2077H188.871L186.48 49.3645C185.748 46.9174 183.884 44.9753 181.469 44.1442Z" fill="#002135"/>
</g>
<path d="M94.9999 59.9999C111.568 59.9999 125 46.5685 125 30C125 13.4314 111.568 0 95 0C78.4314 0 65 13.4314 65 30C65 46.5685 78.4314 59.9999 94.9999 59.9999Z" fill="white"/>
<mask id="mask1" mask-type="alpha" maskUnits="userSpaceOnUse" x="65" y="0" width="60" height="61">
<path d="M94.9999 60.0002C111.568 60.0002 125 46.5687 125 30.0002C125 13.4317 111.568 0.000244141 95 0.000244141C78.4314 0.000244141 65 13.4317 65 30.0002C65 46.5687 78.4314 60.0002 94.9999 60.0002Z" fill="white"/>
</mask>
<g mask="url(#mask1)">
<path d="M106.098 19.0819C106.109 19.1402 106.12 19.2 106.131 19.2597C106.12 19.2 106.109 19.1402 106.098 19.0819Z" fill="#002135"/>
<path d="M105.807 17.8677C105.901 18.1835 105.98 18.5085 106.051 18.8412C105.979 18.4932 105.896 18.1513 105.796 17.8232C105.799 17.8386 105.803 17.8524 105.807 17.8677Z" fill="#002135"/>
<path d="M106.051 18.8412C106.068 18.9209 106.083 19.0006 106.098 19.0819C106.083 19.0006 106.066 18.9209 106.051 18.8412Z" fill="#002135"/>
<path d="M106.131 19.2596C106.152 19.3838 106.175 19.508 106.193 19.6337C106.175 19.508 106.154 19.3838 106.131 19.2596Z" fill="#002135"/>
<path d="M105.807 17.8677C105.212 15.8533 104.112 14.2421 102.128 13.7469C102.128 13.7469 99.6979 9.04964 90.5901 11.5684C80.2313 14.4337 80.8123 24.0352 80.7939 28.826C80.7755 33.3117 80.0872 47.2349 80.0872 47.2349C80.0872 47.2349 85.3164 46.6247 91.2677 47.0463C91.3505 46.5327 91.8472 38.4827 91.8549 38.0642C89.4694 36.6767 87.7539 34.2469 87.7539 34.2469C85.367 30.6764 86.0201 25.4533 86.0201 25.4533C86.0201 25.4533 93.0292 23.9248 94.947 22.9697C99.8988 20.5015 102.31 20.1474 102.31 20.1474C102.31 20.1474 105.287 29.4576 102.022 34.2469C102.022 34.2469 100.734 36.0697 98.841 37.4601C98.8548 38.0274 98.3979 47.1306 98.5037 47.612C104.938 46.3534 108.226 48.1578 108.226 48.1578C108.226 48.1578 106.656 22.6432 106.21 19.7043C106.089 19.0881 105.956 18.4764 105.807 17.8677Z" fill="#002135"/>
<path d="M99.7256 36.3135C98.8747 36.8087 96.8787 38.2681 95.9037 38.3402H95.361C95.3272 38.3371 95.292 38.3325 95.2583 38.3279C95.2245 38.331 95.1893 38.3371 95.1555 38.3402H94.6128C93.6378 38.2696 91.6418 37.4173 90.7909 36.9206C90.7848 37.3391 90.6116 41.3572 89.5308 42.2034C89.4127 42.2862 86.6348 44.2531 84.1252 45.3094C85.9112 47.1138 91.2279 49.6909 94.9425 49.6326C94.9425 49.6326 95.0544 49.6341 95.2583 49.6188C95.4622 49.6341 95.5741 49.6326 95.5741 49.6326C99.2887 49.6909 104.605 47.1138 106.391 45.3094C103.882 44.2531 101.104 42.2862 100.986 42.2034C99.9065 41.3572 99.7332 36.7335 99.7256 36.3135Z" fill="#8C5D4B"/>
<path d="M94.9425 22.9712C93.0246 23.9263 86.0155 25.4547 86.0155 25.4547C86.0155 25.4547 85.364 30.6778 87.7494 34.2483C87.7494 34.2483 89.4664 36.6782 91.8503 38.0656C92.7012 38.5608 93.6363 38.9272 94.6113 38.9977H95.154C96.4955 38.9011 97.7618 38.2496 98.8349 37.4601C100.728 36.0696 102.016 34.2468 102.016 34.2468C105.281 29.4575 102.32 19.3823 102.32 19.3823C102.32 19.3823 99.8958 20.503 94.9425 22.9712Z" fill="#9C6753"/>
<path d="M112.996 47.5615L104.789 44.4172C104.789 44.4172 103.291 47.5646 95.2582 47.5646C88.0713 47.5646 85.9342 44.313 85.9342 44.313L77.9347 46.6064C76.0506 47.2074 74.4854 48.5365 73.5885 50.298C71.2798 54.8282 71.6584 63.5681 70.7371 65.509C80.1316 65.5718 86.3328 65.4906 94.7462 65.4906C103.087 65.4906 110.415 65.4906 119.263 65.4906C118.729 64.2871 118.659 56.2248 116.994 51.7667C116.29 49.8795 114.846 48.3618 112.996 47.5615Z" fill="#C0A9A8"/>
</g>
<path d="M160 125C176.569 125 190 111.569 190 95C190 78.4315 176.569 65 160 65C143.432 65 130 78.4315 130 95C130 111.569 143.431 125 160 125Z" fill="white"/>
<mask id="mask2" mask-type="alpha" maskUnits="userSpaceOnUse" x="130" y="65" width="61" height="60">
<path d="M160 125C176.569 125 190 111.569 190 95C190 78.4315 176.569 65 160 65C143.432 65 130 78.4315 130 95C130 111.569 143.431 125 160 125Z" fill="white"/>
</mask>
<g mask="url(#mask2)">
<path d="M151.986 76.2681C147.717 79.9544 141.788 99.8855 154.489 100.33H166.283C166.283 100.33 179.286 98.7529 170.453 78.622C167.95 72.9212 157.073 71.8772 151.986 76.2681Z" fill="#9C6753"/>
<path d="M165.514 99.3854C164.615 99.9081 161.71 101.753 160.681 101.826H160.109C160.073 101.823 160.037 101.817 160.001 101.814C159.964 101.819 159.928 101.825 159.892 101.826H159.32C158.291 101.751 155.386 100.853 154.487 100.33C154.48 100.772 154.298 105.01 153.158 105.902C153.033 105.989 150.903 108.064 148.256 109.178C150.14 111.081 155.748 113.799 159.666 113.739C159.666 113.739 159.783 113.74 159.999 113.724C160.214 113.739 160.333 113.739 160.333 113.739C164.25 113.799 169.858 111.081 171.742 109.178C169.095 108.064 166.966 105.989 166.84 105.902C165.703 105.01 165.521 99.827 165.514 99.3854Z" fill="#E0A48B"/>
<path d="M179.463 111.394L168.92 106.997C168.92 106.997 168.748 110.918 160.274 110.918C152.694 110.918 152.114 106.838 152.114 106.838L141.522 110.389C139.535 111.023 137.884 112.425 136.937 114.283C134.502 119.061 134.9 127.8 133.93 129.847C143.84 129.915 150.86 129.827 159.735 129.827C168.533 129.827 176.741 129.827 186.073 129.827C185.509 128.558 185.434 120.535 183.68 115.832C182.936 113.838 181.414 112.238 179.463 111.394Z" fill="#6CBF84"/>
<path d="M164.382 80.9351L150.673 83.4392C150.673 83.4392 149.249 93.585 152.906 98.9388C152.906 98.9388 154.636 101.389 157.043 102.789C157.902 103.289 158.844 103.657 159.828 103.729H160.374C161.726 103.632 163.005 102.974 164.088 102.179C165.997 100.778 166.762 99.9468 167.295 98.9388C170.888 92.1609 169.425 82.9795 169.425 82.9795L164.382 80.9351Z" fill="#F5B99F"/>
<path d="M149.237 87.919C148.663 88.619 149.694 96.5506 151.986 94.8787L150.648 88.5274C150.648 88.5274 149.805 87.2265 149.237 87.919Z" fill="#F5B99F"/>
<path d="M168.539 88.5918L168.016 94.8786C170.307 96.5505 171.339 88.6189 170.765 87.9189C170.197 87.2263 168.539 88.5918 168.539 88.5918Z" fill="#F5B99F"/>
<path d="M161.398 73.588C145.416 74.0852 151.08 91.3634 151.091 91.2042C151.219 89.1838 152.33 84.8664 155.583 84.7147C160.173 84.4999 163.942 83.4904 165.479 82.1129C165.479 82.1129 166.891 84.3106 168.016 86.5504C168.841 88.1908 169.401 89.7396 169.25 91.5362C169.23 91.6038 176.591 73.1163 161.398 73.588Z" fill="#9C6753"/>
<path d="M153.902 104.2L150.597 107.225C153.736 111.775 157.594 114.679 157.594 114.679L159.937 110.918C156.52 108.062 153.902 104.2 153.902 104.2Z" fill="#F5F5F5"/>
<path d="M160.065 110.918L162.408 114.679C162.408 114.679 166.266 111.775 169.406 107.225L166.101 104.2C166.101 104.2 163.483 108.062 160.065 110.918Z" fill="#F5F5F5"/>
<path d="M169.514 87.5137C169.509 87.5122 169.506 87.5092 169.502 87.5077L169.515 87.4957C169.515 87.4957 167.994 86.9849 166.137 86.9459L166.168 86.9564C165.907 86.9414 165.623 86.9338 165.317 86.9338C165.183 86.9338 165.045 86.9353 164.902 86.9383C163.628 86.9624 162.719 87.075 162.099 87.3109C162.009 87.3409 161.902 87.38 161.784 87.4266C161.422 87.5723 160.58 87.7811 160.259 87.7946C159.934 87.7826 159.036 87.5723 158.674 87.4266C158.545 87.374 158.426 87.3334 158.332 87.3019C157.713 87.0705 156.81 86.9624 155.553 86.9383C155.41 86.9353 155.272 86.9338 155.138 86.9338C154.86 86.9338 154.603 86.9398 154.363 86.9519L154.382 86.9444C152.526 86.9834 151.004 87.4942 151.004 87.4942C150.956 87.4942 150.912 87.5137 150.881 87.5437L150.347 87.9809L150.445 88.5953L151.005 88.3895H151.085C151.085 88.3895 151.334 88.4661 151.361 88.8401C151.369 88.9348 151.379 89.0024 151.393 89.0489C151.397 89.3344 151.441 89.6528 151.525 90.0119C152.001 92.0233 152.743 93.3618 154.819 93.3618C155.126 93.3618 155.464 93.3317 155.824 93.2716C157.387 93.0133 159.179 91.8671 159.43 89.4891L159.44 89.5206C159.44 89.465 159.44 89.4125 159.443 89.3629C159.446 89.3253 159.448 89.2878 159.449 89.2517C159.503 88.5818 160.097 88.5157 160.23 88.5172V88.5232C160.23 88.5232 160.241 88.5202 160.257 88.5187C160.277 88.5202 160.289 88.5232 160.289 88.5232V88.5172C160.405 88.5172 160.927 88.5863 160.999 89.1466C161.004 89.2427 161.01 89.3359 161.019 89.4275C161.019 89.4575 161.02 89.4891 161.019 89.5206L161.026 89.4996C161.28 91.8716 163.071 93.0148 164.63 93.2716C164.991 93.3317 165.329 93.3618 165.635 93.3618C167.71 93.3618 168.452 92.0233 168.93 90.0119C169.02 89.6288 169.065 89.2908 169.063 88.9904C169.071 88.9498 169.077 88.9002 169.081 88.8386C169.108 88.4646 169.358 88.388 169.358 88.388H169.437C169.448 88.388 169.457 88.3835 169.466 88.382L170.031 89.1841L170.218 88.5577L169.514 87.4927V87.5137ZM155.74 92.7263C155.414 92.7804 155.112 92.8075 154.84 92.8075C153.117 92.8075 152.53 91.7469 152.096 89.9127C151.904 89.1015 151.946 88.5577 152.23 88.2002C152.617 87.7105 153.517 87.4927 155.151 87.4927C155.279 87.4927 155.41 87.4942 155.545 87.4957C158.617 87.5527 158.874 88.1656 158.88 88.9017C158.91 92.0428 156.269 92.6377 155.74 92.7263ZM168.365 89.9127C167.931 91.7454 167.343 92.8075 165.62 92.8075C165.348 92.8075 165.046 92.7804 164.72 92.7263C164.19 92.6392 161.549 92.0428 161.581 88.9017C161.588 88.1656 161.844 87.5527 164.916 87.4957C165.051 87.4927 165.182 87.4927 165.309 87.4927C166.942 87.4927 167.843 87.7105 168.231 88.2002C168.515 88.5577 168.557 89.103 168.365 89.9127Z" fill="#025E75"/>
</g>
<path d="M95 125C111.569 125 125 111.569 125 95C125 78.4314 111.569 65 95 65C78.4315 65 65 78.4314 65 95C65 111.569 78.4315 125 95 125Z" fill="white"/>
<mask id="mask3" mask-type="alpha" maskUnits="userSpaceOnUse" x="65" y="65" width="60" height="60">
<path d="M95 125C111.569 125 125 111.569 125 95C125 78.4314 111.569 65 95 65C78.4315 65 65 78.4314 65 95C65 111.569 78.4315 125 95 125Z" fill="white"/>
</mask>
<g mask="url(#mask3)">
<path d="M101.011 98.1395C101.027 98.1192 88.6729 98.9147 88.6729 98.9147C88.5747 99.9387 88.5155 101.613 88.4867 101.892C88.4106 102.659 88.2464 103.332 88.0365 103.931L88.1364 103.787C88.1364 103.787 91.1609 108.518 94.8895 108.877C98.5572 108.523 101.678 103.945 101.778 103.801C101.59 103.234 101.443 102.606 101.372 101.894C101.345 101.631 101.103 99.0704 101.011 98.1395Z" fill="#E0A48B"/>
<path d="M104.649 87.7676C104.398 89.6819 103.252 90.1406 103.278 88.9372C103.305 87.6102 103.286 86.1851 103.208 84.4384C103.037 80.6574 102.22 79.7028 100.827 79.9025C99.6844 80.065 90.0167 80.065 88.8743 79.9025C87.4813 79.7028 86.6638 80.6574 86.4929 84.4384C86.415 86.1851 86.3964 87.6102 86.4235 88.9372C86.4472 90.1406 85.887 89.0641 85.0525 87.7676C84.5177 87.5375 83.9879 87.6661 84.1352 89.2503C84.4669 92.8232 85.5248 94.5513 86.7823 94.5107C86.8889 96.039 86.7671 96.5586 88.4291 98.9941C90.3908 101.489 91.7143 103.481 94.8523 103.481C97.9902 103.481 99.3137 101.491 101.275 98.9941C102.937 96.5586 102.816 96.0373 102.922 94.5107C104.18 94.5513 105.238 92.8232 105.569 89.2503C105.713 87.6644 105.183 87.5375 104.649 87.7676Z" fill="#F5B99F"/>
<path d="M95.7679 71.8189C89.8491 71.516 86.9972 73.4116 85.2218 75.6119C84.12 76.9778 84.037 79.4082 84.5245 83.472C84.6514 84.5349 84.8968 87.2277 85.0491 87.7676C85.628 89.8206 86.3964 89.8257 86.4015 89.6074C86.4353 88.2804 86.4759 86.1868 86.4912 84.4384C86.5132 81.9859 87.9264 81.3309 89.3194 81.5306C90.5092 81.6999 93.3425 82.2415 96.7817 82.1975C99.6522 82.1603 100.5 80.8976 100.832 80.8164C102.199 80.4796 103.042 81.248 103.23 85.0291C103.308 86.5794 103.239 89.8579 103.161 90.6754C103.664 90.4435 104.188 89.7546 104.518 88.4277C105.16 85.8533 105.326 80.5811 105.283 79.635C105.1 75.5357 102.133 72.1456 95.7679 71.8189Z" fill="#C7AA69"/>
<path d="M116.745 109.974C112.499 108.511 104.682 105.514 103.9 105.036C103.552 105.504 94.7355 107.376 94.7355 107.376C94.7355 107.376 86.2204 105.504 85.8718 105.036C85.0898 105.514 77.2755 108.511 73.0272 109.974C70.6137 110.805 68.7485 112.748 68.0157 115.193L65.6241 126.273H124.146L121.755 115.193C121.024 112.748 119.159 110.805 116.745 109.974Z" fill="#025E75"/>
<path d="M88.5188 101.189L85.8853 105.001C85.8853 105.001 86.283 106.175 87.9112 108.276C89.2805 110.041 90.4398 111.299 90.4398 111.299L93.4491 108.648L94.8895 107.38C90.9645 107 88.5188 101.189 88.5188 101.189Z" fill="#D8E7F0"/>
<path d="M94.8895 107.379L96.7733 108.904L99.4915 111.297C99.4915 111.297 101.143 109.693 102.484 108.19C104.065 106.418 104.046 105 104.046 105C104.046 105 101.768 101.948 101.311 101.188C101.214 101.031 98.7485 107.005 94.8895 107.379Z" fill="#D8E7F0"/>
</g>
<path d="M30 60.0001C46.5686 60.0001 60 46.5686 60 30.0001C60 13.4316 46.5685 0.00012207 30 0.00012207C13.4315 0.00012207 9.05758e-06 13.4316 2.02307e-05 30.0001C3.14038e-05 46.5686 13.4315 60.0001 30 60.0001Z" fill="white"/>
<mask id="mask4" mask-type="alpha" maskUnits="userSpaceOnUse" x="0" y="0" width="60" height="60">
<path d="M30 60C46.5686 60 60 46.5685 60 30C60 13.4315 46.5685 0 30 0C13.4315 0 9.05757e-06 13.4315 2.02307e-05 30C3.14037e-05 46.5685 13.4315 60 30 60Z" fill="white"/>
</mask>
<g mask="url(#mask4)">
<path d="M36.2034 38.7261C35.1922 39.3148 31.9226 41.39 30.7654 41.4738H30.1207C30.0803 41.4707 30.04 41.4645 29.9996 41.4599C29.9592 41.4645 29.9173 41.4707 29.8784 41.4738H29.2338C28.0766 41.39 24.8069 40.3772 23.7957 39.7901C23.788 40.2871 23.5829 45.0557 22.2999 46.0607C22.1601 46.1586 19.7634 48.4932 16.7842 49.7467C18.9044 51.8887 25.2154 54.9471 29.6237 54.8788C29.6237 54.8788 29.7557 54.8803 29.998 54.8617C30.2403 54.8788 30.3724 54.8788 30.3724 54.8788C34.7806 54.9471 41.0916 51.8887 43.2119 49.7467C40.2327 48.4932 37.8375 46.1586 37.6961 46.0607C36.4162 45.0542 36.2112 39.2231 36.2034 38.7261Z" fill="#EDBFAA"/>
<path d="M51.8995 52.238L40.0354 47.2908C40.0354 47.2908 39.8397 51.7021 30.3056 51.7021C21.7749 51.7021 21.1241 47.1106 21.1241 47.1106L9.2057 51.1072C6.96896 51.8217 5.11278 53.3983 4.04722 55.489C1.30721 60.8665 1.75611 70.6989 0.662598 73.0024C11.8137 73.0785 19.7137 72.9807 29.6998 72.9807C39.6005 72.9807 48.8379 72.9807 59.3382 72.9807C58.7044 71.5516 58.6206 62.5239 56.6448 57.2318C55.8091 54.9889 54.0958 53.1871 51.8995 52.238Z" fill="#00998E"/>
<path d="M34.9297 17.9631L19.5024 20.7808C19.5024 20.7808 17.9009 32.1975 22.014 38.2227C22.014 38.2227 23.9619 40.9798 26.6693 42.5548C27.6354 43.1171 28.6963 43.5319 29.8022 43.6126H30.4173C31.9396 43.5024 33.3764 42.763 34.5957 41.8683C36.7439 40.2901 37.6044 39.3551 38.2055 38.2227C42.2488 30.5961 40.6023 20.2636 40.6023 20.2636L34.9297 17.9631Z" fill="#F5CFBF"/>
<path d="M17.8885 25.8228C17.2424 26.6103 18.4027 35.5355 20.9811 33.6545L19.4744 26.5078C19.4744 26.5063 18.5269 25.0431 17.8885 25.8228Z" fill="#F5CFBF"/>
<path d="M39.6081 26.5794L39.0194 33.6546C41.5979 35.5357 42.7582 26.6105 42.112 25.823C41.4736 25.0432 39.6081 26.5794 39.6081 26.5794Z" fill="#F5CFBF"/>
<path d="M31.5715 10.4172C15.9733 10.4172 18.5564 22.1974 19.2523 29.5724C19.2694 29.7511 19.5257 29.7573 19.5536 29.5802C19.8985 27.3885 21.3679 22.3885 25.0274 22.2161C30.1937 21.9737 34.4342 20.8383 36.163 19.2881C36.163 19.2881 37.752 21.7609 39.0179 24.2819C39.9453 26.1288 40.7002 27.7318 40.5293 29.7526C40.5309 29.7542 47.4927 10.4172 31.5715 10.4172Z" fill="#002135"/>
<path d="M26.1676 8.69472C23.6653 10.7715 25.2729 13.7895 25.2729 13.7895C25.2729 13.7895 35.506 18.8378 36.8124 12.7861C38.1202 6.736 29.3394 6.06032 26.1676 8.69472Z" fill="#002135"/>
</g>
<path d="M30 125C46.5685 125 60 111.569 60 95C60 78.4315 46.5685 65 30 65C13.4315 65 0 78.4315 0 95C0 111.569 13.4315 125 30 125Z" fill="white"/>
<mask id="mask5" mask-type="alpha" maskUnits="userSpaceOnUse" x="0" y="65" width="60" height="60">
<path d="M30 125C46.5685 125 60 111.569 60 95C60 78.4315 46.5685 65 30 65C13.4315 65 0 78.4315 0 95C0 111.569 13.4315 125 30 125Z" fill="white"/>
</mask>
<g mask="url(#mask5)">
<path d="M36.1251 98.3052C36.1409 98.2851 23.7863 99.0794 23.7863 99.0794C23.6875 100.103 23.6288 101.777 23.6002 102.056C23.5229 102.823 23.3598 103.497 23.1494 104.095L23.2496 103.951C23.2496 103.951 26.2735 108.682 30.0029 109.041C33.6708 108.688 36.792 104.11 36.8908 103.965C36.7033 103.398 36.5559 102.77 36.4844 102.058C36.4586 101.798 36.2167 99.2368 36.1251 98.3052Z" fill="#996551"/>
<path d="M39.7614 87.9342C39.5124 89.8475 38.3661 90.3084 38.3904 89.1034C38.4176 87.7768 38.399 86.35 38.3203 84.604C38.15 80.8231 37.3314 79.8685 35.939 80.0689C34.7969 80.2306 25.1285 80.2306 23.9865 80.0689C22.5926 79.8685 21.7754 80.8231 21.6051 84.604C21.5264 86.35 21.5078 87.7768 21.535 89.1034C21.5593 90.3069 20.9984 89.2293 20.164 87.9342C19.6288 87.7038 19.0993 87.8311 19.2467 89.4168C19.5773 92.9902 20.6363 94.7176 21.8928 94.6761C21.9987 96.203 21.8785 96.7239 23.54 99.1597C25.502 101.655 26.8258 103.646 29.9641 103.646C33.1025 103.646 34.4263 101.655 36.3883 99.1597C38.0498 96.7239 37.9296 96.203 38.0355 94.6761C39.292 94.7161 40.351 92.9888 40.6816 89.4168C40.8261 87.8326 40.2966 87.7038 39.7614 87.9342Z" fill="#B3765F"/>
<path d="M30.8815 71.9861C26.3721 71.6297 24.5847 73.4701 24.2971 73.8522C24.0008 74.2472 21.9257 74.0497 20.3358 76.371C19.344 77.8192 19.1523 80.1662 19.6389 84.2305C19.7662 85.2938 20.4217 88.0444 20.5748 88.5853C21.153 90.6375 21.5093 89.9921 21.515 89.7731C21.5494 88.4465 21.5894 86.3528 21.6037 84.6055C21.6252 82.1526 23.0391 81.4986 24.433 81.6975C25.6237 81.8664 28.4558 82.4087 31.8947 82.3644C34.7641 82.3272 35.6141 81.0649 35.9462 80.9819C37.3143 80.6442 38.1572 81.4141 38.3447 85.1951C38.4234 86.745 38.3533 90.0236 38.2746 90.8422C38.7769 90.6103 39.1032 89.922 39.4337 88.5939C40.0749 86.0194 40.4398 80.7472 40.3969 79.8013C40.2151 75.7041 37.2356 72.4898 30.8815 71.9861Z" fill="#002135"/>
<path d="M51.8585 110.14C47.611 108.678 39.7958 105.681 39.0144 105.204C38.6652 105.672 29.8483 107.544 29.8483 107.544C29.8483 107.544 21.3333 105.672 20.9841 105.204C20.2027 105.681 12.3875 108.679 8.14002 110.14C5.72576 110.972 3.86248 112.914 3.12833 115.36L0.738403 126.439H59.2601L56.8687 115.361C56.136 112.914 54.2727 110.972 51.8585 110.14Z" fill="#F26968"/>
<path d="M34.6782 95.698C34.1587 96.1016 33.2843 95.1971 32.3312 94.8737C31.7831 94.6877 30.1803 94.443 29.9613 94.4329C29.9613 94.4329 28.058 94.6891 27.5099 94.8737C26.5567 95.1957 25.6823 96.1016 25.1629 95.698C24.2727 95.0068 22.2792 93.9779 21.5336 89.105L20.8882 88.8774C20.8882 88.8774 21.5851 95.9642 22.2721 97.278C23.1507 98.9581 25.0398 101.774 26.3249 102.813C27.0662 103.412 28.8565 103.871 29.8797 103.944V103.95C29.8926 103.95 29.9084 103.947 29.9212 103.947C29.9341 103.948 29.9499 103.95 29.9627 103.95V103.944C30.986 103.871 32.7763 103.413 33.5176 102.813C34.8027 101.776 36.3855 99.1627 37.5704 97.278C38.359 96.0229 38.9543 88.8774 38.9543 88.8774L38.3089 89.105C37.5619 93.9779 35.5683 95.0068 34.6782 95.698Z" fill="#002135"/>
<path d="M32.9452 97.7715H27.1636C29.9814 101.676 32.9452 97.7715 32.9452 97.7715Z" fill="#B3765F"/>
<path d="M23.6316 101.356L20.9969 105.167C20.9969 105.167 21.3948 106.341 23.0234 108.442C24.3929 110.208 25.5507 111.464 25.5507 111.464L28.5603 108.814L30.0014 107.546C26.0788 107.167 23.6316 101.356 23.6316 101.356Z" fill="#D8E7F0"/>
<path d="M30.0028 107.546L31.8876 109.071L34.6052 111.464C34.6052 111.464 36.2567 109.86 37.5976 108.357C39.179 106.586 39.1604 105.167 39.1604 105.167C39.1604 105.167 36.8821 102.116 36.4256 101.356C36.3283 101.198 33.8625 107.172 30.0028 107.546Z" fill="#D8E7F0"/>
</g>
</svg>
