<svg width="335" height="155" viewBox="0 0 335 155" fill="none" xmlns="http://www.w3.org/2000/svg">
<path opacity="0.7" d="M301.189 140.648C301.189 140.648 0 142.834 0 145.764C19.7258 161.571 333.005 154.02 335 145.764C335 142.834 302.426 140.648 301.189 140.648Z" fill="#E9E2DF"/>
<path d="M124.082 0H64.3067C60.5074 0 57.4285 2.975 57.4285 6.64589V137.921C57.4285 141.591 60.5085 144.567 64.3067 144.567H124.082C127.882 144.567 130.961 141.592 130.961 137.921V6.64589C130.961 2.975 127.882 0 124.082 0Z" fill="white"/>
<path d="M127.849 11.1624H60.5402V134.027H127.849V11.1624Z" fill="#E9E2DF"/>
<path d="M127.849 11.1624H60.5402V16.5708H127.849V11.1624Z" fill="#544B3F"/>
<path d="M100.61 4.78619H81.8155C81.1684 4.78619 80.644 5.29297 80.644 5.91906V5.99239C80.644 6.61847 81.1684 7.12525 81.8155 7.12525H100.61C101.257 7.12525 101.781 6.61847 101.781 5.99239V5.91906C101.782 5.29297 101.257 4.78619 100.61 4.78619Z" fill="#A6C9CF"/>
<path d="M106.499 4.66974C105.81 4.66974 105.252 5.24438 105.252 5.95365C105.252 6.66292 105.81 7.23756 106.499 7.23756C107.188 7.23756 107.746 6.66292 107.746 5.95365C107.746 5.24438 107.188 4.66974 106.499 4.66974Z" fill="#A6C9CF"/>
<path d="M94.7572 57.4485C102.686 57.4485 109.114 51.025 109.114 43.1013C109.114 35.1775 102.686 28.7541 94.7572 28.7541C86.8279 28.7541 80.4 35.1775 80.4 43.1013C80.4 51.025 86.8279 57.4485 94.7572 57.4485Z" fill="#6CBF84"/>
<path d="M93.3001 48.5077C92.9276 48.5077 92.5541 48.3658 92.2701 48.0811L87.276 43.0904C86.7071 42.5218 86.7071 41.6004 87.276 41.0318C87.8449 40.4633 88.767 40.4633 89.336 41.0318L93.3001 44.9932L100.177 38.1209C100.746 37.5524 101.668 37.5524 102.237 38.1209C102.806 38.6895 102.806 39.6109 102.237 40.1795L94.3301 48.0811C94.0461 48.3658 93.6736 48.5077 93.3001 48.5077Z" fill="white"/>
<path d="M116.84 61.3723C116.84 61.3723 116.968 61.357 117.21 61.3296C117.453 61.3045 117.81 61.2596 118.264 61.2136C118.719 61.1655 119.272 61.1086 119.905 61.0419C120.536 60.9773 121.25 60.904 122.029 60.8241C122.804 60.7432 123.643 60.6545 124.531 60.5615C125.415 60.4685 126.346 60.3657 127.299 60.253C127.776 60.195 128.258 60.137 128.742 60.0735C129.227 60.0101 129.711 59.939 130.195 59.8689C130.673 59.7934 131.156 59.7136 131.614 59.6249C132.068 59.5374 132.525 59.4389 132.883 59.3295L132.918 59.3197L132.935 59.3153C132.951 59.3109 132.832 59.3416 132.888 59.3273L132.9 59.324L132.994 59.2956L133.041 59.2814L133.066 59.2748C133.069 59.2737 133.069 59.2726 133.071 59.2715C133.076 59.2682 133.083 59.265 133.088 59.2617C133.097 59.2573 133.095 59.2584 133.113 59.2507L133.165 59.2289L133.219 59.2081L133.277 59.1829C133.432 59.1162 133.609 59.0352 133.793 58.9411C134.16 58.754 134.558 58.5374 134.954 58.3032C135.352 58.068 135.752 57.8207 136.151 57.5679C136.55 57.3141 136.944 57.0526 137.333 56.7944C138.112 56.2735 138.866 55.7516 139.581 55.2483C140.297 54.7461 140.973 54.2625 141.598 53.8139C142.849 52.9123 143.891 52.1606 144.62 51.6343C144.984 51.3728 145.269 51.1671 145.464 51.026C145.654 50.8914 145.754 50.8192 145.754 50.8192L145.792 50.7929C147.147 49.8279 149.029 50.1452 149.994 51.4998C150.896 52.7668 150.667 54.5032 149.525 55.5109C149.525 55.5109 149.42 55.6028 149.224 55.7746C149.03 55.9398 148.752 56.1838 148.389 56.4825C148.026 56.7823 147.587 57.1467 147.074 57.5504C146.561 57.9564 145.98 58.4115 145.334 58.8962C144.042 59.8646 142.507 60.962 140.763 62.0693C140.327 62.3472 139.875 62.6218 139.408 62.8976C138.942 63.1733 138.458 63.4457 137.951 63.7127C137.443 63.9797 136.915 64.2444 136.331 64.4939C136.039 64.6186 135.733 64.7412 135.397 64.8594L135.271 64.9031L135.138 64.9458L135.005 64.9885L134.84 65.0377L134.67 65.0859L134.628 65.0968L134.604 65.1023L134.556 65.1132L134.459 65.1362L134.376 65.157L134.345 65.1624L134.285 65.1745C133.623 65.3123 133.04 65.3846 132.46 65.4513C131.882 65.518 131.328 65.552 130.778 65.5892C130.233 65.6209 129.695 65.6439 129.169 65.657C128.642 65.6723 128.125 65.6811 127.618 65.6811C126.604 65.6865 125.632 65.669 124.711 65.6428C123.792 65.6165 122.924 65.5728 122.125 65.529C121.326 65.4885 120.596 65.4338 119.947 65.3835C119.3 65.3364 118.735 65.2806 118.271 65.2358C117.807 65.1931 117.441 65.1482 117.191 65.1209C116.94 65.0902 116.806 65.0738 116.806 65.0738C115.785 64.9502 115.056 64.0234 115.18 63.0026C115.285 62.1316 115.977 61.4741 116.813 61.3767L116.84 61.3723Z" fill="#F0AF8B"/>
<path opacity="0.05" d="M147.084 55.4355C144.882 56.8765 142.679 58.3755 140.329 59.567C138.158 60.6688 135.857 61.5343 133.488 62.1033C130.154 62.9053 123.52 63.1668 120.099 63.2565C118.234 63.9896 119.553 64.6483 117.619 65.1647C117.809 65.1855 118.029 65.2095 118.279 65.2325C118.743 65.2763 119.308 65.3321 119.955 65.3802C120.602 65.4306 121.334 65.4853 122.133 65.5258C122.932 65.5706 123.8 65.6144 124.719 65.6396C125.639 65.6658 126.612 65.6833 127.626 65.6778C128.133 65.6778 128.65 65.668 129.177 65.6538C129.703 65.6406 130.241 65.6177 130.786 65.5859C131.336 65.5487 131.89 65.5159 132.468 65.4481C133.048 65.3824 133.631 65.3102 134.293 65.1713L134.353 65.1592L134.384 65.1538L134.467 65.133L134.564 65.11L134.612 65.099L134.636 65.0936L134.678 65.0826L134.848 65.0345L135.013 64.9853L135.146 64.9426L135.279 64.8999L135.405 64.8561C135.741 64.7391 136.048 64.6165 136.339 64.4907C136.922 64.2412 137.45 63.9764 137.959 63.7095C138.466 63.4425 138.95 63.1701 139.416 62.8943C139.883 62.6186 140.335 62.344 140.771 62.0661C142.515 60.9599 144.049 59.8614 145.342 58.893C145.988 58.4094 146.569 57.9543 147.082 57.5472C147.596 57.1435 148.035 56.7791 148.397 56.4793C148.76 56.1806 149.038 55.9367 149.232 55.7714C149.428 55.5997 149.533 55.5077 149.533 55.5077C150.22 54.9027 150.576 54.0339 150.555 53.1619C149.392 53.918 148.239 54.6784 147.084 55.4355Z" fill="black"/>
<path d="M139.494 55.3698C140.652 53.4364 144.881 47.7183 146.642 46.9283C148.42 46.1307 150.615 47.0159 151.153 48.935C151.62 50.6014 151.154 52.7066 150.473 54.1717C149.55 56.1554 147.884 58.1008 146.724 59.881C144.71 58.4739 141.412 56.9005 139.494 55.3698Z" fill="#F26968"/>
<path d="M153.474 143.796C153.926 143.796 156.054 142.28 156.889 140.343L160.767 139.904C160.767 139.904 161.565 141.769 161.584 145.171C161.584 145.171 161.357 146.039 158.121 145.671C156.822 145.523 154.106 146.491 151.657 144.921C151.656 144.921 151.544 143.796 153.474 143.796Z" fill="#132C39"/>
<path d="M137.847 143.796C139.772 143.667 142.773 141.681 143.023 140.343L146.901 139.904C146.901 139.904 147.699 141.769 147.718 145.171C147.718 145.171 147.491 146.039 144.255 145.671C142.956 145.523 138.479 146.491 136.031 144.921C136.03 144.921 135.922 143.925 137.847 143.796Z" fill="#132C39"/>
<path d="M141.611 93.0441C141.75 89.3677 141.918 85.6958 142.056 82.9396C142.204 80.1758 142.301 78.3332 142.301 78.3332C142.326 77.9141 142.391 77.4546 142.496 77.0333C143.408 73.3712 147.086 71.149 150.71 72.0703C154.335 72.9915 156.535 76.7073 155.623 80.3683L155.612 80.4121C155.612 80.4121 155.176 82.1638 154.522 84.792C153.874 87.43 152.917 90.0111 152.35 93.5901C148.752 116.313 149.302 116.986 147.201 140.587C147.201 140.587 145.595 141.952 143.005 140.594C143.005 140.594 141.701 117.748 141.708 114.847C141.732 104.221 141.472 96.7215 141.611 93.0441Z" fill="#225B6B"/>
<path opacity="0.08" d="M149.407 98.6023C147.052 105.858 146.072 113.584 145.483 121.165C145.152 125.427 144.772 129.737 144.707 134.012C144.671 136.369 144.83 138.786 144.602 141.142C146.239 141.402 147.202 140.586 147.202 140.586C149.302 116.985 148.754 116.311 152.351 93.5888C152.459 92.9105 152.58 92.2682 152.712 91.6533C151.184 93.7136 150.178 96.2279 149.407 98.6023Z" fill="black"/>
<path d="M162.384 83.2328C163.299 90.2977 160.703 105.132 161.276 112.58C161.849 120.028 161 140.648 161 140.648C161 140.648 159.434 141.605 156.601 140.483C156.601 140.483 153.498 116.702 152.69 112.195C151.882 107.688 150.606 85.1738 150.606 85.1738C150.606 85.1738 162.002 80.284 162.384 83.2328Z" fill="#225B6B"/>
<path opacity="0.08" d="M162.384 83.2329C162.278 82.4079 161.309 82.1967 159.97 82.3204C161.552 86.1937 160.765 90.6108 160.386 94.6416C160.203 96.5827 160.037 98.5062 159.685 100.426C159.299 102.546 158.763 104.649 158.501 106.789C157.952 111.285 157.935 115.859 157.986 120.382C158.035 124.863 158.244 129.347 158.182 133.829C158.149 136.181 158.039 138.53 157.887 140.876C159.902 141.312 161 140.649 161 140.649C161 140.649 161.849 120.028 161.276 112.58C160.703 105.132 163.299 90.2989 162.384 83.2329Z" fill="black"/>
<path d="M162.461 83.1748C162.461 83.1748 160.723 86.7373 151.393 86.0579C145.469 85.6268 141.948 83.8915 141.948 83.8915C141.948 83.8915 142.082 78.0706 142.223 71.7431C142.289 68.7243 142.286 65.9463 142.2 61.7907C142.06 55.1185 142.878 51.7343 144.49 49.1302C144.49 49.1302 146.988 44.6573 153.991 44.9757C158.675 45.188 164.172 47.0678 164.265 51.4192C164.399 57.6788 160.095 62.7787 162.461 83.1748Z" fill="#F26968"/>
<path opacity="0.05" d="M164.265 51.4182C164.252 50.7793 164.12 50.1939 163.893 49.6588C163.882 49.6818 163.873 49.7059 163.862 49.7289C163.572 50.3121 163.3 50.9018 163.035 51.497C163.018 51.5353 163.006 51.5627 162.996 51.5846C162.996 51.5856 162.995 51.5867 162.995 51.5878C162.946 51.7082 162.896 51.8275 162.847 51.9478C162.738 52.2181 162.631 52.4894 162.527 52.7619C162.091 53.9107 161.705 55.0782 161.36 56.2577C160.689 58.5587 160.179 60.9056 159.759 63.2646C159.567 64.35 159.394 65.4398 159.233 66.5307C159.153 67.0756 159.075 67.6205 159.001 68.1665C158.997 68.1894 158.989 68.2507 158.981 68.3109C158.971 68.3853 158.956 68.498 158.951 68.5319C158.917 68.7879 158.884 69.044 158.851 69.3C158.564 71.5047 158.359 73.7313 157.988 75.9229C157.404 79.3684 155.982 82.6903 153.91 85.5044C153.752 85.72 153.59 85.9322 153.425 86.1434C160.981 86.208 162.462 83.1761 162.462 83.1761C160.094 62.7788 164.399 57.679 164.265 51.4182Z" fill="black"/>
<path d="M152.969 48.0841C151.629 47.7197 150.719 46.4232 150.882 45.0019L151.518 39.4731L157.196 40.1263L156.56 45.6551C156.38 47.2219 154.963 48.3456 153.395 48.1662C153.248 48.1486 153.106 48.1213 152.969 48.0841Z" fill="#F0AF8B"/>
<g opacity="0.06">
<path opacity="0.06" d="M153.167 45.1375C153.226 45.1135 153.289 45.0949 153.348 45.0686C155.499 44.1211 156.107 42.0849 156.964 40.099L151.519 39.4731L150.925 44.6364C151.611 44.8399 152.41 45.0522 153.167 45.1375Z" fill="black"/>
</g>
<path d="M151.501 30.2023C151.501 30.2023 147.628 38.8724 149.334 42.0881C150.431 44.156 154.966 44.8957 157.435 42.9776C159.904 41.0596 160.786 35.1719 160.786 35.1719L151.501 30.2023Z" fill="#F0AF8B"/>
<path d="M158.198 42.5094C158.198 42.5094 159.741 41.1417 160.94 38.4818C160.94 38.4818 162.958 33.2375 160.616 31.139C159.182 29.8555 152.626 28.4145 150.793 27.6694C150.556 27.5731 149.598 29.1093 150.479 31.7276C150.922 33.0428 157.562 34.312 157.428 35.0123C157.295 35.7136 157.124 36.822 157.124 36.822L157.842 38.1809C157.842 38.1809 159.143 36.5594 159.112 38.3571C159.099 39.1055 158.904 39.8725 158.049 40.3736C157.836 40.4994 156.948 43.4799 156.948 43.4799L158.198 42.5094Z" fill="#FCD699"/>
<path opacity="0.4" d="M153.625 40.607L150.027 39.391C150.027 39.391 150.655 43.3905 153.625 40.607Z" fill="#FAF7F4"/>
<path d="M133.431 67.8083C133.431 67.8083 133.951 67.7394 134.861 67.6201C135.319 67.56 135.875 67.4878 136.512 67.4046C137.147 67.3193 137.864 67.223 138.647 67.1179C139.428 67.014 140.27 66.886 141.156 66.7558C142.042 66.6212 142.97 66.4746 143.918 66.3072C144.864 66.1387 145.833 65.9537 146.775 65.7316C147.246 65.6233 147.711 65.5051 148.151 65.3749C148.373 65.3104 148.584 65.2415 148.791 65.1736C148.993 65.1036 149.186 65.0325 149.361 64.9592C149.532 64.8869 149.684 64.8125 149.791 64.7491L149.83 64.7261L149.84 64.7206L149.844 64.7174C149.706 64.7918 149.812 64.7338 149.784 64.7491L149.826 64.7239C149.878 64.6933 149.968 64.6419 149.932 64.6561C149.894 64.6725 149.963 64.6244 150.007 64.5872C150.105 64.5073 150.226 64.3968 150.355 64.2688C150.483 64.1407 150.619 64.0007 150.758 63.8464C151.035 63.5422 151.318 63.1976 151.595 62.8431C151.873 62.4875 152.147 62.1187 152.413 61.7456C152.68 61.3736 152.94 60.9972 153.192 60.623C153.445 60.2488 153.691 59.8779 153.927 59.5125C154.401 58.7816 154.843 58.078 155.248 57.4226C155.652 56.764 156.023 56.1589 156.351 55.6239C156.675 55.0844 156.959 54.614 157.192 54.2266C157.65 53.4651 157.911 53.0296 157.911 53.0296L157.941 52.9793C158.797 51.5536 160.649 51.0919 162.075 51.9475C163.409 52.7473 163.894 54.429 163.252 55.8088C163.252 55.8088 163.191 55.939 163.076 56.1841C162.962 56.4193 162.799 56.7629 162.579 57.1918C162.361 57.6218 162.093 58.1404 161.769 58.7269C161.607 59.0201 161.434 59.333 161.251 59.6624C161.063 59.9895 160.866 60.3331 160.655 60.6898C160.231 61.4021 159.758 62.1691 159.231 62.9733C158.702 63.7775 158.119 64.6167 157.465 65.48C156.803 66.3411 156.086 67.223 155.186 68.1213C154.963 68.3467 154.717 68.5721 154.456 68.7996C154.193 69.0272 153.908 69.2559 153.574 69.4879C153.402 69.606 153.251 69.7089 152.986 69.8621C152.839 69.9485 152.81 69.9594 152.745 69.9934L152.701 70.0163L152.618 70.0601L152.601 70.0689L152.566 70.0853L152.426 70.1509C152.053 70.3205 151.711 70.4463 151.38 70.5558C150.724 70.7669 150.115 70.9179 149.523 71.0361C148.931 71.1564 148.358 71.2484 147.795 71.3282C146.671 71.4803 145.59 71.5799 144.551 71.6466C143.512 71.7134 142.516 71.7517 141.574 71.7681C140.632 71.79 139.746 71.7801 138.929 71.7725C138.112 71.767 137.364 71.7363 136.703 71.7123C136.041 71.6893 135.464 71.651 134.989 71.6236C134.514 71.5952 134.141 71.5624 133.884 71.5427C133.625 71.5197 133.487 71.5077 133.487 71.5077C132.463 71.4169 131.707 70.5142 131.798 69.4911C131.876 68.6071 132.562 67.9232 133.407 67.8116L133.431 67.8083Z" fill="#F0AF8B"/>
<path opacity="0.05" d="M163.012 52.8401C162.689 55.0842 161.416 57.1226 159.958 58.8394C158.356 60.7246 156.398 62.2695 154.441 63.7674C153.619 64.3966 152.785 65.0071 151.959 65.6308C151.947 65.6439 151.915 65.6756 151.851 65.7336C151.721 65.8518 151.579 65.9601 151.442 66.0706C151.114 66.3354 150.78 66.5936 150.443 66.8474C149.955 67.2151 149.454 67.5652 148.936 67.8902C144.352 70.7733 138.981 71.4024 133.674 71.4079C133.373 71.4079 133.092 71.3477 132.836 71.2416C132.801 71.2514 132.766 71.2602 132.731 71.27C132.955 71.398 133.209 71.4812 133.484 71.5063C133.484 71.5063 133.622 71.5184 133.881 71.5414C134.137 71.5611 134.511 71.5939 134.986 71.6223C135.461 71.6497 136.038 71.6891 136.7 71.711C137.362 71.735 138.11 71.7657 138.926 71.7711C139.742 71.7788 140.629 71.7875 141.571 71.7668C142.512 71.7493 143.509 71.7121 144.548 71.6453C145.588 71.5786 146.668 71.4801 147.792 71.3269C148.355 71.247 148.928 71.1551 149.52 71.0348C150.112 70.9166 150.721 70.7656 151.377 70.5544C151.707 70.4439 152.05 70.3181 152.422 70.1496L152.563 70.084L152.598 70.0675L152.615 70.0588L152.697 70.015L152.742 69.992C152.807 69.9581 152.835 69.9472 152.983 69.8607C153.248 69.7065 153.398 69.6047 153.571 69.4865C153.904 69.2546 154.19 69.0248 154.452 68.7983C154.715 68.5707 154.959 68.3453 155.183 68.1199C156.084 67.2217 156.8 66.3398 157.461 65.4787C158.116 64.6165 158.698 63.7762 159.227 62.972C159.755 62.1678 160.228 61.4019 160.652 60.6885C160.863 60.3318 161.061 59.9882 161.247 59.6611C161.429 59.3317 161.602 59.0199 161.765 58.7256C162.088 58.138 162.358 57.6205 162.576 57.1905C162.796 56.7627 162.959 56.4191 163.073 56.1828C163.188 55.9377 163.249 55.8075 163.249 55.8075C163.705 54.8304 163.593 53.7001 163.012 52.8401Z" fill="black"/>
<path d="M154.492 58.253C155.165 56.1019 155.683 54.0208 155.885 52.2582C156.081 50.5382 156.619 49.769 158.147 48.5906C159.689 47.4001 162.03 47.747 163.003 49.4878C163.847 50.9988 163.886 53.1554 163.566 54.7386C163.133 56.8831 161.968 59.1634 161.256 61.1646C158.969 60.2663 156.715 59.2936 154.492 58.253Z" fill="#F26968"/>
<path d="M128.437 66.8441C128.437 66.8441 130.905 66.576 131.637 66.7489C132.551 66.9656 134.7 67.9284 134.7 67.9284L134.73 71.48C134.73 71.48 133.63 72.5195 128.78 72.9648L128.349 69.0499C128.349 69.0499 131.225 68.6407 130.896 67.9536C130.709 67.563 129.879 67.6396 129.579 67.6538C128.627 67.6975 127.997 67.3671 128.437 66.8441Z" fill="#F0AF8B"/>
<path d="M125.008 68.8342C125.008 68.8342 125.032 68.8352 125.079 68.8374C125.124 68.8385 125.191 68.8407 125.275 68.8429C125.446 68.8473 125.692 68.8495 125.988 68.8462C126.136 68.8429 126.296 68.8418 126.465 68.8342C126.634 68.8287 126.813 68.821 126.997 68.809C127.18 68.8002 127.37 68.7827 127.563 68.7674C127.755 68.7521 127.949 68.7269 128.143 68.7072C128.336 68.6809 128.529 68.6557 128.718 68.6262C128.905 68.5922 129.091 68.5649 129.267 68.5266C129.443 68.4861 129.616 68.4554 129.773 68.4127C129.931 68.37 130.081 68.3328 130.217 68.2923C130.35 68.2486 130.473 68.2081 130.581 68.173C130.691 68.1391 130.777 68.0964 130.853 68.068C131.002 68.0078 131.087 67.9738 131.087 67.9738L131.127 67.9574C131.435 67.8326 131.787 67.9815 131.912 68.2901C132.036 68.5988 131.888 68.9502 131.579 69.075C131.568 69.0793 131.556 69.0837 131.545 69.087C131.545 69.087 131.442 69.122 131.26 69.1822C131.169 69.2096 131.06 69.2545 130.934 69.2851C130.808 69.3179 130.665 69.3552 130.509 69.3957C130.354 69.4318 130.185 69.4624 130.006 69.4986C129.828 69.5347 129.64 69.5566 129.446 69.5883C129.252 69.6168 129.051 69.6343 128.847 69.6584C128.643 69.677 128.436 69.6912 128.231 69.7054C128.025 69.7131 127.818 69.7273 127.615 69.7306C127.413 69.7339 127.213 69.7394 127.021 69.7372C126.828 69.7372 126.642 69.7339 126.467 69.7295C126.29 69.7262 126.124 69.7164 125.971 69.7109C125.664 69.6945 125.408 69.677 125.228 69.6616C125.137 69.6529 125.066 69.6463 125.017 69.6419C124.969 69.6365 124.944 69.6343 124.944 69.6343C124.723 69.6113 124.564 69.4143 124.587 69.1943C124.609 68.983 124.791 68.8276 125 68.8352L125.008 68.8342Z" fill="#F0AF8B"/>
<path d="M124.612 70.1235C124.612 70.1235 124.635 70.1246 124.677 70.1268C124.719 70.1279 124.781 70.1312 124.859 70.1334C125.019 70.1389 125.249 70.1422 125.525 70.1389C125.801 70.1356 126.123 70.1268 126.466 70.1038C126.638 70.0962 126.815 70.0765 126.995 70.0622C127.175 70.0436 127.357 70.0239 127.537 70.001C127.717 69.9725 127.899 69.9528 128.074 69.9189C128.249 69.8849 128.423 69.8598 128.586 69.8193C128.75 69.781 128.911 69.7503 129.057 69.7065C129.204 69.6638 129.346 69.631 129.471 69.5872C129.596 69.5445 129.711 69.5062 129.813 69.4723C129.913 69.4373 129.996 69.3979 130.067 69.3705C130.207 69.3136 130.287 69.2808 130.287 69.2808L130.324 69.2654C130.632 69.1396 130.984 69.2862 131.11 69.5949C131.236 69.9025 131.089 70.2549 130.78 70.3808C130.768 70.3851 130.755 70.3906 130.744 70.3939C130.744 70.3939 130.648 70.4267 130.478 70.4836C130.394 70.511 130.291 70.5493 130.173 70.5822C130.055 70.6139 129.921 70.6489 129.775 70.6872C129.63 70.7266 129.471 70.7529 129.303 70.789C129.136 70.8273 128.96 70.8481 128.777 70.8788C128.594 70.9105 128.406 70.9258 128.214 70.9499C128.022 70.9729 127.827 70.9827 127.634 70.9992C127.44 71.0112 127.245 71.0189 127.054 71.0254C126.864 71.0276 126.676 71.0353 126.495 71.032C126.133 71.032 125.795 71.0189 125.505 71.0025C125.216 70.986 124.975 70.9663 124.807 70.9488C124.721 70.9401 124.653 70.9324 124.607 70.928C124.562 70.9226 124.538 70.9193 124.538 70.9193C124.318 70.893 124.162 70.6938 124.188 70.4738C124.213 70.2636 124.397 70.1115 124.605 70.1214L124.612 70.1235Z" fill="#F0AF8B"/>
<path d="M124.935 71.3601C124.935 71.3601 124.957 71.3601 124.996 71.3601C125.036 71.3601 125.094 71.359 125.167 71.359C125.317 71.3568 125.534 71.3503 125.793 71.3349C125.924 71.3273 126.064 71.3174 126.213 71.3043C126.362 71.2934 126.517 71.2747 126.679 71.2594C126.84 71.2408 127.006 71.2189 127.175 71.1959C127.343 71.1686 127.514 71.1467 127.683 71.1138C127.852 71.0821 128.021 71.0536 128.186 71.0142C128.351 70.9792 128.512 70.9431 128.666 70.9004C128.821 70.861 128.971 70.8227 129.109 70.7778C129.248 70.734 129.38 70.699 129.497 70.653C129.616 70.6104 129.724 70.572 129.82 70.537C129.913 70.4976 129.996 70.4637 130.062 70.4363C130.196 70.3805 130.273 70.3477 130.273 70.3477L130.303 70.3345C130.61 70.2054 130.963 70.3498 131.093 70.6574C131.222 70.9639 131.077 71.3174 130.77 71.4466C130.758 71.4521 130.743 71.4575 130.73 71.4608C130.73 71.4608 130.64 71.4915 130.483 71.5451C130.404 71.5714 130.309 71.6031 130.199 71.6403C130.089 71.671 129.964 71.706 129.828 71.7443C129.692 71.7848 129.544 71.8144 129.388 71.8516C129.231 71.8899 129.066 71.9205 128.895 71.9512C128.724 71.9851 128.547 72.0114 128.367 72.0365C128.188 72.065 128.005 72.0836 127.822 72.1044C127.639 72.1263 127.456 72.1372 127.277 72.1537C127.097 72.1657 126.92 72.1756 126.749 72.1832C126.578 72.1887 126.413 72.1964 126.255 72.1964C126.099 72.1996 125.95 72.1985 125.813 72.1964C125.539 72.1931 125.312 72.1843 125.151 72.1756C125.068 72.1701 125.005 72.1668 124.961 72.1635C124.918 72.1602 124.895 72.1581 124.895 72.1581C124.674 72.1405 124.51 71.9479 124.526 71.7279C124.543 71.5177 124.719 71.3568 124.927 71.3579L124.935 71.3601Z" fill="#F0AF8B"/>
<path d="M125.807 72.3856C125.807 72.3856 125.83 72.3867 125.874 72.3889C125.911 72.3911 125.984 72.3911 126.068 72.3922C126.154 72.3922 126.26 72.39 126.382 72.3845C126.504 72.3801 126.643 72.3703 126.793 72.3593C126.944 72.3451 127.107 72.332 127.28 72.309C127.453 72.2904 127.635 72.2619 127.824 72.2335C128.012 72.2039 128.206 72.1667 128.403 72.1317C128.599 72.089 128.8 72.0518 128.998 72.0036C129.196 71.9533 129.395 71.9117 129.589 71.857C129.783 71.8022 129.975 71.7541 130.157 71.6971C130.34 71.6402 130.518 71.5855 130.685 71.5341C130.852 71.4772 131.008 71.4235 131.154 71.3743C131.298 71.325 131.432 71.279 131.548 71.2331C131.664 71.1893 131.766 71.1499 131.85 71.1181C132.018 71.0547 132.113 71.0185 132.113 71.0185L132.129 71.012C132.44 70.8938 132.788 71.0503 132.907 71.3611C133.025 71.672 132.868 72.02 132.557 72.1382C132.547 72.1426 132.534 72.147 132.524 72.1503C132.524 72.1503 132.421 72.182 132.242 72.2378C132.152 72.2663 132.044 72.3002 131.919 72.3385C131.795 72.379 131.653 72.4184 131.498 72.4611C131.342 72.5038 131.175 72.5498 130.997 72.599C130.818 72.6428 130.629 72.6888 130.433 72.7369C130.237 72.784 130.033 72.8234 129.827 72.8683C129.621 72.9132 129.407 72.946 129.196 72.9854C128.985 73.0226 128.77 73.05 128.562 73.0828C128.352 73.108 128.145 73.1354 127.944 73.154C127.742 73.1715 127.547 73.1901 127.362 73.1988C127.177 73.212 127.001 73.2164 126.839 73.2207C126.676 73.2229 126.527 73.2251 126.393 73.2207C126.261 73.2185 126.143 73.2131 126.046 73.2076C125.947 73.201 125.875 73.1967 125.815 73.1901C125.761 73.1846 125.732 73.1813 125.732 73.1813C125.512 73.1572 125.353 72.9602 125.377 72.7402C125.4 72.529 125.583 72.3747 125.792 72.3834L125.807 72.3856Z" fill="#F0AF8B"/>
<path d="M113.3 60.2239C113.3 60.2239 115.768 59.9559 116.499 60.1287C117.414 60.3454 119.563 61.3082 119.563 61.3082L119.592 64.8599C119.592 64.8599 118.493 65.8993 113.643 66.3446L113.211 62.4297C113.211 62.4297 116.088 62.0205 115.759 61.3334C115.572 60.9428 114.742 61.0194 114.442 61.0336C113.489 61.0774 112.86 60.7469 113.3 60.2239Z" fill="#F0AF8B"/>
<path d="M109.871 62.2138C109.871 62.2138 109.895 62.2149 109.942 62.2171C109.987 62.2182 110.053 62.2204 110.138 62.2226C110.308 62.227 110.555 62.2291 110.85 62.2259C110.998 62.2226 111.158 62.2215 111.328 62.2138C111.496 62.2083 111.675 62.2007 111.859 62.1886C112.043 62.1799 112.232 62.1624 112.425 62.1471C112.618 62.1317 112.811 62.1065 113.005 62.0868C113.198 62.0606 113.392 62.0354 113.58 62.0058C113.767 61.9719 113.953 61.9446 114.13 61.9062C114.305 61.8657 114.478 61.8351 114.636 61.7924C114.793 61.7497 114.943 61.7125 115.079 61.672C115.213 61.6282 115.335 61.5877 115.444 61.5527C115.553 61.5188 115.64 61.4761 115.715 61.4476C115.864 61.3874 115.95 61.3535 115.95 61.3535L115.989 61.3371C116.298 61.2123 116.649 61.3611 116.774 61.6698C116.899 61.9785 116.75 62.3298 116.441 62.4546C116.43 62.459 116.418 62.4634 116.407 62.4667C116.407 62.4667 116.304 62.5017 116.123 62.5619C116.032 62.5893 115.922 62.6341 115.796 62.6648C115.67 62.6976 115.527 62.7348 115.371 62.7753C115.216 62.8115 115.047 62.8421 114.869 62.8782C114.69 62.9143 114.502 62.9362 114.308 62.968C114.114 62.9964 113.913 63.0139 113.709 63.038C113.506 63.0566 113.299 63.0709 113.093 63.0851C112.887 63.0928 112.68 63.107 112.478 63.1103C112.275 63.1136 112.076 63.119 111.883 63.1168C111.69 63.1168 111.504 63.1136 111.329 63.1092C111.153 63.1059 110.986 63.096 110.833 63.0906C110.526 63.0742 110.27 63.0566 110.091 63.0413C110 63.0326 109.929 63.026 109.879 63.0216C109.831 63.0161 109.806 63.0139 109.806 63.0139C109.586 62.991 109.426 62.7939 109.449 62.5739C109.471 62.3627 109.654 62.2073 109.863 62.2149L109.871 62.2138Z" fill="#F0AF8B"/>
<path d="M109.474 63.5034C109.474 63.5034 109.497 63.5045 109.54 63.5067C109.582 63.5077 109.644 63.511 109.722 63.5132C109.882 63.5187 110.112 63.522 110.388 63.5187C110.663 63.5154 110.985 63.5066 111.329 63.4837C111.501 63.476 111.677 63.4563 111.858 63.4421C112.038 63.4235 112.219 63.4038 112.4 63.3808C112.58 63.3523 112.761 63.3326 112.937 63.2987C113.112 63.2648 113.286 63.2396 113.449 63.1991C113.613 63.1608 113.774 63.1301 113.92 63.0863C114.066 63.0437 114.209 63.0108 114.334 62.967C114.458 62.9244 114.573 62.8861 114.675 62.8521C114.776 62.8171 114.859 62.7777 114.929 62.7503C115.069 62.6934 115.149 62.6606 115.149 62.6606L115.187 62.6453C115.494 62.5194 115.847 62.6661 115.973 62.9747C116.099 63.2823 115.952 63.6347 115.643 63.7606C115.631 63.765 115.618 63.7704 115.607 63.7737C115.607 63.7737 115.511 63.8066 115.341 63.8635C115.257 63.8908 115.154 63.9291 115.035 63.962C114.917 63.9937 114.784 64.0287 114.638 64.0671C114.492 64.1065 114.334 64.1327 114.166 64.1688C113.999 64.2071 113.822 64.2279 113.639 64.2586C113.457 64.2903 113.268 64.3057 113.077 64.3297C112.885 64.3527 112.69 64.3626 112.496 64.379C112.303 64.391 112.108 64.3987 111.917 64.4053C111.727 64.4074 111.538 64.4151 111.358 64.4118C110.995 64.4118 110.658 64.3987 110.368 64.3823C110.079 64.3659 109.838 64.3462 109.669 64.3286C109.584 64.3199 109.516 64.3122 109.47 64.3078C109.425 64.3024 109.401 64.2991 109.401 64.2991C109.181 64.2728 109.024 64.0736 109.051 63.8536C109.076 63.6435 109.26 63.4913 109.468 63.5012L109.474 63.5034Z" fill="#F0AF8B"/>
<path d="M109.797 64.74C109.797 64.74 109.819 64.74 109.859 64.74C109.898 64.74 109.956 64.7389 110.029 64.7389C110.179 64.7367 110.396 64.7301 110.656 64.7148C110.786 64.7071 110.926 64.6973 111.075 64.6842C111.224 64.6732 111.379 64.6546 111.541 64.6393C111.702 64.6207 111.869 64.5988 112.037 64.5758C112.205 64.5484 112.377 64.5265 112.545 64.4937C112.714 64.462 112.884 64.4335 113.048 64.3941C113.213 64.3591 113.374 64.3229 113.529 64.2803C113.683 64.2409 113.833 64.2025 113.971 64.1577C114.11 64.1139 114.243 64.0789 114.36 64.0329C114.478 63.9902 114.586 63.9519 114.683 63.9169C114.776 63.8775 114.858 63.8435 114.925 63.8162C115.058 63.7603 115.135 63.7275 115.135 63.7275L115.166 63.7144C115.472 63.5852 115.826 63.7297 115.955 64.0373C116.084 64.3437 115.94 64.6973 115.632 64.8264C115.62 64.8319 115.606 64.8374 115.593 64.8407C115.593 64.8407 115.503 64.8713 115.345 64.9249C115.266 64.9512 115.171 64.983 115.062 65.0202C114.951 65.0508 114.826 65.0858 114.69 65.1242C114.555 65.1647 114.407 65.1942 114.25 65.2314C114.094 65.2697 113.928 65.3004 113.758 65.331C113.587 65.365 113.409 65.3912 113.23 65.4164C113.05 65.4449 112.867 65.4635 112.685 65.4843C112.502 65.5062 112.319 65.5171 112.139 65.5335C111.96 65.5456 111.782 65.5554 111.612 65.5631C111.441 65.5685 111.275 65.5762 111.118 65.5762C110.961 65.5795 110.812 65.5784 110.675 65.5762C110.402 65.5729 110.174 65.5642 110.013 65.5554C109.931 65.5499 109.867 65.5467 109.824 65.5434C109.781 65.5401 109.758 65.5379 109.758 65.5379C109.537 65.5204 109.372 65.3277 109.389 65.1077C109.405 64.8976 109.582 64.7367 109.79 64.7378L109.797 64.74Z" fill="#F0AF8B"/>
<path d="M110.67 65.7654C110.67 65.7654 110.693 65.7665 110.737 65.7687C110.774 65.7709 110.846 65.7709 110.931 65.772C111.017 65.772 111.122 65.7698 111.245 65.7643C111.366 65.76 111.505 65.7501 111.655 65.7392C111.807 65.7249 111.97 65.7118 112.143 65.6888C112.316 65.6702 112.497 65.6417 112.687 65.6133C112.875 65.5837 113.069 65.5465 113.266 65.5115C113.462 65.4688 113.662 65.4316 113.861 65.3834C114.059 65.3331 114.258 65.2915 114.452 65.2368C114.646 65.182 114.837 65.1339 115.02 65.077C115.203 65.0201 115.38 64.9653 115.548 64.9139C115.714 64.857 115.871 64.8033 116.017 64.7541C116.161 64.7048 116.295 64.6589 116.411 64.6129C116.527 64.5691 116.629 64.5297 116.713 64.498C116.88 64.4345 116.976 64.3984 116.976 64.3984L116.992 64.3918C117.303 64.2736 117.651 64.4301 117.769 64.741C117.888 65.0518 117.731 65.3999 117.42 65.5181C117.409 65.5224 117.397 65.5268 117.386 65.5301C117.386 65.5301 117.283 65.5618 117.105 65.6177C117.015 65.6461 116.907 65.6801 116.782 65.7184C116.658 65.7589 116.516 65.7983 116.36 65.8409C116.205 65.8836 116.037 65.9296 115.86 65.9789C115.68 66.0226 115.492 66.0686 115.296 66.1168C115.1 66.1638 114.895 66.2032 114.689 66.2481C114.484 66.293 114.27 66.3258 114.059 66.3652C113.848 66.4024 113.633 66.4298 113.425 66.4626C113.215 66.4878 113.008 66.5152 112.806 66.5338C112.605 66.5513 112.41 66.5699 112.225 66.5787C112.04 66.5918 111.864 66.5962 111.701 66.6006C111.538 66.6027 111.389 66.6049 111.256 66.6006C111.123 66.5984 111.006 66.5929 110.909 66.5874C110.81 66.5808 110.738 66.5765 110.678 66.5699C110.624 66.5644 110.595 66.5611 110.595 66.5611C110.374 66.5371 110.216 66.3401 110.24 66.1201C110.263 65.9088 110.446 65.7545 110.655 65.7632L110.67 65.7654Z" fill="#F0AF8B"/>
<path d="M190.696 56.5364C190.696 56.5364 190.655 56.6688 190.579 56.916C190.503 57.1633 190.389 57.5255 190.251 57.9894C190.113 58.4533 189.946 59.0157 189.754 59.6613C189.566 60.3079 189.35 61.0366 189.125 61.8332C188.898 62.6297 188.649 63.4919 188.397 64.4066C188.146 65.3213 187.873 66.2842 187.608 67.2832C187.341 68.2821 187.062 69.3128 186.79 70.361C186.521 71.4092 186.249 72.476 185.995 73.5253L185.794 74.3645L185.745 74.5713L185.679 74.8252L185.614 75.079C185.603 75.1228 185.593 75.1611 185.582 75.1972L185.552 75.3088C185.394 75.9117 185.243 76.4806 185.084 77.0419C184.923 77.5999 184.75 78.1415 184.539 78.6558C184.333 79.1722 184.088 79.6591 183.845 80.1351C183.722 80.3714 183.602 80.6067 183.481 80.8397C183.358 81.0695 183.236 81.2971 183.116 81.5225C182.874 81.9722 182.631 82.4065 182.391 82.8278C181.912 83.6703 181.444 84.4537 181.001 85.1715C180.558 85.8871 180.142 86.5381 179.763 87.1081C179.383 87.6782 179.047 88.1705 178.764 88.5732C178.48 88.9748 178.254 89.2899 178.095 89.5021C178.016 89.6083 177.955 89.6903 177.914 89.745C177.871 89.8008 177.849 89.8293 177.849 89.8293C177.384 90.442 176.51 90.5613 175.897 90.0963C175.405 89.7243 175.231 89.0896 175.421 88.536L175.425 88.524C175.425 88.524 175.47 88.3938 175.553 88.1509C175.637 87.9058 175.767 87.548 175.931 87.0928C176.098 86.6398 176.302 86.0895 176.535 85.4581C176.773 84.8312 177.042 84.1244 177.335 83.353C177.629 82.5871 177.949 81.7577 178.286 80.8802C178.454 80.4436 178.625 79.9961 178.801 79.5377C178.973 79.0814 179.149 78.6164 179.328 78.1426C179.502 77.67 179.677 77.1896 179.878 76.7213C179.978 76.4861 180.086 76.253 180.193 76.0211C180.304 75.7913 180.416 75.5604 180.528 75.3296C180.748 74.8722 180.972 74.4083 181.133 73.9575L181.163 73.8721C181.174 73.8426 181.184 73.8153 181.191 73.7923C181.207 73.7441 181.223 73.696 181.238 73.6478L181.284 73.5023C181.3 73.4476 181.317 73.3721 181.332 73.3076L181.379 73.1062L181.385 73.0811L181.388 73.0679C181.384 73.0855 181.401 73.011 181.38 73.104L181.391 73.0515L181.412 72.9476L181.496 72.5296C181.724 71.4212 181.959 70.3358 182.196 69.2669C182.428 68.199 182.657 67.1486 182.877 66.1321C183.096 65.1167 183.308 64.1353 183.51 63.2041C183.708 62.273 183.895 61.3922 184.067 60.5793C184.237 59.7663 184.391 59.0201 184.529 58.3592C184.664 57.6973 184.781 57.1207 184.877 56.6458C185.065 55.6939 185.172 55.149 185.172 55.149V55.1468C185.476 53.6029 186.975 52.5985 188.52 52.9027C190.065 53.2069 191.07 54.7048 190.766 56.2486C190.749 56.346 190.724 56.4434 190.696 56.5364Z" fill="#FFAB80"/>
<path opacity="0.08" d="M188.523 52.9036C186.978 52.5994 185.479 53.6039 185.174 55.1477V55.1499C185.174 55.1499 185.067 55.6937 184.88 56.6467C184.783 57.1216 184.666 57.6982 184.532 58.3601C184.412 58.9346 184.279 59.5725 184.135 60.2629C184.383 60.6305 184.529 61.0649 184.528 61.5069C184.526 62.5453 184.447 63.5891 184.348 64.6296C184.454 64.8889 184.517 65.1658 184.528 65.4459C184.606 67.423 184.229 69.3947 183.617 71.2711C183.105 75.2856 182.422 79.2913 181.382 83.1897C181.154 84.0421 180.91 84.9108 180.628 85.7697C180.751 85.5761 180.875 85.3769 181.002 85.1723C181.444 84.4557 181.913 83.6711 182.391 82.8286C182.63 82.4074 182.874 81.973 183.116 81.5233C183.236 81.2979 183.359 81.0703 183.482 80.8406C183.602 80.6075 183.722 80.3734 183.845 80.1359C184.088 79.66 184.333 79.1731 184.539 78.6566C184.751 78.1424 184.924 77.6019 185.085 77.0428C185.243 76.4804 185.394 75.9125 185.552 75.3096L185.583 75.198C185.593 75.1619 185.603 75.1236 185.614 75.0799L185.679 74.826L185.745 74.5722L185.794 74.3654L185.995 73.5262C186.249 72.4769 186.52 71.4101 186.79 70.3619C187.062 69.3137 187.341 68.283 187.608 67.284C187.873 66.2851 188.146 65.3222 188.398 64.4075C188.648 63.4928 188.898 62.6306 189.125 61.8341C189.35 61.0375 189.566 60.3088 189.754 59.6622C189.946 59.0166 190.113 58.4542 190.251 57.9903C190.389 57.5275 190.504 57.1642 190.579 56.917C190.655 56.6697 190.696 56.5373 190.696 56.5373C190.724 56.4454 190.75 56.3469 190.768 56.2506C191.073 54.7057 190.067 53.2078 188.523 52.9036Z" fill="black"/>
<path d="M193.188 90.3228C193.614 92.3744 194.004 94.4292 194.413 96.4818L195.58 102.647C195.977 104.702 196.334 106.76 196.709 108.817L197.825 114.988L197.869 115.271L199.675 122C200.273 124.244 200.891 126.484 201.469 128.731L203.225 135.47C203.79 137.719 205.287 142.654 206.296 142.418C207.252 142.193 208.411 142.525 208.267 141.589C207.909 139.299 207.927 136.925 207.585 134.632L206.619 127.741C206.29 125.445 206.001 123.142 205.691 120.843L204.777 113.942L204.82 114.225L204.528 107.964C204.435 105.876 204.322 103.791 204.25 101.702L204.01 95.4358C203.95 93.3449 203.871 91.2561 203.828 89.163C203.768 86.2504 201.313 83.9374 198.346 83.9964C195.378 84.0555 193.022 86.4648 193.082 89.3764C193.087 89.6904 193.129 90.0252 193.188 90.3228Z" fill="#FFAB80"/>
<path d="M184.496 88.1015C184.496 88.1015 184.396 88.9112 184.221 90.3281C184.031 91.7418 183.783 93.7671 183.443 96.1884C183.273 97.3986 183.088 98.7105 182.893 100.098C182.692 101.483 182.478 102.945 182.258 104.457C182.031 105.967 181.796 107.528 181.558 109.114C181.435 109.906 181.312 110.705 181.189 111.507C181.127 111.907 181.065 112.309 181.003 112.711L180.909 113.314L180.84 113.74L180.807 114.043C180.627 115.661 180.449 117.279 180.272 118.874C180.089 120.466 179.909 122.032 179.734 123.549C179.563 125.065 179.374 126.528 179.205 127.917C179.033 129.305 178.871 130.617 178.721 131.828C178.424 134.252 178.096 140.173 178.096 140.173C177.936 141.297 181.131 141.606 181.356 140.559C181.356 140.559 182.971 134.983 183.527 132.601C183.804 131.409 184.104 130.119 184.421 128.755C184.739 127.39 185.067 125.95 185.429 124.465C185.788 122.978 186.159 121.441 186.535 119.881C186.918 118.321 187.308 116.737 187.698 115.152C188.125 113.62 188.551 112.089 188.971 110.581C189.409 109.035 189.84 107.513 190.257 106.04C190.681 104.569 191.09 103.146 191.479 101.797C191.874 100.45 192.248 99.1755 192.593 97.9993C193.284 95.6479 193.895 93.6949 194.307 92.325C194.733 90.9573 194.976 90.1761 194.976 90.1761C195.844 87.3849 194.247 84.4547 191.406 83.6319C188.566 82.8091 185.56 84.4055 184.69 87.1967C184.602 87.4866 184.535 87.8094 184.496 88.1015Z" fill="#FFAB80"/>
<path d="M172.177 142.33C174.055 142.529 177.367 141.481 177.843 140.256C177.843 140.256 178.804 140.886 179.237 140.959C179.716 141.041 181.492 140.879 181.492 140.879C181.492 140.879 181.954 141.75 181.373 144.975C181.373 144.975 179.947 145.388 178.721 145.035C174.931 143.942 172.309 144.987 170.227 143.091C170.227 143.092 170.299 142.131 172.177 142.33Z" fill="#C0A9A8"/>
<path d="M205.452 114.975L203.952 88.4399L193.431 88.5428C193.427 88.6062 193.421 88.6697 193.417 88.7331C193.404 89.0209 193.385 89.3021 193.365 89.58L184.358 88.3491C182.193 92.3176 177.64 136.564 177.64 136.564L183.204 137.38L188.582 114.873C188.582 114.873 191.53 105.012 192.868 100.71C193.787 104.469 195.669 111.464 196.069 113.686C196.631 116.818 203.201 139.102 203.201 139.102L208.455 138.366L205.452 114.975Z" fill="white"/>
<path opacity="0.06" d="M189.408 107.57C189.252 107.923 189.097 108.278 188.945 108.633C188.947 108.628 188.867 108.817 188.822 108.922C188.777 109.028 188.718 109.172 188.719 109.167C188.472 109.765 188.23 110.365 187.995 110.969C187.493 112.258 187.022 113.559 186.59 114.873C185.775 117.344 185.129 119.856 184.557 122.392C183.445 127.321 182.522 132.313 180.578 136.995L183.202 137.38L188.579 114.873C188.579 114.873 191.528 105.012 192.866 100.709C192.965 101.116 193.076 101.563 193.195 102.036C193.114 101.393 193.033 100.751 192.955 100.109C191.728 102.574 190.522 105.051 189.408 107.57Z" fill="black"/>
<path opacity="0.06" d="M205.452 114.975L203.952 88.4398L193.431 88.5426C193.427 88.6061 193.421 88.6696 193.417 88.733C193.404 89.0208 193.385 89.302 193.365 89.5799L189.22 89.0131C189.222 89.0164 189.225 89.0197 189.228 89.023C189.361 89.1915 189.495 89.36 189.628 89.5285C189.979 89.9705 190.327 90.4147 190.666 90.8644C192.479 91.7923 194.178 92.9324 195.582 94.4117C196.249 94.6797 196.703 95.31 196.906 96.0168C198.448 98.158 199.458 100.599 200.124 103.165C200.612 105.048 200.977 106.965 201.435 108.857C201.912 110.827 202.407 112.795 202.845 114.774C203.783 119.018 204.245 123.281 204.479 127.616C204.68 131.355 204.806 135.099 205.155 138.828L208.453 138.365L205.452 114.975Z" fill="black"/>
<path d="M195.266 51.9583C193.805 51.4583 191.805 50.6618 189.217 51.8905C188.102 52.7593 189.342 57.4182 197.531 53.1915C197.661 53.1247 197.793 53.0744 197.923 53.0175C197.159 52.6586 196.28 52.3052 195.266 51.9583Z" fill="#FFAB80"/>
<path d="M201.163 70.0645C200.166 75.4839 202.374 81.7797 202.919 83.6485C203.186 84.5632 203.838 86.6968 204.349 89.5515C203.68 89.7594 201.817 93.0856 188.995 91.4269C186.907 91.1566 184.45 91.1205 183.111 89.1674L184.033 77.2564C183.926 77.1131 184.052 73.8602 184.05 73.8438L184.431 67.0567C181.949 66.1814 181.733 63.0663 182.396 61.6483C182.725 60.9447 185.148 57.1918 186.603 54.0669C186.799 53.6467 187.143 52.4803 188.406 52.0558C191.884 50.6312 193.481 52.4694 194.446 51.3982C195.13 51.4475 195.787 51.5394 196.355 51.7265C205.251 54.6599 203.183 58.2848 202.689 61.9842L201.163 70.0645Z" fill="#F26968"/>
<path opacity="0.08" d="M201.163 70.0645L202.463 63.1855C201.946 63.2172 201.429 63.2479 200.912 63.2818C200.299 66.5369 199.503 69.7559 198.651 72.9563C197.725 76.4401 196.731 79.9064 195.823 83.3946C195.392 85.0544 195.025 86.6956 194.345 88.2756C193.813 89.512 193.066 90.6346 192.17 91.639C192.137 91.6762 192.102 91.7112 192.068 91.7474C202.127 92.5341 203.738 89.7407 204.349 89.5503C203.837 86.6945 203.187 84.562 202.919 83.6473C202.373 81.7807 200.165 75.4838 201.163 70.0645Z" fill="black"/>
<path d="M188.482 52.2244C189.312 51.8797 190.114 51.6368 190.345 51.5668C192.237 50.9946 194.458 51.1543 196.357 51.7266C197.008 51.9235 197.595 52.1391 198.127 52.3699C194.355 54.4072 191.189 54.439 189.24 53.928C188.483 53.73 188.11 52.8951 188.482 52.2244Z" fill="#FFAB80"/>
<path d="M194.878 52.5449C194.927 52.5416 194.974 52.5372 195.021 52.534C195.025 52.4946 195.031 52.4486 195.037 52.3928C195.058 52.2188 195.084 51.9705 195.101 51.675C195.14 51.0842 195.145 50.3052 195.087 49.5425C195.033 48.7788 194.922 48.0304 194.808 47.4669C194.754 47.1857 194.697 46.9483 194.655 46.7776C194.607 46.5938 194.581 46.4887 194.581 46.4887C194.339 45.5653 193.425 44.9394 192.453 45.0773C191.415 45.225 190.7 46.1802 190.858 47.2109L190.859 47.2196C190.859 47.2196 190.864 47.2536 190.863 47.2689C190.864 47.2962 190.867 47.3356 190.869 47.387C190.875 47.5052 190.885 47.6803 190.887 47.898C190.897 48.3302 190.878 48.9189 190.814 49.4911C190.754 50.0644 190.647 50.6192 190.545 51.0196C190.497 51.221 190.447 51.3829 190.412 51.4956C190.378 51.6083 190.359 51.6729 190.359 51.6729L190.348 51.7079C190.31 51.8348 190.283 51.9672 190.268 52.104C190.242 52.3304 190.251 52.5526 190.288 52.7659C191.825 52.7791 193.349 52.662 194.878 52.5449Z" fill="#FFAB80"/>
<path d="M191.159 50.5997C186.877 50.3743 184.477 45.7132 185.695 41.8126C185.849 41.3191 185.952 40.7906 185.985 40.1976C186.151 37.1898 187.081 35.3921 191.211 34.5846C194.569 33.9281 197.798 34.5627 200.472 40.6768C200.49 40.7184 202.759 50.324 194.478 50.4093C194.102 50.4148 191.727 50.6303 191.159 50.5997Z" fill="#959FA1"/>
<path opacity="0.08" d="M198.347 46.804C198.34 46.7482 198.333 46.6913 198.327 46.6541C198.303 46.4965 198.277 46.339 198.25 46.1825C198.064 45.2973 197.838 44.4209 197.559 43.5587C197.454 43.2338 197.342 42.911 197.222 42.5904C197.163 42.4306 197.102 42.272 197.039 42.1144C197.033 42.0991 197.025 42.0816 197.017 42.063C196.938 41.8989 196.902 41.8212 196.892 41.7971C196.769 41.5367 196.647 41.2763 196.518 41.0192C196.454 40.8977 196.389 40.7752 196.321 40.6548C196.09 40.2412 195.845 39.8353 195.591 39.4349C195.545 39.3681 195.5 39.2992 195.453 39.2335C195.437 39.2106 195.392 39.1504 195.348 39.0924C195.282 39.0114 195.206 38.9162 195.177 38.8845C195.08 38.7718 194.981 38.6613 194.879 38.553C194.702 38.3648 194.517 38.1842 194.323 38.0136C194.301 37.9939 194.276 37.9742 194.25 37.9556C193.821 37.7105 194.063 37.8188 194.25 37.9556C194.277 37.9709 194.306 37.9873 194.34 38.0059C194.233 37.9457 194.139 37.8582 194.037 37.7903C193.823 37.6459 193.599 37.5146 193.367 37.3997C193.353 37.3932 193.341 37.3866 193.329 37.38C193.242 37.3483 193.156 37.3177 193.068 37.2914C192.868 37.2301 192.656 37.2061 192.453 37.1579C192.423 37.1557 192.394 37.1535 192.363 37.1525C192.237 37.1481 192.111 37.1481 191.986 37.1525C191.897 37.1557 191.808 37.1634 191.719 37.1711C191.714 37.1721 191.706 37.1721 191.702 37.1743C191.585 37.2017 191.468 37.2301 191.352 37.2586C191.828 37.9731 191.958 38.9906 191.447 39.6624C190.951 40.3156 190.492 40.9962 190.125 41.7304C190.054 41.8726 189.96 42.0236 189.917 42.1757C189.952 42.0936 189.988 42.0127 190.023 41.9306C189.986 42.0258 189.951 42.121 189.917 42.2173C189.822 42.4919 189.741 42.772 189.679 43.0554C189.67 43.0937 189.665 43.1408 189.66 43.1889C189.67 43.213 189.664 43.3344 189.616 43.434C189.598 43.6845 189.592 43.9373 189.6 44.1889C189.604 44.3181 189.612 44.4483 189.622 44.5774C189.622 44.5828 189.623 44.5872 189.624 44.5927C189.703 44.9231 189.681 44.8805 189.653 44.7634C189.682 44.9308 189.705 45.1004 189.742 45.2667C190.141 47.0841 190.823 48.8117 191.295 50.604C192.034 50.6029 194.125 50.4158 194.478 50.4125C196.303 50.3939 197.616 49.9114 198.553 49.1717C198.5 48.3807 198.43 47.5929 198.347 46.804Z" fill="black"/>
<path d="M193.341 52.1609C193.157 52.22 192.973 52.2725 192.789 52.3218C192.018 52.4027 191.246 52.417 190.47 52.3841C190.253 52.3568 190.038 52.3272 189.821 52.2955C189.834 52.2342 189.848 52.1741 189.866 52.115L189.878 52.0767C189.878 52.0767 189.899 52.0067 189.936 51.8841C189.974 51.7627 190.028 51.5865 190.079 51.3688C190.19 50.9355 190.306 50.3348 190.371 49.7133C190.438 49.0929 190.459 48.4561 190.449 47.9878C190.447 47.7526 190.436 47.5622 190.43 47.4342C190.427 47.3795 190.424 47.3357 190.423 47.3062C190.424 47.2898 190.419 47.2526 190.419 47.2526L190.418 47.2427C190.247 46.1267 191.021 45.0916 192.145 44.9319C193.198 44.782 194.187 45.4592 194.449 46.4604C194.449 46.4604 194.479 46.5742 194.53 46.7733C194.575 46.9582 194.636 47.2154 194.695 47.5195C194.819 48.1301 194.938 48.9398 194.999 49.7669C195.056 50.5197 195.056 51.2845 195.024 51.8994C194.451 51.9038 193.883 51.987 193.341 52.1609Z" fill="#FFAB80"/>
<path opacity="0.07" d="M195.003 49.8863C195.001 49.8469 195 49.8086 194.997 49.7692C194.938 48.9421 194.817 48.1313 194.693 47.5218C194.634 47.2177 194.573 46.9605 194.528 46.7745C194.477 46.5754 194.447 46.4616 194.447 46.4616C194.184 45.4604 193.196 44.7832 192.143 44.9331C191.019 45.0939 190.245 46.1279 190.416 47.2439L190.418 47.2581C190.418 47.2581 190.423 47.291 190.422 47.3074C190.423 47.3369 190.426 47.3796 190.429 47.4354C190.435 47.5634 190.446 47.7538 190.449 47.989C190.458 48.4573 190.438 49.0952 190.37 49.7145C190.354 49.8633 190.336 50.011 190.315 50.1555C191.924 51.2529 193.909 50.4421 195.003 49.8863Z" fill="black"/>
<path d="M187.017 38.0748C187.017 38.0748 186.295 45.8553 188.244 48.5174C189.498 50.2297 192.748 50.1553 194.867 48.1891C196.987 46.2229 197.19 40.913 197.19 40.913L187.017 38.0748Z" fill="#FFAB80"/>
<path opacity="0.5" d="M189.1 46.0296C189.1 46.0296 191.731 46.728 192.983 46.4554C192.983 46.4554 190.366 50.2634 189.1 46.0296Z" fill="white"/>
<path d="M208.334 141.217C208.334 141.217 209.411 144.91 208.823 145.218C208.235 145.525 205.983 145.731 203.927 145.731C201.871 145.731 201.087 146.038 200.206 145.013C199.325 143.987 201.381 143.782 201.969 143.269C202.557 142.756 204.809 142.038 204.907 141.525C205.004 141.012 206.767 142.448 208.334 141.217Z" fill="#C0A9A8"/>
<path d="M202.675 56.0265C202.675 56.0265 202.848 56.5178 203.152 57.3778C203.456 58.2323 203.889 59.4534 204.412 60.9185C204.672 61.6516 204.954 62.4459 205.252 63.2862C205.546 64.1298 205.857 65.0205 206.179 65.9407C206.5 66.8641 206.819 67.8259 207.141 68.815C207.303 69.3085 207.461 69.814 207.615 70.3271C207.77 70.8436 207.918 71.3699 208.056 71.9333L208.106 72.1489L208.16 72.3819C208.188 72.5089 208.212 72.6281 208.244 72.7627C208.276 72.9093 208.306 73.0548 208.341 73.2004L208.387 73.4083L208.434 73.6096C208.558 74.1468 208.696 74.6676 208.81 75.1841C208.932 75.7005 209.021 76.2104 209.082 76.7181C209.144 77.2247 209.159 77.7269 209.182 78.2193C209.226 79.2029 209.245 80.1493 209.25 81.0466C209.256 81.9427 209.245 82.7895 209.224 83.5708C209.203 84.352 209.174 85.0665 209.138 85.7011C209.1 86.3357 209.064 86.8882 209.027 87.3434C208.988 87.7986 208.956 88.1564 208.928 88.4015C208.915 88.524 208.904 88.6181 208.898 88.6816C208.89 88.7461 208.886 88.7789 208.886 88.7789C208.796 89.5438 208.102 90.0908 207.336 90.0011C206.736 89.93 206.27 89.489 206.14 88.9332L206.135 88.9146C206.135 88.9146 206.127 88.884 206.114 88.8238C206.101 88.7625 206.08 88.6728 206.055 88.5546C206.002 88.3183 205.931 87.9715 205.841 87.5294C205.751 87.0874 205.649 86.5501 205.531 85.9352C205.415 85.3192 205.29 84.6255 205.157 83.8695C205.025 83.1134 204.885 82.295 204.74 81.4317C204.597 80.5728 204.447 79.6657 204.29 78.728C204.214 78.2619 204.123 77.7914 204.068 77.3133C204.01 76.8362 203.978 76.3504 203.956 75.8657C203.931 75.3799 203.915 74.893 203.86 74.4225C203.847 74.3077 203.833 74.1818 203.816 74.0757C203.801 73.9696 203.782 73.8645 203.764 73.7595C203.743 73.6424 203.709 73.5111 203.681 73.3886L203.67 73.3415L203.665 73.3185C203.667 73.3284 203.656 73.2802 203.669 73.3371L203.666 73.3273L203.644 73.2485L203.6 73.0899C203.478 72.6599 203.331 72.2025 203.174 71.743C203.017 71.2823 202.853 70.8195 202.682 70.3589C202.341 69.4365 201.978 68.5283 201.624 67.6475C201.27 66.7656 200.908 65.9188 200.565 65.1146C200.224 64.3093 199.888 63.5521 199.577 62.8529C198.955 61.4546 198.415 60.2981 198.032 59.4917C197.842 59.088 197.686 58.7739 197.583 58.5595C197.479 58.3472 197.424 58.2334 197.424 58.2334L197.422 58.2291C196.731 56.8143 197.318 55.1085 198.734 54.4181C200.149 53.7277 201.856 54.3142 202.547 55.7289C202.596 55.8219 202.639 55.9259 202.675 56.0265Z" fill="#FFAB80"/>
<path opacity="0.08" d="M200.568 65.11C200.609 65.2074 200.651 65.307 200.693 65.4054C201.272 65.4208 201.849 65.644 202.265 66.0488C203.801 67.5434 205.069 69.3389 206.064 71.2318C207.627 74.2046 208.628 77.4072 209.248 80.6908C209.24 79.8997 209.222 79.0747 209.184 78.2202C209.161 77.7278 209.145 77.2256 209.083 76.719C209.023 76.2124 208.933 75.7014 208.811 75.185C208.697 74.6686 208.559 74.1477 208.436 73.6105L208.389 73.4092L208.343 73.2013C208.308 73.0558 208.277 72.9092 208.245 72.7636C208.213 72.6291 208.189 72.5109 208.161 72.3829L208.107 72.1498L208.057 71.9343C207.919 71.3697 207.77 70.8434 207.617 70.328C207.462 69.8138 207.305 69.3094 207.143 68.8159C206.821 67.8268 206.501 66.8651 206.18 65.9416C205.858 65.0214 205.547 64.1308 205.253 63.2872C204.955 62.4469 204.672 61.6525 204.413 60.9194C203.892 59.4543 203.457 58.2333 203.153 57.3787C202.849 56.5187 202.676 56.0274 202.676 56.0274C202.64 55.9257 202.598 55.8228 202.549 55.7244C201.858 54.3096 200.15 53.7232 198.736 54.4136C197.32 55.104 196.733 56.8109 197.424 58.2245L197.426 58.2289C197.426 58.2289 197.482 58.3427 197.585 58.5549C197.688 58.7694 197.844 59.0834 198.034 59.4872C198.416 60.2936 198.957 61.4512 199.579 62.8484C199.89 63.5476 200.226 64.3047 200.568 65.11Z" fill="black"/>
<path d="M186.132 40.3952C186.132 40.3952 189.419 39.9707 190.614 38.6949C190.614 38.6949 192.854 41.2454 197.634 42.2367L196.662 36.9979L187.477 36.8524L186.132 40.3952Z" fill="#959FA1"/>
<path d="M178.112 87.5553C178.112 87.5553 178.693 90.5325 177.996 91.8564L177.764 95.0547C177.764 95.0547 176.833 95.3851 176.717 93.9517C176.601 92.5184 176.717 91.1945 176.252 92.0775C175.786 92.9593 175.438 94.3938 175.438 94.3938L175.67 98.1435C175.67 98.1435 175.554 98.6949 174.973 99.1359L173.462 93.9528C173.462 93.9528 173.994 90.1999 175.746 87.2096L178.112 87.5553Z" fill="#FFAB80"/>
<path d="M189.605 51.6486C189.605 51.6486 186.257 52.56 185.6 53.3631C184.611 54.5711 184.651 54.9682 184.579 56.4267C184.505 57.8853 184.505 58.6884 184.505 58.6884C184.505 58.6884 186.895 52.2591 189.605 51.6486Z" fill="#F26968"/>
<path d="M200.271 66.1276L205.672 63.866C205.672 63.866 203.635 57.3207 202.533 55.3316C202.145 54.6313 201.292 53.7264 199.76 53.7264C198.227 53.7264 196.256 55.4038 196.401 56.2791C196.548 57.1555 200.271 66.1276 200.271 66.1276Z" fill="#F26968"/>
<path d="M218.94 86.0947C218.94 86.0947 218.362 87.9569 218.371 88.3617C218.379 88.7666 218.756 90.9264 218.756 90.9264L219.797 92.246C219.797 92.246 220.188 91.9024 220.05 91.3663C219.912 90.8301 219.63 89.7491 219.909 89.6222C220.188 89.4964 220.521 89.3804 220.521 89.3804L221.365 92.188C221.365 92.188 220.877 92.2897 220.587 92.4867C220.297 92.6836 220.294 93.1585 220.294 93.1585L222.739 92.6705C222.739 92.6705 223.616 91.6278 223.72 91.5151C223.824 91.4024 223.707 89.8662 223.643 89.6758C223.577 89.4865 221.585 85.5629 221.585 85.5629L218.94 86.0947Z" fill="#FFAB80"/>
<path d="M222.739 89.4569C222.632 89.3146 222.438 89.2588 222.257 89.3015L222.472 89.1669C222.684 89.0334 222.744 88.7763 222.605 88.5925L222.584 88.5651C222.445 88.3813 222.16 88.3408 221.948 88.4743L221.543 88.7293C221.616 88.5991 221.613 88.4415 221.518 88.3168L221.498 88.2894C221.359 88.1056 221.074 88.0651 220.862 88.1986L219.49 89.063C219.318 89.1713 219.246 89.3617 219.3 89.528C219.364 89.7928 219.722 91.2885 219.818 91.4165C219.924 91.5576 220.814 92.1463 220.867 92.1758C220.92 92.2054 221.377 92.341 221.564 92.1386C221.69 92.0029 221.8 91.6955 221.858 91.5051L222.521 91.0871C222.734 90.9537 222.793 90.6965 222.654 90.5127L222.633 90.4854C222.538 90.3606 222.376 90.3015 222.215 90.319L222.628 90.0586C222.84 89.9252 222.899 89.668 222.76 89.4842L222.739 89.4569Z" fill="#D1926E"/>
<path d="M213.122 137.499H190.703C187.587 137.499 185.423 138.082 184.974 135.001L181.667 112.703C181.667 106.98 186.31 102.341 192.037 102.341H213.121V137.499H213.122Z" fill="#544B3F"/>
<path d="M222.256 137.499H191.438L187.829 112.353C187.829 106.823 192.315 102.341 197.849 102.341H222.254V137.499H222.256Z" fill="#2F2B27"/>
<path d="M318.39 110.933H200.69C196.742 110.933 193.541 113.678 193.541 117.065C193.541 120.451 196.742 123.196 200.69 123.196H318.72C318.847 119.103 318.825 115.009 318.39 110.933Z" fill="#746654"/>
<path d="M311.175 74.6062H226.075C220.538 74.6062 216.05 79.0911 216.05 84.6242V108.91C216.05 108.91 320.362 109.11 320.386 108.91C322.416 92.4583 321.2 84.6242 321.2 84.6242C321.2 79.0922 316.711 74.6062 311.175 74.6062Z" fill="#2F2B27"/>
<path d="M303.892 74.6062H214.681C208.368 74.6062 203.249 80.0529 203.249 86.771L204.446 111.134H312.945C312.945 111.134 315.144 111.072 315.325 86.771C315.375 80.054 310.207 74.6062 303.892 74.6062Z" fill="#544B3F"/>
<path d="M288.416 137.499H187.668C186.161 137.499 184.94 136.278 184.94 134.772V121.949H288.417V137.499H288.416Z" fill="#544B3F"/>
<path d="M190.874 137.499L190.578 145.864H192.099L195.764 137.414L190.874 137.499Z" fill="#624550"/>
<path d="M285.704 137.499L286 145.864H284.478L280.815 137.414L285.704 137.499Z" fill="#624550"/>
<path d="M215.736 137.499L215.44 145.864H216.962L220.626 137.414L215.736 137.499Z" fill="#624550"/>
<path d="M310.566 137.499L310.862 145.864H309.341L305.676 137.414L310.566 137.499Z" fill="#624550"/>
<path d="M270.394 56.5819C270.394 56.5819 270.488 57.0152 270.651 57.7734C270.817 58.5339 271.06 59.6214 271.364 60.9202C271.668 62.219 272.034 63.7311 272.454 65.3296C272.666 66.1284 272.89 66.949 273.131 67.7685C273.373 68.5847 273.63 69.4097 273.912 70.1636C274.051 70.5356 274.201 70.9011 274.338 71.1604L274.386 71.2479L274.427 71.3147C274.449 71.3442 274.473 71.3716 274.457 71.3311L274.449 71.3158L274.445 71.3081L274.443 71.3048C274.447 71.3114 274.387 71.2282 274.416 71.2676L274.469 71.3322L274.575 71.4602L274.68 71.5882L274.733 71.6517C274.75 71.6725 274.769 71.6965 274.781 71.7086L274.946 71.8847L275.027 71.9733C275.054 72.0029 275.09 72.0379 275.12 72.0696C275.248 72.1998 275.371 72.33 275.506 72.4537C275.571 72.516 275.636 72.5784 275.702 72.6408C275.77 72.701 275.836 72.7611 275.904 72.8213C276.036 72.9428 276.177 73.0566 276.313 73.1725C276.862 73.631 277.437 74.0402 278.002 74.4056C278.567 74.7711 279.126 75.0928 279.652 75.3707C280.707 75.9265 281.633 76.3117 282.272 76.5535C282.912 76.7953 283.267 76.8927 283.201 76.8697C284.863 77.4561 285.735 79.2768 285.148 80.9377C284.561 82.5987 282.739 83.4696 281.077 82.8831C281.012 82.8602 280.518 82.661 279.726 82.265C278.934 81.8678 277.839 81.2758 276.59 80.4443C275.966 80.0285 275.303 79.5515 274.627 79.0088C273.95 78.465 273.256 77.8555 272.58 77.164C272.413 76.9889 272.242 76.8172 272.076 76.6322C271.993 76.5403 271.91 76.4495 271.827 76.3565C271.746 76.2613 271.664 76.1661 271.583 76.0709C271.418 75.8817 271.261 75.6803 271.102 75.4801C271.061 75.4287 271.024 75.3827 270.982 75.3269L270.857 75.1595C270.775 75.0468 270.691 74.9341 270.608 74.8214C270.585 74.7908 270.572 74.77 270.557 74.747L270.511 74.6781L270.419 74.5402C270.329 74.4045 270.238 74.2678 270.148 74.131C270.009 73.9056 269.93 73.7349 269.852 73.5664C269.815 73.4855 269.785 73.41 269.752 73.3312L269.668 73.1124C269.462 72.5478 269.334 72.0598 269.214 71.5751C268.981 70.6133 268.811 69.6975 268.655 68.797C268.5 67.8976 268.368 67.0212 268.248 66.1732C268.008 64.4795 267.817 62.9061 267.663 61.5581C267.51 60.2101 267.394 59.0864 267.315 58.2997C267.238 57.5097 267.195 57.0578 267.195 57.0578C267.11 56.1694 267.761 55.3794 268.65 55.2941C269.476 55.2142 270.216 55.77 270.387 56.5622L270.394 56.5819Z" fill="#C2896D"/>
<path opacity="0.08" d="M283.203 76.8729C283.268 76.8959 282.915 76.7985 282.274 76.5567C282.008 76.4561 281.692 76.3302 281.337 76.177C280.995 76.9823 280.209 77.4703 279.292 77.536C277.249 77.6815 275.121 77.1301 273.42 75.9834C271.568 74.736 270.16 73.0051 269.1 71.0663C269.139 71.2348 269.176 71.4043 269.217 71.575C269.338 72.0597 269.466 72.5477 269.671 73.1123L269.755 73.3312C269.788 73.4099 269.819 73.4854 269.855 73.5664C269.932 73.736 270.012 73.9056 270.151 74.131C270.242 74.2677 270.332 74.4034 270.422 74.5402L270.514 74.6781L270.56 74.747C270.575 74.77 270.588 74.7908 270.611 74.8214C270.694 74.9341 270.777 75.0468 270.86 75.1595L270.985 75.3269C271.026 75.3827 271.065 75.4286 271.105 75.4801C271.264 75.6803 271.422 75.8816 271.586 76.0709C271.668 76.1661 271.749 76.2624 271.83 76.3565C271.913 76.4484 271.996 76.5403 272.08 76.6322C272.244 76.8171 272.415 76.99 272.583 77.164C273.259 77.8555 273.952 78.4649 274.63 79.0087C275.307 79.5525 275.969 80.0285 276.593 80.4442C277.842 81.2747 278.936 81.8677 279.729 82.2649C280.521 82.661 281.014 82.8601 281.08 82.8831C282.742 83.4696 284.564 82.5986 285.15 80.9377C285.735 79.2801 284.864 77.4594 283.203 76.8729Z" fill="black"/>
<path d="M283.203 76.8731C283.269 76.896 282.915 76.7987 282.274 76.5568C281.772 76.3665 281.091 76.0875 280.31 75.7056C280.201 75.768 280.093 75.8336 279.985 75.8982C279.875 75.9923 279.754 76.0721 279.621 76.1356C279.586 76.152 279.552 76.1706 279.517 76.1881C279.209 76.3862 278.905 76.593 278.609 76.8096C278.536 76.8621 278.465 76.9157 278.394 76.9693C278.372 76.9868 278.35 77.0044 278.329 77.0219C278.233 77.1192 278.138 77.2188 278.048 77.3217C278.012 77.3632 277.976 77.407 277.941 77.4497C277.845 77.6083 277.728 77.756 277.632 77.9147C277.434 78.2375 277.257 78.5723 277.099 78.9158C277.067 79.0329 277.019 79.1259 277.018 79.1128C277.012 79.127 277.006 79.1412 277 79.1544C276.931 79.3382 276.865 79.5231 276.804 79.7091C276.724 79.952 276.653 80.1971 276.585 80.4433C276.587 80.4444 276.59 80.4466 276.592 80.4476C277.841 81.2781 278.935 81.8711 279.728 82.2683C280.52 82.6644 281.013 82.8635 281.079 82.8865C282.741 83.473 284.563 82.602 285.15 80.9411C285.735 79.2802 284.864 77.4595 283.203 76.8731Z" fill="#F26968"/>
<path d="M280.716 78.6639C280.716 78.6639 280.84 75.5248 280.997 74.1166C281.554 69.1087 282.394 66.8109 282.394 66.8109L291.276 67.0724C291.276 67.0724 294.136 80.5721 292.273 79.2449C287.202 75.6309 280.716 78.6639 280.716 78.6639Z" fill="#00314E"/>
<path d="M287.534 115.348C287.534 115.348 266.226 114.329 264.823 114.997C263.42 115.664 254.955 116.012 254.955 116.012C254.955 116.012 253.992 109.486 260.801 107.822C267.61 106.158 284.645 101.09 284.645 101.09L291.508 103.872C291.509 103.872 293.275 114.528 287.534 115.348Z" fill="#12506F"/>
<path d="M290.063 111.165L284.223 103.226C284.223 103.226 281.918 103.758 272.336 102.959C265.138 102.359 260.954 103.487 259.318 104.087C258.764 104.289 258.281 104.663 257.966 105.161L257.962 105.169C257.295 105.974 255.969 107.758 254.945 110.285C253.522 113.801 244.922 128.526 244.922 128.526L248.866 130.148C248.866 130.148 256.336 121.877 258.87 118.348C260.013 116.757 261.738 113.687 261.949 110.709C265.536 111.535 275.262 113.649 282.13 114.122C290.499 114.699 290.063 111.165 290.063 111.165Z" fill="#12506F"/>
<path opacity="0.06" d="M266.317 107.96C266.181 107.903 266.059 107.836 265.94 107.766C263.695 107.488 261.334 107.924 260.114 110.476C258.646 113.549 256.947 116.515 255.207 119.445C253.169 122.879 250.835 126.107 248.248 129.145C248.065 129.359 247.871 129.527 247.672 129.657L248.866 130.148C248.866 130.148 256.336 121.876 258.871 118.348C260.014 116.757 261.544 113.558 261.755 110.578C265.341 111.404 275.263 113.648 282.13 114.121C287.554 114.494 289.277 113.143 289.82 112.144C282.142 113.84 273.172 110.835 266.317 107.96Z" fill="black"/>
<path d="M277.308 103.092C277.56 103.292 280.402 104.368 280.812 104.618C280.992 104.729 281.119 104.811 281.206 104.871C281.273 104.881 281.378 104.904 281.542 104.95C282.209 105.139 282.859 105.375 283.535 105.541C284.046 105.667 284.562 105.769 285.08 105.861C285.036 105.832 286.358 105.988 286.597 106.004C288.098 106.1 289.603 106.098 291.105 106.03C291.356 106.019 291.605 105.995 291.856 105.98C292.81 103.216 295.327 91.7315 296.094 86.8789C296.871 81.9716 295.144 80.0755 295.144 80.0755C288.409 74.841 282.422 78.0808 282.422 78.0808C280.801 79.0776 279.928 81.3217 279.63 83.3153C279.439 84.602 278.595 85.5834 277.703 87.5814C276.168 91.0181 278.81 92.8213 278.81 92.8213C278.81 92.8213 280.217 101.596 277.308 103.092Z" fill="#F26968"/>
<path opacity="0.06" d="M296.193 82.975C295.193 83.8285 294.164 84.6491 293.12 85.4489C292.916 87.9228 291.639 88.3944 290.132 90.3923C290.005 91.5817 289.362 94.7077 288.81 95.7843C287.487 98.3621 284.889 99.906 282.255 100.862C281 101.317 279.705 101.633 278.394 101.879C278.127 102.426 277.772 102.853 277.307 103.092C277.559 103.292 280.401 104.368 280.811 104.619C280.991 104.729 281.118 104.811 281.205 104.871C281.271 104.881 281.377 104.904 281.541 104.95C282.208 105.139 282.858 105.375 283.534 105.541C284.045 105.667 284.561 105.77 285.078 105.861C285.035 105.832 286.357 105.988 286.596 106.004C288.097 106.1 289.602 106.098 291.104 106.03C291.355 106.019 291.604 105.995 291.855 105.98C292.809 103.216 295.326 91.7326 296.093 86.879C296.348 85.2618 296.33 83.9773 296.193 82.975Z" fill="black"/>
<path d="M282.239 114.92L266.687 108.739C265.501 108.268 264.163 108.366 263.068 109.019C262.173 109.553 261.245 110.323 260.911 111.342C260.192 113.534 258.159 141.483 258.159 141.483L261.885 141.608C261.885 141.608 265.115 130.481 266.552 126.061C268.238 120.879 268.19 117.022 267.72 116.214C267.248 115.407 282.239 114.92 282.239 114.92Z" fill="#12506F"/>
<path opacity="0.06" d="M282.239 114.92L280.204 114.111C279.97 114.169 279.713 114.198 279.431 114.186C276.684 114.07 273.93 113.71 271.177 113.867C268.149 114.041 266.548 114.728 265.749 117.747C264.735 121.58 264.58 125.568 263.919 129.465C263.237 133.476 261.725 137.327 260.323 141.132C260.269 141.28 260.2 141.418 260.123 141.55L261.885 141.609C261.885 141.609 265.115 130.482 266.552 126.062C268.238 120.88 268.19 117.024 267.72 116.215C267.248 115.407 282.239 114.92 282.239 114.92Z" fill="black"/>
<path d="M245.421 127.875L240.364 132.15C240.364 132.15 238.904 133.007 236.993 134.222C235.568 135.129 236.921 136.615 239.326 136.294C243.216 135.776 243.346 134.87 244.901 134.999C246.455 135.128 248.012 134.222 248.012 134.222C248.012 134.222 248.963 134.006 249.093 129.99L245.421 127.875Z" fill="#C2896D"/>
<path d="M244.555 134.083C242.796 134.332 240.362 134.445 238.784 133.426C238.642 133.411 238.504 133.389 238.374 133.356C237.956 133.616 237.49 133.907 236.993 134.223C235.568 135.13 236.921 136.617 239.326 136.295C243.216 135.777 243.346 134.871 244.901 135C246.455 135.129 248.012 134.223 248.012 134.223C248.012 134.223 248.436 134.12 248.757 132.853C247.479 133.539 245.954 133.884 244.555 134.083Z" fill="white"/>
<path d="M258.384 140.83C258.384 140.83 256.829 142.774 252.68 143.94C252.275 144.054 251.412 145.121 251.916 145.437H261.884C261.884 145.437 262.316 143.94 262.057 141.219L258.384 140.83Z" fill="#C2896D"/>
<path d="M255.403 143.81C254.889 143.808 254.456 143.683 254.1 143.474C253.664 143.637 253.195 143.795 252.681 143.939C252.276 144.053 251.413 145.12 251.917 145.437H261.885C261.885 145.437 262.093 144.7 262.132 143.335C259.968 143.847 257.653 143.819 255.403 143.81Z" fill="white"/>
<path d="M295.296 80.4771C293.182 78.663 292.14 80.1609 291.249 81.4859C290.334 82.8459 289.84 89.3025 290.603 94.7962C290.958 97.3511 290.899 99.8173 291.029 101.765C286.907 101.975 279.364 101.886 279.364 101.886L275.716 102.998C275.716 102.998 287.864 109.067 295.142 105.513C295.142 105.513 295.269 104.788 295.193 103.964C296.307 101.147 296.555 95.5173 296.729 90.2293C296.872 85.8964 297.166 82.0822 295.296 80.4771Z" fill="#C2896D"/>
<path opacity="0.08" d="M290.278 91.1934C290.299 91.6465 290.327 92.1007 290.362 92.5549C290.359 92.3886 290.355 92.2222 290.347 92.0558C290.333 91.7669 290.305 91.4801 290.278 91.1934Z" fill="black"/>
<path opacity="0.08" d="M295.296 80.4771C293.182 78.663 292.141 80.1609 291.249 81.4859C290.782 82.1818 290.424 84.2092 290.288 86.7597C290.394 86.6623 290.511 86.5704 290.642 86.4862C291.605 85.8658 293.202 86.2312 293.713 87.2904C295.067 90.0958 294.87 93.0653 294.663 96.0775C294.531 97.9934 294.522 100.126 293.417 101.786C292.703 102.859 291.707 103.555 290.511 104.001C290.03 104.181 289.536 104.281 289.029 104.354C288.887 104.372 288.769 104.388 288.675 104.401C288.684 104.401 288.693 104.401 288.7 104.401C288.656 104.406 288.611 104.412 288.566 104.417C288.306 104.45 288.344 104.444 288.674 104.401C288.522 104.4 288.337 104.457 288.189 104.478C287.76 104.54 287.329 104.598 286.898 104.65C284.874 104.895 282.842 104.989 280.805 105.023C284.988 106.386 290.894 107.59 295.142 105.516C295.142 105.516 295.269 104.79 295.193 103.966C296.307 101.149 296.555 95.5195 296.729 90.2315C296.872 85.8964 297.166 82.0822 295.296 80.4771Z" fill="black"/>
<path d="M296.992 85.4788C296.908 83.2752 296.521 81.181 295.376 80.1984C293.148 78.287 292.063 80.1897 291.125 81.5858C290.626 82.3265 290.248 84.5006 290.107 87.2272C292.03 85.9 294.553 85.3497 296.992 85.4788Z" fill="#F26968"/>
<path d="M290.116 77.767L289.523 73.3083L285.232 73.4615L284.959 76.5426C284.959 76.5426 284.259 78.9257 285.705 79.3251C286.468 79.5363 288.879 79.0165 290.116 77.767Z" fill="#C2896D"/>
<path opacity="0.06" d="M290.116 77.767L289.523 73.3083L285.232 73.4615L284.959 76.5426C284.959 76.5426 284.259 78.9257 285.705 79.3251C286.468 79.5363 288.879 79.0165 290.116 77.767Z" fill="black"/>
<path d="M289.858 74.8836C289.858 74.8836 285.693 76.8706 284.348 75.8903C283.005 74.9088 282.804 73.5411 282.632 71.3156C282.461 69.0901 282.914 63.6849 286.347 63.3042C289.781 62.9234 292.956 66.0232 292.963 67.764C292.969 69.5048 291.507 72.5378 289.858 74.8836Z" fill="#C2896D"/>
<path d="M287.664 80.835C287.664 80.835 291.506 81.7519 293.415 79.1719C295.325 76.5919 294.509 65.5048 292.257 63.5058C290.005 61.5068 287.707 61.1074 284.955 62.4335C282.203 63.7586 281.766 67.6494 281.766 67.6494C281.766 67.6494 288.653 68.0728 289.267 68.6166C289.593 68.9055 289.846 70.1911 289.801 71.3892C289.567 77.5515 287.664 80.835 287.664 80.835Z" fill="#00314E"/>
<path d="M310.463 135.559C312.061 130.062 315.995 107.828 316.999 102.341H299.921C294.193 102.341 289.551 106.98 289.551 112.704L286.515 137.499H309.818C310.05 136.858 310.272 136.215 310.463 135.559Z" fill="#544B3F"/>
<path d="M312.896 137.499H293.474L296.068 114.281C296.068 107.687 301.418 102.341 308.017 102.341H321.022C321.022 102.341 319.836 121.485 317.84 133.314C317.433 135.728 315.346 137.499 312.896 137.499Z" fill="#312D27"/>
<path d="M270.431 51.4089L270.327 53.3467C270.327 53.3467 270.434 53.3095 270.138 53.4123C269.87 53.5064 269.593 52.0337 269.291 51.5818L268.235 48.2326C268.2 47.9995 267.996 47.8387 267.778 47.8671C267.56 47.8956 267.404 48.1046 267.431 48.3387L268.182 51.5577C268.111 51.5752 268.039 51.5938 267.967 51.6135C267.962 51.5971 267.955 51.5807 267.949 51.5654L266.508 48.2074C266.414 47.9908 266.176 47.8868 265.972 47.9689C265.768 48.0521 265.671 48.2928 265.755 48.5127L267.067 51.9166C267.002 51.9429 266.95 51.9637 266.916 51.9801C266.907 51.9834 266.898 51.9888 266.888 51.9954L265.324 49.1079C265.217 48.9088 264.972 48.8333 264.778 48.934C264.583 49.0346 264.504 49.2775 264.603 49.4799L266.155 52.63C266.159 52.6399 266.165 52.6486 266.17 52.6585C266.035 52.7974 265.894 52.944 265.764 53.0819L264.456 50.666C264.36 50.4909 264.146 50.4242 263.974 50.5128C263.802 50.6014 263.732 50.8159 263.821 50.9942L265.167 53.7285C265.158 53.7395 265.152 53.745 265.152 53.745C265.152 53.745 265.705 55.0601 266.168 55.8621C266.631 56.6653 267.635 57.4596 267.635 57.4596C267.635 57.4596 269 56.964 270.041 56.7495C271.297 56.4913 271.446 52.9254 271.446 52.9254L271.17 50.8498C270.536 50.678 270.431 51.4089 270.431 51.4089Z" fill="#C2896D"/>
<path opacity="0.5" d="M284.124 72.711C284.124 72.711 286.094 73.5866 287.299 73.1488C287.299 73.1488 284.89 75.8852 284.124 72.711Z" fill="white"/>
<path d="M235.337 109.781L215.508 113.66C214.93 113.773 214.369 113.396 214.256 112.818L213.784 103.742L210.586 94.0811C210.473 93.5034 210.85 92.9432 211.428 92.8305L221.878 91.7189L231.257 88.9518C231.835 88.8391 232.396 89.2155 232.508 89.7932L236.179 108.532C236.291 109.108 235.915 109.667 235.337 109.781Z" fill="#C0A9A8"/>
<path opacity="0.06" d="M245.918 108.531L243.117 94.229C242.578 95.4796 241.632 96.5584 240.671 97.4961C240.302 97.8561 239.919 98.2008 239.515 98.5214C238.721 99.1505 237.815 99.5531 236.865 99.8978C235.127 100.528 233.112 100.774 231.304 100.305C230.266 100.035 229.285 99.4733 228.546 98.6975C228.384 98.5268 228.232 98.3474 228.072 98.1745C227.99 98.0859 227.902 98.0016 227.821 97.913C227.817 97.9075 227.805 97.8955 227.79 97.8802C227.741 97.8375 227.673 97.7784 227.645 97.7576C227.571 97.7062 227.498 97.6559 227.424 97.6055C227.224 97.4721 227.022 97.3429 226.817 97.216C225.121 96.1656 223.382 95.2553 221.858 93.9467C221.506 93.6436 221.309 93.2453 221.24 92.8197L221.166 92.8274C220.588 92.9401 220.211 93.5003 220.324 94.078L223.522 103.739L223.994 112.815C224.107 113.393 224.668 113.77 225.246 113.657L245.075 109.778C245.654 109.668 246.031 109.108 245.918 108.531Z" fill="black"/>
<path d="M250.648 111.722L230.45 111.161C229.861 111.144 229.396 110.707 229.41 110.183L230.914 102.206L229.883 93.1818C229.897 92.6577 230.386 92.2463 230.975 92.2627L241.418 93.3678L251.173 92.824C251.762 92.8405 252.228 93.2781 252.212 93.8022L250.711 102.805L251.739 110.803C251.726 111.326 251.237 111.739 250.648 111.722Z" fill="white"/>
<path opacity="0.06" d="M255.268 107.99C253.463 107.545 251.628 106.893 250.043 105.907C248.37 104.864 247.054 103.437 245.924 101.84C244.928 100.432 244.132 98.8964 243.251 97.4171C242.806 96.6709 242.331 95.952 241.824 95.2485C241.819 95.2441 241.817 95.2408 241.813 95.2354C241.745 95.1533 241.678 95.0712 241.609 94.9903C241.471 94.8283 241.33 94.6686 241.184 94.5132C240.89 94.1981 240.578 93.9027 240.253 93.6204C239.992 93.395 239.817 93.1171 239.715 92.8162C239.658 92.9278 239.625 93.0514 239.622 93.1816L240.653 102.206L239.149 110.183C239.135 110.707 239.6 111.144 240.188 111.161L260.386 111.722C260.975 111.739 261.463 111.327 261.479 110.803L261.211 108.724C259.221 108.754 257.195 108.466 255.268 107.99Z" fill="black"/>
<path d="M195.715 78.2369C195.715 78.2369 195.949 78.4634 196.358 78.8595C196.765 79.2599 197.359 79.8212 198.065 80.4985C198.77 81.1747 199.606 81.9483 200.501 82.7536C200.949 83.1551 201.416 83.5589 201.886 83.9495C202.121 84.1442 202.359 84.3346 202.593 84.5097C202.711 84.6005 202.825 84.6793 202.94 84.7613L203.107 84.8718L203.127 84.8861L203.137 84.8926C203.165 84.9134 203.106 84.8686 203.114 84.8751L203.121 84.8795L203.172 84.9134L203.223 84.9462L203.239 84.9517L203.254 84.9583L203.284 84.9736L203.352 85.0086C203.4 85.0327 203.45 85.0568 203.505 85.0819C203.615 85.1312 203.731 85.1815 203.856 85.2307C204.103 85.3292 204.372 85.4244 204.646 85.513C205.197 85.6914 205.771 85.8544 206.334 85.9988C206.899 86.1421 207.455 86.2767 207.986 86.3949C208.517 86.5142 209.024 86.6192 209.492 86.7133C210.432 86.8993 211.218 87.0514 211.767 87.1466C212.307 87.2418 212.616 87.2965 212.616 87.2965L212.643 87.3008C213.906 87.523 214.749 88.7265 214.527 89.9881C214.304 91.2496 213.1 92.0921 211.837 91.87C211.808 91.8645 211.771 91.8569 211.741 91.8514C211.741 91.8514 211.655 91.8328 211.491 91.7967C211.334 91.7606 211.106 91.7114 210.818 91.6403C210.242 91.498 209.423 91.3 208.445 91.021C207.956 90.882 207.427 90.7266 206.867 90.5527C206.307 90.3776 205.715 90.1883 205.103 89.9662C204.49 89.7452 203.854 89.5034 203.199 89.2134C202.87 89.0668 202.537 88.9093 202.192 88.7276C202.02 88.6379 201.845 88.5383 201.666 88.4311C201.576 88.3775 201.485 88.3195 201.392 88.2593C201.346 88.2298 201.298 88.1959 201.251 88.1641L201.176 88.1127L201.09 88.0503L201.004 87.9869L200.955 87.9475L200.907 87.9081L200.901 87.9037C200.906 87.907 200.842 87.8589 200.865 87.8764L200.851 87.8643L200.824 87.8403L200.603 87.6466C200.465 87.5186 200.326 87.3906 200.197 87.2647C199.937 87.0109 199.695 86.7603 199.46 86.5098C198.991 86.0108 198.559 85.513 198.149 85.0294C197.738 84.5469 197.355 84.0742 196.997 83.6245C196.639 83.1748 196.305 82.747 196 82.352C195.386 81.562 194.9 80.8869 194.555 80.4186C194.383 80.1834 194.252 79.9952 194.161 79.8683C194.07 79.7392 194.022 79.6702 194.022 79.6702C193.667 79.168 193.788 78.4732 194.29 78.1198C194.735 77.8058 195.331 77.8638 195.707 78.2293L195.715 78.2369Z" fill="#DE9D78"/>
<path opacity="0.08" d="M211.552 88.0229C209.14 88.1957 206.565 88.4529 204.236 87.6191C200.829 86.4002 198.101 83.8891 195.372 81.5258C195.564 81.7818 195.773 82.0586 196.001 82.3518C196.306 82.7479 196.64 83.1747 196.998 83.6244C197.356 84.0751 197.739 84.5478 198.15 85.0292C198.561 85.5118 198.992 86.0107 199.461 86.5096C199.695 86.7602 199.937 87.0108 200.199 87.2646C200.327 87.3915 200.466 87.5185 200.604 87.6465L200.825 87.8401L200.867 87.8762C200.843 87.8587 200.907 87.9069 200.903 87.9036L200.908 87.908L200.956 87.9474L201.006 87.9868L201.091 88.0502L201.178 88.1126L201.252 88.164C201.299 88.1957 201.347 88.2297 201.393 88.2592C201.486 88.3205 201.577 88.3774 201.667 88.431C201.847 88.5382 202.023 88.6378 202.194 88.7275C202.539 88.9102 202.871 89.0667 203.2 89.2133C203.856 89.5044 204.491 89.7451 205.104 89.9661C205.716 90.1882 206.308 90.3775 206.868 90.5526C207.428 90.7265 207.957 90.8819 208.447 91.0209C209.425 91.2999 210.244 91.4979 210.819 91.6402C211.107 91.7113 211.336 91.7605 211.493 91.7966C211.656 91.8327 211.742 91.8513 211.742 91.8513C211.771 91.8579 211.809 91.8656 211.839 91.8699C213.101 92.092 214.306 91.2495 214.528 89.988C214.66 89.2385 214.416 88.5109 213.932 87.9955C213.136 87.9769 212.34 87.966 211.552 88.0229Z" fill="black"/>
<path d="M206.914 90.7877L208.432 86.3881L213.444 87.2985L211.014 92.7605L206.914 90.7877Z" fill="white"/>
<path opacity="0.06" d="M207.2 89.9584L206.915 90.7878L211.014 92.7605L212.806 88.7296C210.989 89.3675 209.146 89.907 207.2 89.9584Z" fill="black"/>
<path d="M225.749 139.255C225.431 139.655 225.526 139.836 225.547 140.348C225.575 141.092 225.043 142.468 224.11 143.067C222.673 143.988 223.782 145.126 223.782 145.126C223.782 145.126 226.584 145.212 227.282 144.676C229.13 143.257 229.485 141.626 229.551 141.064C229.631 140.388 229.173 139.947 228.486 139.227C227.876 138.588 227.581 138.504 227.404 138.447C226.752 138.238 226.209 138.678 225.749 139.255Z" fill="#6CBF84"/>
<path d="M226.815 144.12C228.17 143.149 228.708 141.429 229.087 139.874C229.419 140.267 229.606 140.613 229.552 141.063C229.485 141.624 228.835 144.365 226.627 145.11C224.999 145.661 223.782 145.125 223.782 145.125C223.782 145.125 223.679 145.015 223.576 144.84C224.709 144.957 225.847 144.814 226.815 144.12Z" fill="#1C3A57"/>
<path d="M215.415 109.95L215.195 110.912L215.005 111.798L214.819 112.734L214.64 113.681C214.395 114.948 214.162 116.229 213.94 117.516C213.717 118.803 213.5 120.093 213.291 121.386L212.68 125.265L212.69 125.083C212.69 125.083 212.684 129.666 212.593 131.01C212.454 133.067 211.563 138.635 211.563 138.635L211.159 143.152C211.098 143.838 210.492 144.344 209.806 144.282C209.181 144.227 208.706 143.721 208.671 143.114L208.404 138.587L208.164 134.061L207.687 125.008L207.696 124.826L207.758 122.831L207.83 120.842C207.881 119.516 207.939 118.189 208.004 116.858C208.07 115.528 208.145 114.195 208.239 112.852L208.319 111.842L208.408 110.822L208.519 109.756L208.635 108.772C208.856 106.883 210.569 105.532 212.459 105.754C214.348 105.975 215.701 107.686 215.478 109.575C215.464 109.697 215.443 109.819 215.416 109.937L215.415 109.95Z" fill="#DE9D78"/>
<path opacity="0.08" d="M212.46 105.754C210.571 105.533 208.859 106.884 208.637 108.772L208.521 109.757L208.41 110.822L208.321 111.842L208.241 112.852C208.147 114.196 208.072 115.529 208.006 116.859C207.952 117.963 207.903 119.066 207.86 120.166C208.605 120.008 209.443 120.196 209.937 120.763C211.461 122.514 211.632 124.946 211.621 127.171C211.612 128.848 211.424 130.519 211.416 132.195C211.406 134.468 211.51 136.738 211.468 139.011C211.462 139.358 211.452 139.705 211.438 140.053L211.565 138.633C211.565 138.633 212.456 133.065 212.595 131.008C212.677 129.795 212.689 125.943 212.691 125.205L213.293 121.384C213.502 120.091 213.719 118.8 213.942 117.514C214.164 116.227 214.397 114.946 214.642 113.679L214.821 112.732L215.007 111.796L215.197 110.91L215.417 109.948L215.42 109.935C215.446 109.817 215.467 109.696 215.482 109.573C215.701 107.686 214.349 105.976 212.46 105.754Z" fill="black"/>
<path d="M214.326 120.333C214.426 119.744 214.576 119.002 214.678 118.413C214.915 117.038 215.249 112.216 215.249 112.216L215.452 111.268L215.687 110.241L215.69 110.227C215.719 110.1 215.741 109.971 215.757 109.839C215.994 107.821 214.548 105.992 212.528 105.755C210.508 105.519 208.679 106.963 208.441 108.982L208.212 110.058C208.212 110.058 207.21 119.114 207.184 119.709C207.531 119.764 209.545 120.721 214.326 120.333Z" fill="#F26968"/>
<path opacity="0.05" d="M213.888 106.195C213.838 106.52 213.778 106.843 213.709 107.162C214.196 107.591 214.507 108.234 214.535 108.892C214.638 111.219 214.179 113.657 213.466 115.866C212.943 117.482 212.253 119.067 211.241 120.408C212.108 120.444 213.13 120.431 214.325 120.335C214.425 119.745 214.575 119.003 214.677 118.415C214.914 117.04 215.248 112.218 215.248 112.218L215.451 111.271L215.686 110.243L215.69 110.229C215.718 110.102 215.74 109.973 215.756 109.842C215.936 108.314 215.153 106.897 213.888 106.195Z" fill="black"/>
<path d="M227.648 138.566C227.648 138.566 224.941 130.098 224.262 128.346C222.772 124.498 221.902 123.011 221.902 123.011C221.902 123.011 221.198 120.093 221.063 119.204C220.795 117.426 220.609 115.773 220.524 114.372C220.48 113.672 220.455 113.036 220.445 112.478C220.439 112.244 220.438 112.025 220.439 111.821C220.14 111.833 219.84 111.846 219.54 111.856C218.777 111.881 218.014 111.891 217.251 111.868C216.241 111.838 215.23 111.853 214.243 111.583C214.148 111.557 214.055 111.528 213.964 111.495C214.047 112.437 214.192 113.694 214.459 115.136C214.747 116.709 215.151 118.505 215.688 120.385C215.955 121.326 216.202 122.305 216.572 123.259C217.575 125.847 219.665 129.032 220.562 130.681C221.465 132.327 222.307 133.865 223.03 135.182C224.486 137.811 225.457 139.564 225.457 139.564C225.74 140.076 226.362 140.32 226.928 140.113C227.555 139.885 227.877 139.192 227.648 138.566Z" fill="#DE9D78"/>
<path opacity="0.08" d="M216.026 121.586C216.878 121.05 218.08 121.213 218.806 121.911C220.285 123.335 221.387 125.109 222.222 126.973C222.991 128.693 227.056 138.761 227.545 139.607C227.729 139.304 227.779 138.924 227.649 138.565C227.649 138.565 224.941 130.097 224.263 128.345C222.772 124.497 221.903 123.01 221.903 123.01C221.903 123.01 221.199 120.092 221.064 119.203C220.796 117.425 220.61 115.772 220.525 114.371C220.481 113.671 220.456 113.035 220.446 112.477C220.44 112.243 220.439 112.024 220.44 111.82C220.141 111.832 219.841 111.845 219.541 111.855C218.778 111.88 218.015 111.89 217.252 111.867C216.242 111.837 215.231 111.852 214.244 111.582C214.149 111.556 214.057 111.527 213.965 111.494C214.048 112.436 214.193 113.693 214.46 115.135C214.748 116.709 215.152 118.504 215.69 120.384C215.801 120.78 215.91 121.183 216.026 121.586Z" fill="black"/>
<path d="M213.382 110.127C213.397 110.338 212.849 111.567 212.867 111.838C212.952 112.867 214.821 119.052 215.18 120.462C217.451 120.434 219.845 119.933 221.826 119.44C221.686 118.301 221.037 112.91 220.955 110.853C220.817 107.372 219.239 106.173 217.274 106.268C215.311 106.363 213.373 109.937 213.382 110.127Z" fill="#F26968"/>
<path opacity="0.05" d="M215.51 108.347C217.919 109.757 219.569 112.216 220.553 114.777C221.143 116.312 221.424 117.944 221.35 119.556C221.511 119.517 221.671 119.478 221.827 119.438C221.687 118.299 221.038 112.909 220.956 110.851C220.818 107.37 219.24 106.172 217.275 106.267C216.609 106.299 215.946 106.732 215.361 107.297C215.442 107.641 215.49 107.995 215.51 108.347Z" fill="black"/>
<path d="M221.666 91.9337C221.234 95.8365 219.612 100.351 220.544 108.514C220.544 108.514 218.722 109.527 214.774 109.83C210.631 110.148 208.396 109.324 208.396 109.324C208.396 109.324 206.304 98.8706 209.899 88.8165C210.426 87.3437 213.436 86.5012 219.599 88.4182C221.118 88.8898 221.842 90.3548 221.666 91.9337Z" fill="white"/>
<path opacity="0.06" d="M221.393 90.008C221.29 90.4905 221.005 90.9195 220.624 91.2346C221.562 92.1088 221.353 93.4929 220.613 94.3945C220.608 94.4021 220.603 94.4098 220.598 94.4186C220.557 94.4809 220.513 94.5422 220.473 94.6057C220.35 94.7939 220.236 94.9886 220.131 95.1877C220.051 95.3398 219.99 95.528 219.901 95.6779C219.873 95.7534 219.844 95.83 219.818 95.9066C219.532 96.7261 219.345 97.5774 219.201 98.4319C219.165 98.6453 219.132 98.8586 219.1 99.072C219.097 99.0928 219.094 99.1147 219.092 99.1355C219.12 99.0063 219.17 98.8958 219.069 99.2985C219.027 99.6442 218.984 99.99 218.943 100.337C218.833 101.282 218.721 102.229 218.58 103.17C218.346 104.721 217.974 106.254 217.152 107.611C216.694 108.367 216.129 109.099 215.485 109.767C218.943 109.406 220.546 108.517 220.546 108.517C219.615 100.353 221.236 95.8388 221.669 91.9359C221.743 91.2455 221.649 90.5803 221.393 90.008Z" fill="black"/>
<path d="M217.363 87.6098C217.127 87.0212 216.916 86.1612 217.143 85.2465L214.633 84.7224C214.633 84.7224 213.056 86.5179 213.79 88.9064C213.79 88.9064 215.084 90.0618 216.659 89.2248C217.273 88.8977 217.621 88.2554 217.363 87.6098Z" fill="#DE9D78"/>
<path opacity="0.08" d="M216.86 87.1425C216.968 87.1151 217.073 87.0844 217.18 87.0527C217.044 86.5317 216.979 85.9045 217.142 85.2467L214.633 84.7224C214.633 84.7224 213.99 85.4557 213.716 86.6072C214.681 87.5069 216.346 87.2705 216.86 87.1425Z" fill="black"/>
<path d="M214.844 75.6587C214.844 75.6587 211.407 81.3713 212.532 84.2741C213.177 85.9383 215.518 86.9274 217.779 86.0149C220.04 85.1023 221.857 80.9719 221.857 80.9719L214.844 75.6587Z" fill="#DE9D78"/>
<path d="M216.9 78.1837C216.9 78.1837 217.53 78.3106 218.722 79.2461C219.259 79.6674 219.269 81.0657 219.077 81.5056C218.722 82.3152 220.2 81.8371 220.893 82.5472C220.893 82.5472 222.562 81.3513 222.192 78.71C221.861 76.3466 219.634 76.1442 219.634 76.1442C219.634 76.1442 218.217 73.9187 214.844 75.6595C212.836 76.6957 213.054 78.3708 213.054 78.3708L216.9 78.1837Z" fill="#132C39"/>
<path d="M219.077 85.0961C219.077 85.0961 220.555 82.9308 219.133 80.1648L222.267 79.9876C222.266 79.9876 222.013 84.4889 219.077 85.0961Z" fill="#132C39"/>
<path d="M219.472 82.0951C219.472 82.0951 220.862 81.3486 220.571 82.4563C220.28 83.564 219.172 84.3477 218.858 84.0193L219.472 82.0951Z" fill="#DE9D78"/>
<path d="M203.059 144.946C203.059 144.946 202.529 143.705 204.214 143.422C204.945 143.3 207.888 142.419 208.452 141.773C208.452 141.773 208.763 142.281 209.357 142.466C209.95 142.651 211.323 142.452 211.323 142.452C211.323 142.452 211.502 143.822 211.554 144.916C211.579 145.438 211.135 145.762 210.614 145.8C207.574 146.018 203.059 144.946 203.059 144.946Z" fill="#6CBF84"/>
<path d="M203.199 143.9C205.687 145.142 208.686 145.148 211.55 144.878C211.55 144.89 211.551 144.903 211.552 144.916C211.577 145.438 211.132 145.763 210.611 145.801C207.575 146.019 203.059 144.948 203.059 144.948C203.059 144.948 202.808 144.359 203.199 143.9Z" fill="#1C3A57"/>
<path opacity="0.4" d="M213.724 82.6038C213.977 85.812 216.932 83.5671 216.932 83.5671L213.724 82.6038Z" fill="#FAF7F4"/>
<path d="M218.302 91.8022C219.406 94.7291 221.187 99.7709 222.294 101.493C223.059 104.889 224.394 108.975 225.379 112.316C226.391 115.75 227.361 112.183 227.353 112.026C226.927 103.575 226.324 102.25 225.312 99.3387C224.722 97.6395 223.589 95.0169 222.946 93.3373C222.563 92.3373 222.281 90.521 221.305 89.9159C219.994 89.1041 217.418 89.4553 218.302 91.8022C218.619 92.6436 217.943 90.8492 218.302 91.8022Z" fill="#DE9D78"/>
<path opacity="0.08" d="M221.304 89.9169C222.28 90.5219 222.562 92.3371 222.945 93.3383C223.589 95.0178 224.721 97.6405 225.311 99.3397C226.123 101.672 226.67 102.99 227.075 107.767C227.043 107.653 227.008 107.542 226.974 107.429C226.739 105.742 226.311 104.111 225.674 102.433C224.671 99.7905 223.758 96.9217 222.301 94.4915C222.065 94.0976 221.729 93.9051 221.377 93.8602C220.981 93.3613 220.391 93.2858 219.893 93.4751C219.45 92.8306 218.934 92.2387 218.277 91.731C217.473 89.4486 220.008 89.1127 221.304 89.9169Z" fill="black"/>
<path d="M218.963 95.1271C218.613 94.232 218.254 92.7823 217.914 91.8829C217.506 90.7975 218.035 89.5753 219.116 89.1366C220.216 88.6913 221.467 89.2208 221.914 90.3183C222.299 91.2691 222.663 92.2276 223.037 93.1828L223.265 93.7867C222.177 94.6391 220.36 95.2671 218.963 95.1271Z" fill="white"/>
<path d="M225.215 112.259C225.215 112.259 223.819 114.412 224.935 114.342C225.354 114.315 225.699 115.526 225.798 115.981C225.798 115.981 228.685 116.25 228.529 114.904C228.359 113.419 227.207 111.728 227.207 111.728L225.215 112.259Z" fill="#DE9D78"/>
<path d="M225.283 112.303C225.283 112.303 224.842 112.815 224.398 113.415C223.955 114.014 223.508 115.877 223.508 115.877C223.508 115.877 223.852 116.055 224.244 115.387C224.636 114.717 224.565 114.322 225.482 113.848C226.086 113.538 225.283 112.303 225.283 112.303Z" fill="#DE9D78"/>
<path d="M224.848 113.947C224.848 113.947 225.811 115.991 225.853 116.66C225.896 117.327 225.917 117.961 225.994 118.229C226.114 118.651 226.463 118.533 226.463 118.533C226.463 118.533 226.481 117.189 226.445 116.769C226.409 116.349 226.073 114.53 226.073 114.53L224.848 113.947Z" fill="#DE9D78"/>
<path d="M225.739 114.03C225.739 114.03 226.601 116.07 226.69 116.733C226.86 117.993 226.842 118.131 226.938 118.392C227.109 118.866 227.428 118.728 227.428 118.728C227.428 118.728 227.403 117.287 227.354 116.868C227.304 116.45 226.798 114.517 226.798 114.517L225.739 114.03Z" fill="#DE9D78"/>
<path d="M228.351 114.444C228.351 114.444 228.792 115.788 228.931 116.108C229.069 116.43 229.416 117.693 229.416 117.693C229.416 117.693 229.253 117.912 229.045 117.665C228.837 117.419 228.377 116.339 228.377 116.339L227.516 115.006L228.351 114.444Z" fill="#DE9D78"/>
<path d="M227.881 115.479C227.881 115.479 228.15 116.659 228.204 116.792C228.259 116.924 228.519 118.551 228.519 118.551C228.519 118.551 228.144 118.837 227.993 118.258C227.874 117.801 227.695 117.074 227.695 117.074L227.124 115.518C227.125 115.517 227.718 115.178 227.881 115.479Z" fill="#DE9D78"/>
<path d="M196.142 78.7543C196.037 78.3614 195.129 76.6765 194.862 76.1852C194.814 76.0966 194.746 76.02 194.664 75.9609L192.061 74.0986C192.061 74.0986 191.538 74.1873 191.808 74.6129L192.986 75.9127C192.986 75.9127 191.537 77.0069 191.249 77.4949C191.249 77.4949 191.485 78.4731 192.075 79.1098C192.075 79.1098 192.307 78.9315 192.386 78.8637C192.386 78.8637 192.913 79.8867 194.358 79.8298C195.803 79.7729 196.142 78.7543 196.142 78.7543Z" fill="#DE9D78"/>
<path d="M88.8963 92.1509L67.6803 92.3161L68.2354 68.2765L87.9667 68.1233L88.8963 92.1509Z" fill="#E9C68F"/>
<path d="M79.9696 72.0544L76.2929 72.0828C75.0425 72.0927 74.0177 71.0904 74.0079 69.8486L73.9838 66.6909C73.9739 65.449 74.9834 64.4304 76.2327 64.4205L79.9094 64.3921C81.1598 64.3822 82.1846 65.3845 82.1945 66.6263L82.2186 69.784C82.2284 71.027 81.2189 72.0445 79.9696 72.0544ZM76.2415 65.553C75.6196 65.5573 75.117 66.065 75.1214 66.6832L75.1455 69.8409C75.1498 70.4591 75.6601 70.9581 76.2831 70.9537L79.9598 70.9252C80.5817 70.9208 81.0842 70.4132 81.0799 69.795L81.0558 66.6373C81.0514 66.0191 80.5412 65.5201 79.9182 65.5245L76.2415 65.553Z" fill="#E9C68F"/>
<path d="M45.1909 88.915C45.1909 88.915 45.192 89.7256 45.193 91.1448C45.1952 91.8528 45.1984 92.7137 45.2017 93.7002C45.2028 94.194 45.2038 94.7184 45.206 95.2712C45.2103 95.824 45.2146 96.4064 45.2189 97.0127C45.233 99.4403 45.2502 102.273 45.2675 105.309C45.2761 106.829 45.2848 108.399 45.2934 109.994C45.2966 111.601 45.2999 113.234 45.302 114.868V115.476L45.2977 116.103L45.2923 116.729C45.2912 116.939 45.2891 117.146 45.2848 117.347C45.2707 118.158 45.2589 118.969 45.2384 119.767C45.206 121.366 45.1661 122.932 45.124 124.448C45.083 125.962 45.043 127.426 45.0053 128.814C44.9643 130.2 44.9254 131.511 44.8898 132.72C44.8207 135.139 44.7636 137.154 44.7236 138.564C44.6869 139.976 44.6654 140.782 44.6654 140.782C44.6351 141.93 43.6909 142.837 42.5568 142.807C41.4873 142.778 40.6305 141.927 40.5604 140.868L40.5593 140.856C40.5593 140.856 40.5463 140.657 40.5226 140.281C40.4978 139.905 40.4622 139.353 40.4158 138.652C40.3672 137.95 40.3068 137.097 40.2388 136.12C40.1687 135.143 40.0931 134.04 39.9971 132.837C39.9021 131.636 39.7985 130.333 39.6884 128.956C39.6323 128.267 39.5741 127.561 39.5147 126.838C39.4564 126.116 39.3928 125.378 39.3248 124.629C39.2568 123.88 39.1877 123.118 39.1176 122.348C39.0464 121.578 38.9741 120.799 38.8953 120.017C38.8187 119.232 38.7334 118.448 38.6514 117.659C38.6309 117.46 38.6093 117.267 38.5867 117.076L38.5198 116.499L38.4539 115.922L38.3806 115.327L38.305 114.727L38.2867 114.577L38.277 114.502L38.2748 114.483C38.2748 114.49 38.2716 114.442 38.2748 114.493L38.2694 114.456L38.2241 114.16C38.1637 113.765 38.1032 113.371 38.0428 112.978C37.9187 112.19 37.7957 111.404 37.6727 110.625C37.4255 109.065 37.1719 107.53 36.9216 106.045C36.6755 104.558 36.4284 103.121 36.1878 101.759C35.9482 100.396 35.7216 99.1081 35.5133 97.9184C35.4076 97.3241 35.3072 96.7538 35.2112 96.2119C35.1119 95.67 35.0169 95.1565 34.9284 94.6736C34.7504 93.7089 34.595 92.8666 34.4666 92.1739C34.336 91.4824 34.2324 90.9383 34.1623 90.568C34.091 90.1976 34.0533 90.0009 34.0533 90.0009C33.4608 86.9168 35.4507 83.9298 38.4971 83.3311C41.5435 82.7313 44.4938 84.7459 45.0851 87.8301C45.1531 88.1819 45.1866 88.5326 45.1887 88.8778L45.1909 88.915Z" fill="#2F2B27"/>
<path d="M40.3294 90.5418C40.3294 90.5418 40.0956 91.3266 39.6859 92.7005C39.4838 93.3881 39.2379 94.2231 38.956 95.1806C38.8151 95.6594 38.6654 96.1687 38.507 96.7065C38.3519 97.2442 38.188 97.8093 38.0175 98.3996C37.6767 99.58 37.3085 100.858 36.9173 102.21C36.7218 102.885 36.5218 103.58 36.3164 104.29C36.1154 105 35.91 105.726 35.7002 106.465C35.2828 107.942 34.8513 109.468 34.4132 111.017C34.1947 111.792 33.9729 112.574 33.7522 113.359C33.6418 113.751 33.5304 114.143 33.4189 114.537L33.2518 115.127L33.2408 115.164C33.2376 115.176 33.2474 115.129 33.2408 115.158L33.2365 115.176L33.2168 115.251L33.1786 115.399L33.101 115.696C32.8869 116.503 32.712 117.235 32.5219 118.002C32.3384 118.784 32.1505 119.56 31.9746 120.34C31.7943 121.117 31.6217 121.89 31.4534 122.657C31.2852 123.424 31.1191 124.182 30.9552 124.926C30.7924 125.672 30.634 126.406 30.4843 127.126C30.3335 127.847 30.186 128.551 30.0429 129.236C29.7589 130.609 29.4912 131.907 29.2432 133.105C28.9952 134.304 28.7788 135.405 28.5854 136.38C28.3942 137.356 28.2271 138.206 28.0894 138.907C27.955 139.608 27.8491 140.159 27.7769 140.535C27.7059 140.909 27.6677 141.109 27.6677 141.109L27.6666 141.113C27.4525 142.242 26.3643 142.984 25.2345 142.771C24.1715 142.57 23.4526 141.582 23.5509 140.525C23.5509 140.525 23.6296 139.709 23.7672 138.283C23.9027 136.856 24.095 134.82 24.3266 132.376C24.4413 131.153 24.567 129.828 24.6992 128.426C24.8347 127.024 24.9789 125.544 25.1264 124.013C25.2728 122.481 25.4334 120.898 25.6017 119.283C25.6814 118.477 25.7754 117.658 25.8639 116.837C25.9633 116.004 26.0638 115.126 26.172 114.334L26.2572 113.701L26.3326 113.092C26.3828 112.686 26.4331 112.281 26.4823 111.877C26.5817 111.068 26.6811 110.261 26.7794 109.461C26.9761 107.862 27.1706 106.287 27.3585 104.763C27.4514 104.001 27.5431 103.253 27.6338 102.519C27.7201 101.785 27.8043 101.067 27.8862 100.368C28.0501 98.9701 28.2063 97.6487 28.3494 96.4278C28.4205 95.8178 28.4893 95.2331 28.5548 94.6767C28.6171 94.1204 28.6761 93.5925 28.7318 93.0962C28.8433 92.1038 28.9405 91.2381 29.0203 90.5265C29.1754 89.1001 29.2639 88.2858 29.2639 88.2858C29.6015 85.1718 32.3996 82.9213 35.5134 83.259C38.6261 83.5968 40.8757 86.396 40.5381 89.5111C40.5009 89.8488 40.4365 90.1757 40.3447 90.4905L40.3294 90.5418Z" fill="#2F2B27"/>
<path d="M40.1589 139.97C38.9611 144.73 40.1546 144.685 40.1546 144.685L52.8338 144.699C52.8338 144.699 53.3514 142.616 50.5115 142.339C48.6809 142.161 44.4151 139.974 44.4151 139.974L40.1589 139.97Z" fill="#544B3F"/>
<path d="M23.3062 139.97C22.0392 143.624 22.8531 144.675 22.8531 144.675L32.0177 144.699C32.0177 144.699 32.5512 142.412 29.6727 142.344C29.1599 142.332 27.2507 139.975 27.2507 139.975L23.3062 139.97Z" fill="#544B3F"/>
<path d="M42.9366 50.0436C38.6412 45.9362 27.0757 61.3047 24.7183 64.1582C21.704 67.8072 20.7624 67.8739 23.3858 71.3698C25.6818 74.429 29.3005 78.8997 32.1375 81.46C34.0098 83.1494 37.4379 84.586 36.6321 80.6055C36.3124 79.0288 34.0678 76.5495 33.1743 75.2135C32.1889 73.7397 31.4827 72.2035 30.448 70.7636C29.6159 69.6071 28.7257 68.9911 28.6326 68.6803C28.5385 68.3707 47.8549 54.7474 42.9366 50.0436Z" fill="#EB996B"/>
<path opacity="0.08" d="M34.4368 76.9062C31.8659 75.6665 26.4986 69.3926 27.7217 68.0107C28.5866 67.0336 30.5936 65.2206 31.7345 64.6517C32.3838 64.3278 33.0736 64.2884 33.6747 64.5182C38.9828 60.0311 46.1578 53.1237 42.9366 50.0436C38.6412 45.9362 27.0757 61.3047 24.7183 64.1582C21.704 67.8072 20.7624 67.8739 23.3858 71.3698C25.6818 74.429 29.3005 78.8997 32.1374 81.46C34.0097 83.1494 37.4379 84.586 36.632 80.6055C36.4229 79.5693 35.3806 78.1425 34.4368 76.9062Z" fill="black"/>
<path d="M32.6126 64.6429C37.6963 60.3331 46.7611 53.7003 42.9366 50.0437C39.7416 46.9877 34.8189 49.3248 27.6231 59.8768C27.68 59.972 29.1023 62.2971 32.6126 64.6429Z" fill="#6CBF84"/>
<path opacity="0.08" d="M31.2123 63.6265C33.7875 60.088 37.0438 57.0572 40.9318 55.0231C41.568 54.6905 42.2556 54.6555 42.8556 54.8831C44.0217 53.0504 44.3085 51.3555 42.9377 50.0437C39.7427 46.9877 34.82 49.3248 27.6243 59.8768C27.6713 59.9578 28.7192 61.6668 31.2123 63.6265Z" fill="black"/>
<path d="M32.1857 59.5735C32.4244 65.3714 31.9995 73.4638 29.7265 86.1986C29.7265 86.1986 33.8105 89.4472 44.3019 87.3639C44.3019 87.3639 49.0867 66.0399 49.067 64.03C48.9827 55.7341 46.6604 53.0151 45.7461 51.6223C45.1603 50.7305 42.3596 49.3782 40.8048 48.3157C40.1654 47.8792 37.5102 49.4252 36.6354 50.0631C36.6354 50.0642 31.9032 52.6814 32.1857 59.5735Z" fill="#6CBF84"/>
<path opacity="0.08" d="M40.0931 59.8048C40.0964 59.7238 38.6817 57.2128 38.6861 57.1318C38.2569 55.6448 37.9963 54.0879 38.0532 52.5768C38.1091 51.0789 38.5657 49.5854 39.4799 48.4934C38.4617 48.8906 37.1894 49.6598 36.6342 50.0646C36.6342 50.0646 31.902 52.6819 32.1845 59.5739C32.4232 65.3719 31.9984 73.4642 29.7253 86.1991C29.7253 86.1991 32.9652 88.7769 41.0883 87.8677C41.0248 87.5854 40.9635 87.302 40.9044 87.0175C39.5522 80.4559 39.9453 63.0326 40.0931 59.8048Z" fill="black"/>
<path d="M68.7404 65.5906C67.6762 65.9549 66.521 66.2525 65.5126 66.397C56.0975 67.7417 54.9183 68.8665 53.9876 68.3456C50.3645 66.3149 46.1053 58.3254 43.5356 55.0987C40.218 50.9333 35.5996 54.1238 38.3752 58.7718C40.2027 61.8321 41.9589 64.8039 44.2363 67.5393C46.436 70.1816 49.5127 73.4882 53.1511 74.0823C54.6369 74.3252 65.9506 70.4519 70.4233 67.8763C69.8966 67.0086 69.0809 66.5742 68.7404 65.5906Z" fill="#EB996B"/>
<path opacity="0.08" d="M54.6555 71.731C50.4072 71.0329 48.1418 65.6048 46.0385 62.2501C45.4483 61.3081 45.7538 60.1308 46.5235 59.4283C45.4002 57.7247 44.3764 56.1557 43.5344 55.0987C40.2168 50.9333 35.5985 54.1238 38.3741 58.7718C40.2015 61.8322 41.9577 64.8039 44.2352 67.5393C46.4349 70.1817 49.5116 73.4882 53.15 74.0823C54.2372 74.2596 60.5943 72.231 65.6769 70.1204C63.9195 70.406 56.4336 72.0231 54.6555 71.731Z" fill="black"/>
<path d="M40.4369 62.5927C40.7117 62.9877 40.9931 63.3794 41.2756 63.77C41.4716 64.0446 41.6719 64.3181 41.8723 64.5917C43.9384 63.4527 45.9454 62.213 47.9184 60.9197C47.8965 60.888 47.8735 60.8562 47.8505 60.8234C47.5899 60.4514 47.3293 60.0794 47.0742 59.7008C46.8169 59.3244 46.5607 58.948 46.3089 58.5662C46.0549 58.1865 45.8019 57.8068 45.5534 57.4217C45.3038 57.0376 45.0508 56.6547 44.81 56.2717L44.4442 55.6973L44.0753 55.1141L43.3296 53.9204C43.3165 53.8996 43.2935 53.8646 43.2804 53.8438C42.1767 52.1708 39.9244 51.7091 38.2503 52.812C36.5762 53.9149 36.1142 56.1656 37.2178 57.8386L37.993 59.0137L38.3916 59.6111L38.7967 60.214C39.066 60.6188 39.3398 61.0105 39.6113 61.4077C39.8828 61.8049 40.1599 62.1988 40.4369 62.5927Z" fill="#6CBF84"/>
<path opacity="0.08" d="M37.9438 53.0406C36.5248 54.2037 36.1854 56.275 37.2189 57.8407L37.9941 59.0158L38.3927 59.6132L38.7978 60.2161C39.0672 60.6209 39.3409 61.0126 39.6124 61.4098C39.8829 61.8059 40.1599 62.1998 40.4369 62.5937C40.7117 62.9887 40.9931 63.3804 41.2756 63.771C41.4716 64.0456 41.6719 64.3192 41.8723 64.5927C42.5347 64.2273 43.1906 63.8509 43.8421 63.4657C42.8161 62.6856 38.3752 55.834 37.9438 53.0406Z" fill="black"/>
<path d="M69.4839 68.3892L74.5249 67.5391L80.1922 66.4394C80.1922 66.4394 79.9009 65.7698 79.0699 65.7818C78.6111 65.7884 76.8768 65.7468 75.3997 65.7917C74.203 65.8289 73.7858 65.7917 73.7858 65.7917C73.7858 65.7917 71.9059 65.2096 73.0971 64.8332C74.2884 64.4568 75.4797 64.0804 75.4797 64.0804C75.4797 64.0804 75.5267 63.3014 74.4526 63.5563C72.4325 64.0345 67.9182 64.3682 68.5149 66.3366C68.6562 66.8016 69.4839 68.3892 69.4839 68.3892Z" fill="#EB996B"/>
<path d="M52.0147 36.6732C52.0147 36.6732 52.4931 38.2707 52.4384 39.5738C52.4231 39.9448 52.3081 40.3759 52.3223 40.4875C52.3399 40.6242 52.8556 41.1593 53.6702 42.6342C53.7753 42.8246 53.6614 43.0817 53.4698 43.1758C52.8709 43.4712 52.3628 43.3793 52.4187 43.5314C52.4187 43.5314 51.8165 47.8358 50.8759 48.1761C50.3077 48.3818 47.3799 48.1706 47.3799 48.1706L45.2787 51.1401L40.6144 48.268C40.6144 48.268 41.1859 46.8467 41.1279 45.6967C41.0961 45.0643 41.4027 43.6725 40.9669 43.0697C40.3965 42.2797 43.6199 35.5255 43.6199 35.5255L52.0147 36.6732Z" fill="#EB996B"/>
<path opacity="0.08" d="M47.982 47.4418C47.9448 47.4364 47.8988 47.4331 47.8507 47.4287C47.924 47.4495 47.8222 47.4626 47.6864 47.4046C47.682 47.4046 47.6777 47.4035 47.6733 47.4035C47.4554 47.3871 47.2375 47.4057 47.0218 47.3948C46.9244 47.4199 46.8247 47.4374 46.7284 47.467C46.6911 47.4779 46.5806 47.5305 46.5203 47.5556C46.4919 47.5731 46.4667 47.5884 46.4557 47.595C46.4251 47.6125 46.3397 47.6508 46.263 47.6935C46.2619 47.6946 46.2597 47.6968 46.2576 47.6979C46.2488 47.7165 46.24 47.7362 46.2313 47.7548C46.2269 47.7635 46.2247 47.769 46.2214 47.7755C46.2203 47.7788 46.2192 47.781 46.2181 47.7843C46.1196 48.036 46.0232 48.2876 45.9356 48.5437C45.767 49.036 45.6225 49.5361 45.5075 50.0438C45.4484 50.3075 45.4057 50.5723 45.3553 50.8371C45.3543 50.8513 45.3532 50.8666 45.3521 50.8841C45.3477 50.941 45.3433 50.9968 45.3378 51.0537L47.3787 48.1705C47.3787 48.1705 50.3065 48.3817 50.8748 48.176C51.0577 48.1093 51.2285 47.8926 51.3839 47.5863C50.2255 47.7559 49.1591 47.6289 47.982 47.4418Z" fill="black"/>
<path d="M40.7118 45.6333C40.7031 45.7099 41.5286 46.6049 44.0907 45.9156C44.6426 45.2854 46.0243 42.6758 46.3112 41.8782C46.4207 41.5718 45.8722 40.0805 47.0798 39.506C47.7269 39.1986 48.0587 39.9492 48.2142 40.0039C48.4343 40.0805 48.7934 40.2107 49.1657 39.9656C49.4744 39.7621 49.5138 38.3572 49.885 38.2642C51.7529 37.7937 52.5665 36.2017 52.1143 35.4402C51.5241 34.4456 49.0211 31.8196 48.3839 31.685C46.909 31.3732 44.5287 30.9202 42.3805 32.1435C40.2333 33.3678 38.3545 36.6317 38.7443 39.692C38.9348 41.1779 40.7447 45.3247 40.7118 45.6333Z" fill="#212121"/>
<path opacity="0.08" d="M41.7257 36.4948C41.3534 34.5582 41.8932 32.6533 42.8272 30.954C42.8414 30.9289 42.8578 30.9059 42.8731 30.8807C36.192 33.7606 38.7979 40.7599 38.7979 40.7599C40.6176 40.3419 42.2085 39.8758 43.5947 39.3933C42.6585 38.6875 41.9578 37.7017 41.7257 36.4948Z" fill="black"/>
<path d="M50.3305 44.8385C50.3305 44.8385 51.7659 45.0903 52.1458 44.8889L51.9947 45.7962C51.9947 45.7973 50.9349 45.8477 50.3305 44.8385Z" fill="#F3C2A6"/>
</svg>
