<svg width="310" height="356" viewBox="0 0 310 356" fill="none" xmlns="http://www.w3.org/2000/svg">
<path d="M212.693 356H310L283.254 311.946C283.254 311.946 290.852 261.517 292.628 241.011C293.009 236.619 292.71 232.194 291.748 227.893L273.186 144.73C273.186 144.73 253.904 144.625 255.006 169.955C255.502 181.371 259.445 215.449 259.445 215.449C260.109 222.254 255.919 228.593 249.402 230.645L150.346 261.83C158.973 275.577 163.313 313.417 199.829 330.592L212.693 356Z" fill="#E3AD88"/>
<path d="M100.51 122.086C105.097 115.85 113.874 114.51 120.113 119.095L155.374 145.001C161.614 149.586 162.953 158.359 158.367 164.595C153.78 170.832 145.003 172.171 138.764 167.587L103.503 141.678C97.2627 137.094 95.922 128.323 100.51 122.086Z" fill="#E3AD88"/>
<path opacity="0.06" d="M212.693 356H230.478C224.384 346.969 218.257 337.945 212.136 328.893C211.826 328.434 211.543 327.968 211.258 327.503C201.304 320.212 188.744 311.957 181.565 302.66C170.255 288.011 163.877 277.179 159.316 259.002L150.346 261.826C158.973 275.573 163.313 313.414 199.829 330.589L212.693 356Z" fill="black"/>
<path opacity="0.2" d="M277.896 165.828C273.645 165.578 273.249 164.008 273.249 164.008L265.999 146.745C267.499 145.244 273.189 144.728 273.189 144.728L277.896 165.828Z" fill="white"/>
<path d="M243.181 30.019H131.609C124.518 30.019 118.77 35.3793 118.77 41.991V278.477C118.77 285.088 124.518 290.449 131.609 290.449H243.181C250.272 290.449 256.02 285.088 256.02 278.477V41.991C256.02 35.3793 250.272 30.019 243.181 30.019Z" fill="black"/>
<path opacity="0.06" d="M258.682 222.73C257.308 223.835 255.829 224.832 254.084 225.256C251.945 225.776 249.764 225.593 247.642 225.101C246.903 224.929 246.176 224.713 245.437 224.547C245.384 224.535 245.133 224.468 244.9 224.413C244.867 224.413 244.821 224.411 244.754 224.409C244.492 224.403 244.228 224.367 243.966 224.352C243.059 224.306 242.15 224.327 241.245 224.394C240.86 224.424 240.478 224.47 240.093 224.507C240.028 224.514 239.982 224.518 239.95 224.52C239.821 224.545 239.691 224.577 239.576 224.595C236.224 225.168 232.91 226.021 229.579 226.711C223.056 228.065 216.541 229.513 210.169 231.467C208.518 231.974 206.876 232.515 205.25 233.096C204.44 233.385 203.631 233.687 202.829 233.997C202.485 234.132 202.142 234.266 201.8 234.404C201.572 234.496 201.346 234.589 201.117 234.683C201.105 234.687 201.08 234.698 201.048 234.712C200.918 234.769 200.713 234.855 200.667 234.876C200.497 234.949 200.33 235.022 200.162 235.098C199.771 235.272 199.379 235.448 198.989 235.628C198.266 235.962 197.548 236.307 196.836 236.664C195.386 237.389 193.974 238.175 192.571 238.984C191.234 239.754 189.952 240.599 188.716 241.519C188.654 241.565 188.526 241.664 188.415 241.747C188.413 241.749 188.408 241.754 188.404 241.756C188.063 242.026 187.723 242.301 187.388 242.58C186.628 243.211 185.882 243.86 185.149 244.525C181.967 247.412 179.024 250.56 176.288 253.872C175.909 254.332 175.534 254.793 175.163 255.26C174.989 255.478 174.817 255.698 174.644 255.918C173.959 256.839 173.267 257.753 172.603 258.69C171.248 260.604 169.962 262.57 168.761 264.587C167.559 266.61 166.44 268.685 165.439 270.817C165.19 271.347 164.951 271.884 164.712 272.42C164.685 272.479 164.662 272.54 164.637 272.601C164.574 272.756 164.509 272.909 164.448 273.064C164.042 274.083 163.665 275.114 163.326 276.158C162.674 278.154 162.152 280.196 161.819 282.269C161.805 282.363 161.792 282.458 161.78 282.552C161.767 282.65 161.757 282.747 161.746 282.845C161.696 283.319 161.658 283.795 161.633 284.271C161.581 285.237 161.576 286.206 161.631 287.172C161.656 287.625 161.729 288.082 161.759 288.535C161.792 288.719 161.824 288.904 161.859 289.086C162.041 289.996 162.282 290.893 162.588 291.767C162.651 291.945 162.718 292.124 162.787 292.302C162.972 292.677 163.147 293.056 163.349 293.425C163.583 293.855 163.832 294.274 164.101 294.683C164.216 294.861 164.335 295.035 164.457 295.209C164.538 295.325 164.628 295.438 164.706 295.555C164.844 295.767 164.706 295.587 164.557 295.388C164.626 295.486 164.689 295.589 164.752 295.689H246.742C253.833 295.689 259.581 290.329 259.581 283.717V221.939C259.294 222.214 258.994 222.478 258.682 222.73Z" fill="black"/>
<path d="M250.211 50.1287H124.579V271.465H250.211V50.1287Z" fill="#FCD755"/>
<path d="M250.211 50.1287H124.579V60.606H250.211V50.1287Z" fill="#E0313A"/>
<path d="M199.369 38.6375H164.289C163.081 38.6375 162.102 39.5514 162.102 40.6772V40.8092C162.102 41.9349 163.083 42.8489 164.289 42.8489H199.369C200.577 42.8489 201.555 41.9349 201.555 40.8092V40.6772C201.555 39.5514 200.577 38.6375 199.369 38.6375Z" fill="#2F2B27"/>
<path d="M210.36 38.4314C209.074 38.4314 208.032 39.467 208.032 40.7436C208.032 42.0203 209.074 43.0558 210.36 43.0558C211.646 43.0558 212.687 42.0203 212.687 40.7436C212.687 39.467 211.646 38.4314 210.36 38.4314Z" fill="#2F2B27"/>
<path d="M241.922 67.5134H132.876V170.498H241.922V67.5134Z" fill="#F0C429"/>
<path d="M219.774 156.98H159.746L161.845 84.8164H217.675L219.774 156.98Z" fill="white"/>
<path d="M194.961 96.4338H184.559C181.023 96.4338 178.144 93.4005 178.144 89.6711V80.1916C178.144 76.4623 181.023 73.429 184.559 73.429H194.961C198.497 73.429 201.376 76.4623 201.376 80.1916V89.6711C201.376 93.4005 198.497 96.4338 194.961 96.4338ZM184.559 76.8229C182.797 76.8229 181.366 78.3343 181.366 80.1895V89.669C181.366 91.5264 182.799 93.0357 184.559 93.0357H194.961C196.723 93.0357 198.154 91.5264 198.154 89.669V80.1895C198.154 78.3322 196.721 76.8229 194.961 76.8229H184.559Z" fill="white"/>
<path d="M224.755 107.199L222.638 106.853L219.124 128.366L221.241 128.712L224.755 107.199Z" fill="#544B3F"/>
<path d="M225.354 163.327H208.833L206.897 129.931H227.292L225.354 163.327Z" fill="#E0313A"/>
<path d="M228.911 127.78H205.274V129.868H228.911V127.78Z" fill="#EEEEEE"/>
<path d="M223.119 124.533H211.068C209.149 124.533 207.593 126.091 207.593 128.011H226.597C226.595 126.091 225.038 124.533 223.119 124.533Z" fill="#EEEEEE"/>
<path d="M187.307 151.343H148.914L151.306 143.136C151.752 141.605 153.378 140.53 155.242 140.53H180.977C182.841 140.53 184.466 141.605 184.913 143.136L187.307 151.343Z" fill="#EEEEEE"/>
<path d="M148.914 152.514H187.307L184.915 160.722C184.468 162.252 182.843 163.327 180.979 163.327H155.244C153.38 163.327 151.754 162.252 151.308 160.722L148.914 152.514Z" fill="#EEEEEE"/>
<path d="M188.411 153.864H147.81C146.741 153.864 145.876 152.999 145.876 151.93C145.876 150.86 146.741 149.995 147.81 149.995H188.411C189.479 149.995 190.344 150.86 190.344 151.93C190.344 152.999 189.479 153.864 188.411 153.864Z" fill="#C4C4C4"/>
<path d="M178.609 107.691C178.609 105.872 179.033 101.092 179.743 99.3648C180.046 98.6248 181.041 98.8575 181.041 99.6687V105.522C181.041 106.054 181.412 106.519 181.894 106.534C182.393 106.551 182.799 106.109 182.799 105.561V98.7568C182.799 98.4026 183.023 98.0944 183.335 98.021C183.515 97.9791 183.551 97.9561 183.735 97.9561C183.92 97.9561 183.955 97.977 184.135 98.021C184.45 98.0944 184.672 98.4026 184.672 98.7568V105.519C184.672 106.052 185.042 106.517 185.524 106.532C186.023 106.549 186.429 106.106 186.429 105.559V99.6645C186.429 98.8533 187.424 98.6206 187.728 99.3606C188.438 101.088 189.008 105.865 189.008 107.687C189.008 110.743 187.292 112.404 185.556 113.108L186.079 135.583C186.079 137.016 185.03 138.178 183.735 138.178C182.441 138.178 181.391 137.016 181.391 135.583L181.915 113.096C180.239 112.387 178.609 110.729 178.609 107.691Z" fill="#E0313A"/>
<path d="M198.229 96.9479C199.299 95.6084 200.395 96.9479 200.395 96.9479V113.479L200.908 135.587C200.908 137.021 199.859 138.182 198.564 138.182C197.27 138.182 196.22 137.021 196.22 135.587L196.666 116.433C195.428 115.752 194.278 114.385 193.941 113.035C193.141 109.815 197.159 98.2895 198.229 96.9479Z" fill="#E0313A"/>
<path d="M187.395 242.282C200.694 242.282 211.474 231.494 211.474 218.185C211.474 204.877 200.694 194.088 187.395 194.088C174.096 194.088 163.315 204.877 163.315 218.185C163.315 231.494 174.096 242.282 187.395 242.282Z" fill="#E0313A"/>
<path d="M184.952 227.266C184.328 227.266 183.702 227.027 183.224 226.549L174.849 218.168C173.896 217.214 173.896 215.665 174.849 214.711C175.802 213.758 177.35 213.758 178.304 214.711L184.952 221.365L196.486 209.823C197.439 208.869 198.987 208.869 199.941 209.823C200.894 210.777 200.894 212.326 199.941 213.28L186.678 226.551C186.203 227.027 185.577 227.266 184.952 227.266Z" fill="white"/>
<path d="M99.7325 182.546C102.866 175.496 111.065 172.366 118.047 175.557L126.068 178.517C133.05 181.707 136.169 190.009 133.037 197.058C129.904 204.108 121.705 207.238 114.723 204.048L106.702 201.088C99.7178 197.897 96.5987 189.596 99.7325 182.546Z" fill="#E3AD88"/>
<path d="M117.326 198.224L125.347 201.184C132.329 204.375 135.448 212.676 132.317 219.726C129.183 226.776 120.984 229.906 114.002 226.715L105.981 223.755C98.9992 220.565 95.878 212.263 99.0118 205.213C102.146 198.163 110.345 195.034 117.326 198.224Z" fill="#E3AD88"/>
<path d="M120.848 222.726L123.005 223.367C129.987 226.558 133.106 234.859 129.975 241.909C126.841 248.959 118.642 252.089 111.66 248.9L109.502 248.259C102.521 245.068 99.3994 236.767 102.533 229.717C105.665 222.665 113.866 219.535 120.848 222.726Z" fill="#E3AD88"/>
<path opacity="0.2" d="M114.496 225.782L119.21 224.725C109.743 231.775 112.178 240.902 112.178 240.902C112.178 240.902 107.938 242.651 108.024 235.435C108.11 228.218 114.496 225.782 114.496 225.782Z" fill="white"/>
<path opacity="0.2" d="M114.746 201.482L121.506 201.645C112.039 208.695 114.473 217.822 114.473 217.822C114.473 217.822 108.185 218.349 108.273 211.133C108.359 203.918 114.746 201.482 114.746 201.482Z" fill="white"/>
<path opacity="0.2" d="M116.874 179.819L125.333 181.38C115.866 188.43 118.3 197.558 118.3 197.558C118.3 197.558 110.225 196.065 110.311 188.849C110.397 181.634 116.874 179.819 116.874 179.819Z" fill="white"/>
<path d="M147.623 111.202H112.134H32.8294C14.697 111.202 0 99.545 0 79.7559V31.2265C0 11.4374 14.697 0 32.8294 0H99.9126C118.043 0 132.742 11.4374 132.742 31.2265V79.976C132.742 86.9084 134.583 89.3066 138.046 95.1176L147.623 111.202Z" fill="white"/>
<path d="M33.6317 66.1656H48.89V73.8799H20.6964V66.1656H24.0229V57.9753H20.6964V52.4809H24.0229V46.8272C24.0229 44.7498 24.5592 42.9008 25.6338 41.2783C26.7063 39.6578 28.202 38.398 30.1208 37.5008C32.0396 36.6014 34.2475 36.1528 36.7466 36.1528C39.2101 36.1528 41.5415 36.4966 43.7432 37.1842C45.9427 37.8718 47.8699 38.8487 49.5247 40.1169L46.5145 46.9865C42.9241 44.7665 39.9495 43.6576 37.5908 43.6576C36.2878 43.6576 35.3033 43.9846 34.633 44.6345C33.9647 45.2864 33.6296 46.2276 33.6296 47.4603V52.4788H41.7615V57.9732H33.6296V66.1656H33.6317Z" fill="#E0313A"/>
<path d="M65.311 66.1656H80.5693V73.8799H52.3736V66.1656H55.7001V57.9753H52.3736V52.4809H55.7001V46.8272C55.7001 44.7498 56.2364 42.9008 57.311 41.2783C58.3835 39.6578 59.8792 38.398 61.798 37.5008C63.7168 36.6014 65.9247 36.1528 68.4238 36.1528C70.8873 36.1528 73.2187 36.4966 75.4204 37.1842C77.6199 37.8718 79.5471 38.8487 81.2019 40.1169L78.1917 46.9865C74.6013 44.7665 71.6267 43.6576 69.268 43.6576C67.965 43.6576 66.9805 43.9846 66.3102 44.6345C65.6419 45.2864 65.3068 46.2276 65.3068 47.4603V52.4788H73.4387V57.9732H65.3068V66.1656H65.311Z" fill="#E0313A"/>
<path d="M96.9904 66.1656H112.249V73.8799H84.0531V66.1656H87.3796V57.9753H84.0531V52.4809H87.3796V46.8272C87.3796 44.7498 87.9159 42.9008 88.9905 41.2783C90.063 39.6578 91.5587 38.398 93.4775 37.5008C95.3963 36.6014 97.6042 36.1528 100.103 36.1528C102.567 36.1528 104.898 36.4966 107.1 37.1842C109.299 37.8718 111.227 38.8487 112.881 40.1169L109.871 46.9865C106.281 44.7665 103.306 43.6576 100.947 43.6576C99.6445 43.6576 98.66 43.9846 97.9896 44.6345C97.3214 45.2864 96.9862 46.2276 96.9862 47.4603V52.4788H105.118V57.9732H96.9862V66.1656H96.9904Z" fill="#E0313A"/>
</svg>
