<svg width="150" height="134" viewBox="0 0 150 134" fill="none" xmlns="http://www.w3.org/2000/svg">
<path opacity="0.7" d="M37.4771 4.41321C17.8906 4.41321 -1.15711 25.4998 0.0553233 44.8548C1.23889 63.7204 12.9879 80.2877 23.9022 94.7449C33.9794 108.095 48.3962 122.876 63.1836 131.15C66.7607 133.151 70.1623 134 73.4195 134C84.8558 134 94.4951 123.522 103.557 115.627C128.181 94.1758 165.617 54.9906 142.846 19.7916C136.305 9.68244 125.318 5.08603 114.13 5.08603C103.851 5.08603 93.4006 8.96862 86.0755 16.0248C81.2113 20.7104 78.2789 22.6035 75.6567 22.6035C72.0772 22.6035 69.075 19.073 62.5172 14.315C55.9042 9.51363 45.8824 4.41321 37.4771 4.41321Z" fill="#DE8E45"/>
<path d="M39.1491 0C19.8392 0 1.06088 21.0866 2.25648 40.4392C3.4232 59.3048 15.0063 75.8721 25.7666 90.3293C35.7018 103.68 49.9166 118.46 64.4947 126.732C68.0213 128.733 71.3747 129.582 74.5862 129.582C85.8614 129.582 95.366 119.104 104.3 111.208C128.576 89.7578 165.485 50.5726 143.033 15.3736C136.586 5.26441 125.754 0.667998 114.722 0.667998C104.589 0.667998 94.2835 4.55059 87.0618 11.6068C82.265 16.2924 79.3758 18.1855 76.7898 18.1855C73.2607 18.1855 70.3018 14.655 63.8355 9.89699C57.3163 5.10042 47.4364 0 39.1491 0Z" fill="#FFE5C4"/>
<path opacity="0.06" d="M92.164 120.664C89.4505 122.278 86.4651 123.659 83.4196 124.491C79.3613 125.598 75.4715 125.615 71.3771 124.841C67.9635 124.195 64.8555 122.393 62.0024 120.481C58.7789 118.32 55.7021 115.913 52.7287 113.425C52.06 112.865 51.4008 112.296 50.7441 111.722C46.5992 108.652 42.6348 105.293 39.0624 101.586C35.0426 97.4193 31.5376 92.7168 28.1024 88.0697C24.9895 83.8592 22.0547 79.5136 19.3508 75.0257C16.6709 70.586 14.2172 66.0041 12.1074 61.2654C10.4572 57.5564 8.75641 53.8306 7.8543 49.8564C6.04046 41.8645 5.72051 33.5519 7.42369 25.5142C8.60966 19.917 11.4411 14.5779 15.6028 10.7411C15.8001 10.4083 16.0021 10.0803 16.2162 9.75958C7.44534 17.6936 1.57082 29.351 2.25642 40.4393C3.42315 59.3048 15.0062 75.8721 25.7665 90.3293C35.7018 103.68 49.9166 118.46 64.4946 126.732C68.0213 128.733 71.3747 129.582 74.5862 129.582C84.2423 129.582 92.5995 121.896 100.413 114.729C97.7836 116.883 95.0724 118.938 92.164 120.664Z" fill="black"/>
<path d="M74.6656 121.911C72.106 121.911 69.5897 121.19 66.97 119.702C60.7827 116.191 54.314 111.189 47.7419 104.835C42.0117 99.2953 36.3801 92.8686 31.4558 86.2513C26.724 79.892 21.3306 72.4572 17.2242 64.6824C12.7786 56.2661 10.3922 48.5275 9.93035 41.0299C9.44201 33.1442 13.0649 24.2625 19.6202 17.2714C25.8868 10.5866 33.7171 6.75464 41.0976 6.75464C48.0378 6.75464 56.8255 11.4089 62.243 15.3952C63.9293 16.6347 65.3703 17.7995 66.6428 18.8268C70.2128 21.7062 73.0322 23.9827 76.7537 23.9827C80.8264 23.9827 84.507 21.1853 89.1258 16.6733C95.0749 10.8591 103.882 7.38888 112.684 7.38888C122.764 7.38888 131.376 11.8285 136.312 19.5696C140.842 26.674 142.824 34.432 142.199 42.6288C141.643 49.9117 139.038 57.7564 134.452 65.9388C127.572 78.2184 116.086 91.5133 100.307 105.457C99.0489 106.569 97.7643 107.745 96.523 108.886C89.5419 115.289 82.3203 121.911 74.6656 121.911Z" fill="#F26968"/>
<path d="M74.7642 115.959C72.3802 115.959 70.0371 115.313 67.6002 113.979C61.8412 110.832 55.8175 106.347 49.7 100.648C44.3644 95.6804 39.1225 89.9193 34.5374 83.9869C30.1303 78.286 25.1098 71.6204 21.2872 64.6487C17.1496 57.1029 14.9268 50.1649 14.4962 43.4415C14.0415 36.3709 17.4142 28.4079 23.5173 22.1403C29.3509 16.1476 36.6399 12.7112 43.5128 12.7112C49.9743 12.7112 58.1558 16.8856 63.198 20.4571C64.7664 21.5688 66.1112 22.613 67.2947 23.5342C70.6193 26.117 73.2438 28.1571 76.7079 28.1571C80.5016 28.1571 83.9272 25.6491 88.226 21.605C93.7662 16.3936 101.965 13.2803 110.158 13.2803C119.542 13.2803 127.56 17.2594 132.155 24.1998C136.374 30.5687 138.217 37.5236 137.635 44.874C137.118 51.4044 134.693 58.4365 130.423 65.7749C124.019 76.786 113.321 88.7063 98.6327 101.208C97.4612 102.204 96.2656 103.26 95.1109 104.282C88.6133 110.02 81.892 115.959 74.7642 115.959Z" fill="#F9C981"/>
<g opacity="0.4">
<path opacity="0.4" d="M114.806 24.0189C109.208 25.1596 107.644 27.2335 107.644 31.1981C107.644 35.1627 110.851 38.3772 114.806 38.3772C118.761 38.3772 121.967 35.1627 121.967 31.1981C121.97 27.2335 118.684 23.2303 114.806 24.0189Z" fill="#C0A9A8"/>
<path opacity="0.4" d="M85.5678 84.4739C81.7501 83.4393 78.4062 87.6885 78.4062 91.6531C78.4062 95.6176 80.3789 98.8539 85.5678 98.8322C89.5226 98.8154 92.7293 95.6176 92.7293 91.6531C92.7293 87.6885 90.5378 85.8195 85.5678 84.4739Z" fill="#C0A9A8"/>
<path opacity="0.4" d="M60.1933 31.2486C57.1646 33.8 56.7725 38.3289 59.3176 41.365C61.8628 44.4011 66.8448 43.7669 69.8735 41.2155C72.9022 38.6641 72.83 35.1649 70.2848 32.1288C67.7397 29.0902 63.222 28.6972 60.1933 31.2486Z" fill="#C0A9A8"/>
<path opacity="0.4" d="M51.2902 65.6879C47.8573 67.6605 46.6714 72.0471 48.6367 75.486C50.6045 78.9273 54.7542 81.0711 58.4108 78.1459C61.502 75.6717 63.0296 71.7867 61.0642 68.3478C59.0988 64.9065 54.723 63.7152 51.2902 65.6879Z" fill="#C0A9A8"/>
<path opacity="0.4" d="M112.318 64.6558C106.72 65.7964 105.157 67.8704 105.157 71.835C105.157 75.7995 108.363 79.0141 112.318 79.0141C116.273 79.0141 119.48 75.7995 119.48 71.835C119.48 67.8704 116.194 63.8648 112.318 64.6558Z" fill="#C0A9A8"/>
<path opacity="0.4" d="M28.812 40.6368C25.2541 41.8016 23.3128 45.6383 24.4747 49.205C25.6366 52.7717 29.464 54.7178 33.0219 53.553C36.5798 52.3883 39.2067 48.2476 37.3592 44.9848C34.6914 40.2751 32.3699 39.472 28.812 40.6368Z" fill="#C0A9A8"/>
<path opacity="0.4" d="M86.7706 65.9533C83.5855 68.307 83.037 73.6702 85.3825 76.8631C87.7304 80.056 92.2145 80.7361 95.3971 78.3824C98.5822 76.0287 99.2605 71.536 96.9127 68.3431C94.5648 65.1502 89.9532 63.5996 86.7706 65.9533Z" fill="#C0A9A8"/>
</g>
<path d="M122.932 30.236C122.932 34.2006 119.725 37.4152 115.771 37.4152C111.816 37.4152 108.609 34.2006 108.609 30.236C108.609 26.2714 110.175 24.1975 115.771 23.0568C119.646 22.2658 122.932 26.269 122.932 30.236Z" fill="#F26968"/>
<path d="M115.556 24.7065C115.556 24.7065 113.829 24.5039 112.509 25.114C111.188 25.7241 108.953 29.3921 110.173 32.1413C111.392 34.8904 113.526 36.1131 114.44 35.7055C115.354 35.298 114.948 33.974 114.746 32.1413C114.544 30.3085 115.051 27.4556 115.559 26.5392C116.064 25.6228 116.37 24.909 115.556 24.7065Z" fill="#D12417"/>
<path d="M116.112 35.7489C116.112 35.7489 117.839 35.9515 119.16 35.3413C120.481 34.7312 122.716 31.0633 121.496 28.3141C120.276 25.5649 118.142 24.3423 117.228 24.7498C116.314 25.1574 116.721 26.4813 116.923 28.3141C117.125 30.1469 116.617 32.9997 116.11 33.9161C115.605 34.8325 115.301 35.5463 116.112 35.7489Z" fill="#D12417"/>
<path d="M112.48 30.764C112.116 30.7496 111.833 30.4409 111.847 30.0743C111.861 29.7102 112.169 29.4256 112.535 29.4401C112.898 29.4546 113.798 29.9055 113.783 30.2721C113.769 30.6386 112.843 30.7809 112.48 30.764Z" fill="#F26968"/>
<path d="M113.081 27.8075C112.759 27.6387 112.634 27.2384 112.802 26.9128C112.97 26.5897 113.37 26.4643 113.694 26.6331C114.017 26.8019 114.637 27.5953 114.469 27.9208C114.298 28.2464 113.403 27.9787 113.081 27.8075Z" fill="#F26968"/>
<path d="M113.199 33.7327C112.855 33.8556 112.477 33.6748 112.355 33.3323C112.232 32.9875 112.412 32.6089 112.754 32.4859C113.098 32.3629 114.099 32.4425 114.221 32.7873C114.346 33.1322 113.543 33.6097 113.199 33.7327Z" fill="#F26968"/>
<path d="M119.502 29.8502C119.865 29.8333 120.175 30.1179 120.19 30.482C120.207 30.8462 119.923 31.1573 119.559 31.1717C119.196 31.1886 118.26 30.8148 118.246 30.4483C118.229 30.0841 119.136 29.8647 119.502 29.8502Z" fill="#F26968"/>
<path d="M119.15 32.8479C119.487 32.9902 119.644 33.3784 119.504 33.7161C119.362 34.0537 118.975 34.2104 118.638 34.0706C118.301 33.9307 117.616 33.1903 117.758 32.8551C117.9 32.5151 118.814 32.7056 119.15 32.8479Z" fill="#F26968"/>
<path d="M118.532 26.9539C118.864 26.802 119.256 26.9491 119.408 27.2819C119.559 27.6147 119.413 28.0078 119.081 28.1597C118.749 28.3116 117.743 28.3165 117.592 27.9837C117.44 27.6485 118.2 27.1059 118.532 26.9539Z" fill="#F26968"/>
<path d="M93.6916 90.6886C93.6916 94.6532 90.4849 97.8509 86.5301 97.8677C81.3387 97.8894 79.3685 94.6532 79.3685 90.6886C79.3685 86.724 82.7123 82.4749 86.5301 83.5094C91.5001 84.855 93.6916 86.724 93.6916 90.6886Z" fill="#F26968"/>
<path d="M86.3183 85.1612C86.3183 85.1612 84.5911 84.9586 83.2704 85.5687C81.9497 86.1788 79.7149 89.8468 80.9345 92.596C82.1542 95.3451 84.2879 96.5678 85.2021 96.1602C86.1162 95.7527 85.7097 94.4287 85.5076 92.596C85.3055 90.7632 85.8131 87.9103 86.3207 86.9939C86.8259 86.0775 87.1314 85.3637 86.3183 85.1612Z" fill="#D12417"/>
<path d="M86.8741 96.2039C86.8741 96.2039 88.6014 96.4064 89.922 95.7963C91.2427 95.1862 93.4775 91.5182 92.2579 88.7691C91.0382 86.0199 88.9045 84.7972 87.9903 85.2048C87.0762 85.6123 87.4827 86.9363 87.6848 88.7691C87.8869 90.6018 87.3793 93.4547 86.8717 94.3711C86.3665 95.2875 86.061 96.0013 86.8741 96.2039Z" fill="#D12417"/>
<path d="M83.2392 91.2193C82.8759 91.2048 82.5921 90.8961 82.6065 90.5295C82.6209 90.1654 82.9288 89.8808 83.2945 89.8953C83.6601 89.9098 84.5574 90.3607 84.543 90.7273C84.5286 91.0939 83.6048 91.2337 83.2392 91.2193Z" fill="#F26968"/>
<path d="M83.8407 88.2627C83.5183 88.0939 83.3932 87.6936 83.5616 87.368C83.73 87.0449 84.1293 86.9195 84.4541 87.0883C84.7764 87.2571 85.3971 88.0505 85.2287 88.3761C85.0603 88.7016 84.1654 88.4315 83.8407 88.2627Z" fill="#F26968"/>
<path d="M83.9609 94.1878C83.6169 94.3108 83.2392 94.13 83.1165 93.7875C82.9938 93.4427 83.1743 93.0641 83.5159 92.9411C83.8599 92.8181 84.8606 92.8977 84.9833 93.2425C85.1084 93.5874 84.3049 94.0649 83.9609 94.1878Z" fill="#F26968"/>
<path d="M90.2612 90.3027C90.6245 90.2858 90.9348 90.5704 90.9492 90.9345C90.9661 91.2987 90.6822 91.6098 90.319 91.6242C89.9557 91.6411 89.0199 91.2673 89.0055 90.9008C88.9886 90.539 89.898 90.3196 90.2612 90.3027Z" fill="#F26968"/>
<path d="M89.91 93.3002C90.2468 93.4425 90.4031 93.8307 90.2636 94.1683C90.1217 94.5059 89.7344 94.6627 89.3976 94.5228C89.0608 94.3805 88.3752 93.6426 88.5171 93.3074C88.6591 92.9674 89.5756 93.1603 89.91 93.3002Z" fill="#F26968"/>
<path d="M89.2918 87.4065C89.6237 87.2545 90.0159 87.4016 90.1674 87.7344C90.319 88.0672 90.1722 88.4603 89.8402 88.6122C89.5083 88.7641 88.5027 88.769 88.3512 88.4362C88.1996 88.1034 88.9598 87.5584 89.2918 87.4065Z" fill="#F26968"/>
<path d="M71.2473 31.162C73.7924 34.1982 73.8646 37.6997 70.8359 40.2487C67.8072 42.8001 62.8252 43.4344 60.28 40.3983C57.7349 37.3621 58.127 32.8332 61.1557 30.2818C64.1844 27.7328 68.7021 28.1259 71.2473 31.162Z" fill="#F26968"/>
<path d="M62.053 31.6828C62.053 31.6828 60.6 32.6402 59.9817 33.9593C59.3635 35.2785 60.0034 39.5276 62.7025 40.8467C65.4016 42.1658 67.8192 41.7269 68.2571 40.825C68.6949 39.9231 67.5354 39.1707 66.2027 37.8998C64.8699 36.6265 63.429 34.1161 63.2317 33.0864C63.0296 32.059 62.8059 31.3163 62.053 31.6828Z" fill="#D12417"/>
<path d="M69.5657 39.7808C69.5657 39.7808 71.0187 38.8234 71.6369 37.5043C72.2552 36.1852 71.6153 31.9361 68.9162 30.617C66.2171 29.2978 63.7995 29.7367 63.3616 30.6387C62.9238 31.5406 64.0833 32.293 65.416 33.5639C66.7487 34.8372 68.1897 37.3476 68.387 38.3773C68.589 39.407 68.8128 40.1498 69.5657 39.7808Z" fill="#D12417"/>
<path d="M63.5854 38.3074C63.2967 38.5316 62.883 38.4762 62.6592 38.1868C62.4355 37.8974 62.4908 37.4826 62.7795 37.2583C63.0682 37.0341 64.0473 36.8001 64.2686 37.0895C64.4899 37.3789 63.8741 38.0855 63.5854 38.3074Z" fill="#F26968"/>
<path d="M62.1492 35.6548C61.7932 35.732 61.442 35.5077 61.3626 35.1508C61.2856 34.7939 61.5093 34.4418 61.8653 34.3622C62.2214 34.2851 63.2053 34.4901 63.2846 34.8494C63.3616 35.2063 62.5052 35.5777 62.1492 35.6548Z" fill="#F26968"/>
<path d="M66.0414 40.1162C65.8562 40.4321 65.4521 40.5382 65.1369 40.3525C64.8218 40.1668 64.7159 39.7617 64.9012 39.4458C65.0864 39.1299 65.9043 38.5463 66.2195 38.7296C66.5346 38.9129 66.2243 39.8003 66.0414 40.1162Z" fill="#F26968"/>
<path d="M68.3725 33.0792C68.642 32.8332 69.0582 32.8501 69.3059 33.1202C69.5513 33.3902 69.5345 33.8074 69.265 34.0558C68.9956 34.3018 68.0406 34.6201 67.7952 34.35C67.5498 34.08 68.1055 33.3251 68.3725 33.0792Z" fill="#F26968"/>
<path d="M70.0276 35.5993C70.3764 35.4908 70.7469 35.6861 70.8528 36.0358C70.961 36.3855 70.7662 36.7569 70.4173 36.863C70.0685 36.9715 69.0702 36.8485 68.9619 36.4988C68.8561 36.1516 69.6812 35.7078 70.0276 35.5993Z" fill="#F26968"/>
<path d="M65.7721 31.4876C65.9285 31.1572 66.323 31.0174 66.6526 31.1741C66.9821 31.3309 67.1216 31.7263 66.9653 32.0567C66.8089 32.3871 66.0415 33.0382 65.712 32.8815C65.3824 32.7247 65.6157 31.8156 65.7721 31.4876Z" fill="#F26968"/>
<path d="M62.0288 67.3836C63.9966 70.8249 62.4666 74.7099 59.3754 77.1817C55.7189 80.1069 51.5668 77.963 49.599 74.5218C47.6312 71.0805 48.8196 66.6939 52.2524 64.7212C55.6852 62.751 60.061 63.9423 62.0288 67.3836Z" fill="#F26968"/>
<path d="M52.8874 66.262C52.8874 66.262 51.2877 66.9469 50.4457 68.1358C49.6037 69.3247 49.481 73.6197 51.9035 75.397C54.3259 77.1743 56.7821 77.1719 57.3739 76.364C57.9656 75.5537 56.9553 74.6084 55.8704 73.1181C54.7854 71.6277 53.8111 68.9003 53.7967 67.8537C53.7823 66.8046 53.6933 66.033 52.8874 66.262Z" fill="#D12417"/>
<path d="M58.8462 75.5661C58.8462 75.5661 60.4459 74.8812 61.2879 73.6923C62.1298 72.5034 62.2525 68.2085 59.8301 66.4311C57.4076 64.6538 54.9515 64.6562 54.3597 65.4641C53.7679 66.2744 54.7783 67.2197 55.8632 68.7076C56.9481 70.198 57.9224 72.9254 57.9368 73.9721C57.9513 75.0235 58.0403 75.7952 58.8462 75.5661Z" fill="#D12417"/>
<path d="M53.2219 73.0533C52.8972 73.2221 52.5002 73.0943 52.3318 72.7711C52.1634 72.4455 52.2909 72.0476 52.6133 71.8788C52.938 71.71 53.9412 71.6545 54.1096 71.9777C54.278 72.3008 53.5467 72.8844 53.2219 73.0533Z" fill="#F26968"/>
<path d="M52.2789 70.1881C51.9156 70.2026 51.6077 69.9156 51.5933 69.5515C51.5789 69.1849 51.8651 68.8786 52.2284 68.8642C52.594 68.8497 53.525 69.2283 53.5394 69.5949C53.5515 69.959 52.6421 70.1736 52.2789 70.1881Z" fill="#F26968"/>
<path d="M55.3195 75.2694C55.0813 75.5467 54.6652 75.5805 54.3885 75.3417C54.1119 75.103 54.0782 74.6858 54.3164 74.4085C54.5545 74.1311 55.4638 73.7019 55.7405 73.9382C56.0171 74.1746 55.5577 74.9921 55.3195 75.2694Z" fill="#F26968"/>
<path d="M58.8606 68.7582C59.1686 68.5628 59.5775 68.6545 59.7724 68.9632C59.9672 69.2718 59.8758 69.6818 59.5679 69.8771C59.26 70.0725 58.2641 70.2147 58.0692 69.9061C57.8719 69.5974 58.5527 68.9535 58.8606 68.7582Z" fill="#F26968"/>
<path d="M60.0442 71.5338C60.405 71.4904 60.7346 71.7484 60.7803 72.1102C60.8236 72.4719 60.5662 72.8023 60.2054 72.8481C59.8445 72.8915 58.8823 72.5949 58.839 72.2307C58.7933 71.869 59.6809 71.5772 60.0442 71.5338Z" fill="#F26968"/>
<path d="M56.5825 66.7277C56.7942 66.4311 57.208 66.3636 57.5038 66.5758C57.7997 66.788 57.8671 67.2028 57.6554 67.4994C57.4437 67.7961 56.5729 68.3025 56.277 68.0878C55.9811 67.878 56.3708 67.0268 56.5825 66.7277Z" fill="#F26968"/>
<path d="M120.442 70.8705C120.442 74.8351 117.236 78.0497 113.281 78.0497C109.326 78.0497 106.119 74.8351 106.119 70.8705C106.119 66.9059 107.685 64.832 113.281 63.6913C117.156 62.9003 120.442 66.9059 120.442 70.8705Z" fill="#F26968"/>
<path d="M113.069 65.3407C113.069 65.3407 111.342 65.1382 110.021 65.7483C108.7 66.3584 106.465 70.0264 107.685 72.7755C108.905 75.5247 111.039 76.7473 111.953 76.3398C112.867 75.9322 112.46 74.6083 112.258 72.7755C112.056 70.9427 112.564 68.0899 113.071 67.1735C113.576 66.2571 113.882 65.5457 113.069 65.3407Z" fill="#D12417"/>
<path d="M113.625 76.3859C113.625 76.3859 115.352 76.5884 116.673 75.9783C117.993 75.3682 120.228 71.7002 119.008 68.9511C117.789 66.2019 115.655 64.9792 114.741 65.3868C113.827 65.7944 114.233 67.1183 114.435 68.9511C114.637 70.7838 114.13 73.6367 113.622 74.5531C113.117 75.4695 112.812 76.1809 113.625 76.3859Z" fill="#D12417"/>
<path d="M109.99 71.401C109.627 71.3865 109.343 71.0778 109.357 70.7113C109.372 70.3447 109.679 70.0626 110.045 70.0771C110.408 70.0915 111.308 70.5425 111.294 70.909C111.279 71.2756 110.353 71.4154 109.99 71.401Z" fill="#F26968"/>
<path d="M110.591 68.4445C110.269 68.2757 110.144 67.8754 110.312 67.5498C110.481 67.2266 110.88 67.1012 111.205 67.27C111.527 67.4389 112.148 68.2323 111.979 68.5578C111.811 68.8834 110.916 68.6133 110.591 68.4445Z" fill="#F26968"/>
<path d="M110.711 74.3697C110.367 74.4927 109.99 74.3119 109.867 73.9694C109.744 73.6246 109.925 73.246 110.266 73.123C110.61 73 111.611 73.0796 111.734 73.4244C111.859 73.7693 111.055 74.2467 110.711 74.3697Z" fill="#F26968"/>
<path d="M117.012 70.4847C117.375 70.4678 117.685 70.7524 117.7 71.1165C117.717 71.4807 117.433 71.7918 117.07 71.8063C116.706 71.8231 115.771 71.4493 115.756 71.0828C115.739 70.7211 116.649 70.5016 117.012 70.4847Z" fill="#F26968"/>
<path d="M116.661 73.4822C116.997 73.6245 117.154 74.0127 117.014 74.3503C116.872 74.688 116.485 74.8447 116.148 74.7048C115.811 74.5626 115.126 73.8246 115.268 73.4894C115.41 73.1494 116.326 73.3399 116.661 73.4822Z" fill="#F26968"/>
<path d="M116.042 67.5885C116.374 67.4365 116.766 67.5836 116.918 67.9164C117.07 68.2492 116.923 68.6423 116.591 68.7943C116.259 68.9462 115.253 68.951 115.102 68.6182C114.95 68.2854 115.71 67.7404 116.042 67.5885Z" fill="#F26968"/>
<path d="M33.9866 52.5887C30.4287 53.7534 26.6013 51.8073 25.4394 48.2407C24.2775 44.674 26.2188 40.8372 29.7768 39.6724C33.3347 38.5077 35.6537 39.3083 38.3239 44.0204C40.1714 47.2833 37.5445 51.4239 33.9866 52.5887Z" fill="#F26968"/>
<path d="M36.7795 44.3145C36.7795 44.3145 36.4547 42.6964 35.5189 41.6859C34.5832 40.6755 30.6355 39.7374 28.5258 41.6449C26.4161 43.5525 25.947 45.8362 26.5821 46.5404C27.2172 47.2446 28.2853 46.4897 29.8706 45.7687C31.4559 45.0476 34.1646 44.6666 35.1365 44.8547C36.1059 45.0428 36.8348 45.1079 36.7795 44.3145Z" fill="#D12417"/>
<path d="M27.0343 48.0622C27.0343 48.0622 27.3591 49.6803 28.2949 50.6908C29.2307 51.7012 33.1783 52.6393 35.288 50.7317C37.3977 48.8242 37.8668 46.5405 37.2318 45.8363C36.5967 45.1321 35.5286 45.8869 33.9433 46.608C32.358 47.3291 29.6492 47.7101 28.6774 47.522C27.7079 47.3339 26.9766 47.2688 27.0343 48.0622Z" fill="#D12417"/>
<path d="M30.4384 43.3186C30.3445 42.9858 30.5394 42.6386 30.8714 42.5469C31.2033 42.4529 31.5498 42.6482 31.6412 42.981C31.7326 43.3138 31.5955 44.2567 31.2611 44.3508C30.9291 44.4448 30.5322 43.6514 30.4384 43.3186Z" fill="#F26968"/>
<path d="M33.2674 42.993C33.3251 42.653 33.6475 42.4215 33.9867 42.4793C34.3259 42.5372 34.5568 42.8604 34.4991 43.2004C34.4413 43.5404 33.9121 44.3338 33.5729 44.2759C33.2337 44.2205 33.2097 43.3354 33.2674 42.993Z" fill="#F26968"/>
<path d="M27.9869 44.8427C27.7752 44.5702 27.8257 44.1747 28.1 43.9649C28.3718 43.7527 28.7663 43.8033 28.9756 44.0782C29.1873 44.3507 29.4086 45.2792 29.1368 45.4914C28.8626 45.6988 28.1986 45.1152 27.9869 44.8427Z" fill="#F26968"/>
<path d="M33.3226 49.3814C33.4429 49.7046 33.2793 50.0663 32.957 50.1869C32.6346 50.3075 32.2738 50.1435 32.1535 49.8203C32.0332 49.4972 32.0933 48.5446 32.4157 48.4241C32.738 48.3035 33.2023 49.0583 33.3226 49.3814Z" fill="#F26968"/>
<path d="M30.5298 49.9481C30.5009 50.293 30.2002 50.5486 29.8562 50.5196C29.5122 50.4907 29.2572 50.1893 29.286 49.8444C29.3149 49.4996 29.7744 48.6652 30.1184 48.6941C30.4624 48.7206 30.5586 49.6032 30.5298 49.9481Z" fill="#F26968"/>
<path d="M35.6368 47.6572C35.8702 47.9128 35.8533 48.3083 35.6007 48.5423C35.3457 48.7762 34.9512 48.7593 34.7179 48.5061C34.4845 48.2505 34.1838 47.3461 34.4388 47.1122C34.6914 46.8759 35.4035 47.4016 35.6368 47.6572Z" fill="#F26968"/>
<path d="M97.6586 25.9723C97.6586 25.9723 91.8971 28.0727 89.2798 29.6475C86.6625 31.2222 89.8042 35.9464 94.5168 38.3098C99.2294 40.6731 107.086 43.2968 107.608 39.3588C108.133 35.4207 106.562 35.1579 104.204 30.9594C101.847 26.7585 99.4916 26.7585 97.6586 25.9723Z" fill="#FDECD5"/>
<path d="M119.817 42.9016C117.414 42.6821 111.438 47.6258 112.484 51.301C113.531 54.9762 118.768 56.8138 122.434 58.6514C126.1 60.489 130.288 61.538 130.288 57.3395C130.288 53.141 132.646 50.5148 129.242 46.8396C125.838 43.1644 122.696 43.1644 119.817 42.9016Z" fill="#FDECD5"/>
<path d="M33.8975 26.2135C31.6603 29.8019 31.2802 35.662 34.6841 35.4015C38.0881 35.1386 47.7755 37.502 48.8244 34.3525C49.8708 31.203 53.7992 28.5768 49.8708 25.9531C45.9424 23.3293 45.1582 20.1774 41.2298 20.966C37.3014 21.7521 35.2061 24.1155 33.8975 26.2135Z" fill="#FDECD5"/>
<path d="M35.9543 57.2549C34.3137 62.2395 39.8827 67.0385 44.0709 63.9807C48.2615 60.9228 54.5449 60.0065 54.0205 55.4197C53.4961 50.8329 52.7119 47.165 49.8299 48.0813C46.9504 49.0001 37.263 53.2806 35.9543 57.2549Z" fill="#FDECD5"/>
<path d="M59.236 92.4226C58.4493 96.3607 60.8068 102.134 67.6147 102.397C74.4227 102.66 79.9219 105.809 79.9219 101.871C79.9219 97.933 79.1353 95.3092 76.5179 92.9459C73.9006 90.5826 71.0187 85.3327 67.3525 86.9098C63.6864 88.4846 59.7652 89.7723 59.236 92.4226Z" fill="#FDECD5"/>
<path d="M90.687 80.4228C91.3389 82.709 94.6154 86.1985 98.0193 85.6728C101.423 85.1471 106.66 84.8842 106.66 82.2604C106.66 79.6367 106.136 74.6472 104.043 71.2349C101.948 67.8225 98.5438 67.8225 96.1887 67.8225C93.8311 67.8225 88.3343 70.1858 87.8099 73.0724C87.3456 75.6166 90.1626 78.5852 90.687 80.4228Z" fill="#FDECD5"/>
<path opacity="0.4" d="M55.411 47.9873C55.411 47.9873 54.9563 66.3368 76.7801 61.5499C76.7801 61.5499 78.1441 43.2004 55.411 47.9873Z" fill="#C0A9A8"/>
<path opacity="0.4" d="M76.821 61.2558C76.821 61.2558 94.9739 70.3762 100.613 51.2695C100.613 51.2695 82.8928 41.4473 76.821 61.2558Z" fill="#C0A9A8"/>
<path d="M55.411 46.5404C55.411 46.5404 54.9563 64.8898 76.7801 60.1029C76.7801 60.1029 78.1441 41.751 55.411 46.5404Z" fill="#67AD45"/>
<path opacity="0.08" d="M68.832 54.6868C64.6702 51.5976 60.2583 48.8581 55.5385 46.7022C55.4952 46.6829 55.4543 46.6588 55.411 46.6371C55.4134 48.0285 55.8681 63.9182 75.3632 60.3829C73.2631 58.4006 71.0884 56.4931 68.832 54.6868Z" fill="black"/>
<path d="M76.821 59.8089C76.821 59.8089 94.9739 68.9293 100.613 49.8226C100.613 49.8226 82.8928 40.0004 76.821 59.8089Z" fill="#67AD45"/>
<path opacity="0.08" d="M89.7272 54.9253C85.5005 56.1672 81.2282 57.25 77.1266 58.8706C77.0231 59.1744 76.9221 59.4879 76.8235 59.8086C76.8235 59.8086 94.1511 68.5095 100.204 51.0885C96.8286 52.6657 93.2683 53.8835 89.7272 54.9253Z" fill="black"/>
<path d="M106.735 61.3353C105.912 61.3353 105.14 61.0145 104.56 60.4309C103.978 59.8497 103.658 59.0732 103.658 58.2509C103.658 57.4261 103.978 56.652 104.56 56.0709C105.761 54.8675 107.712 54.8675 108.912 56.0709C110.112 57.2742 110.112 59.23 108.912 60.4333C108.33 61.0145 107.555 61.3353 106.735 61.3353ZM106.735 57.0065C106.417 57.0065 106.097 57.1271 105.854 57.3707C105.368 57.8578 105.368 58.6488 105.854 59.1335C106.34 59.6207 107.127 59.6207 107.613 59.1335C108.099 58.6464 108.099 57.8554 107.613 57.3707C107.37 57.1271 107.052 57.0065 106.735 57.0065Z" fill="#544B3F"/>
<path d="M81.6419 41.5848C80.8191 41.5848 80.0469 41.264 79.4672 40.6804C78.8874 40.0993 78.5651 39.3227 78.5651 38.5004C78.5651 37.6757 78.885 36.9015 79.4672 36.3204C80.6676 35.117 82.6186 35.117 83.819 36.3204C85.0194 37.5237 85.0194 39.4795 83.819 40.6828C83.2368 41.264 82.4646 41.5848 81.6419 41.5848ZM81.6419 37.2536C81.3243 37.2536 81.0044 37.3742 80.7614 37.6178C80.2755 38.1049 80.2755 38.8959 80.7614 39.3806C81.2473 39.8677 82.0364 39.8677 82.5199 39.3806C83.0059 38.8935 83.0059 38.1025 82.5199 37.6178C82.2794 37.3742 81.9594 37.2536 81.6419 37.2536Z" fill="#544B3F"/>
<path d="M71.2786 64.8659C70.4558 64.8659 69.6836 64.5452 69.1039 63.9616C68.5217 63.378 68.2018 62.6039 68.2018 61.7815C68.2018 60.9568 68.5217 60.1827 69.1039 59.6015C70.3043 58.3981 72.2553 58.3981 73.4557 59.6015C74.6561 60.8049 74.6561 62.7606 73.4557 63.964C72.8711 64.5452 72.0989 64.8659 71.2786 64.8659ZM71.2786 60.5372C70.961 60.5372 70.6411 60.6578 70.3981 60.9013C69.9122 61.3885 69.9122 62.1795 70.3981 62.6642C70.8841 63.1513 71.6731 63.1513 72.1566 62.6642C72.6426 62.177 72.6426 61.386 72.1566 60.9013C71.9137 60.6578 71.5961 60.5372 71.2786 60.5372Z" fill="#544B3F"/>
<path d="M29.6349 64.4075C28.8122 64.4075 28.04 64.0868 27.4602 63.5032C26.8781 62.9196 26.5581 62.1455 26.5581 61.3232C26.5581 60.4984 26.8781 59.7243 27.4602 59.1431C28.6606 57.9398 30.6116 57.9398 31.812 59.1431C33.0124 60.3465 33.0124 62.3023 31.812 63.5056C31.2274 64.0868 30.4552 64.4075 29.6349 64.4075ZM29.6349 60.0788C29.3174 60.0788 28.9974 60.1994 28.7544 60.4429C28.2685 60.9301 28.2685 61.7211 28.7544 62.2058C29.2404 62.6929 30.0294 62.6929 30.5129 62.2058C30.9989 61.7187 30.9989 60.9277 30.5129 60.4429C30.27 60.1994 29.9524 60.0788 29.6349 60.0788Z" fill="#544B3F"/>
<path d="M52.0889 96.0688C51.2662 96.0688 50.4939 95.748 49.9142 95.1644C49.3344 94.5808 49.0121 93.8067 49.0121 92.9844C49.0121 92.1597 49.332 91.3856 49.9142 90.8044C51.1146 89.601 53.0656 89.601 54.266 90.8044C55.4664 92.0077 55.4664 93.9635 54.266 95.1668C53.6838 95.748 52.9092 96.0688 52.0889 96.0688ZM52.0889 91.7376C51.7713 91.7376 51.4514 91.8582 51.2084 92.1018C50.7225 92.5889 50.7225 93.3799 51.2084 93.8646C51.6944 94.3517 52.4834 94.3517 52.9669 93.8646C53.4529 93.3775 53.4529 92.5865 52.9669 92.1018C52.7264 91.8606 52.4064 91.7376 52.0889 91.7376Z" fill="#544B3F"/>
<path d="M129.23 38.235C128.407 38.235 127.635 37.9143 127.055 37.3307C126.475 36.7495 126.153 35.973 126.153 35.1507C126.153 34.3259 126.473 33.5518 127.055 32.9706C128.256 31.7673 130.207 31.7673 131.407 32.9706C132.607 34.174 132.607 36.1298 131.407 37.3331C130.825 37.9143 130.053 38.235 129.23 38.235ZM129.23 33.9039C128.912 33.9039 128.592 34.0245 128.349 34.268C127.863 34.7552 127.863 35.5462 128.349 36.0309C128.835 36.518 129.624 36.518 130.108 36.0309C130.594 35.5438 130.594 34.7528 130.108 34.268C129.867 34.0245 129.547 33.9039 129.23 33.9039Z" fill="#544B3F"/>
<path opacity="0.4" d="M76.9774 72.4042C76.6719 72.7755 76.3255 73.0698 75.9502 73.3013L75.4763 69.3801C73.3064 68.8086 70.6194 70.2603 70.6194 70.2603C70.7396 71.2442 71.2689 72.86 71.6514 73.9427C71.0644 73.8294 70.641 73.663 70.5255 73.54C70.1238 73.1108 66.8449 74.4009 68.5192 77.3478C69.8351 79.6653 72.527 80.0584 74.9158 79.5206C77.3455 79.2095 79.727 77.9242 80.1745 75.2932C80.7446 71.9532 77.3647 71.9315 76.9774 72.4042Z" fill="#C0A9A8"/>
<path opacity="0.4" d="M104.464 44.5798C104.478 44.0999 104.575 43.6538 104.729 43.2414L107.493 46.0557C109.559 45.1803 110.8 42.3853 110.8 42.3853C110.105 41.6787 108.703 40.7238 107.741 40.1016C108.275 39.8315 108.71 39.7037 108.878 39.7302C109.458 39.8218 111.267 36.7953 108.147 35.4859C105.693 34.4561 103.324 35.7945 101.758 37.6828C100.026 39.4167 98.9215 41.8934 100.17 44.2494C101.758 47.2446 104.447 45.1924 104.464 44.5798Z" fill="#C0A9A8"/>
<path opacity="0.4" d="M38.3889 79.1713C38.4033 78.6914 38.4995 78.2452 38.6535 77.8328L41.4176 80.6471C43.484 79.7717 44.7253 76.9767 44.7253 76.9767C44.0301 76.2702 42.6276 75.3152 41.6653 74.693C42.1994 74.4229 42.6348 74.2951 42.8032 74.3216C43.3829 74.4133 45.192 71.3868 42.0719 70.0773C39.6182 69.0476 37.2486 70.386 35.6826 72.2742C33.9505 74.0081 32.8463 76.4848 34.0948 78.8409C35.6802 81.836 38.3696 79.7838 38.3889 79.1713Z" fill="#C0A9A8"/>
<path opacity="0.4" d="M39.8659 34.7095C40.335 34.613 40.792 34.6033 41.2275 34.6588L39.137 38.006C40.4649 39.8195 43.4671 40.3814 43.4671 40.3814C43.9915 39.5398 44.5929 37.9506 44.973 36.8678C45.3603 37.326 45.584 37.7215 45.5961 37.8903C45.6394 38.4763 48.9976 39.5398 49.5461 36.195C49.9767 33.5616 48.1292 31.5624 45.9353 30.4748C43.8496 29.187 41.1914 28.6854 39.1947 30.4483C36.652 32.6862 39.2669 34.8324 39.8659 34.7095Z" fill="#C0A9A8"/>
<path opacity="0.4" d="M58.1342 93.568C58.6033 93.4715 59.0604 93.4619 59.4958 93.5173L57.4053 96.8646C58.7332 98.6781 61.7354 99.24 61.7354 99.24C62.2598 98.3983 62.8612 96.8091 63.2413 95.7263C63.6286 96.1845 63.8523 96.58 63.8644 96.7488C63.9077 97.3348 67.2659 98.3983 67.8144 95.0535C68.245 92.4201 66.3975 90.4209 64.2036 89.3333C62.1179 88.0455 59.4597 87.5439 57.463 89.3068C54.9203 91.5447 57.5352 93.691 58.1342 93.568Z" fill="#C0A9A8"/>
<path opacity="0.4" d="M128.965 44.7823C128.987 45.2622 128.924 45.7156 128.802 46.1376L125.836 43.5404C123.841 44.5701 122.812 47.4495 122.812 47.4495C123.56 48.1006 125.03 48.9471 126.033 49.4969C125.52 49.808 125.097 49.9672 124.926 49.9527C124.342 49.9045 122.764 53.0612 125.973 54.1295C128.499 54.9711 130.76 53.4591 132.179 51.4575C133.776 49.5982 134.691 47.0444 133.271 44.7896C131.467 41.9222 128.939 44.1698 128.965 44.7823Z" fill="#C0A9A8"/>
<path opacity="0.4" d="M86.547 40.2368C86.9993 40.0752 87.4491 40.0005 87.8869 39.9932L86.292 43.6033C87.8629 45.2094 90.9132 45.3396 90.9132 45.3396C91.3125 44.4305 91.683 42.7737 91.9091 41.6475C92.3566 42.0454 92.6332 42.4048 92.6717 42.5712C92.7992 43.1451 96.2729 43.7215 96.3403 40.3308C96.3932 37.6637 94.2835 35.9466 91.9548 35.1822C89.708 34.2031 87.0065 34.0849 85.2792 36.113C83.0805 38.691 85.9721 40.4442 86.547 40.2368Z" fill="#C0A9A8"/>
<path d="M77.9397 71.1984C77.6342 71.5697 77.2878 71.8639 76.9125 72.0955L76.4386 68.1743C74.2687 67.6027 71.5816 69.0545 71.5816 69.0545C71.7019 70.0384 72.2312 71.6541 72.6136 72.7369C72.0267 72.6236 71.6033 72.4572 71.4878 72.3342C71.0861 71.905 67.8072 73.1951 69.4815 76.142C70.7974 78.4595 73.4893 78.8526 75.8781 78.3148C78.3077 78.0038 80.6893 76.7184 81.1368 74.0874C81.7069 70.7474 78.327 70.7257 77.9397 71.1984Z" fill="#BD9977"/>
<path d="M105.426 43.374C105.441 42.8941 105.537 42.448 105.691 42.0356L108.455 44.8499C110.521 43.9745 111.763 41.1795 111.763 41.1795C111.067 40.4729 109.665 39.5179 108.703 38.8958C109.237 38.6257 109.672 38.4979 109.841 38.5244C110.42 38.616 112.229 35.5895 109.109 34.2801C106.656 33.2503 104.286 34.5887 102.72 36.477C100.988 38.2109 99.8837 40.6875 101.132 43.0436C102.72 46.0388 105.409 43.9865 105.426 43.374Z" fill="#BD9977"/>
<path d="M39.351 77.9654C39.3655 77.4855 39.4617 77.0394 39.6157 76.627L42.3797 79.4413C44.4461 78.5659 45.6874 75.7709 45.6874 75.7709C44.9922 75.0643 43.5897 74.1094 42.6275 73.4872C43.1615 73.2171 43.597 73.0893 43.7654 73.1158C44.3451 73.2075 46.1541 70.181 43.034 68.8715C40.5803 67.8418 38.2108 69.1802 36.6447 71.0684C34.9127 72.8023 33.8085 75.279 35.057 77.635C36.6423 80.6302 39.3318 78.578 39.351 77.9654Z" fill="#BD9977"/>
<path d="M40.8282 33.5036C41.2973 33.4072 41.7543 33.3975 42.1897 33.453L40.0993 36.8002C41.4272 38.6137 44.4294 39.1756 44.4294 39.1756C44.9538 38.334 45.5552 36.7448 45.9353 35.662C46.3226 36.1202 46.5463 36.5157 46.5584 36.6845C46.6017 37.2705 49.9599 38.334 50.5084 34.9891C50.939 32.3557 49.0915 30.3566 46.8975 29.269C44.8119 27.9812 42.1537 27.4796 40.157 29.2424C37.6143 31.4804 40.2292 33.6266 40.8282 33.5036Z" fill="#BD9977"/>
<path d="M59.0965 92.3622C59.5656 92.2657 60.0226 92.2561 60.4581 92.3115L58.3676 95.6588C59.6955 97.4722 62.6977 98.0341 62.6977 98.0341C63.2221 97.1925 63.8235 95.6033 64.2036 94.5205C64.5909 94.9787 64.8146 95.3742 64.8267 95.543C64.87 96.129 68.2282 97.1925 68.7767 93.8477C69.2073 91.2143 67.3598 89.2151 65.1659 88.1275C63.0802 86.8397 60.422 86.3381 58.4253 88.101C55.8826 90.3389 58.4975 92.4852 59.0965 92.3622Z" fill="#BD9977"/>
<path d="M129.927 43.5768C129.949 44.0567 129.887 44.51 129.764 44.9321L126.798 42.3348C124.804 43.3646 123.774 46.2439 123.774 46.2439C124.522 46.8951 125.992 47.7415 126.995 48.2913C126.483 48.6024 126.059 48.7616 125.888 48.7471C125.304 48.6989 123.726 51.8556 126.935 52.9239C129.461 53.7656 131.722 52.2535 133.141 50.2519C134.739 48.3926 135.653 45.8388 134.234 43.584C132.429 40.7167 129.901 42.9642 129.927 43.5768Z" fill="#BD9977"/>
<path d="M96.3595 77.4179C93.1744 79.7716 88.6903 79.0891 86.3449 75.8987C83.997 72.7058 84.5479 67.3425 87.7329 64.9888C90.9179 62.6351 95.5295 64.1858 97.875 67.3786C100.223 70.5691 99.5445 75.0643 96.3595 77.4179Z" fill="#F26968"/>
<path d="M96.4244 68.1866C96.4244 68.1866 95.5632 66.6722 94.2882 65.968C93.0132 65.2638 88.7432 65.6376 87.259 68.2518C85.7747 70.8683 86.0586 73.3136 86.9294 73.8104C87.8002 74.3072 88.6206 73.193 89.9725 71.9414C91.3245 70.6898 93.9153 69.4069 94.9522 69.2743C95.989 69.1416 96.7419 68.9632 96.4244 68.1866Z" fill="#D12417"/>
<path d="M87.8869 75.1871C87.8869 75.1871 88.7481 76.7015 90.0231 77.4057C91.2981 78.1099 95.5681 77.7361 97.0523 75.122C98.5366 72.5054 98.2527 70.0601 97.3819 69.5634C96.5135 69.0666 95.6907 70.1807 94.3388 71.4323C92.9868 72.6839 90.396 73.9668 89.3591 74.0995C88.3199 74.2345 87.567 74.4106 87.8869 75.1871Z" fill="#D12417"/>
<path d="M89.732 69.2982C89.5275 68.9943 89.6069 68.5843 89.91 68.3794C90.2131 68.1744 90.6221 68.254 90.8266 68.5578C91.031 68.8617 91.2018 69.8552 90.8987 70.0578C90.598 70.2628 89.9365 69.5996 89.732 69.2982Z" fill="#F26968"/>
<path d="M92.4648 68.0296C92.4094 67.6679 92.6572 67.3303 93.0181 67.2748C93.3789 67.2194 93.7157 67.4678 93.771 67.8295C93.8263 68.1912 93.5569 69.1631 93.1961 69.2185C92.8352 69.2716 92.5201 68.3914 92.4648 68.0296Z" fill="#F26968"/>
<path d="M87.7762 71.6399C87.4731 71.4349 87.3937 71.025 87.5982 70.7211C87.8027 70.4173 88.2116 70.3377 88.5147 70.5427C88.8179 70.7477 89.3471 71.6038 89.1426 71.9076C88.9405 72.209 88.0793 71.8449 87.7762 71.6399Z" fill="#F26968"/>
<path d="M94.6346 74.4204C94.8631 74.7049 94.8198 75.1221 94.536 75.3512C94.2521 75.5803 93.8359 75.5369 93.6074 75.2524C93.3789 74.9678 93.1239 73.9935 93.4077 73.762C93.6892 73.5329 94.4037 74.1358 94.6346 74.4204Z" fill="#F26968"/>
<path d="M92.0197 75.9154C92.1063 76.2699 91.8874 76.6293 91.5338 76.7137C91.1801 76.8005 90.8217 76.581 90.7375 76.2265C90.6509 75.872 90.8385 74.8809 91.1922 74.7941C91.5434 74.7097 91.9331 75.5609 92.0197 75.9154Z" fill="#F26968"/>
<path d="M96.3835 71.9194C96.7011 72.0979 96.8166 72.5006 96.6385 72.8189C96.4605 73.1373 96.0588 73.253 95.7412 73.0746C95.4237 72.8961 94.8223 72.0882 95.0003 71.7699C95.1759 71.4516 96.066 71.741 96.3835 71.9194Z" fill="#F26968"/>
<path d="M98.5173 94.7714C97.6946 94.7714 96.9224 94.4507 96.3427 93.8671C95.7605 93.2835 95.4406 92.5094 95.4406 91.6871C95.4406 90.8623 95.7605 90.0882 96.3427 89.507C97.5431 88.3037 99.494 88.3037 100.694 89.507C101.895 90.7104 101.895 92.6661 100.694 93.8695C100.112 94.4507 99.3376 94.7714 98.5173 94.7714ZM98.5173 90.4403C98.1998 90.4403 97.8798 90.5609 97.6369 90.8044C97.1509 91.2916 97.1509 92.0825 97.6369 92.5673C98.1228 93.0544 98.9118 93.0544 99.3954 92.5673C99.8813 92.0801 99.8813 91.2891 99.3954 90.8044C99.1548 90.5633 98.8349 90.4403 98.5173 90.4403Z" fill="#544B3F"/>
<path d="M73.5061 112.93C72.6834 112.93 71.9112 112.61 71.3314 112.026C70.7517 111.442 70.4293 110.668 70.4293 109.846C70.4293 109.021 70.7493 108.247 71.3314 107.666C72.5318 106.463 74.4828 106.463 75.6832 107.666C76.8836 108.869 76.8836 110.825 75.6832 112.028C75.0986 112.61 74.3264 112.93 73.5061 112.93ZM73.5061 108.599C73.1886 108.599 72.8686 108.72 72.6257 108.963C72.1397 109.45 72.1397 110.241 72.6257 110.726C73.1116 111.213 73.9006 111.213 74.3842 110.726C74.8701 110.239 74.8701 109.448 74.3842 108.963C74.1412 108.72 73.8237 108.599 73.5061 108.599Z" fill="#544B3F"/>
<path d="M24.5084 35.3508C23.6857 35.3508 22.9135 35.03 22.3337 34.4464C21.7516 33.8628 21.4316 33.0887 21.4316 32.2664C21.4316 31.4416 21.7516 30.6675 22.3337 30.0864C23.5342 28.883 25.4851 28.883 26.6855 30.0864C27.8859 31.2897 27.8859 33.2455 26.6855 34.4488C26.1034 35.03 25.3312 35.3508 24.5084 35.3508ZM24.5084 31.0196C24.1909 31.0196 23.8709 31.1402 23.628 31.3838C23.142 31.8709 23.142 32.6619 23.628 33.1466C24.1139 33.6337 24.903 33.6337 25.3865 33.1466C25.8724 32.6595 25.8724 31.8685 25.3865 31.3838C25.1459 31.1426 24.8284 31.0196 24.5084 31.0196Z" fill="#544B3F"/>
<path d="M87.5092 39.0308C87.9614 38.8693 88.4089 38.7945 88.8491 38.7873L87.2542 42.3974C88.825 44.0035 91.8754 44.1337 91.8754 44.1337C92.2747 43.2245 92.6452 41.5678 92.8713 40.4416C93.3187 40.8395 93.5954 41.1988 93.6339 41.3652C93.7614 41.9392 97.2351 42.5155 97.3025 39.1249C97.3554 36.4577 95.2456 34.7407 92.917 33.9762C90.6702 32.9972 87.9686 32.879 86.2414 34.9071C84.0427 37.4826 86.9342 39.2382 87.5092 39.0308Z" fill="#BD9977"/>
</svg>
