<svg width="312" height="256" viewBox="0 0 312 256" fill="none" xmlns="http://www.w3.org/2000/svg">
<path opacity="0.7" d="M280.481 240.759C280.481 240.759 0.155273 242.97 0.155273 245.935C18.5146 261.925 310.093 254.286 311.95 245.935C311.95 242.97 281.633 240.759 280.481 240.759Z" fill="#E9E2DF"/>
<path d="M204.837 0H105.86C99.5692 0 94.4694 5.06805 94.4694 11.318V234.894C94.4694 241.144 99.5692 246.212 105.86 246.212H204.837C211.128 246.212 216.228 241.144 216.228 234.894V11.318C216.226 5.06805 211.126 0 204.837 0Z" fill="white"/>
<path d="M211.072 19.0099H99.6227V228.261H211.072V19.0099Z" fill="#C0A9A8"/>
<mask id="mask0" mask-type="alpha" maskUnits="userSpaceOnUse" x="99" y="19" width="113" height="210">
<path d="M211.072 19.0099H99.6227V228.261H211.072V19.0099Z" fill="#433C36"/>
</mask>
<g mask="url(#mask0)">
<path d="M96 96.1097C109.255 96.1097 120 85.0756 120 71.4644C120 57.8531 109.255 46.819 96 46.819C82.7452 46.819 72 57.8531 72 71.4644C72 85.0756 82.7452 96.1097 96 96.1097Z" fill="white"/>
<path d="M100.874 57.2745H91.1257C87.0448 57.2745 80.6327 62.3303 80.6327 66.8648V68.3488H111.367V66.8648C111.366 62.3303 104.954 57.2745 100.874 57.2745Z" fill="#D67B51"/>
<path d="M80.6327 79.4717C80.6327 81.9054 83.9897 83.8796 86.1803 83.8796H105.818C108.009 83.8796 111.366 81.9054 111.366 79.4717V78.2703H80.6311V79.4717H80.6327Z" fill="#D67B51"/>
<path d="M109.771 73.4288H82.2274C80.944 73.4288 79.9041 74.4971 79.9041 75.8154V76.007C79.9041 77.3253 80.944 78.3936 82.2274 78.3936H109.771C111.054 78.3936 112.094 77.3253 112.094 76.007V75.8154C112.094 74.4971 111.054 73.4288 109.771 73.4288Z" fill="#FFBA17"/>
<path d="M100.365 70.0568H91.9981C91.5619 70.0568 91.2079 70.4204 91.2079 70.8685V71.1429C91.2079 71.591 91.5619 71.9547 91.9981 71.9547H100.365C100.802 71.9547 101.156 71.591 101.156 71.1429V70.8685C101.154 70.4204 100.802 70.0568 100.365 70.0568Z" fill="#E0313A"/>
<path d="M111.091 70.0568H102.723C102.287 70.0568 101.933 70.4204 101.933 70.8685V71.1429C101.933 71.591 102.287 71.9547 102.723 71.9547H111.091C111.527 71.9547 111.881 71.591 111.881 71.1429V70.8685C111.879 70.4204 111.527 70.0568 111.091 70.0568Z" fill="#E0313A"/>
<path opacity="0.3" d="M104.892 61.1824C104.257 60.9389 104.015 61.1223 103.92 61.4292C103.825 61.736 103.912 62.0461 104.547 62.2896C105.183 62.5332 106.125 62.6176 106.22 62.3124C106.314 62.0055 105.526 61.4259 104.892 61.1824Z" fill="white"/>
<path opacity="0.3" d="M99.3221 63.246C98.8369 63.7152 98.8843 64.0594 99.0977 64.3338C99.311 64.6081 99.6113 64.7072 100.098 64.238C100.583 63.7688 101.072 62.9083 100.858 62.6339C100.642 62.3595 99.8073 62.7768 99.3221 63.246Z" fill="white"/>
<path opacity="0.3" d="M100.329 58.838C99.7679 58.489 99.4929 58.6546 99.3333 58.9712C99.1736 59.2878 99.191 59.6352 99.7521 59.9842C100.313 60.3333 101.208 60.5525 101.367 60.2359C101.525 59.9193 100.89 59.1871 100.329 58.838Z" fill="white"/>
<path opacity="0.3" d="M107.854 63.7298C107.233 63.444 106.299 63.2963 106.186 63.595C106.074 63.8937 106.83 64.5253 107.449 64.8111C108.07 65.0968 108.322 64.9296 108.432 64.6308C108.544 64.3321 108.475 64.0155 107.854 63.7298Z" fill="white"/>
<path d="M156.769 96.1097C170.023 96.1097 180.769 85.0756 180.769 71.4644C180.769 57.8531 170.023 46.819 156.769 46.819C143.514 46.819 132.769 57.8531 132.769 71.4644C132.769 85.0756 143.514 96.1097 156.769 96.1097Z" fill="white"/>
<path d="M152.014 63.4138C152.408 62.6192 152.85 61.7514 153.365 60.7589C154.967 57.6724 151.178 56.7064 149.234 57.7923C147.737 58.629 147.244 61.2621 147.244 61.2621C147.244 61.2621 145.974 57.4979 144.37 60.4255C142.915 63.0788 144.303 63.9139 143.862 66.5143C143.463 68.8608 141.547 62.8217 140.533 66.3087C139.516 69.7956 143.002 73.08 143.909 73.9213C144.467 74.4386 145.613 74.9434 145.083 76.4111C144.861 77.0219 143.009 77.6809 142.856 77.9287C142.575 78.379 142.876 78.4366 142.93 78.4428C142.932 78.4428 142.932 78.4428 142.932 78.4428C142.936 78.4428 142.939 78.4444 142.939 78.4444C143.04 78.4584 143.138 78.4693 143.237 78.4771C143.269 78.4802 143.299 78.4802 143.331 78.4833C143.396 78.488 143.461 78.4911 143.526 78.4927C143.561 78.4927 143.598 78.4927 143.633 78.4927C143.692 78.4927 143.751 78.4911 143.809 78.488C143.843 78.4865 143.878 78.4849 143.913 78.4818C143.971 78.4771 144.028 78.4724 144.086 78.4646C144.118 78.4615 144.15 78.4584 144.182 78.4537C144.245 78.4444 144.309 78.4335 144.371 78.421C144.394 78.4163 144.417 78.4132 144.439 78.4086C144.524 78.3914 144.606 78.3712 144.688 78.3478C144.706 78.3431 144.723 78.3369 144.741 78.3307C144.805 78.312 144.869 78.2917 144.929 78.2699C144.958 78.2605 144.986 78.2481 145.013 78.2387C145.064 78.22 145.114 78.1998 145.164 78.178C145.193 78.1655 145.222 78.1515 145.252 78.139C145.301 78.1172 145.348 78.0938 145.395 78.0705C145.422 78.0564 145.451 78.0424 145.478 78.0268C145.527 78.0003 145.575 77.9723 145.624 77.9443C145.647 77.9302 145.671 77.9162 145.695 77.9022C145.757 77.8632 145.818 77.8227 145.877 77.7822C145.885 77.776 145.894 77.7713 145.903 77.7651C145.971 77.7168 146.038 77.6654 146.103 77.6139C146.122 77.5999 146.14 77.5843 146.158 77.5688C146.205 77.5298 146.252 77.4909 146.297 77.4503C146.32 77.4301 146.341 77.4098 146.364 77.3896C146.405 77.3522 146.446 77.3132 146.486 77.2743C146.508 77.2525 146.529 77.2307 146.552 77.2089C146.592 77.1683 146.631 77.1263 146.671 77.0858C146.69 77.064 146.71 77.0421 146.73 77.0203C146.774 76.972 146.816 76.9222 146.859 76.8723C146.872 76.8567 146.886 76.8396 146.9 76.824C146.956 76.7555 147.012 76.6853 147.065 76.6137C147.066 76.6121 147.068 76.6106 147.069 76.6074C147.121 76.5389 147.173 76.4688 147.223 76.3971C147.236 76.3769 147.25 76.3566 147.264 76.3363C147.301 76.2818 147.338 76.2273 147.374 76.1712C147.389 76.1478 147.405 76.1229 147.42 76.098C147.455 76.0434 147.488 75.9889 147.521 75.9344C147.537 75.9094 147.55 75.8861 147.565 75.8611C147.6 75.8019 147.635 75.7412 147.669 75.6804C147.679 75.6601 147.691 75.6399 147.702 75.6196C147.746 75.5402 147.788 75.4592 147.831 75.3781C147.831 75.3766 147.832 75.3766 147.832 75.375C147.878 75.2878 147.922 75.199 147.964 75.1101C147.967 75.1055 147.969 75.1008 147.97 75.0961C148.008 75.0151 148.046 74.9341 148.084 74.8515C148.092 74.8328 148.101 74.8141 148.108 74.797C148.14 74.7269 148.171 74.6568 148.199 74.5866C148.208 74.5664 148.218 74.5446 148.225 74.5243C148.255 74.4526 148.284 74.3825 148.313 74.3109C148.321 74.2922 148.328 74.275 148.334 74.2563C148.366 74.1738 148.4 74.0912 148.43 74.007C148.433 74.0008 148.434 73.9946 148.437 73.9883C148.542 73.7079 148.639 73.4243 148.729 73.1392C148.732 73.1299 148.735 73.1205 148.738 73.1127C148.765 73.027 148.791 72.9413 148.817 72.8556C148.82 72.8463 148.823 72.8369 148.824 72.8276C148.852 72.7357 148.877 72.6453 148.905 72.5549V72.5534C150.104 70.612 153.069 66.1077 154.645 66.2775C154.639 66.276 154.521 63.0134 152.014 63.4138Z" fill="#3D944C"/>
<path d="M149.276 69.5979C151.238 69.5979 152.828 67.9649 152.828 65.9505C152.828 63.9361 151.238 62.3031 149.276 62.3031C147.314 62.3031 145.724 63.9361 145.724 65.9505C145.724 67.9649 147.314 69.5979 149.276 69.5979Z" fill="#E0313A"/>
<path d="M162.948 62.9309C163.789 61.7561 163.671 59.366 162.705 57.8812C159.467 52.9095 158.31 64.2521 154.691 61.1453C151.072 58.0386 149.422 72.2075 149.422 72.2075C151.859 81.3269 161.014 73.4057 163.239 69.9234C172.365 55.6407 160.92 65.7587 162.948 62.9309Z" fill="#65B072"/>
<path d="M171.505 63.6321C169.958 63.5121 168.317 65.2743 168.317 65.2743C168.317 65.2743 169.157 61.7531 166.522 63.1772C164.134 64.4672 164.793 65.8087 163.205 67.5724C161.772 69.1632 163.211 63.576 160.759 65.7277C158.307 67.8778 159.389 72.1547 159.679 73.2578C159.857 73.9371 160.491 74.9031 159.379 75.7554C158.916 76.1106 157.184 75.6744 156.948 75.7865C156.517 75.9875 156.719 76.1854 156.756 76.2181C156.756 76.2181 156.756 76.2181 156.758 76.2197C156.761 76.2228 156.763 76.2244 156.763 76.2244C156.832 76.2867 156.902 76.3443 156.973 76.4004C156.996 76.4191 157.019 76.4347 157.042 76.4518C157.09 76.4877 157.139 76.5235 157.187 76.5578C157.215 76.5765 157.242 76.5936 157.268 76.6123C157.313 76.6419 157.359 76.6715 157.404 76.698C157.431 76.7152 157.46 76.7307 157.488 76.7463C157.535 76.7728 157.58 76.7977 157.627 76.8211C157.653 76.8351 157.68 76.8491 157.706 76.8616C157.759 76.8881 157.812 76.9115 157.867 76.9333C157.886 76.9411 157.906 76.9504 157.926 76.9582C157.999 76.9878 158.071 77.0143 158.146 77.0377C158.162 77.0423 158.178 77.047 158.194 77.0517C158.252 77.0688 158.31 77.086 158.367 77.1016C158.393 77.1078 158.42 77.114 158.446 77.1202C158.495 77.1312 158.543 77.1421 158.592 77.1498C158.62 77.1545 158.649 77.1592 158.677 77.1639C158.724 77.1717 158.771 77.1779 158.818 77.1826C158.846 77.1857 158.874 77.1888 158.903 77.1919C158.953 77.1966 159.003 77.1997 159.053 77.2013C159.077 77.2028 159.103 77.2044 159.127 77.2044C159.192 77.2059 159.259 77.2059 159.324 77.2044C159.333 77.2044 159.342 77.2044 159.352 77.2044C159.427 77.2013 159.502 77.1966 159.578 77.1904C159.599 77.1888 159.62 77.1857 159.64 77.1841C159.694 77.1779 159.749 77.1717 159.804 77.1639C159.831 77.1608 159.857 77.1561 159.884 77.1514C159.934 77.1436 159.982 77.1343 160.033 77.1249C160.06 77.1202 160.087 77.114 160.114 77.1078C160.164 77.0969 160.215 77.086 160.265 77.0735C160.29 77.0673 160.316 77.061 160.342 77.0548C160.398 77.0392 160.454 77.0236 160.512 77.0065C160.53 77.0003 160.548 76.9956 160.566 76.9909C160.642 76.9676 160.718 76.9411 160.794 76.9146C160.795 76.9146 160.798 76.913 160.8 76.913C160.873 76.8865 160.946 76.8585 161.018 76.8289C161.038 76.8211 161.059 76.8117 161.079 76.804C161.134 76.7806 161.188 76.7572 161.243 76.7338C161.266 76.7229 161.29 76.712 161.313 76.7011C161.364 76.6778 161.417 76.6528 161.469 76.6263C161.492 76.6154 161.514 76.6045 161.537 76.5921C161.592 76.564 161.648 76.536 161.702 76.5064C161.721 76.497 161.739 76.4877 161.757 76.4768C161.828 76.4378 161.9 76.3989 161.971 76.3568C161.972 76.3568 161.972 76.3552 161.974 76.3552C162.05 76.3116 162.127 76.2664 162.201 76.2197C162.206 76.2166 162.209 76.215 162.214 76.2119C162.282 76.1698 162.35 76.1262 162.417 76.0826C162.432 76.0732 162.447 76.0623 162.462 76.053C162.52 76.0156 162.576 75.9766 162.634 75.9392C162.65 75.9283 162.667 75.9159 162.684 75.905C162.741 75.866 162.797 75.8255 162.854 75.785C162.867 75.7741 162.882 75.7647 162.896 75.7538C162.961 75.7071 163.025 75.6603 163.089 75.612C163.093 75.6089 163.098 75.6043 163.102 75.6011C163.318 75.4391 163.528 75.2724 163.733 75.101C163.739 75.0948 163.747 75.0901 163.753 75.0839C163.815 75.0324 163.876 74.9795 163.936 74.9281C163.943 74.9218 163.95 74.9171 163.956 74.9109C164.021 74.8548 164.085 74.7987 164.149 74.7426C164.149 74.7426 164.149 74.7426 164.15 74.7426C166.001 73.8686 170.432 71.9303 171.555 72.859C171.555 72.859 173.034 70.3068 170.925 69.3408C171.608 68.9342 172.365 68.4948 173.235 67.9978C175.943 66.4491 173.513 63.7895 171.505 63.6321Z" fill="#3D944C"/>
<path d="M153.637 68.0518C152.675 67.2073 151.562 67.0343 150.392 67.1341C149.241 67.2338 148.031 67.5937 147.221 68.5659C146.278 69.7002 145.509 72.7026 147.723 75.1534C148.63 76.1568 150.165 76.1942 151.39 76.0368C152.475 75.8966 153.371 75.5585 154.137 74.6392C154.953 73.6592 155.04 72.4798 154.949 71.2879C154.859 70.0959 154.592 68.89 153.637 68.0518Z" fill="#C5DDBD"/>
<path d="M153.826 67.8247C152.916 67.0254 151.817 66.7107 150.368 66.8369C148.874 66.9662 147.74 67.4835 147 68.3732C145.877 69.7209 145.265 72.8728 147.509 75.3595C147.58 75.439 147.658 75.5137 147.738 75.5854C148.547 76.2959 149.787 76.5483 151.428 76.338C152.749 76.1681 153.627 75.7194 154.362 74.836C155.297 73.7111 155.325 72.3369 155.243 71.2665C155.158 70.168 154.921 68.786 153.826 67.8247ZM153.916 74.4449C153.276 75.213 152.534 75.5885 151.354 75.7397C149.746 75.9469 148.595 75.6805 147.937 74.9497C145.739 72.516 146.678 69.6804 147.442 68.7611C148.081 67.9945 149.08 67.5489 150.417 67.4321C151.7 67.3215 152.661 67.5894 153.445 68.2781C154.377 69.0961 154.583 70.327 154.657 71.3085C154.736 72.3275 154.709 73.4929 153.916 74.4449Z" fill="#005461"/>
<path d="M149.669 70.6837C149.429 70.7866 149.27 70.7087 148.948 71.0935C148.627 71.4783 148.729 71.6279 148.666 71.8881C148.641 71.9956 148.73 72.0735 148.829 72.0299C149.068 71.9271 149.294 71.9271 149.549 71.6201C149.886 71.215 149.769 71.0857 149.831 70.8255C149.855 70.718 149.767 70.6401 149.669 70.6837Z" fill="white"/>
<path d="M150.465 70.9799C150.406 70.888 150.289 70.9035 150.253 71.0064C150.165 71.2572 150.001 71.3258 150.062 71.829C150.122 72.3323 150.298 72.3572 150.442 72.5785C150.502 72.6704 150.618 72.6548 150.655 72.552C150.743 72.3011 150.894 72.1297 150.846 71.7293C150.782 71.2011 150.611 71.2011 150.465 70.9799Z" fill="white"/>
<path d="M149.971 72.5612C149.676 72.1219 149.523 72.2044 149.296 72.0767C149.202 72.0237 149.106 72.0923 149.12 72.2013C149.155 72.4662 149.039 72.6033 149.32 73.0209C149.601 73.4384 149.767 73.3777 149.995 73.5054C150.089 73.5584 150.185 73.4898 150.171 73.3808C150.136 73.1159 150.194 72.8931 149.971 72.5612Z" fill="white"/>
<path d="M151.873 72.6173C151.613 72.5971 151.507 72.4506 151.049 72.6438C150.593 72.8354 150.615 73.0162 150.444 73.2172C150.374 73.2998 150.418 73.4119 150.524 73.4197C150.784 73.44 150.984 73.5459 151.348 73.3932C151.829 73.1922 151.782 73.0209 151.953 72.8199C152.023 72.7373 151.979 72.6251 151.873 72.6173Z" fill="white"/>
<path d="M151.524 70.6589C151.465 70.567 151.348 70.5826 151.311 70.6854C151.223 70.9362 151.06 71.0048 151.12 71.508C151.181 72.0113 151.357 72.0362 151.501 72.2575C151.56 72.3494 151.677 72.3338 151.713 72.231C151.801 71.9801 151.953 71.8088 151.904 71.4083C151.841 70.8801 151.668 70.8817 151.524 70.6589Z" fill="white"/>
<path d="M152.073 69.9313C151.769 69.6291 151.66 69.7194 151.458 69.654C151.375 69.6275 151.308 69.6976 151.337 69.7818C151.407 69.9874 151.336 70.1167 151.624 70.405C151.912 70.6932 152.036 70.6169 152.238 70.6823C152.321 70.7088 152.388 70.6387 152.359 70.5545C152.291 70.3473 152.303 70.1588 152.073 69.9313Z" fill="white"/>
<path d="M152.428 71.1762C152.381 71.1014 152.285 71.1108 152.255 71.1949C152.18 71.399 152.045 71.4504 152.088 71.8617C152.13 72.2731 152.273 72.2949 152.387 72.4787C152.434 72.5535 152.529 72.5442 152.56 72.46C152.634 72.2559 152.761 72.1188 152.728 71.7932C152.682 71.36 152.543 71.3585 152.428 71.1762Z" fill="white"/>
<path d="M151.184 70.1617C150.966 70.0168 150.837 69.8267 150.447 69.7846C149.931 69.7285 149.893 69.9015 149.649 69.9965C149.549 70.0355 149.537 70.1554 149.626 70.2146C149.845 70.3595 149.872 70.5387 150.363 70.5917C150.855 70.6447 150.917 70.4748 151.161 70.3798C151.261 70.3408 151.273 70.2209 151.184 70.1617Z" fill="white"/>
<path d="M168.765 66.8648C168.768 65.1051 167.381 63.6758 165.668 63.6725C163.954 63.6691 162.562 65.0929 162.559 66.8526C162.555 68.6123 163.942 70.0416 165.656 70.0449C167.37 70.0483 168.762 68.6245 168.765 66.8648Z" fill="#E0313A"/>
<path d="M163.636 65.2301C162.655 64.6022 161.476 64.1488 160.26 64.4308C158.843 64.7596 156.48 66.6947 156.828 70.0196C156.97 71.3814 158.179 72.3536 159.253 72.9799C160.204 73.5346 161.118 73.8135 162.27 73.5455C163.495 73.2604 164.25 72.3692 164.871 71.3564C165.493 70.3452 165.979 69.2141 165.702 67.9567C165.423 66.6885 164.633 65.8674 163.636 65.2301Z" fill="#C5DDBD"/>
<path d="M163.791 64.9766C162.518 64.1617 161.308 63.8812 160.196 64.1399C158.513 64.531 156.185 66.6811 156.537 70.0527C156.547 70.1602 156.565 70.2677 156.588 70.3737C156.823 71.4394 157.669 72.4038 159.109 73.2421C160.268 73.9167 161.232 74.0959 162.333 73.8388C163.739 73.5116 164.56 72.4272 165.118 71.5173C165.69 70.5871 166.305 69.3329 165.987 67.8901C165.723 66.692 165.025 65.7649 163.791 64.9766ZM164.625 71.1979C164.096 72.0595 163.395 72.9772 162.206 73.2545C161.246 73.4773 160.433 73.3231 159.398 72.7201C157.989 71.899 157.222 70.9782 157.119 69.9888C156.775 66.6889 159.177 64.9921 160.325 64.7242C161.282 64.5014 162.344 64.7584 163.481 65.4845C164.573 66.1825 165.189 66.9896 165.417 68.0226C165.688 69.2519 165.136 70.3643 164.625 71.1979Z" fill="#005461"/>
<path d="M160.989 67.6301C160.738 67.5662 160.656 67.4042 160.174 67.5163C159.691 67.6285 159.685 67.8108 159.485 67.9791C159.402 68.0492 159.427 68.166 159.532 68.1925C159.784 68.2564 159.964 68.3951 160.348 68.3063C160.854 68.1878 160.836 68.0118 161.036 67.8435C161.12 67.7734 161.094 67.6566 160.989 67.6301Z" fill="white"/>
<path d="M161.457 68.3575C161.463 68.2469 161.361 68.1877 161.272 68.2485C161.055 68.3965 160.883 68.3497 160.639 68.7907C160.395 69.2316 160.521 69.3594 160.507 69.6258C160.501 69.7364 160.603 69.7956 160.692 69.7348C160.909 69.5868 161.131 69.5432 161.325 69.1926C161.583 68.7283 161.443 68.624 161.457 68.3575Z" fill="white"/>
<path d="M159.668 68.5103C159.543 68.744 159.37 68.7845 159.351 69.2909C159.333 69.7972 159.502 69.8502 159.611 70.0933C159.655 70.193 159.772 70.1977 159.825 70.1011C159.951 69.8673 160.126 69.724 160.142 69.3205C160.161 68.7876 159.992 68.7611 159.882 68.5181C159.837 68.4184 159.72 68.4137 159.668 68.5103Z" fill="white"/>
<path d="M160.956 70.0496C160.478 69.9234 160.392 70.0808 160.137 70.1385C160.032 70.1618 160.004 70.2787 160.084 70.3504C160.28 70.5264 160.378 70.7336 160.759 70.8349C161.261 70.9689 161.323 70.8038 161.578 70.7461C161.683 70.7227 161.711 70.6059 161.631 70.5342C161.435 70.3581 161.434 70.1759 160.956 70.0496Z" fill="white"/>
<path d="M162.491 68.7502C162.497 68.6396 162.395 68.5804 162.306 68.6412C162.089 68.7892 161.918 68.7424 161.673 69.1834C161.429 69.6243 161.555 69.752 161.543 70.0185C161.537 70.1291 161.639 70.1883 161.728 70.1275C161.945 69.9795 162.166 69.9359 162.361 69.5853C162.617 69.121 162.477 69.0166 162.491 68.7502Z" fill="white"/>
<path d="M163.025 67.9042C162.973 67.831 162.879 67.8466 162.853 67.9323C162.79 68.1395 162.658 68.2003 162.722 68.6069C162.785 69.0151 162.929 69.0291 163.052 69.2068C163.104 69.28 163.198 69.2644 163.224 69.1787C163.287 68.9715 163.407 68.8282 163.355 68.5041C163.289 68.0741 163.149 68.0803 163.025 67.9042Z" fill="white"/>
<path d="M162.916 69.7193C162.922 69.6305 162.84 69.5806 162.766 69.6289C162.587 69.7458 162.449 69.7053 162.242 70.0605C162.038 70.4157 162.138 70.5217 162.124 70.7383C162.118 70.8271 162.2 70.8769 162.274 70.8286C162.453 70.7118 162.634 70.6791 162.797 70.3971C163.013 70.0231 162.901 69.9359 162.916 69.7193Z" fill="white"/>
<path d="M162.136 67.387C161.754 67.0255 161.623 67.1408 161.373 67.0676C161.27 67.038 161.191 67.1252 161.229 67.228C161.32 67.4773 161.238 67.6394 161.601 67.9821C161.963 68.3264 162.113 68.2283 162.364 68.3015C162.467 68.3311 162.546 68.2439 162.508 68.141C162.417 67.8918 162.426 67.6612 162.136 67.387Z" fill="white"/>
<path d="M158.237 57.5228C156.523 57.5228 155.134 58.95 155.134 60.709C155.134 62.4681 156.523 63.8953 158.237 63.8953C159.951 63.8953 161.34 62.4681 161.34 60.709C161.34 58.95 159.951 57.5228 158.237 57.5228Z" fill="#E0313A"/>
<path d="M150.928 86.3252H162.459C168.584 84.0006 173.208 78.0768 174.288 70.8225H139.099C140.181 78.0768 144.803 84.0006 150.928 86.3252Z" fill="#C5DDBD"/>
<path d="M216.346 96.1097C229.6 96.1097 240.346 85.0756 240.346 71.4644C240.346 57.8531 229.6 46.819 216.346 46.819C203.091 46.819 192.346 57.8531 192.346 71.4644C192.346 85.0756 203.091 96.1097 216.346 96.1097Z" fill="white"/>
<path d="M203.541 60.4438C204.3 62.4024 205.455 65.1783 206.927 68.1066C207.37 68.9897 211.047 77.662 211.627 79.1703C213.264 83.4164 214.757 87.5881 215.649 90.1319C216.069 91.3268 216.603 91.003 217.059 90.3345C217.128 90.2324 217.195 90.1215 217.261 90.0072C217.571 89.4618 217.824 88.8314 217.94 88.5717C218.271 87.834 218.611 87.053 218.957 86.2426C219.468 85.0442 224.364 72.6436 225.131 70.6227C225.574 69.4573 226 68.3282 226.408 67.2563C227.459 64.4891 228.373 62.1011 229.049 60.4508C225.166 58.416 220.843 57.28 216.288 57.28C211.738 57.2783 207.421 58.4125 203.541 60.4438Z" fill="#FFBA17"/>
<path d="M229.384 57.3043C225.397 55.4254 220.96 54.376 216.285 54.376C211.659 54.376 207.267 55.4029 203.31 57.2454C202.854 57.4584 202.634 57.9987 202.808 58.4819C202.98 58.9633 203.228 59.6334 203.541 60.4439C207.422 58.4143 211.738 57.2783 216.29 57.2783C220.845 57.2783 225.166 58.4161 229.05 60.4491C229.371 59.6681 229.637 59.0533 229.838 58.6412C230.082 58.1459 229.876 57.5364 229.384 57.3043Z" fill="#D67B51"/>
<path opacity="0.5" d="M210.126 59.8655C205.413 61.4205 204.907 63.6683 208.107 65.916C208.107 65.916 211.811 67.471 214.336 64.1878C215.233 63.0189 214.842 58.3087 210.126 59.8655Z" fill="#FFFCEE"/>
<path d="M214.673 67.9941C212.655 67.2668 211.608 67.5629 210.995 68.9465C209.997 71.196 211.844 72.6765 211.922 72.725C213.195 73.506 214.842 73.0783 215.6 71.7726C216.361 70.4652 216.071 68.498 214.673 67.9941Z" fill="#E0313A"/>
</g>
<path d="M165.97 8.14807H134.851C133.779 8.14807 132.909 9.01072 132.909 10.0763V10.2011C132.909 11.2667 133.779 12.1293 134.851 12.1293H165.97C167.041 12.1293 167.911 11.2667 167.911 10.2011V10.0763C167.911 9.01072 167.041 8.14807 165.97 8.14807Z" fill="#E5E5E5"/>
<path d="M175.721 7.95203C174.58 7.95203 173.656 8.93097 173.656 10.1382C173.656 11.3455 174.58 12.3245 175.721 12.3245C176.86 12.3245 177.786 11.3455 177.786 10.1382C177.786 8.93097 176.86 7.95203 175.721 7.95203Z" fill="#E5E5E5"/>
<path d="M211.095 129.811H99.4479V228.637H211.095V129.811Z" fill="#E9E2DF"/>
<mask id="mask1" mask-type="alpha" maskUnits="userSpaceOnUse" x="99" y="129" width="113" height="100">
<path d="M211.095 129.811H99.4479V228.637H211.095V129.811Z" fill="#C2896D"/>
</mask>
<g mask="url(#mask1)">
<g opacity="0.7">
<path opacity="0.7" d="M212.347 118.333L207.86 116.362L193.494 150.91L179.813 120.703L175.921 122.566L191.226 156.363L176.797 191.066L134.184 190.822L108.058 124.274L102.991 126.376L128.278 190.789L94.2391 190.596L94.2062 196.815L148.912 197.125L199.622 236.437L202.442 232.595L156.749 197.17L227.038 197.571L227.071 191.351L182.09 191.095L212.347 118.333Z" fill="white"/>
<path opacity="0.7" d="M77.638 195.44L75.7028 199.603L146.095 234.202L148.03 230.04L77.638 195.44Z" fill="white"/>
</g>
</g>
<g filter="url(#filter0_d)">
<path d="M137 171.07C137 168.412 137.481 165.907 138.427 163.62C139.37 161.337 140.686 159.333 142.336 157.659C143.981 155.989 145.931 154.664 148.124 153.714C150.337 152.76 152.723 152.274 155.22 152.274C157.721 152.274 160.099 152.727 162.3 153.624C164.509 154.525 166.467 155.82 168.117 157.482C169.758 159.136 171.07 161.139 172.017 163.439C172.963 165.734 173.44 168.305 173.44 171.074C173.44 184.727 155.22 193.987 155.22 193.987C155.216 193.983 137 184.723 137 171.07ZM155.216 165.158C154.393 165.158 153.644 165.29 152.929 165.562C152.237 165.825 151.653 166.187 151.147 166.676C150.617 167.186 150.205 167.791 149.893 168.527C149.58 169.26 149.42 170.115 149.42 171.066C149.42 171.95 149.572 172.736 149.893 173.468C150.209 174.204 150.625 174.813 151.164 175.34C151.69 175.854 152.295 176.249 153.019 176.549C153.71 176.837 154.43 176.977 155.224 176.977C156.043 176.977 156.783 176.841 157.491 176.57C158.203 176.294 158.807 175.92 159.334 175.422C159.864 174.924 160.28 174.319 160.601 173.579C160.922 172.839 161.086 171.995 161.086 171.066C161.086 170.124 160.926 169.272 160.605 168.544C160.28 167.808 159.86 167.199 159.321 166.685C158.803 166.191 158.211 165.821 157.511 165.557C156.787 165.29 156.039 165.158 155.216 165.158Z" fill="white"/>
</g>
<path d="M148.608 178C147.242 176.531 146.552 174.612 146.552 172.243C146.552 169.5 147.332 167.311 148.878 165.662C150.438 164.013 152.614 163.188 155.42 163.188C158.106 163.188 160.131 163.848 161.497 165.152C162.862 166.457 163.552 168.39 163.552 170.954C163.552 173.757 162.757 175.991 161.182 177.67C159.591 179.349 157.43 180.188 154.685 180.188C151.999 180.188 149.973 179.454 148.608 178Z" fill="#6CBF84"/>
<path d="M184.471 115.79L183.263 158.615H217.818L216.609 115.79H184.471Z" fill="#E9C68F"/>
<path d="M203.475 108.448H197.606C195.611 108.448 193.987 110.385 193.987 112.764V118.815C193.987 121.194 195.611 123.131 197.606 123.131H203.475C205.47 123.131 207.094 121.194 207.094 118.815V112.764C207.094 110.385 205.47 108.448 203.475 108.448ZM204.603 118.385C204.603 119.403 203.909 120.229 203.057 120.229H198.021C197.169 120.229 196.475 119.403 196.475 118.385V113.194C196.475 112.176 197.169 111.35 198.021 111.35H203.057C203.909 111.35 204.603 112.176 204.603 113.194V118.385Z" fill="#E9C68F"/>
<path d="M116.164 92.2757L116.092 92.3074C116.092 92.3074 116.041 92.3307 115.94 92.3751C115.837 92.4216 115.683 92.4914 115.483 92.5802C115.08 92.7599 114.492 93.0284 113.744 93.3752C112.997 93.7198 112.088 94.1384 111.048 94.6184C110.525 94.8531 109.978 95.1153 109.396 95.3838C108.815 95.6481 108.204 95.9272 107.566 96.2168C106.295 96.794 104.92 97.4157 103.476 98.0394C102.033 98.6758 100.517 99.2826 98.9912 99.8641C98.6169 99.993 98.2406 100.122 97.8602 100.251L97.5785 100.35L97.3543 100.412C97.2063 100.454 97.0582 100.498 96.9101 100.541L96.6881 100.608C96.649 100.621 96.6202 100.632 96.5708 100.644L96.4022 100.682C96.1781 100.731 95.9519 100.782 95.7277 100.832L95.3884 100.909L95.3041 100.928C95.2979 100.93 95.2959 100.93 95.3021 100.928H95.3041C95.3514 100.917 95.6681 100.841 95.5015 100.879H95.4933H95.4748L95.4028 100.883C95.3144 100.896 95.1951 100.894 95.0861 100.9C94.6152 100.906 94.0004 100.851 93.33 100.729C92.6555 100.602 91.9234 100.42 91.1728 100.188C89.6717 99.716 88.0903 99.0944 86.5419 98.3819C84.9914 97.6694 83.4614 96.8786 81.9808 96.0836C80.5002 95.2865 79.0813 94.4535 77.7344 93.6543C76.3875 92.8572 75.1228 92.0685 73.961 91.3285C72.795 90.5969 71.7318 89.9055 70.7982 89.2861C69.8605 88.6708 69.0462 88.1274 68.382 87.6749C67.7219 87.2267 67.2037 86.8736 66.85 86.6326C66.5169 86.4042 66.338 86.2816 66.338 86.2816L66.2413 86.2161C63.9011 84.6155 60.7261 85.1737 59.0419 87.5248C57.3084 89.9478 57.8143 93.3561 60.1709 95.1364C60.1709 95.1364 60.3786 95.295 60.7713 95.591C61.1518 95.8722 61.7029 96.2781 62.4103 96.7814C63.1197 97.2803 63.9813 97.8787 64.9807 98.5489C65.9843 99.2128 67.1214 99.9507 68.3779 100.737C69.6405 101.513 71.0203 102.338 72.5071 103.179C73.9918 104.023 75.5937 104.862 77.282 105.702C78.9682 106.545 80.7655 107.347 82.6574 108.093C84.5534 108.833 86.5419 109.533 88.7052 110.034C89.7868 110.286 90.9117 110.497 92.1064 110.62C93.3053 110.734 94.5782 110.772 95.9622 110.609C96.3158 110.558 96.6593 110.516 97.0253 110.434L97.2947 110.377L97.3625 110.362L97.636 110.296L97.7183 110.271L98.0494 110.167C98.2694 110.097 98.4894 110.028 98.7095 109.958L98.874 109.905L99.0837 109.829L99.5115 109.668C99.7952 109.56 100.077 109.45 100.357 109.343L100.776 109.178L101.122 109.019C101.578 108.806 102.033 108.594 102.483 108.385C103.336 107.947 104.192 107.518 104.973 107.068C105.368 106.843 105.763 106.63 106.143 106.406C106.52 106.182 106.89 105.958 107.256 105.74C107.994 105.308 108.677 104.854 109.353 104.431C110.024 104.002 110.657 103.573 111.27 103.167C112.479 102.331 113.579 101.564 114.539 100.86C115.496 100.149 116.326 99.5342 116.997 99.0014C117.332 98.7371 117.632 98.5003 117.893 98.2952C118.153 98.0838 118.373 97.9041 118.549 97.7603C118.909 97.4601 119.101 97.3015 119.101 97.3015C120.075 96.4875 120.456 95.0793 119.935 93.8319C119.323 92.3286 117.628 91.6308 116.164 92.2757Z" fill="#C2896D"/>
<path opacity="0.06" d="M84.1194 103.323C81.9088 102.456 80.6277 100.467 81.1747 97.9928C81.1808 97.9675 81.187 97.9421 81.1952 97.9146C80.8888 97.1598 80.7942 96.3204 80.9176 95.4916C79.8216 94.8784 78.7605 94.2547 77.7426 93.65C76.3957 92.8529 75.131 92.0642 73.9691 91.3242C72.8032 90.5927 71.74 89.9013 70.8064 89.2818C69.8687 88.6665 69.0544 88.1231 68.3902 87.6707C67.7301 87.2224 67.2119 86.8693 66.8582 86.6283C66.525 86.3999 66.3461 86.2773 66.3461 86.2773L66.2495 86.2118C63.9093 84.6112 60.7343 85.1694 59.0501 87.5206C57.3166 89.9436 57.8224 93.3519 60.1791 95.1321C60.1791 95.1321 60.3867 95.2907 60.7795 95.5867C61.1599 95.8679 61.7111 96.2739 62.4184 96.7771C63.1279 97.2761 63.9895 97.8744 64.9889 98.5447C65.9924 99.2086 67.1296 99.9465 68.3861 100.733C69.6487 101.509 71.0285 102.334 72.5153 103.175C74 104.019 75.6019 104.858 77.2902 105.697C78.9764 106.541 80.7737 107.342 82.6656 108.089C84.5615 108.829 86.5501 109.529 88.7134 110.03C89.795 110.281 90.9199 110.493 92.1146 110.615C93.3135 110.73 94.5864 110.768 95.9703 110.605C96.324 110.554 96.6674 110.512 97.0335 110.429L97.3029 110.372L97.3707 110.357L97.6442 110.292L97.7265 110.267L98.0575 110.163C98.2776 110.093 98.4976 110.023 98.7176 109.954L98.8822 109.901L99.0919 109.825L99.5196 109.664C99.8034 109.556 100.085 109.446 100.365 109.338L100.784 109.173L101.13 109.015C101.586 108.801 102.041 108.59 102.491 108.381C103.344 107.943 104.2 107.514 104.981 107.063C105.376 106.839 105.771 106.626 106.151 106.402C106.528 106.177 106.898 105.953 107.264 105.736C108.002 105.304 108.685 104.85 109.361 104.427C110.032 103.998 110.665 103.568 111.278 103.162C112.487 102.327 113.587 101.56 114.548 100.856C115.006 100.515 115.436 100.196 115.833 99.8978C112.849 100.921 109.748 101.672 106.766 102.517C99.4435 104.602 91.4895 106.213 84.1194 103.323Z" fill="black"/>
<path d="M74.3783 243.07C72.9615 242.691 65.8608 240.763 63.7386 239.084L58.281 239.184C57.8018 240.888 57.3988 243.334 57.954 245.882L76.4902 246.11C76.4902 246.108 76.5211 243.643 74.3783 243.07Z" fill="white"/>
<path d="M51.9556 242.793C50.8266 242.435 45.9818 241.163 44.7253 239.568L39.0518 239.184C38.8235 239.184 38.6138 239.156 38.4102 239.118C38.0236 240.814 36.4587 245.309 38.1655 245.637L53.7282 245.829C53.7241 245.829 53.7529 243.362 51.9556 242.793Z" fill="white"/>
<path d="M44.421 55.7908C44.421 55.7908 43.9336 69.4578 44.822 72.1092C45.7083 74.7606 47.8819 77.6318 52.1715 78.3676C56.4611 79.1013 57.3433 78.1181 59.702 75.49C62.9428 71.8788 60.1975 56.4082 60.1975 56.4082L44.421 55.7908Z" fill="#C2896D"/>
<path d="M49.0212 71.014L48.0156 83.0636L56.8498 82.2876L56.5702 71.7942L49.0212 71.014Z" fill="#C2896D"/>
<path d="M59.5745 51.431C57.6929 52.1499 51.6904 51.8264 47.1005 52.9153C42.5107 54.0042 41.8917 59.1061 42.7061 64.8719C43.5204 70.6355 43.8371 72.2868 46.4384 75.2321C49.0397 78.1773 49.6957 77.3168 52.6178 76.9849C55.5399 76.6508 57.3495 69.6714 57.3495 69.6714C56.0293 69.6545 55.5379 67.278 56.0869 65.2884C56.636 63.2988 58.3469 66.3011 58.3469 66.3011L59.4532 66.2821C59.4532 66.2821 59.373 65.4343 59.2435 63.5377C59.116 61.6412 60.8495 60.4804 60.8495 60.4804C65.1905 59.5543 61.4561 50.7122 59.5745 51.431Z" fill="#3B1820"/>
<path d="M51.8076 151.232C51.7562 154.34 53.8249 174.278 55.2973 194.288C56.9506 216.736 58.0343 239.325 58.0343 239.325L64.08 239.626C67.6602 211.93 69.1346 146.28 69.1346 146.28C69.1346 146.28 51.9166 144.635 51.8076 151.232Z" fill="#433C36"/>
<path d="M40.9972 148.758C39.533 148.411 38.0031 147.942 36.6356 147.253C36.5389 147.248 36.4423 147.246 36.3436 147.24C36.1215 150.824 35.6238 149.718 36.0022 156.575C36.0125 156.759 37.4293 174.176 37.9249 192.085C38.5583 214.981 38.3033 239.571 38.3033 239.571L44.7542 239.628C49.1157 213.175 52.7967 170.832 54.5322 150.739C53.9462 150.676 53.3601 150.612 52.774 150.551C48.8361 150.134 44.8632 149.673 40.9972 148.758Z" fill="#433C36"/>
<path opacity="0.1" d="M51.9083 150.454C48.2521 150.062 44.5794 149.606 40.9972 148.756C39.533 148.409 38.0031 147.94 36.6356 147.25C36.5389 147.246 36.4423 147.244 36.3436 147.238C36.1215 150.822 35.6238 149.716 36.0022 156.572C36.0125 156.756 37.4293 174.174 37.9249 192.083C38.5583 214.979 38.3033 239.568 38.3033 239.568L41.7909 239.6C42.5312 236.374 43.1461 233.118 43.6848 229.849C44.129 227.151 44.5218 224.445 44.8858 221.736C44.9331 221.387 44.9783 221.038 45.0256 220.69C45.0441 220.55 45.0709 220.341 45.0832 220.243C45.1716 219.552 45.26 218.861 45.3464 218.169C45.5027 216.918 45.6569 215.668 45.8091 214.416C46.498 208.784 47.2383 203.166 48.0505 197.552C48.2726 196.015 48.4824 194.476 48.6901 192.935C48.6942 192.905 48.6983 192.88 48.7004 192.857C48.7065 192.806 48.7148 192.747 48.723 192.679C48.7744 192.277 48.8258 191.875 48.8772 191.472C48.9615 190.801 49.0438 190.131 49.126 189.459C49.4777 186.569 49.8005 183.674 50.1069 180.777C50.7321 174.849 51.2811 168.914 51.8219 162.977C51.896 162.159 52.1242 161.412 52.4841 160.778C53.2059 169.138 54.3677 181.697 55.2952 194.288C56.9485 216.736 58.0322 239.325 58.0322 239.325L63.0271 239.573C63.1649 238.657 63.7489 234.566 63.7633 234.471C63.8744 233.6 66.8253 177.498 66.5045 170.688C66.1693 163.611 66.2351 156.592 67.1913 149.566C67.3517 148.384 68.1311 147.519 69.1181 147.001C69.1284 146.527 69.1346 146.278 69.1346 146.278C69.1346 146.278 53.3169 144.77 51.9083 150.454Z" fill="black"/>
<path d="M31.8833 121.58C32.4467 118.593 33.0349 115.709 33.6682 113.176C32.0252 113.544 30.2361 113.548 28.3422 113.104C26.9788 112.785 25.6895 112.106 24.5461 111.182C23.7359 114.692 23.0511 118.257 22.5597 121.637C22.0414 127.735 22.7283 129.892 24.577 130.052C25.6895 130.429 30.5384 131.809 37.9681 130.279C39.9669 129.866 38.6673 122.608 38.6673 122.608C38.6673 122.608 34.8116 121.936 31.8833 121.58Z" fill="#C2896D"/>
<path opacity="0.06" d="M38.3691 124.925C38.2601 124.913 38.1573 124.898 38.1285 124.896C37.635 124.834 37.1435 124.777 36.65 124.724C35.5745 124.608 34.4887 124.581 33.4215 124.405C27.6636 123.454 31.0011 115.783 33.0719 115.728C33.2672 114.848 33.4667 113.992 33.6703 113.176C32.0272 113.544 30.2382 113.548 28.3443 113.104C26.9809 112.785 25.6915 112.106 24.5482 111.182C23.738 114.692 23.0532 118.257 22.5617 121.637C22.0435 127.735 22.7304 129.892 24.579 130.052C25.6915 130.429 30.5405 131.809 37.9702 130.279C39.204 130.025 39.1814 127.164 38.984 125.012C38.8791 124.997 38.511 124.946 38.3691 124.925Z" fill="black"/>
<path d="M47.3493 80.4736L45.5787 83.5922C45.5787 83.5922 54.9517 82.683 59.0789 83.0107L56.9649 80.279C56.9629 80.279 51.6553 78.1267 47.3493 80.4736Z" fill="#F26968"/>
<path opacity="0.1" d="M55.2396 79.7631C53.321 79.317 50.1274 78.9575 47.3472 80.4735L45.5767 83.5921C45.5767 83.5921 52.7637 82.8944 57.3227 82.9409C56.6605 82.1882 56.0498 81.3848 55.5521 80.4777C55.4246 80.2431 55.3239 80.0041 55.2396 79.7631Z" fill="black"/>
<path d="M68.1166 93.0432C69.1284 87.639 70.5493 87.3811 65.6305 85.1209C54.596 80.0507 42.015 83.1122 36.8802 84.9623C35.0151 85.6346 31.8133 88.1887 32.0622 90.191C33.7073 103.372 40.0738 122.798 35.0809 150.185C34.7786 151.841 37.2998 153.788 38.7536 154.585C44.0364 157.484 55.8709 158.733 67.3064 154.651C68.9762 154.054 70.0517 152.384 70.0147 150.58C69.223 112.96 66.8705 99.7034 68.1166 93.0432Z" fill="#F26968"/>
<path d="M23.2815 114.277L33.3742 117.324L38.2005 101.917L33.1295 87.4783C33.1295 87.4783 27.7089 97.0816 23.2815 114.277Z" fill="#F26968"/>
<path d="M122.261 86.4613L114.848 93.9503L117.17 96.9674C119.17 98.0542 122.777 95.0159 122.777 95.0159L123.616 95.6756C123.616 95.6756 126.534 94.574 126.705 92.9312C126.874 91.2883 125.701 87.4043 125.701 87.4043L129.064 86.4888C130.491 85.4549 129.921 84.2899 129.921 84.2899L122.261 86.4613Z" fill="#C2896D"/>
<path d="M63.4631 84.8967C60.6787 85.5394 64.4501 99.5321 64.4501 99.5321L79.1964 106.721L84.7651 96.5931C84.7651 96.5953 66.2474 84.256 63.4631 84.8967Z" fill="#F26968"/>
<path opacity="0.1" d="M65.6305 85.1209C54.5959 80.0507 42.015 83.1122 36.8802 84.9623C35.7821 85.3577 34.2234 86.4042 33.1767 87.6073L33.1314 87.4783C33.1314 87.4783 33.0266 87.6644 32.8333 88.0323C32.4857 88.4996 32.2287 88.9816 32.1156 89.451C30.3368 93.0813 26.5408 101.623 23.2834 114.277L31.7763 116.76L35.4922 110.567C37.0715 121.367 37.9495 134.463 35.083 150.185C34.7807 151.841 37.3018 153.788 38.7556 154.585C43.9686 157.446 55.5583 158.695 66.852 154.807C66.852 154.807 66.6587 147.754 66.852 145.413C68.0323 131.118 66.7368 100.596 66.7368 100.272L79.2005 106.721L84.7692 96.5932C84.7692 96.5932 74.7649 89.9267 68.3572 86.6495C67.8164 86.1928 66.9548 85.7298 65.6305 85.1209Z" fill="black"/>
<path d="M286.997 229.151L285.465 217.302C284.943 213.355 284.483 209.395 283.993 205.441L282.541 193.575L282.611 194.062L282.149 183.295C282 179.705 281.822 176.119 281.706 172.525L281.326 161.748C281.231 158.152 281.106 154.56 281.036 150.961C280.941 145.952 277.045 141.975 272.335 142.077C267.626 142.178 263.886 146.32 263.98 151.329C263.991 151.868 264.056 152.445 264.151 152.957C264.828 156.484 265.447 160.019 266.096 163.55L267.949 174.153C268.578 177.686 269.144 181.226 269.742 184.763L271.513 195.375L271.583 195.861L274.451 207.433C275.399 211.291 276.38 215.144 277.298 219.009L280.084 230.597C280.98 234.466 283.356 242.953 284.958 242.545C286.475 242.161 288.314 242.731 288.085 241.12C287.514 237.177 287.54 233.094 286.997 229.151Z" fill="#FDC9AF"/>
<path d="M258.913 140.28C254.25 139.59 249.941 143.051 249.292 148.012C249.224 148.53 249.201 149.096 249.216 149.602C249.216 149.602 249.265 151.003 249.351 153.454C249.415 155.904 249.543 159.408 249.631 163.607C249.674 165.706 249.719 167.981 249.769 170.388C249.806 172.794 249.847 175.329 249.886 177.953C249.915 180.577 249.946 183.287 249.976 186.042C249.987 187.418 249.997 188.808 250.009 190.201C250.015 190.899 250.02 191.596 250.026 192.294L250.034 193.343V194.083L250.059 194.607C250.192 197.402 250.324 200.197 250.456 202.95C250.575 205.701 250.692 208.41 250.807 211.029C250.926 213.649 251.005 216.182 251.093 218.584C251.179 220.986 251.26 223.256 251.334 225.352C251.488 229.544 252.487 239.689 252.487 239.689C252.524 241.638 257.614 241.366 257.7 239.53C257.7 239.53 258.807 229.652 259.072 225.466C259.201 223.373 259.341 221.106 259.491 218.706C259.643 216.309 259.787 213.778 259.977 211.162C260.16 208.547 260.349 205.843 260.54 203.096C260.744 200.35 260.949 197.559 261.155 194.77C261.433 192.059 261.71 189.351 261.984 186.683C262.276 183.945 262.562 181.251 262.839 178.644C263.127 176.037 263.407 173.519 263.672 171.13C263.948 168.74 264.209 166.482 264.449 164.398C264.933 160.228 265.391 156.756 265.685 154.327C266.004 151.898 266.185 150.509 266.185 150.509C266.835 145.548 263.579 140.969 258.913 140.28Z" fill="#FDC9AF"/>
<path d="M254.523 240.408C253.826 240.389 252.113 239.896 252.113 239.896C251.679 242.097 246.754 244.704 243.758 244.833C240.762 244.964 240.893 246.615 240.893 246.615C244.644 249.318 248.49 246.888 254.712 247.802C256.728 248.098 258.856 247.038 258.856 247.038C258.944 241.412 257.996 240.048 257.996 240.048C257.996 240.048 255.296 240.427 254.523 240.408Z" fill="white"/>
<path opacity="0.04" d="M257.54 240.11C257.46 241.133 257.057 242.129 256.339 242.837C255.436 243.727 254.739 244.793 253.871 245.713C253.176 246.448 252.36 247.093 251.467 247.584C252.477 247.578 253.553 247.63 254.712 247.802C256.728 248.098 258.856 247.038 258.856 247.038C258.944 241.412 257.996 240.048 257.996 240.048C257.996 240.048 257.82 240.074 257.54 240.11Z" fill="black"/>
<path d="M281.233 149.714L249.063 150.056C246.68 157.34 250.85 233.674 250.85 233.674H259.785L262.467 194.083L264.351 167.888C264.351 167.888 267.828 187.748 268.72 193.133C269.613 198.519 280.039 236.843 280.039 236.843L288.377 235.577L283.613 195.351L281.233 149.714Z" fill="white"/>
<path opacity="0.04" d="M281.233 149.714L279.969 149.726C279.996 150.16 279.975 150.597 279.907 151.024C279.767 151.891 279.642 152.76 279.516 153.627C279.502 153.737 279.49 153.822 279.481 153.883C279.461 154.039 279.442 154.194 279.424 154.35C279.379 154.727 279.333 155.103 279.292 155.479C279.093 157.249 278.932 159.023 278.805 160.801C278.556 164.275 278.435 167.757 278.414 171.24C278.338 183.742 279.512 196.218 280.989 208.615C281.347 211.611 281.723 214.604 282.105 217.598C282.214 218.453 282.321 219.309 282.434 220.163C282.436 220.182 282.438 220.199 282.441 220.216C282.451 220.284 282.465 220.381 282.488 220.52C282.584 221.163 282.661 221.81 282.743 222.457C282.926 223.903 283.084 225.352 283.226 226.802C283.532 229.942 283.775 233.086 284.11 236.221L288.381 235.572L283.617 195.347L281.233 149.714Z" fill="black"/>
<path opacity="0.04" d="M257.741 204.079C256.697 210.646 255.802 217.224 255.138 223.842C254.805 227.166 254.404 230.466 253.649 233.674H259.787L262.467 194.083L264.264 169.108C262.463 173.709 262.309 178.745 261.414 183.663C260.174 190.467 258.829 197.244 257.741 204.079Z" fill="black"/>
<path d="M255.3 87.8484C255.286 87.8589 255.272 87.8716 255.257 87.8822L255.198 87.9308C255.198 87.9308 254.542 88.4531 253.392 89.3686C252.241 90.2946 250.591 91.614 248.597 93.1722C247.601 93.9503 246.522 94.7918 245.38 95.6841C244.237 96.5594 243.03 97.4812 241.782 98.4348C240.534 99.3757 239.234 100.321 237.928 101.249C236.637 102.162 235.259 103.086 234.12 103.714L233.748 103.909L233.62 103.97L233.556 104.004L233.548 104.008C233.377 104.063 233.774 103.938 233.725 103.953L233.688 103.966L233.612 103.991L233.312 104.095C233.293 104.097 233.277 104.103 233.26 104.11C233.279 104.12 233.065 104.167 232.927 104.201C232.296 104.342 231.523 104.459 230.758 104.56C229.199 104.75 227.591 104.905 226.028 105.04C224.451 105.163 222.927 105.281 221.481 105.393C220.023 105.497 218.645 105.596 217.375 105.687C214.821 105.879 212.692 106.038 211.201 106.15C209.713 106.277 208.863 106.349 208.863 106.349L208.849 106.351C207.442 106.471 206.435 107.746 206.597 109.201C206.737 110.451 207.699 111.425 208.859 111.601C208.859 111.601 209.077 111.632 209.486 111.694C209.894 111.757 210.488 111.842 211.245 111.941C212.758 112.144 214.919 112.404 217.521 112.654C218.822 112.772 220.233 112.907 221.73 113.007C223.227 113.112 224.81 113.218 226.46 113.275C228.113 113.341 229.826 113.387 231.631 113.349C232.547 113.324 233.466 113.294 234.519 113.182C234.8 113.146 235.01 113.136 235.442 113.049L236.016 112.933L236.33 112.861C237.233 112.599 237.644 112.398 238.185 112.167C240.1 111.281 241.613 110.379 243.137 109.463C244.644 108.554 246.065 107.622 247.433 106.719C248.798 105.814 250.1 104.928 251.319 104.072C252.539 103.215 253.69 102.41 254.737 101.644C256.834 100.118 258.564 98.8302 259.773 97.921C260.978 96.9928 261.667 96.4621 261.667 96.4621C263.919 94.7305 264.318 91.3962 262.559 89.0155C260.801 86.639 257.552 86.1146 255.3 87.8484Z" fill="#FDC9AF"/>
<path opacity="0.06" d="M259.378 86.9413C259.662 88.3579 259.232 89.9288 258.26 91.0071C255.642 93.908 253.059 96.8638 250.147 99.4602C244.391 104.592 237.28 108.256 229.795 109.797C225.939 110.592 222.028 110.837 218.105 110.918C214.732 111.332 211.329 111.446 207.971 111.288C208.244 111.444 208.545 111.552 208.861 111.599C208.861 111.599 209.079 111.63 209.488 111.692C209.896 111.755 210.49 111.84 211.247 111.939C212.76 112.142 214.921 112.402 217.523 112.652C218.824 112.77 220.235 112.905 221.732 113.005C223.229 113.11 224.813 113.216 226.462 113.273C228.115 113.339 229.828 113.385 231.634 113.347C232.549 113.322 233.468 113.292 234.521 113.18C234.802 113.144 235.012 113.134 235.444 113.047L236.018 112.931L236.332 112.859C237.235 112.597 237.646 112.396 238.187 112.165C240.102 111.279 241.615 110.377 243.139 109.461C244.646 108.552 246.067 107.619 247.435 106.717C248.8 105.812 250.102 104.926 251.321 104.069C252.541 103.213 253.692 102.408 254.739 101.642C256.837 100.116 258.566 98.828 259.775 97.9189C260.98 96.9907 261.669 96.46 261.669 96.46C263.921 94.7284 264.32 91.3941 262.562 89.0133C261.739 87.9096 260.596 87.2035 259.378 86.9413Z" fill="black"/>
<path d="M257.848 86.8609C256.08 88.3536 258.048 96.3669 271.044 89.0978C271.248 88.9837 271.459 88.897 271.667 88.7976C270.452 88.1802 269.058 87.5734 267.45 86.9772C265.132 86.1187 261.957 84.7487 257.848 86.8609Z" fill="#FDC9AF"/>
<path d="M276.806 118.115L279.231 104.22C280.014 97.8575 283.296 91.6245 269.179 86.5797C268.278 86.2583 267.234 86.0997 266.148 86.0151C264.618 87.8567 262.082 84.6958 256.565 87.1463C254.56 87.8757 254.013 89.8822 253.703 90.6053C251.393 95.9779 247.846 100.917 247.324 102.126C246.271 104.566 248.068 111.007 250.256 112.945L249.652 124.616C249.656 124.644 249.456 130.238 249.625 130.486L248.161 150.969C250.287 154.329 254.184 154.39 257.499 154.856C277.847 157.708 280.804 151.989 281.865 151.631C281.053 146.722 280.018 143.053 279.595 141.478C278.729 138.262 275.223 127.435 276.806 118.115Z" fill="#6CBF84"/>
<path opacity="0.05" d="M276.806 118.115L279.231 104.22C279.615 101.103 280.598 98.0161 279.839 95.0835C279.122 96.3014 278.464 97.553 277.882 98.8449C277.766 99.1007 277.655 99.3587 277.544 99.6166C277.505 99.716 277.466 99.8132 277.429 99.9126C277.193 100.528 276.969 101.152 276.761 101.777C275.918 104.313 275.303 106.924 274.848 109.56C274.737 110.207 274.635 110.859 274.54 111.51C274.513 111.694 274.489 111.875 274.464 112.059C274.454 112.146 274.441 112.231 274.431 112.315C274.289 113.485 274.168 114.658 274.063 115.834C273.843 118.282 273.691 120.735 273.536 123.187C273.222 128.238 272.88 133.287 272.085 138.288C271.305 143.191 269.928 147.967 267.733 152.407C267.188 153.509 266.584 154.579 265.93 155.619C278.737 156.027 280.974 151.929 281.867 151.629C281.055 146.72 280.02 143.051 279.597 141.476C278.729 138.262 275.223 127.435 276.806 118.115Z" fill="black"/>
<path d="M259.639 86.3027C259.273 86.4232 257.998 86.8398 256.682 87.4339C256.092 88.5883 256.684 90.0219 257.883 90.3644C260.976 91.2439 266.002 91.189 271.988 87.6855C271.145 87.288 270.213 86.9159 269.179 86.5797C266.164 85.5944 262.64 85.3196 259.639 86.3027Z" fill="#FDC9AF"/>
<path d="M266.721 79.2535C266.635 78.7693 266.545 78.3612 266.479 78.0674C266.403 77.7502 266.36 77.5705 266.36 77.5705C265.975 75.9826 264.525 74.9064 262.983 75.1432C261.336 75.397 260.203 77.0398 260.452 78.8137L260.454 78.8285C260.454 78.8285 260.462 78.8877 260.46 78.9131C260.462 78.9596 260.466 79.0294 260.47 79.1161C260.48 79.319 260.495 79.6214 260.499 79.9956C260.513 80.7399 260.482 81.7505 260.384 82.7358C260.289 83.7232 260.118 84.6768 259.958 85.3639C259.882 85.7107 259.804 85.9898 259.748 86.1822C259.695 86.3767 259.664 86.4866 259.664 86.4866L259.648 86.5458C259.588 86.7636 259.547 86.992 259.522 87.2267C259.481 87.6157 259.497 87.9984 259.555 88.3663C261.99 88.3874 264.408 88.1887 266.835 87.9857C266.911 87.9794 266.985 87.973 267.061 87.9667C267.067 87.899 267.075 87.8208 267.085 87.7235C267.118 87.4233 267.162 86.9983 267.186 86.4887C267.248 85.4718 267.256 84.1334 267.166 82.8204C267.077 81.5095 266.902 80.2219 266.721 79.2535Z" fill="#FDC9AF"/>
<path d="M260.086 57.0848C252.979 58.5902 252.195 61.9858 251.909 67.5951C251.681 72.0839 249.44 74.5893 247.552 78.8307C250.766 84.1271 258.301 86.0025 264.69 85.7107C271.562 85.3957 275.768 83.4019 279.346 77.3211C278.593 74.4667 276.759 70.9971 275.893 68.8511C271.293 57.4506 265.866 55.8606 260.086 57.0848Z" fill="#6B2D39"/>
<path d="M266.541 79.3466C266.446 78.8222 266.349 78.3803 266.277 78.0632C266.195 77.7207 266.15 77.524 266.15 77.524C265.732 75.803 264.163 74.638 262.494 74.8959C260.709 75.1708 259.481 76.951 259.752 78.8709L259.755 78.8878C259.755 78.8878 259.765 78.9512 259.763 78.9787C259.765 79.0294 259.769 79.1034 259.773 79.1986C259.783 79.4185 259.802 79.7462 259.806 80.15C259.822 80.9556 259.787 82.0508 259.68 83.1186C259.578 84.1884 259.393 85.2202 259.218 85.9645C259.136 86.3408 259.051 86.641 258.99 86.8525C258.932 87.0618 258.897 87.1823 258.897 87.1823L258.879 87.2479C258.852 87.3493 258.829 87.4529 258.809 87.5587C259.152 87.6136 259.493 87.6665 259.839 87.713C261.071 87.768 262.296 87.7447 263.52 87.6052C263.814 87.5206 264.106 87.4297 264.396 87.3282C265.255 87.0301 266.158 86.8863 267.063 86.8821C267.114 85.8249 267.114 84.5077 267.024 83.2137C266.927 81.7886 266.736 80.3953 266.541 79.3466Z" fill="#FDC9AF"/>
<path opacity="0.07" d="M266.541 79.3466C266.446 78.8222 266.349 78.3803 266.277 78.0632C266.195 77.7207 266.15 77.524 266.15 77.524C265.732 75.803 264.163 74.638 262.494 74.8959C260.709 75.1708 259.481 76.951 259.752 78.8708L259.757 78.8941C259.757 78.8941 259.765 78.9512 259.763 78.9787C259.765 79.0294 259.769 79.1034 259.773 79.1986C259.783 79.4185 259.802 79.7462 259.806 80.15C259.822 80.9556 259.787 82.0508 259.68 83.1185C259.656 83.3744 259.625 83.6281 259.594 83.8755C262.15 85.7657 265.301 84.3702 267.036 83.4145C267.032 83.3469 267.03 83.2792 267.026 83.2137C266.927 81.7886 266.738 80.3953 266.541 79.3466Z" fill="black"/>
<path d="M256.304 81.0591C258.292 84.0023 263.45 83.8775 266.814 80.4946C270.178 77.1117 270.499 67.982 270.499 67.982L254.357 63.1022C254.357 63.1022 253.211 76.4816 256.304 81.0591Z" fill="#FDC9AF"/>
<path d="M257.663 76.7798C259.674 84.0594 263.826 77.5113 263.826 77.5113C261.84 77.9828 257.663 76.7798 257.663 76.7798Z" fill="white"/>
<path d="M253.267 61.4847C252.175 63.6455 252.81 67.5465 252.81 67.5465L257.129 64.5864C257.129 64.5864 261.258 67.3943 262.269 67.8615C264.408 68.851 270.701 68.7073 270.701 68.7073C270.701 68.7073 270.059 64.2079 268.101 60.8779C263.164 61.305 258.223 61.6221 253.267 61.4847Z" fill="#6B2D39"/>
<path d="M193.078 108.459C193.078 108.459 193.37 109.727 195.108 109.579L198.256 108.063C198.256 108.063 199.782 111.814 200.938 112.962C202.094 114.11 205.02 113.03 205.02 113.03L205.252 111.971C205.252 111.971 209.916 111.918 210.772 109.765L211.697 106.427L200.307 105.07L193.078 108.459Z" fill="#FDC9AF"/>
<path d="M282.747 241.006C282.591 241.888 280.296 243.013 278.085 244.004C276.923 244.524 273.89 245.239 275.288 247.002C276.687 248.766 277.931 248.237 281.194 248.237C284.458 248.237 288.032 247.884 288.963 247.355C289.895 246.827 288.186 240.476 288.186 240.476C284.684 242.381 282.903 240.125 282.747 241.006Z" fill="white"/>
<path opacity="0.04" d="M287.333 240.875C287.31 241.564 287.125 242.239 286.747 242.805C285.313 244.962 283.718 246.852 281.7 248.237C284.818 248.203 288.079 247.861 288.963 247.358C289.895 246.829 288.186 240.478 288.186 240.478C287.89 240.638 287.606 240.769 287.333 240.875Z" fill="black"/>
<path d="M279.185 93.5168C277.842 89.3643 272.338 88.3917 269.784 91.9353C267.565 95.0159 269.537 98.1366 270.83 101.073C273.935 108.123 277.758 115.967 279.294 123.437C279.989 126.581 280.592 129.866 281.104 133.048C281.824 137.524 283.625 149.119 284.478 153.57C284.9 155.771 287.016 155.536 288.196 154.583C289.206 153.769 289.222 152.473 289.321 151.274C289.905 144.119 290.306 136.406 289.317 129.274C287.618 117.028 282.876 105.211 279.185 93.5168Z" fill="#FDC9AF"/>
<g clip-path="url(#clip0)">
<path d="M290.47 162.212C290.477 162.181 290.484 162.147 290.482 162.114C290.413 153.943 288.459 152.597 288.459 152.597C284.297 151.937 283.43 154.609 282.729 158.144C282.607 158.759 282.166 161.765 282.161 162.794C282.159 163.025 282.945 163.287 283.292 162.478C283.675 161.587 283.456 160.099 284.169 159.544C284.598 159.211 284.634 159.881 284.628 160.72C284.611 160.731 284.602 160.768 284.604 160.845V160.857L284.623 161.636C284.625 161.748 284.627 161.856 284.63 161.961L284.782 168.196C284.787 168.411 284.951 168.593 285.168 168.611C285.402 168.632 285.606 168.458 285.628 168.221L285.63 168.215L286.098 162.792C286.143 162.802 286.189 162.811 286.235 162.819C286.307 163.481 286.365 164.271 286.394 165.068C286.479 167.099 286.374 169.149 286.374 169.149C286.364 169.381 286.527 169.588 286.757 169.621C287.003 169.659 287.231 169.486 287.267 169.238L287.269 169.232C287.269 169.232 287.566 167.173 287.673 165.077C287.714 164.349 287.73 163.618 287.725 162.97C287.775 162.972 287.824 162.972 287.874 162.974C287.89 163.203 287.906 163.434 287.921 163.667C288.084 166.139 288.035 168.619 288.035 168.619C288.031 168.85 288.204 169.05 288.434 169.073C288.676 169.097 288.893 168.916 288.916 168.672C288.916 168.672 289.162 166.163 289.193 163.64C289.198 163.317 289.201 163.08 289.203 162.888C289.246 162.88 289.289 162.874 289.33 162.866C289.456 163.94 289.517 164.991 289.524 165.804C289.529 166.266 289.52 166.652 289.504 166.922C289.492 167.193 289.486 167.348 289.486 167.348L289.485 167.367C289.478 167.559 289.615 167.731 289.809 167.757C290.014 167.784 290.203 167.639 290.231 167.434C290.231 167.434 290.253 167.275 290.29 166.997C290.333 166.719 290.377 166.319 290.416 165.839C290.497 164.88 290.53 163.597 290.475 162.316C290.473 162.277 290.472 162.245 290.47 162.212Z" fill="#FDC9AF"/>
</g>
<path opacity="0.04" d="M289.704 136.389C289.679 135.541 289.654 134.676 289.63 133.795C289.593 132.913 289.56 132.015 289.504 131.105C289.445 130.194 289.336 129.276 289.171 128.353C289.089 127.889 288.994 127.429 288.891 126.961C288.793 126.496 288.682 126.027 288.573 125.557C288.466 125.086 288.353 124.608 288.25 124.128C288.196 123.885 288.141 123.642 288.094 123.399C288.042 123.151 287.982 122.874 287.931 122.614L287.785 121.893L287.618 121.1L287.534 120.709L287.446 120.335C287.386 120.085 287.329 119.836 287.267 119.597C287.024 118.627 286.767 117.705 286.506 116.793C285.977 114.979 285.453 113.229 284.931 111.546C284.402 109.871 283.89 108.252 283.407 106.717C282.918 105.19 282.455 103.746 282.027 102.412C281.174 99.7477 280.462 97.5298 279.965 95.9758C279.471 94.4112 279.189 93.5168 279.189 93.5168C279.119 93.3032 279.029 93.0601 278.932 92.8529C277.968 90.7639 275.889 89.5905 273.773 89.7195C273.939 90.0155 274.104 90.3136 274.264 90.6138C276.987 93.5675 278.78 97.3099 280.246 101.059C281.632 104.609 282.617 108.307 283.553 112.002C284.643 116.309 285.817 120.58 286.522 124.978C287.347 130.126 287.802 135.323 288.194 140.523C288.359 142.686 289.109 149.779 289.331 151.198C289.354 150.902 289.379 150.57 289.405 150.2C289.469 149.38 289.514 148.386 289.578 147.242C289.628 146.1 289.677 144.813 289.704 143.409C289.737 142.005 289.745 140.482 289.739 138.871C289.724 138.064 289.714 137.235 289.704 136.389Z" fill="black"/>
<path opacity="0.4" d="M147.568 113.872C147.572 112.01 146.106 110.497 144.295 110.493C142.483 110.489 141.011 111.996 141.007 113.858C141.003 115.72 142.469 117.232 144.281 117.236C146.093 117.24 147.565 115.734 147.568 113.872Z" fill="white"/>
<path opacity="0.7" d="M155.551 110.492C153.739 110.492 152.27 112.003 152.27 113.863C152.27 115.726 153.739 117.235 155.551 117.235C157.363 117.235 158.832 115.724 158.832 113.863C158.832 112.003 157.363 110.492 155.551 110.492Z" fill="white"/>
<path d="M166.818 117.237C168.63 117.237 170.099 115.727 170.099 113.865C170.099 112.003 168.63 110.494 166.818 110.494C165.006 110.494 163.537 112.003 163.537 113.865C163.537 115.727 165.006 117.237 166.818 117.237Z" fill="white"/>
<defs>
<filter id="filter0_d" x="135" y="151.274" width="40.44" height="45.7124" filterUnits="userSpaceOnUse" color-interpolation-filters="sRGB">
<feFlood flood-opacity="0" result="BackgroundImageFix"/>
<feColorMatrix in="SourceAlpha" type="matrix" values="0 0 0 0 0 0 0 0 0 0 0 0 0 0 0 0 0 0 127 0"/>
<feOffset dy="1"/>
<feGaussianBlur stdDeviation="1"/>
<feColorMatrix type="matrix" values="0 0 0 0 0 0 0 0 0 0 0 0 0 0 0 0 0 0 0.25 0"/>
<feBlend mode="normal" in2="BackgroundImageFix" result="effect1_dropShadow"/>
<feBlend mode="normal" in="SourceGraphic" in2="effect1_dropShadow" result="shape"/>
</filter>
<clipPath id="clip0">
<rect x="282.161" y="152.497" width="8.34079" height="17.1301" fill="white"/>
</clipPath>
</defs>
</svg>
