<svg width="75" height="50" viewBox="0 0 75 50" fill="none" xmlns="http://www.w3.org/2000/svg">
<g clip-path="url(#clip0)">
<path fill-rule="evenodd" clip-rule="evenodd" d="M19.5606 26.6242C19.5606 27.3831 19.6358 28.115 19.7858 28.8195C19.4082 29.184 19.0627 29.4851 18.7492 29.7226C17.9156 30.3571 16.9418 30.6743 15.8352 30.6743C15.1344 30.6743 14.5664 30.4382 14.1348 29.9661C13.6999 29.4943 13.3902 28.7059 13.2021 27.6007C13.2034 27.5995 13.2045 27.5986 13.2054 27.598L13.2051 27.5933C16.2529 23.4397 17.3114 21.75 19.0923 17.5134C20.5972 13.9392 21.7665 9.51287 21.7665 6.96405C21.7665 4.44475 21.6042 2.79595 20.8628 1.59347C20.1214 0.39099 19.6234 0 18.3287 0C16.0307 0 14.0537 1.51232 12.3864 4.53696C10.7265 7.56161 9.68268 10.1326 8.83061 14.3449C7.98224 18.5573 7.97486 20.2172 7.97486 23.5111C7.97486 24.9868 8.08158 26.3456 8.29473 27.5868C7.46692 28.2251 6.74082 28.7192 6.2794 29.0332C6.11512 29.145 5.9844 29.234 5.89457 29.2985C5.83308 29.343 5.76341 29.3879 5.69116 29.4346C5.30836 29.6817 4.85334 29.9754 5.16055 30.4936C5.50568 31.6315 5.53106 31.8735 5.60334 32.5629C5.60907 32.6176 5.61511 32.6752 5.62162 32.7362C5.69277 33.403 6.43177 32.9815 6.97866 32.6695C7.04757 32.6302 7.11343 32.5926 7.17452 32.5592C7.95184 32.1325 8.6793 31.6509 9.34118 31.1598C9.45307 31.4113 9.57182 31.6553 9.69743 31.8915C10.8446 34.0494 12.6077 35.1301 14.9832 35.1301C16.7094 35.1301 18.255 34.6727 19.6197 33.7543C20.2262 33.345 20.813 32.8852 21.38 32.3745C21.8526 32.9834 22.4142 33.51 23.0648 33.9534C24.2119 34.7354 25.5951 35.1264 27.2144 35.1264C29.1288 35.1264 30.844 34.4477 32.3563 33.0829C33.865 31.7182 34.8793 29.9034 35.392 27.6349C36.0852 27.6073 36.7576 27.5482 37.4095 27.4579C37.385 27.7848 37.3727 28.1143 37.3727 28.4464C37.3727 30.4161 37.867 32.0206 38.8518 33.2637C39.8367 34.5067 41.0687 35.1264 42.5552 35.1264C44.038 35.1264 45.2404 34.4256 46.1589 33.0202C46.0675 33.4214 45.9821 33.7878 45.9026 34.1286C45.3726 36.4011 45.1077 37.5374 45.1077 40.2831C45.1077 42.8208 45.506 44.9749 46.3028 46.7418C47.0995 48.5086 48.2688 49.3939 49.8069 49.3939C52.0754 49.3939 53.7426 48.4053 54.8086 45.3807C55.8746 42.356 56.1587 40.3753 56.1587 36.2994C56.1587 35.8582 56.1561 35.4388 56.1537 35.0411V35.041V35.041C56.1452 33.6564 56.1383 32.536 56.2472 31.685C56.2645 31.1775 56.8912 30.9387 57.8013 30.6861C58.0707 31.5912 58.4121 32.4172 58.8253 33.1641C60.0131 35.3109 61.8906 36.3843 64.4541 36.3843C66.2357 36.3843 67.7148 35.8052 69.1202 34.6433C69.9317 33.9683 70.8575 33.0445 71.1895 32.644C71.4752 32.2994 70.947 31.7173 70.6012 31.3361C70.5452 31.2744 70.494 31.2179 70.4518 31.1686C70.3757 31.0797 70.2913 30.9656 70.2018 30.8447L70.2017 30.8446C69.935 30.4842 69.6232 30.063 69.3526 30.0657C69.0575 30.0657 68.7587 30.2022 68.4599 30.4678C67.973 30.8993 67.4382 31.2498 66.8591 31.519C66.2763 31.7883 65.7562 31.9248 65.2988 31.9248C64.4615 31.9248 63.7976 31.6813 63.3144 31.1944C62.8329 30.7093 62.4943 29.9166 62.3057 28.8163C62.3186 28.8001 62.3308 28.783 62.3424 28.7651C64.7839 26.288 66.0694 23.1779 67.6075 19.4567L67.6075 19.4566C67.7584 19.0914 67.9118 18.7203 68.069 18.3434C69.2788 15.4442 70.5108 10.649 70.5108 8.21453L70.5111 7.9248C70.5137 6.25815 70.5172 3.9791 69.8173 2.84395C69.0759 1.64147 68.578 1.25048 67.2833 1.25048C64.989 1.25048 63.0119 2.7628 61.352 5.78744C59.6922 8.81208 58.7516 11.383 57.8995 15.5954C57.0511 19.8078 57.0438 21.4676 57.0438 24.7615C57.0438 25.5232 57.0726 26.253 57.1303 26.9509C56.4867 27.1493 55.9157 27.2873 55.4689 27.3878C54.4877 27.6054 53.739 28.3468 53.5877 28.5497C53.0935 29.2136 52.8463 29.9624 52.9607 31.1538C52.9995 32.0727 52.9828 32.7166 52.9623 33.5096V33.5098V33.5099V33.51C52.9477 34.0731 52.9312 34.7113 52.9312 35.5764C52.9312 37.3064 52.8205 38.4166 52.6066 39.9548C52.3889 41.4929 52.2303 42.1974 51.9205 43.1159C51.859 43.2975 51.8065 43.4612 51.7597 43.607C51.571 44.1956 51.476 44.4917 51.2602 44.4917C50.9356 44.4917 50.6737 44.0528 50.4709 43.1749C50.268 42.297 50.1684 41.7622 50.1684 40.5191C50.1684 37.1957 50.6 34.9457 51.4631 30.6263C51.7619 29.114 52.1602 27.4431 52.6582 25.6062C53.1598 23.7729 53.6246 22.0983 54.0562 20.586C54.1631 20.2098 54.3845 19.4315 54.7238 18.2585C55.0595 17.0855 55.2291 16.3368 55.2291 16.0122C55.2587 15.4994 55.1148 15.1084 54.805 14.8392C54.4951 14.5699 53.8828 14.4334 52.9644 14.4334C52.1012 14.4334 51.4262 14.5847 50.9393 14.8798C50.4561 15.1785 50.0909 15.7576 49.8475 16.6208C49.4971 16.1892 48.9991 15.9716 48.3499 15.9716C46.4319 15.9716 44.6281 16.5618 42.9425 17.7347C41.2531 18.9077 39.9068 20.4532 38.8924 22.3713C38.7885 22.5676 38.69 22.7651 38.5968 22.9638C37.528 23.1885 36.5676 23.3275 35.7166 23.382C35.5027 21.3016 34.765 19.5532 33.5109 18.1368C32.253 16.7204 30.6006 16.0122 28.5497 16.0122C26.8751 16.0122 25.348 16.4658 23.9722 17.3696C22.5963 18.2733 21.5156 19.5311 20.7336 21.1356C19.9516 22.7438 19.5606 24.5734 19.5606 26.6242ZM15.3299 7.3698C14.5479 9.61246 14.0684 11.3461 13.4745 14.6658C12.9776 17.444 12.9611 19.1036 12.9386 21.3589C12.9343 21.7986 12.9297 22.2609 12.9213 22.7586C14.9205 19.461 15.6029 17.6905 16.6615 14.7248C17.7607 11.6523 18.2586 9.30262 18.2586 6.87553C18.2586 4.82467 18.1959 4.00581 17.4398 4.00581C16.8164 4.0095 16.1119 5.13083 15.3299 7.3698ZM29.7817 29.7853C30.4161 29.0845 30.8403 28.0701 31.0579 26.7496C30.2206 26.1816 29.5788 25.4402 29.1362 24.5217C28.6899 23.6033 28.4686 22.6332 28.4686 21.6077C28.4686 21.1762 28.5091 20.7446 28.5903 20.313H28.3874C27.3067 20.313 26.4103 20.8331 25.6947 21.8733C24.9792 22.9135 24.6214 24.3779 24.6214 26.2664C24.6214 27.7529 24.9128 28.8853 25.4919 29.6673C26.071 30.4493 26.7534 30.8403 27.5353 30.8403C28.3985 30.8366 29.1473 30.4862 29.7817 29.7853ZM47.177 27.1111C46.9335 28.1919 46.5315 29.114 45.9634 29.8849C45.3954 30.6558 44.8015 31.0395 44.1781 31.0358C43.6359 31.0358 43.2117 30.8145 42.9019 30.3681C42.592 29.9255 42.4371 29.2837 42.4371 28.4464C42.4371 26.9636 42.7285 25.5508 43.3076 24.2156C43.8904 22.8766 44.6724 21.8069 45.6573 20.9954C46.6421 20.1876 47.7302 19.7671 48.918 19.7413L47.177 27.1111ZM64.2881 8.62396C63.5062 10.8666 63.1299 12.6003 62.5361 15.92C62.0413 18.6857 62.0228 20.6322 62.0005 22.9687V22.9688V22.969C61.996 23.4369 61.9914 23.9206 61.9828 24.4296C63.5963 21.7735 64.2649 19.8509 65.1106 17.419L65.1106 17.419C65.2703 16.9599 65.4362 16.4827 65.616 15.979C66.623 13.1572 67.0029 10.6785 67.0029 8.23297C67.0029 6.18212 66.8702 5.25997 66.3906 5.25997C65.7747 5.26366 65.0738 6.38499 64.2881 8.62396Z" fill="#FAF6F6"/>
<path d="M71.3262 30.2021C70.9905 29.8406 70.8209 29.3685 70.8209 28.7857C70.8209 28.1107 71.0127 27.5722 71.3926 27.1664C71.7762 26.7607 72.3111 26.5578 73.0008 26.5578C73.6611 26.5578 74.159 26.7201 74.4947 27.041C74.8304 27.3619 75 27.8377 75 28.4685C75 29.1583 74.8045 29.7079 74.4172 30.121C74.0262 30.5341 73.4951 30.7407 72.8201 30.7407C72.1598 30.7407 71.6619 30.5599 71.3262 30.2021Z" fill="#6CBF84"/>
<path d="M0.505337 34.2596C0.169675 33.8981 0 33.426 0 32.8432C0 32.1682 0.191807 31.6297 0.571731 31.2239C0.955344 30.8182 1.49019 30.6153 2.17996 30.6153C2.84021 30.6153 3.33817 30.7776 3.67383 31.0985C4.00949 31.4194 4.17917 31.8952 4.17917 32.526C4.17917 33.2158 3.98367 33.7653 3.59637 34.1785C3.20538 34.5916 2.67423 34.7982 1.99921 34.7982C1.34265 34.7982 0.844687 34.6174 0.505337 34.2596Z" fill="#F26968"/>
</g>
<defs>
<clipPath id="clip0">
<path d="M0 0H75V50H0V0Z" fill="white"/>
</clipPath>
</defs>
</svg>
