<svg width="100" height="67" viewBox="0 0 100 67" fill="none" xmlns="http://www.w3.org/2000/svg">
<g clip-path="url(#clip0)">
<path fill-rule="evenodd" clip-rule="evenodd" d="M26.0808 35.6765C26.0808 36.6933 26.1811 37.6741 26.3811 38.6181C25.8776 39.1066 25.4169 39.5101 24.999 39.8283C23.8875 40.6785 22.5891 41.1036 21.1137 41.1036C20.1792 41.1036 19.4218 40.7872 18.8464 40.1546C18.2665 39.5224 17.8536 38.4659 17.6027 36.985C17.6045 36.9834 17.606 36.9822 17.6071 36.9814L17.6068 36.975C21.6705 31.4092 23.0818 29.145 25.4564 23.468C27.4629 18.6785 29.022 12.7472 29.022 9.33183C29.022 5.95596 28.8056 3.74657 27.8171 2.13525C26.8285 0.523927 26.1646 0 24.4383 0C21.3743 0 18.7382 2.02651 16.5152 6.07953C14.3021 10.1326 12.9102 13.5776 11.7741 19.2222C10.643 24.8668 10.6331 27.091 10.6331 31.5048C10.6331 33.4823 10.7754 35.3031 11.0596 36.9663C9.95589 37.8216 8.98775 38.4837 8.37253 38.9045C8.1535 39.0543 7.9792 39.1735 7.85943 39.2599C7.77744 39.3196 7.68454 39.3798 7.58822 39.4423C7.07782 39.7734 6.47112 40.167 6.88073 40.8614C7.34091 42.3863 7.37474 42.7105 7.47112 43.6343C7.47877 43.7077 7.48681 43.7848 7.49549 43.8665C7.59035 44.7601 8.57569 44.1952 9.30488 43.7771C9.39676 43.7244 9.48457 43.6741 9.56602 43.6293C10.6025 43.0575 11.5724 42.4122 12.4549 41.7541C12.6041 42.0912 12.7624 42.4181 12.9299 42.7347C14.4594 45.6261 16.8103 47.0744 19.9776 47.0744C22.2792 47.0744 24.3399 46.4615 26.1596 45.2307C26.9683 44.6823 27.7506 44.0662 28.5066 43.3818C29.1368 44.1978 29.8856 44.9033 30.753 45.4976C32.2826 46.5455 34.1269 47.0694 36.2859 47.0694C38.8384 47.0694 41.1253 46.1599 43.1418 44.3311C45.1533 42.5023 46.5058 40.0705 47.1894 37.0308C48.1135 36.9937 49.0102 36.9146 49.8793 36.7936C49.8466 37.2317 49.8302 37.6732 49.8302 38.1181C49.8302 40.7576 50.4893 42.9076 51.8024 44.5733C53.1156 46.239 54.7582 47.0694 56.7402 47.0694C58.7173 47.0694 60.3206 46.1303 61.5452 44.2471C61.4233 44.7847 61.3094 45.2756 61.2035 45.7323C60.4968 48.7775 60.1435 50.3001 60.1435 53.9793C60.1435 57.3799 60.6747 60.2664 61.737 62.634C62.7993 65.0015 64.3584 66.1878 66.4092 66.1878C69.4339 66.1878 71.6569 64.8631 73.0782 60.8101C74.4995 56.7571 74.8782 54.1029 74.8782 48.6412C74.8782 48.05 74.8748 47.4879 74.8715 46.955C74.8602 45.0997 74.8511 43.5983 74.9963 42.4578C75.0194 41.7779 75.8549 41.4579 77.0684 41.1193C77.4277 42.3323 77.8828 43.4391 78.4338 44.4399C80.0174 47.3166 82.5208 48.7549 85.9388 48.7549C88.3143 48.7549 90.2865 47.9789 92.1603 46.422C93.2422 45.5175 94.4767 44.2796 94.9193 43.743C95.3003 43.2812 94.5961 42.5012 94.1349 41.9903C94.0603 41.9077 93.992 41.832 93.9357 41.7659C93.8342 41.6468 93.7216 41.4939 93.6023 41.3318C93.2466 40.8488 92.831 40.2844 92.4701 40.2881C92.0767 40.2881 91.6783 40.471 91.2799 40.8268C90.6307 41.4051 89.9176 41.8747 89.1455 42.2355C88.3684 42.5963 87.6749 42.7792 87.0651 42.7792C85.9487 42.7792 85.0634 42.453 84.4191 41.8005C83.7772 41.1505 83.3257 40.0882 83.0743 38.6138C83.0914 38.5921 83.1077 38.5693 83.1232 38.5453C86.3785 35.226 88.0925 31.0584 90.1433 26.0719L90.1437 26.0709C90.3448 25.5819 90.5492 25.0849 90.7586 24.5801C92.3717 20.6952 94.0144 14.2697 94.0144 11.0075C94.0144 10.8813 94.0146 10.7517 94.0148 10.6192C94.0183 8.38593 94.023 5.33199 93.0898 3.81089C92.1012 2.19957 91.4373 1.67564 89.711 1.67564C86.652 1.67564 84.0159 3.70215 81.8027 7.75517C79.5896 11.8082 78.3354 15.2533 77.1993 20.8978C76.0682 26.5424 76.0583 28.7666 76.0583 33.1805C76.0583 34.2011 76.0968 35.179 76.1737 36.1142C75.3156 36.3801 74.5542 36.565 73.9585 36.6996C72.6503 36.9912 71.6519 37.9847 71.4503 38.2565C70.7913 39.1462 70.4618 40.1496 70.6142 41.7461C70.666 42.9775 70.6437 43.8403 70.6164 44.9031V44.9031V44.9032C70.5969 45.6577 70.5749 46.513 70.5749 47.6724C70.5749 49.9905 70.4273 51.4783 70.1421 53.5394C69.8519 55.6005 69.6404 56.5446 69.2273 57.7753C69.1453 58.0186 69.0753 58.238 69.013 58.4334C68.7613 59.2221 68.6347 59.6189 68.347 59.6189C67.9142 59.6189 67.565 59.0307 67.2945 57.8544C67.024 56.678 66.8912 55.9613 66.8912 54.2956C66.8912 49.8423 67.4666 46.8272 68.6175 41.0393C69.0158 39.0128 69.547 36.7737 70.2109 34.3123C70.8798 31.8557 71.4995 29.6117 72.0749 27.5852C72.2175 27.0811 72.5126 26.0382 72.9651 24.4664C73.4126 22.8946 73.6389 21.8912 73.6389 21.4563C73.6782 20.7692 73.4864 20.2453 73.0733 19.8845C72.6601 19.5237 71.8437 19.3408 70.6191 19.3408C69.4683 19.3408 68.5683 19.5434 67.9191 19.9389C67.2748 20.3392 66.7879 21.1152 66.4633 22.2718C65.9961 21.6935 65.3322 21.4019 64.4666 21.4019C61.9091 21.4019 59.5042 22.1927 57.2566 23.7645C55.0041 25.3363 53.209 27.4073 51.8565 29.9775C51.718 30.2406 51.5867 30.5053 51.4624 30.7714C50.0374 31.0726 48.7568 31.2589 47.6222 31.3318C47.3369 28.5441 46.3533 26.2013 44.6811 24.3033C43.0041 22.4053 40.8007 21.4563 38.0663 21.4563C35.8334 21.4563 33.7973 22.0642 31.9629 23.2752C30.1284 24.4862 28.6874 26.1716 27.6448 28.3217C26.6021 30.4767 26.0808 32.9283 26.0808 35.6765ZM20.4399 9.87553C19.3972 12.8807 18.7579 15.2038 17.9661 19.6522C17.3034 23.3749 17.2814 25.5988 17.2515 28.621C17.2457 29.2101 17.2396 29.8296 17.2283 30.4965C19.894 26.0777 20.8038 23.7052 22.2153 19.7313C23.6809 15.614 24.3449 12.4655 24.3449 9.21321C24.3449 6.46506 24.2612 5.36778 23.253 5.36778C22.4219 5.37272 21.4825 6.87531 20.4399 9.87553ZM39.7089 39.9124C40.5548 38.9732 41.1204 37.614 41.4106 35.8445C40.2942 35.0833 39.4384 34.0898 38.8483 32.8591C38.2532 31.6284 37.9581 30.3284 37.9581 28.9544C37.9581 28.3761 38.0122 27.7978 38.1204 27.2195H37.8499C36.4089 27.2195 35.2138 27.9164 34.2597 29.3102C33.3055 30.7041 32.8285 32.6663 32.8285 35.197C32.8285 37.1889 33.217 38.7063 33.9892 39.7542C34.7613 40.802 35.6712 41.326 36.7138 41.326C37.8646 41.321 38.863 40.8515 39.7089 39.9124ZM62.9026 36.3289C62.578 37.7771 62.0419 39.0128 61.2845 40.0458C60.5272 41.0788 59.7353 41.5929 58.9042 41.5879C58.1812 41.5879 57.6156 41.2914 57.2025 40.6933C56.7894 40.1002 56.5828 39.2401 56.5828 38.1181C56.5828 36.1312 56.9714 34.2381 57.7435 32.4489C58.5206 30.6547 59.5632 29.2213 60.8763 28.1339C62.1895 27.0514 63.6403 26.488 65.224 26.4534L62.9026 36.3289ZM85.7175 11.5561C84.6749 14.5613 84.1732 16.8844 83.3814 21.3328C82.7217 25.0388 82.697 27.6471 82.6673 30.7781V30.7782V30.7784C82.6613 31.4055 82.6552 32.0536 82.6437 32.7356C84.795 29.1765 85.6865 26.6002 86.8142 23.3415L86.815 23.3392C87.0276 22.7247 87.2486 22.086 87.4881 21.4119C88.8307 17.6307 89.3373 14.3092 89.3373 11.0322C89.3373 8.28404 89.1602 7.04837 88.5209 7.04837C87.6995 7.05331 86.7651 8.55589 85.7175 11.5561Z" fill="#FAF6F6"/>
<path d="M95.1016 40.4709C94.6541 39.9865 94.4279 39.3538 94.4279 38.5729C94.4279 37.6683 94.6836 36.9467 95.1902 36.403C95.7016 35.8593 96.4148 35.5875 97.3345 35.5875C98.2148 35.5875 98.8787 35.8049 99.3263 36.235C99.7738 36.665 100 37.3026 100 38.1478C100 39.0721 99.7394 39.8085 99.223 40.3621C98.7017 40.9157 97.9935 41.1925 97.0935 41.1925C96.2131 41.1925 95.5492 40.9503 95.1016 40.4709Z" fill="#6CBF84"/>
<path d="M0.673782 45.9079C0.226233 45.4235 0 44.7908 0 44.0099C0 43.1054 0.255742 42.3837 0.762308 41.84C1.27379 41.2963 1.98692 41.0245 2.90661 41.0245C3.78695 41.0245 4.4509 41.242 4.89845 41.672C5.34599 42.102 5.57223 42.7396 5.57223 43.5848C5.57223 44.5091 5.31157 45.2455 4.79516 45.7991C4.27384 46.3527 3.56564 46.6295 2.66562 46.6295C1.79019 46.6295 1.12625 46.3873 0.673782 45.9079Z" fill="#F26968"/>
</g>
<defs>
<clipPath id="clip0">
<path d="M0 0H100V67H0V0Z" fill="white"/>
</clipPath>
</defs>
</svg>
