<svg width="358" height="258" viewBox="0 0 358 258" fill="none" xmlns="http://www.w3.org/2000/svg">
<path d="M201.438 170.836H132.445C131.407 170.836 130.566 171.68 130.566 172.721V175.269H203.316V172.721C203.317 171.68 202.476 170.836 201.438 170.836Z" fill="#2F2B27"/>
<path d="M313.384 175.227L325.983 258H344.23L336.697 175.227H313.384Z" fill="#543A37"/>
<path d="M306.725 175.227L319.324 258H337.571L330.038 175.227H306.725Z" fill="#704E49"/>
<path d="M30.3483 175.227L22.059 258H40.9913L53.591 175.227H32.9322C32.0285 175.227 31.1575 175.458 30.3483 175.227Z" fill="#543A37"/>
<path d="M341.538 178.937H36.8681V230.08H341.538V178.937Z" fill="#543A37"/>
<path d="M89.1414 177.458L81.6613 258H107.051L119.651 175.227L91.7252 177.46C90.8216 177.458 89.9506 177.689 89.1414 177.458Z" fill="#543A37"/>
<path d="M249.736 175.227L262.334 258H280.58L273.049 175.227H249.736Z" fill="#543A37"/>
<path d="M243.249 175.227L255.847 258H274.093L266.562 175.227H243.249Z" fill="#704E49"/>
<path d="M22.6844 175.227L15.1115 258H33.3273L45.927 175.227H25.2665C24.3645 175.227 23.4935 175.458 22.6844 175.227Z" fill="#704E49"/>
<path d="M271.563 178.851H17.4719V230.654H271.563V178.851Z" fill="#704E49"/>
<path opacity="0.1" d="M341.086 176.799H17.4719V195.403H341.086V176.799Z" fill="black"/>
<path d="M357.998 175.227H4.05444V189.326H357.998V175.227Z" fill="#C4C4C4"/>
<path d="M294.299 175.227H0V189.326H294.299V175.227Z" fill="#EEEEEE"/>
<path d="M247.396 130.358H221.981V172.543H247.396V130.358Z" fill="black"/>
<path d="M314.904 31.5276H154.473C153.279 31.5276 152.312 32.4976 152.312 33.695V142.387C152.312 143.584 153.279 144.554 154.473 144.554H314.904C316.098 144.554 317.065 143.584 317.065 142.387V33.695C317.065 32.4993 316.098 31.5276 314.904 31.5276Z" fill="#2F2B27"/>
<path d="M311.37 36.238H158.009V124.777H311.37V36.238Z" fill="#E9E2DF"/>
<path d="M311.37 102.96H158.009V124.775H311.37V102.96Z" fill="#C0A9A8"/>
<path d="M311.37 36.238H158.009V41.3827H311.37V36.238Z" fill="#C0A9A8"/>
<path d="M254.833 170.784H214.546C212.118 170.784 210.151 172.757 210.151 175.191V175.204H259.227V175.191C259.227 172.759 257.259 170.784 254.833 170.784Z" fill="#2F2B27"/>
<path d="M249.138 86.6534C257.146 78.6224 257.146 65.6017 249.138 57.5707C241.13 49.5398 228.146 49.5398 220.138 57.5707C212.13 65.6017 212.13 78.6224 220.138 86.6534C228.146 94.6843 241.13 94.6843 249.138 86.6534Z" fill="white"/>
<path d="M238.804 60.2712H230.475C226.99 60.2712 221.511 64.4889 221.511 68.2725V69.5095H247.77V68.2725C247.77 64.4889 242.29 60.2712 238.804 60.2712Z" fill="#D67B51"/>
<path d="M221.511 78.7928C221.511 80.8241 224.38 82.4712 226.251 82.4712H243.029C244.901 82.4712 247.769 80.8241 247.769 78.7928V77.79H221.509V78.7928H221.511Z" fill="#D67B51"/>
<path d="M246.406 73.7515H222.873C221.777 73.7515 220.887 74.6422 220.887 75.7432V75.9034C220.887 77.0026 221.775 77.8951 222.873 77.8951H246.406C247.502 77.8951 248.392 77.0043 248.392 75.9034V75.7432C248.392 74.6422 247.502 73.7515 246.406 73.7515Z" fill="#FFBA17"/>
<path d="M229.067 70.9363H221.918C221.545 70.9363 221.243 71.2395 221.243 71.6134V71.8425C221.243 72.2164 221.545 72.5196 221.918 72.5196H229.067C229.439 72.5196 229.742 72.2164 229.742 71.8425V71.6134C229.74 71.2395 229.439 70.9363 229.067 70.9363Z" fill="#E0313A"/>
<path d="M238.37 70.9363H231.221C230.848 70.9363 230.546 71.2395 230.546 71.6134V71.8425C230.546 72.2164 230.848 72.5196 231.221 72.5196H238.37C238.742 72.5196 239.045 72.2164 239.045 71.8425V71.6134C239.045 71.2395 238.742 70.9363 238.37 70.9363Z" fill="#E0313A"/>
<path d="M247.533 70.9363H240.383C240.01 70.9363 239.708 71.2395 239.708 71.6134V71.8425C239.708 72.2164 240.01 72.5196 240.383 72.5196H247.533C247.906 72.5196 248.208 72.2164 248.208 71.8425V71.6134C248.208 71.2395 247.906 70.9363 247.533 70.9363Z" fill="#E0313A"/>
<path opacity="0.3" d="M230.412 62.3578C229.881 62.1183 229.082 61.9959 228.988 62.2458C228.893 62.4956 229.537 63.0228 230.066 63.2606C230.597 63.5001 230.812 63.3588 230.907 63.109C231.003 62.8609 230.943 62.5972 230.412 62.3578Z" fill="white"/>
<path opacity="0.3" d="M234.521 62.9142C234.085 63.2777 233.629 63.9669 233.8 64.2081C233.97 64.4493 234.702 64.1478 235.138 63.7843C235.574 63.4207 235.55 63.1313 235.38 62.8918C235.208 62.6506 234.956 62.5507 234.521 62.9142Z" fill="white"/>
<path opacity="0.3" d="M242.237 63.5327C241.694 63.3294 241.488 63.4827 241.407 63.7377C241.326 63.9927 241.4 64.2529 241.943 64.4562C242.486 64.6595 243.29 64.7302 243.371 64.4752C243.453 64.2202 242.78 63.736 242.237 63.5327Z" fill="white"/>
<path opacity="0.3" d="M237.478 65.2541C237.062 65.6452 237.103 65.9329 237.287 66.1603C237.469 66.3895 237.727 66.4722 238.141 66.0811C238.557 65.69 238.973 64.9715 238.79 64.7424C238.607 64.515 237.894 64.863 237.478 65.2541Z" fill="white"/>
<path opacity="0.3" d="M226.471 64.9852C225.94 64.7457 225.141 64.6234 225.046 64.8732C224.952 65.123 225.596 65.6503 226.125 65.888C226.656 66.1275 226.871 65.9862 226.965 65.7364C227.062 65.4883 227.002 65.2247 226.471 64.9852Z" fill="white"/>
<path opacity="0.3" d="M230.135 65.6107C229.766 66.0535 229.838 66.3326 230.046 66.5359C230.252 66.7392 230.517 66.7892 230.886 66.3464C231.255 65.9036 231.59 65.1369 231.382 64.9336C231.175 64.7303 230.505 65.1679 230.135 65.6107Z" fill="white"/>
<path opacity="0.3" d="M238.339 61.5753C237.859 61.2841 237.624 61.4219 237.486 61.6855C237.351 61.9491 237.364 62.2386 237.844 62.5315C238.323 62.8227 239.088 63.007 239.223 62.7417C239.361 62.4781 238.818 61.8665 238.339 61.5753Z" fill="white"/>
<path opacity="0.3" d="M244.769 65.6571C244.238 65.4176 243.439 65.2953 243.345 65.5451C243.25 65.7949 243.895 66.3221 244.424 66.5599C244.955 66.7994 245.169 66.6581 245.264 66.4083C245.358 66.1602 245.298 65.8966 244.769 65.6571Z" fill="white"/>
<path d="M202.814 86.6529C210.822 78.6219 210.822 65.6012 202.814 57.5702C194.806 49.5393 181.823 49.5393 173.815 57.5702C165.807 65.6012 165.807 78.6219 173.815 86.6529C181.823 94.6839 194.806 94.6839 202.814 86.6529Z" fill="white"/>
<path d="M191.527 55.142L189.496 67.6106L190.72 67.8111L192.751 55.3425L191.527 55.142Z" fill="#544B3F"/>
<path d="M183.538 87.8655H193.093L194.212 68.5103H182.418L183.538 87.8655Z" fill="#E0313A"/>
<path d="M195.15 67.2646H181.48V68.4741H195.15V67.2646Z" fill="#EEEEEE"/>
<path d="M191.8 65.3831H184.832C183.722 65.3831 182.822 66.2859 182.822 67.3989H193.811C193.81 66.2859 192.91 65.3831 191.8 65.3831Z" fill="#EEEEEE"/>
<path d="M295.546 86.9976C303.573 78.9471 303.573 65.8947 295.546 57.8443C287.518 49.7938 274.503 49.7938 266.476 57.8443C258.448 65.8947 258.448 78.9471 266.476 86.9975C274.503 95.048 287.518 95.048 295.546 86.9976Z" fill="#6CBF84"/>
<path d="M288.774 65.2641L278.928 75.1381L273.253 69.4474C272.439 68.6307 271.118 68.6307 270.303 69.4474C269.489 70.264 269.489 71.5889 270.303 72.4056L277.454 79.5764C277.861 79.9847 278.395 80.1897 278.928 80.1897C279.462 80.1897 279.995 79.9847 280.402 79.5764L291.722 68.2241C292.536 67.4074 292.536 66.0825 291.722 65.2659C290.909 64.4475 289.588 64.4475 288.774 65.2641Z" fill="white"/>
<path d="M180.501 238.654C180.501 238.654 116.98 223.147 58.8927 234.464C54.2335 235.372 58.8927 253.505 58.8927 253.505C58.8927 255.07 59.1847 256.579 59.7259 258H201.654C196.468 242.325 180.501 238.654 180.501 238.654Z" fill="#C0A9A8"/>
<path opacity="0.1" d="M120.934 247.477C113.583 237.727 114.586 230.751 114.671 230.549C96.7073 229.941 78.1822 230.706 58.8927 234.463C54.2335 235.371 58.8927 253.505 58.8927 253.505C58.8927 255.069 59.1847 256.579 59.7276 258H133.465C132.148 257.449 130.849 256.856 129.655 256.067C125.989 253.643 123.556 250.955 120.934 247.477Z" fill="black"/>
<path d="M98.4082 235.547C98.4099 235.544 98.4133 235.54 98.415 235.538C99.2826 234.412 100.119 233.557 101.392 232.801C102.404 232.199 103.569 231.693 104.718 231.402C106.455 230.959 108.324 230.802 110.121 230.761C110.974 230.742 111.826 230.776 112.678 230.752C114.339 230.704 115.988 230.425 117.65 230.635C117.775 230.635 117.9 230.639 118.024 230.644C117.679 218.973 116.882 188.26 117.363 167.158C117.581 157.59 119.18 165.981 123.489 152.151C128.633 135.645 108.541 101.94 102.573 94.3798C96.058 86.127 85.9184 77.8743 79.256 77.8743C61.0866 77.8743 41.3881 81.5837 38.1462 110.07C35.808 130.628 67.0377 177.612 67.9465 195.475C68.6612 209.528 61.1536 235.857 61.1536 235.857L98.4082 235.547Z" fill="#544B3F"/>
<path opacity="0.2" d="M174.163 127.574C172.787 129.581 171.455 131.619 170.088 133.631C167.401 137.587 151.003 156.362 147.598 158.762C143.718 161.496 141.413 163.069 135.915 157.9C132.881 155.045 97.9374 97.5052 95.5718 95.5583C85.3738 79.6919 64.4246 85.4137 60.2482 85.3931C58.6144 85.4706 56.9788 85.5016 55.3433 85.4499C53.8607 85.4034 52.4966 85.0743 51.2407 84.492C44.5749 89.168 39.6323 97.0159 38.1479 110.07C35.8098 130.628 67.0394 177.612 67.9482 195.475C68.6629 209.528 61.1553 235.857 61.1553 235.857L98.4253 235.526C99.2895 234.407 100.124 233.555 101.392 232.803C102.404 232.201 103.569 231.695 104.718 231.403C106.455 230.961 108.324 230.804 110.121 230.763C110.974 230.744 111.826 230.778 112.678 230.754C113.286 230.737 113.891 230.687 114.495 230.644C114.631 218.921 115.011 187.995 115.473 166.861C116.499 168.023 119.46 169.956 120.663 171.177C121.524 172.046 122.441 172.935 123.527 173.88C124.072 174.354 124.659 174.842 125.329 175.354C125.997 175.862 126.76 176.405 127.693 176.97C128.171 177.256 128.674 177.543 129.28 177.843C129.885 178.139 130.541 178.436 131.356 178.722C132.163 179.004 133.098 179.273 134.216 179.456C134.773 179.545 135.384 179.613 136.032 179.64C136.197 179.647 136.364 179.65 136.53 179.652L136.779 179.654C137.558 179.644 137.02 179.649 137.206 179.645L137.381 179.626L137.843 179.595C138.004 179.583 138.168 179.568 138.329 179.551L138.571 179.523C138.659 179.513 138.688 179.507 138.75 179.499L139.073 179.449C139.515 179.38 139.892 179.297 140.289 179.206C141.038 179.023 141.715 178.808 142.318 178.582C143.523 178.129 144.467 177.64 145.301 177.161C146.129 176.68 146.823 176.206 147.458 175.741C148.091 175.276 148.652 174.821 149.175 174.375C150.218 173.481 151.099 172.619 151.912 171.777C153.526 170.093 154.861 168.483 156.093 166.913C157.32 165.345 158.426 163.82 159.462 162.339C161.527 159.375 163.307 156.575 164.896 153.982C166.482 151.389 167.87 149.005 169.074 146.884C170.279 144.763 171.296 142.904 172.125 141.367C172.955 139.83 173.594 138.612 174.031 137.773C174.477 136.908 174.716 136.448 174.716 136.448C176.194 133.585 175.939 130.163 174.163 127.574Z" fill="#2F2B27"/>
<path d="M176.702 97.2761H149.383C147.998 97.2761 146.875 98.4029 146.875 99.7916V116.747C146.875 118.135 147.998 119.262 149.383 119.262H176.702C178.087 119.262 179.21 118.135 179.21 116.747V99.7916C179.21 98.4029 178.087 97.2761 176.702 97.2761Z" fill="black"/>
<path d="M155.114 111.245H149.706V112.601H155.114V111.245Z" fill="#EEEEEE"/>
<path d="M162.202 111.245H156.794V112.601H162.202V111.245Z" fill="#EEEEEE"/>
<path d="M169.291 111.245H163.883V112.601H169.291V111.245Z" fill="#EEEEEE"/>
<path d="M176.378 111.245H170.969V112.601H176.378V111.245Z" fill="#EEEEEE"/>
<path d="M176.209 114.429H171.095V117.086H176.209V114.429Z" fill="#EEEEEE"/>
<path d="M154.02 103.164H150.632C150.079 103.164 149.632 103.613 149.632 104.166V106.098C149.632 106.652 150.08 107.1 150.632 107.1H154.02C154.573 107.1 155.019 106.651 155.019 106.098V104.168C155.019 103.613 154.573 103.164 154.02 103.164Z" fill="#F5CA45"/>
<path d="M179.344 101.84L178.863 110.296C178.863 110.296 177.573 115.579 173.572 116.318C169.569 117.055 171.383 108.885 171.402 107.238C171.45 103.158 168.274 104.374 168.274 104.374C168.274 104.374 166.114 111.661 164.025 117.383C161.936 123.106 163.895 129.353 163.895 129.353C163.895 129.353 169.198 135.769 171.691 134.658C174.184 133.547 183.876 124.684 184.569 122.26C186.381 115.913 183.913 109.71 182.858 105.987C181.803 102.264 179.344 101.84 179.344 101.84Z" fill="#ED9364"/>
<path d="M172.165 125.506C168.332 122.685 162.946 123.514 160.132 127.358L159.998 127.542C159.998 127.542 159.734 127.904 159.237 128.583C158.723 129.282 157.959 130.316 156.969 131.624C155.98 132.932 154.767 134.512 153.355 136.296C151.942 138.081 150.331 140.073 148.544 142.184C146.759 144.291 144.796 146.524 142.698 148.719C141.65 149.814 140.566 150.9 139.47 151.922C139.198 152.175 137.525 151.027 136.95 150.15C135.058 147.265 133.141 144.093 131.258 140.917C129.373 137.735 127.511 134.525 125.688 131.393C122.048 125.123 118.552 119.171 115.421 114.069C112.298 108.964 109.539 104.702 107.543 101.723C106.545 100.231 105.746 99.0677 105.187 98.2613C104.646 97.4826 104.358 97.0656 104.358 97.0656L104.272 96.9399C103.877 96.3782 103.442 95.8338 102.969 95.3117C96.6317 88.2943 85.8204 87.7567 78.8231 94.1126C71.8257 100.468 71.2897 111.311 77.6273 118.328C77.6273 118.328 77.9366 118.669 78.5138 119.31C79.0705 119.927 79.902 120.857 80.9448 122.051C83.0356 124.445 86.0008 127.947 89.5141 132.323C93.0326 136.696 97.087 141.939 101.492 147.694C103.698 150.571 105.991 153.574 108.397 156.66C110.809 159.749 113.305 162.909 116.09 166.16C117.492 167.79 118.957 169.44 120.663 171.172C121.524 172.04 122.441 172.929 123.527 173.875C124.071 174.349 124.659 174.836 125.329 175.348C125.997 175.856 126.76 176.399 127.693 176.964C128.171 177.25 128.674 177.538 129.28 177.838C129.885 178.134 130.541 178.43 131.356 178.716C132.163 178.999 133.098 179.268 134.216 179.45C134.773 179.54 135.384 179.607 136.032 179.635C136.197 179.642 136.364 179.645 136.53 179.647L136.779 179.649C137.558 179.638 137.02 179.643 137.206 179.64L137.381 179.621L137.843 179.59C138.004 179.578 138.168 179.562 138.329 179.545L138.571 179.518C138.659 179.507 138.688 179.502 138.75 179.493L139.073 179.443C139.515 179.375 139.892 179.292 140.289 179.201C141.038 179.018 141.715 178.803 142.318 178.577C143.523 178.124 144.467 177.634 145.301 177.155C146.129 176.675 146.823 176.201 147.459 175.736C148.091 175.271 148.653 174.816 149.175 174.37C150.218 173.475 151.099 172.614 151.912 171.771C153.526 170.088 154.861 168.477 156.093 166.908C157.32 165.34 158.426 163.815 159.462 162.333C161.527 159.37 163.307 156.57 164.896 153.977C166.482 151.384 167.87 149 169.074 146.879C170.279 144.758 171.296 142.899 172.125 141.362C172.955 139.825 173.594 138.607 174.031 137.768C174.477 136.903 174.716 136.443 174.716 136.443C176.639 132.73 175.634 128.059 172.165 125.506Z" fill="#544B3F"/>
<path opacity="0.2" d="M172.287 125.601C170.988 128.128 146.835 155.631 145.79 156.324C134.027 164.103 128.834 149.527 124.946 143.347C121.534 137.925 116.909 128.182 113.24 122.925C111.082 119.832 82.8312 68.3085 78.2458 94.6674C71.8034 101.084 71.4718 111.512 77.6291 118.332C77.6291 118.332 77.9383 118.673 78.5156 119.314C79.0722 119.931 79.9037 120.861 80.9465 122.055C83.0373 124.448 86.0026 127.951 89.5159 132.327C93.0343 136.7 97.0888 141.943 101.494 147.697C103.7 150.574 105.993 153.577 108.398 156.663C110.81 159.752 113.307 162.912 116.091 166.163C117.493 167.793 118.959 169.444 120.665 171.175C121.525 172.044 122.443 172.933 123.529 173.879C124.073 174.352 124.661 174.84 125.331 175.352C125.999 175.86 126.762 176.403 127.695 176.968C128.172 177.254 128.676 177.541 129.282 177.841C129.887 178.138 130.543 178.434 131.358 178.72C132.165 179.002 133.1 179.271 134.218 179.454C134.775 179.543 135.386 179.611 136.034 179.638C136.199 179.645 136.365 179.649 136.532 179.65L136.781 179.652C137.559 179.642 137.022 179.647 137.207 179.643L137.383 179.624L137.845 179.593C138.006 179.581 138.169 179.566 138.331 179.549L138.573 179.521C138.661 179.511 138.69 179.506 138.752 179.497L139.075 179.447C139.516 179.378 139.894 179.295 140.291 179.204C141.04 179.021 141.717 178.806 142.32 178.58C143.524 178.127 144.469 177.638 145.302 177.159C146.131 176.678 146.825 176.204 147.46 175.739C148.092 175.274 148.654 174.819 149.177 174.373C150.219 173.479 151.101 172.617 151.913 171.775C153.528 170.092 154.863 168.481 156.095 166.911C157.322 165.343 158.428 163.818 159.464 162.337C161.529 159.373 163.309 156.574 164.898 153.981C166.484 151.388 167.872 149.003 169.076 146.882C170.28 144.761 171.297 142.902 172.127 141.365C172.957 139.829 173.596 138.61 174.032 137.771C174.479 136.906 174.718 136.446 174.718 136.446C176.615 132.775 175.656 128.173 172.287 125.601Z" fill="#2F2B27"/>
<path d="M70.6867 105.448C44.197 105.448 47.7258 105.448 21.2361 105.448C13.8298 105.448 9.18782 111.759 10.5622 119.593C19.2673 169.065 18.678 209.061 10.4145 258H91.3061C97.3637 212.076 94.8589 165.297 86.817 119.593C85.4409 111.761 78.0844 105.449 70.6867 105.448Z" fill="#F26968"/>
<path opacity="0.2" d="M59.4494 113.427C60.061 110.73 62.2926 108.041 64.6325 106.668C65.6032 106.049 66.6306 105.642 67.7163 105.448H21.2361C13.8298 105.448 9.18782 111.759 10.5622 119.593C19.2673 169.058 19.9098 209.285 10.5227 258H67.1717C67.4586 255.188 67.9087 252.531 68.3004 250.3C70.3483 231.672 78.7046 152.316 60.5867 122.141C58.934 119.571 58.7914 116.321 59.4494 113.427Z" fill="#2F2B27"/>
<path d="M93.9981 7.14315C79.5927 7.99944 67.6802 22.2704 68.5461 36.9238C69.4119 51.5772 81.7918 62.7623 96.1971 61.9061C96.2074 61.9061 74.8648 69.7315 74.8751 69.7315C76.5588 69.7005 91.8712 84.5159 93.9912 85.4359C94.6131 85.1413 98.293 69.7315 102.693 70.5517C105.945 71.1581 112.427 71.0513 114.241 68.9218C124.126 57.3128 122.919 38.1109 123.072 36.083C123.379 31.9721 126.982 30.1906 124.58 22.8217C119.665 7.7479 106.069 6.42642 93.9981 7.14315Z" fill="#ED9364"/>
<path opacity="0.4" d="M109.192 69.5301C103.87 69.3734 89.4179 63.8531 85.3703 60.2178C85.2569 66.1343 93.9809 85.4361 93.9809 85.4361C95.2264 83.5271 98.2896 69.9867 102.689 70.5518C104.024 70.7224 105.809 70.9292 107.666 70.8637C110.13 70.7775 112.664 70.2813 113.901 69.2476C113.112 69.2786 109.989 69.5525 109.192 69.5301Z" fill="#CF7E63"/>
<path opacity="0.4" d="M106.429 38.9086C106.246 38.6881 106.058 38.4745 105.864 38.2677C105.376 37.9128 104.871 37.5854 104.352 37.2857C103.729 37.0203 103.093 36.7774 102.452 36.5603C102.1 36.9376 101.748 37.3184 101.387 37.6836C100.313 38.7725 99.2105 39.8235 98.1212 40.8917C97.9804 41.0295 97.8446 41.1691 97.7089 41.3104C98.8617 42.4561 98.7552 44.789 101.58 46.6773C101.588 46.6824 101.598 46.6842 101.607 46.6893C105.49 48.7172 104.765 43.9602 105.519 43.0023C106.009 42.2718 106.462 41.5189 106.869 40.7315C106.905 40.6074 106.941 40.4817 106.974 40.3559C106.974 40.3473 106.974 40.3387 106.974 40.33C106.924 40.1061 106.869 39.8821 106.809 39.6598C106.687 39.4066 106.562 39.155 106.429 38.9086Z" fill="#C4775E"/>
<path d="M117.469 4.74489C110.343 -0.0189805 100.057 -1.73156 87.1879 2.11399C71.9511 6.66594 66.5102 21.7932 60.121 38.3676C53.5102 55.5141 37.715 71.9904 40.5565 82.0815C44.5148 96.1336 79.8281 108.368 91.8317 87.9532C98.9888 75.7825 92.0327 55.5606 107.173 35.7212C108.417 34.0913 110.403 28.8382 119.689 30.0528C121.974 30.3509 128.016 29.9908 128.167 29.0397C130.792 12.641 121.866 7.68418 117.469 4.74489Z" fill="#2F2B27"/>
<path d="M103.7 33.1524C99.2826 35.12 100.291 46.8082 104.047 46.5636C107.381 46.3465 108.199 38.0196 108.34 36.1554C108.364 35.8488 108.348 35.5404 108.287 35.2388C108.055 34.081 107.146 31.6173 103.7 33.1524Z" fill="#ED9364"/>
<path d="M122.302 37.0015C122.302 37.0015 119.536 50.1611 120.599 51.1725C121.663 52.1855 126.173 50.7676 125.322 48.9447C124.472 47.1253 122.302 37.0015 122.302 37.0015Z" fill="#ED9364"/>
<path opacity="0.3" d="M113.325 57.1077C113.755 61.3288 117.875 63.05 117.875 63.05C118.885 61.632 120.026 58.5721 120.026 58.5721C115.583 59.1803 113.325 57.1077 113.325 57.1077Z" fill="#FF0000"/>
</svg>
