<svg width="350" height="220" viewBox="0 0 350 220" fill="none" xmlns="http://www.w3.org/2000/svg">
<path opacity="0.7" d="M314.675 207.778C314.675 207.778 0 209.64 0 212.135C20.609 225.596 347.916 219.165 350 212.135C350 209.64 315.968 207.778 314.675 207.778Z" fill="#E9E2DF"/>
<path d="M253.396 123.91L256.489 119.854L257.876 113.567L255.698 103.838L254.584 77.7602L252.543 50.853L242.415 44.429L246.701 76.4082L250.158 104.203H250.137L248.614 110.258L248.096 116.935C249.732 117.005 250.373 114.886 250.568 113.476C250.763 112.07 251.823 112.506 251.823 112.506C251.823 112.506 252.15 116.806 252.365 119.494C252.464 120.754 251.678 122.148 251.727 122.67C251.893 124.3 253.396 123.91 253.396 123.91Z" fill="#856451"/>
<path d="M255.926 102.54L249.781 101.375L250.03 104.302L255.926 104.19V102.54Z" fill="#E6DCD1"/>
<path d="M245.417 204.686H238.209L232.843 208.227C228.387 208.688 228.081 212.229 228.081 212.229H246.568C247.181 208.227 245.417 204.686 245.417 204.686Z" fill="#C0A9A8"/>
<path opacity="0.1" d="M245.417 204.686H242.299C241.301 207.41 239.898 209.961 238.022 212.229H246.568C247.181 208.223 245.417 204.686 245.417 204.686Z" fill="black"/>
<path d="M225.141 204.686H217.133L208.786 208.227C204.331 208.688 204.025 212.229 204.025 212.229H226.292C226.905 208.227 225.141 204.686 225.141 204.686Z" fill="#C0A9A8"/>
<path opacity="0.1" d="M225.141 204.686H222.586C219.605 208.057 215.717 210.728 211.581 212.229H226.292C226.905 208.223 225.141 204.686 225.141 204.686Z" fill="black"/>
<path d="M200.07 113.716L201.54 119.921L204.55 124.445C204.55 124.445 206.045 124.81 206.182 123.193C206.219 122.77 205.573 120.236 205.635 119.261C205.813 116.532 206.049 112.572 206.049 112.572C206.049 112.572 207.093 112.124 207.308 113.513C207.523 114.903 208.19 116.997 209.805 116.902L209.192 110.299L207.544 104.149L207.714 102.726C205.962 103.498 203.871 103.531 202.124 102.818L202.128 103.863H202.12L200.07 113.716Z" fill="#856451"/>
<path d="M202.12 102.822L201.834 105.227C201.929 105.223 207.826 105.215 207.826 105.215L207.71 102.73C205.962 103.498 203.871 103.535 202.12 102.822Z" fill="#E6DCD1"/>
<path d="M245.529 98.5835C245.392 98.6125 210.26 98.8157 210.074 98.6872L209.602 117.918L212.156 159.498L216.508 204.951L225.141 204.686L225.199 157.98L226.648 117.122L228.4 117.039L232.027 157.98L237.786 204.918L245.417 204.686L245.082 157.98L246.191 116.209L245.529 98.5835Z" fill="#2F2B27"/>
<path opacity="0.2" d="M225.199 157.98L226.648 117.121C225.199 116.947 221.282 158.987 220.872 166.95C220.222 179.562 220.648 192.19 220.918 204.814L225.141 204.686L225.199 157.98Z" fill="black"/>
<path opacity="0.2" d="M245.529 98.5835C245.392 98.6125 210.26 98.8157 210.074 98.6872L209.863 107.21C210.074 107.23 210.289 107.259 210.5 107.297C217.949 108.636 234.66 109.822 235.496 109.822C239.012 109.822 241.049 112.597 241.459 115.794C243.703 133.362 241.094 201.683 241.769 204.868L245.413 204.69L245.078 157.984L246.187 116.213L245.529 98.5835Z" fill="black"/>
<path opacity="0.1" d="M243.45 54.0381L243.069 59.4709L241.558 80.8291L243.069 98.5212L245.529 98.5834L245.338 94.4776L243.931 80.9535L244.585 59.218L243.45 54.0381Z" fill="black"/>
<path d="M210.521 38.1334C203.904 39.3983 203.875 45.8057 203.875 45.8057L203.08 76.4703L201.437 103.357L208.48 104.058L211.105 81.3889L210.186 94.2826H210.173L209.606 106.222C221.584 106.081 233.865 106.069 245.848 106.069L245.342 94.2204H245.318L243.935 80.9493L244.63 59.392L246.709 79.3319L249.744 102.768C251.624 102.801 254.34 102.664 256.22 102.672L255.218 76.7398L252.655 43.0395H252.642C252.207 41.87 250.593 38.5191 246.096 37.3537L228.516 30.743C228.511 30.7057 228.507 30.6684 228.503 30.6311C228.499 30.6103 228.507 30.5937 228.507 30.573L210.521 38.1334Z" fill="#F26968"/>
<path d="M201.594 100.757L201.549 101.47H202.919V103.51L203.631 103.581V101.47H205.532V103.772L206.244 103.842V101.47H208.778L208.861 100.757H206.244V98.8532H209.08L209.163 98.1398H206.244V90.9237H209.999L210.082 90.2104H206.244V88.3068H210.302L210.385 87.5935H206.244V82.1938V80.4727H213.449V82.1938V87.5935H210.662L210.612 88.3068H213.449V90.2104H210.476L210.426 90.9237H213.449V98.1398H209.987L209.954 98.8532H213.449V100.757H209.863L209.83 101.47H213.449V106.19C213.685 106.185 213.925 106.185 214.161 106.181V101.466H216.061V106.165C216.297 106.165 216.533 106.161 216.773 106.156V101.466H222.152H223.87V106.115C224.143 106.115 224.421 106.111 224.694 106.111V101.466H226.479V106.098C226.752 106.098 227.029 106.094 227.303 106.094V101.466H234.395V106.078C234.669 106.078 234.946 106.078 235.219 106.078V101.466H237.004V106.073C237.281 106.073 237.55 106.073 237.828 106.073V101.466H239.546H244.925V106.069C245.161 106.069 245.401 106.069 245.637 106.069V101.466H245.657L245.351 94.2207H245.326L244.908 90.2104H239.554H237.836V88.3068H239.554H244.709L244.635 87.5935H239.554H237.836V82.1938V80.4727H239.554H243.96L243.985 79.664H239.554H237.836V77.8599H239.554H244.043L244.068 77.0512H239.55H237.832V69.9304H239.55H244.295L244.32 69.1217H239.546H237.828V67.3177H239.546H244.378L244.403 66.509H239.546H237.828V64.7879V59.3882H239.546H244.925V62.1793L245.637 69.0056V67.3177H247.537V69.1217H245.649L245.732 69.9304H247.533V77.0512H246.473L246.556 77.8599H247.529V79.664H246.751L246.854 80.4727H247.529V82.1938V85.6774L248.241 91.1767V90.9195H255.446V98.1357H249.14L249.231 98.849H255.441V100.753H249.475L249.566 101.466H255.441V102.681C255.69 102.677 255.926 102.677 256.154 102.677V101.466H256.166L255.441 82.6832V87.5935H248.237V82.1938V80.4727H255.359L255.326 79.664H248.237V77.8599H255.255L255.222 77.0512H248.233V69.9304H254.692L254.63 69.1217H248.233V67.3177H254.493L254.431 66.509H248.233V64.7879V59.3882H253.889L253.835 58.6749H248.233V56.7713H253.69L253.636 56.058H248.233V48.8418H253.085L253.032 48.1285H248.233V46.2249H252.887L252.833 45.5116H248.233V38.2955H248.469C247.98 38.0259 247.442 37.7853 246.842 37.5821H245.62V37.1799L244.908 36.9103V37.578H239.53H237.811V35.6744H239.53H241.629L239.732 34.9611H239.53H237.811V34.2395L236.987 33.9284V34.9611H235.203V33.2607L235.157 33.2441H235.091H234.491H234.379V34.9652H227.286V33.2441H227.174H226.574H226.462V34.9652H224.678V33.2441H224.566H223.965H223.854V34.9652H222.135H218.04L216.049 35.803V37.5821H214.148V36.6034L213.436 36.902V37.5821H211.817L210.509 38.1296C210.277 38.1752 210.074 38.2374 209.859 38.2955H213.436V45.5116H206.232V40.2861C205.971 40.5474 205.726 40.8128 205.519 41.0907V45.5116H203.88C203.863 45.6982 203.863 45.8061 203.863 45.8061L203.851 46.2249H205.519V48.1285H203.801L203.785 48.8418H205.519V56.058H203.619V55.1415L203.068 76.4748L202.907 79.0875V79.6681H202.87L202.82 80.4768H202.907V82.1979V87.5976H202.385L202.34 88.3109H202.903V90.2145H202.224L202.178 90.9278H202.903V98.144H201.735L201.689 98.8573H202.899V100.761H201.594V100.757ZM248.241 88.3109H255.446V90.2145H248.241V88.3109ZM245.628 38.2996H247.529V45.5158H245.628V38.2996ZM245.628 46.2291H247.529V48.1327H245.628V46.2291ZM245.628 48.8418H247.529V56.058H245.628V48.8418ZM245.628 56.7713H247.529V58.6749H245.628V56.7713ZM245.628 64.7879V59.3882H247.529V64.7879V66.509H245.628V64.7879ZM237.824 38.2996H239.542H244.92V45.5158H239.542H237.824V38.2996ZM237.824 46.2291H239.542H244.92V48.1327H239.542H237.824V46.2291ZM237.824 48.8418H239.542H244.92V56.058H239.542H237.824V48.8418ZM237.824 56.7713H239.542H244.92V58.6749H239.542H237.824V56.7713ZM237.824 90.9237H239.542H244.92V98.1398H239.542H237.824V90.9237ZM237.824 98.8532H239.542H244.92V100.757H239.542H237.824V98.8532ZM235.215 35.6827H237V37.5863H235.215V35.6827ZM235.215 38.2996H237V45.5158H235.215V38.2996ZM235.215 46.2291H237V48.1327H235.215V46.2291ZM235.215 48.8418H237V56.058H235.215V48.8418ZM235.215 56.7713H237V58.6749H235.215V56.7713ZM235.215 64.7879V59.3882H237V64.7879V66.509H235.215V64.7879ZM235.215 67.3177H237V69.1217H235.215V67.3177ZM235.215 69.9304H237V77.0512H235.215V69.9304ZM235.215 77.8599H237V79.664H235.215V77.8599ZM235.215 82.1938V80.4727H237V82.1938V87.5935H235.215V82.1938ZM235.215 88.3109H237V90.2145H235.215V88.3109ZM235.215 90.9237H237V98.1398H235.215V90.9237ZM235.215 98.8532H237V100.757H235.215V98.8532ZM227.298 35.6827H234.391V37.5863H227.298V35.6827ZM227.298 38.2996H234.391V45.5158H227.298V38.2996ZM227.298 46.2291H234.391V48.1327H227.298V46.2291ZM227.298 48.8418H234.391V56.058H227.298V48.8418ZM227.298 56.7713H234.391V58.6749H227.298V56.7713ZM227.298 64.7879V59.3882H234.391V64.7879V66.509H227.298V64.7879ZM227.298 67.3177H234.391V69.1217H227.298V67.3177ZM227.298 69.9304H234.391V77.0512H227.298V69.9304ZM227.298 77.8599H234.391V79.664H227.298V77.8599ZM227.298 82.1938V80.4727H234.391V82.1938V87.5935H227.298V82.1938ZM227.298 88.3109H234.391V90.2145H227.298V88.3109ZM227.298 90.9237H234.391V98.1398H227.298V90.9237ZM227.298 98.8532H234.391V100.757H227.298V98.8532ZM224.686 35.6827H226.47V37.5863H224.686V35.6827ZM224.686 38.2996H226.47V45.5158H224.686V38.2996ZM224.686 46.2291H226.47V48.1327H224.686V46.2291ZM224.686 48.8418H226.47V56.058H224.686V48.8418ZM224.686 56.7713H226.47V58.6749H224.686V56.7713ZM224.686 64.7879V59.3882H226.47V64.7879V66.509H224.686V64.7879ZM224.686 67.3177H226.47V69.1217H224.686V67.3177ZM224.686 69.9304H226.47V77.0512H224.686V69.9304ZM224.686 77.8599H226.47V79.664H224.686V77.8599ZM224.686 82.1938V80.4727H226.47V82.1938V87.5935H224.686V82.1938ZM224.686 88.3109H226.47V90.2145H224.686V88.3109ZM224.686 90.9237H226.47V98.1398H224.686V90.9237ZM224.686 98.8532H226.47V100.757H224.686V98.8532ZM216.769 35.6827H222.148H223.866V37.5863H222.148H216.769V35.6827ZM216.769 38.2996H222.148H223.866V45.5158H222.148H216.769V38.2996ZM216.769 46.2291H222.148H223.866V48.1327H222.148H216.769V46.2291ZM216.769 48.8418H222.148H223.866V56.058H222.148H216.769V48.8418ZM216.769 56.7713H222.148H223.866V58.6749H222.148H216.769V56.7713ZM216.769 64.7879V59.3882H222.148H223.866V64.7879V66.509H222.148H216.769V64.7879ZM216.769 67.3177H222.148H223.866V69.1217H222.148H216.769V67.3177ZM216.769 69.9304H222.148H223.866V77.0512H222.148H216.769V69.9304ZM216.769 77.8599H222.148H223.866V79.664H222.148H216.769V77.8599ZM216.769 82.1938V80.4727H222.148H223.866V82.1938V87.5935H222.148H216.769V82.1938ZM216.769 88.3109H222.148H223.866V90.2145H222.148H216.769V88.3109ZM216.769 90.9237H222.148H223.866V98.1398H222.148H216.769V90.9237ZM216.769 98.8532H222.148H223.866V100.757H222.148H216.769V98.8532ZM214.161 38.2996H216.061V45.5158H214.161V38.2996ZM214.161 46.2291H216.061V48.1327H214.161V46.2291ZM214.161 48.8418H216.061V56.058H214.161V48.8418ZM214.161 56.7713H216.061V58.6749H214.161V56.7713ZM214.161 64.7879V59.3882H216.061V64.7879V66.509H214.161V64.7879ZM214.161 67.3177H216.061V69.1217H214.161V67.3177ZM214.161 69.9304H216.061V77.0512H214.161V69.9304ZM214.161 77.8599H216.061V79.664H214.161V77.8599ZM214.161 82.1938V80.4727H216.061V82.1938V87.5935H214.161V82.1938ZM214.161 88.3109H216.061V90.2145H214.161V88.3109ZM214.161 90.9237H216.061V98.1398H214.161V90.9237ZM214.161 98.8532H216.061V100.757H214.161V98.8532ZM206.24 46.2291H213.444V48.1327H206.24V46.2291ZM206.24 48.8418H213.444V56.058H206.24V48.8418ZM206.24 56.7713H213.444V58.6749H206.24V56.7713ZM206.24 64.7879V59.3882H213.444V64.7879V66.509H206.24V64.7879ZM206.24 67.3177H213.444V69.1217H206.24V67.3177ZM206.24 69.9304H213.444V77.0512H206.24V69.9304ZM206.24 77.8599H213.444V79.664H206.24V77.8599ZM203.631 56.7713H205.532V58.6749H203.631V56.7713ZM203.631 64.7879V59.3882H205.532V64.7879V66.509H203.631V64.7879ZM203.631 67.3177H205.532V69.1217H203.631V67.3177ZM203.631 69.9304H205.532V77.0512H203.631V69.9304ZM203.631 77.8599H205.532V79.664H203.631V77.8599ZM203.631 82.1938V80.4727H205.532V82.1938V87.5935H203.631V82.1938ZM203.631 88.3109H205.532V90.2145H203.631V88.3109ZM203.631 90.9237H205.532V98.1398H203.631V90.9237ZM203.631 98.8532H205.532V100.757H203.631V98.8532Z" fill="#C0A9A8"/>
<path opacity="0.1" d="M210.521 61.0559C210.525 61.0309 210.538 60.9975 210.538 60.985C210.525 60.9766 210.521 61.0017 210.521 61.0559Z" fill="black"/>
<path d="M232.979 25.3889C234.122 22.9088 236.938 18.5916 236.938 15.5766V10.2018L225.195 3.93945L219.361 6.74712L217.146 10.2018V21.3702C217.146 26.4754 221.278 30.6185 226.371 30.6185C228.458 30.6185 231.99 27.5371 232.979 25.3889Z" fill="#856451"/>
<path d="M232.979 35.5912V23.0583H221.986V35.5912C224.152 41.8079 232.979 38.5192 232.979 35.5912Z" fill="#856451"/>
<path d="M233.331 21.9801L232.979 25.3891V26.4923C234.167 24.514 236.557 22.1833 236.937 16.1284C237.231 11.4213 237.12 9.65041 235.857 7.38603C232.25 0.91637 225.535 1.34353 221.986 2.78262C219.129 3.94384 215.97 4.91844 215.97 8.56799C215.97 9.88266 217.274 10.8075 217.274 10.8075C217.274 10.8075 223.402 7.97494 228.789 10.061C231.277 11.0231 231.923 14.034 231.899 14.569L231.961 16.8168H233.36C233.36 16.8168 233.836 15.4565 234.623 15.4565C235.207 15.4565 235.849 15.4109 235.683 17.273C235.256 22.1501 233.331 21.9801 233.331 21.9801Z" fill="#302A2A"/>
<path opacity="0.1" d="M221.986 29.4861V30.5354C221.986 30.5354 226.238 32.9283 230.097 28.8972C230.101 28.8931 225.617 31.5846 221.986 29.4861Z" fill="black"/>
<path opacity="0.1" d="M244.225 55.2986L241.703 79.9414L242.838 94.0917V105.969L245.844 106.069L245.314 94.2244L243.931 80.9533L244.626 59.396L244.225 55.2986Z" fill="black"/>
<path d="M235.716 33.3766L232.983 30.0671C232.983 30.0671 232.652 33.0531 230.54 35.3548C229.522 36.4663 226.102 39.0956 226.102 39.0956L230.135 43.33C230.135 43.33 233.149 39.6721 233.89 38.2206C235.198 35.6659 235.716 33.3766 235.716 33.3766Z" fill="#E9E2DF"/>
<path d="M219.361 33.8812C219.361 33.8812 219.05 35.4779 219.733 38.0907C220.077 39.4053 221.816 43.1046 221.816 43.1046L226.102 39.0943C226.102 39.0943 223.311 35.9217 222.731 34.7314C221.907 33.0518 221.986 30.5344 221.986 30.5344L219.361 33.8812Z" fill="#E9E2DF"/>
<path opacity="0.1" d="M212.832 106.227C212.832 106.227 212.956 87.7344 212.397 81.8246C211.838 75.9148 210.099 57.5178 210.099 57.5178L207.615 52.6697L209.296 57.9325L211.101 81.3933L209.602 106.223H212.832V106.227Z" fill="black"/>
<path opacity="0.1" d="M256.216 102.68L255.065 74.7572L252.638 43.0435L253.512 74.2347L253.268 102.73L256.216 102.68Z" fill="black"/>
<path opacity="0.1" d="M206.53 103.871L208.476 104.062L211.047 82.314L206.53 103.871Z" fill="black"/>
<path d="M130.647 203.214L122.146 203.255L118.217 206.983C113.878 208.228 113.244 212.226 113.244 212.226H132.021C132.754 207.448 130.647 203.214 130.647 203.214Z" fill="#2F2B27"/>
<path d="M171.923 207.232L167.994 203.504L159.494 203.463C159.494 203.463 157.382 207.693 158.119 212.475H176.896C176.896 212.479 176.267 208.477 171.923 207.232Z" fill="#2F2B27"/>
<path d="M123.951 145.584L121.293 203.313L131.574 204.271L138.538 157.801L144.969 120.157L151.395 157.801L158.359 204.271L167.899 203.313L165.982 145.584L164.963 99.0105L146.836 96.1241L146.881 95.5227L145.61 95.9291L143.051 95.5227L143.138 96.7213L124.485 102.71L123.951 145.584Z" fill="#544B3F"/>
<path opacity="0.1" d="M123.951 145.584L121.67 195.139C122.175 190.117 122.809 185.098 123.103 180.093C123.666 170.488 123.844 160.858 124.738 151.274C125.425 143.921 127.251 117.814 128.125 114.662C130.779 105.053 141.01 104.282 150.678 104.808C165.025 105.588 163.05 117.909 164.073 126.154C164.491 129.501 165.17 132.752 165.539 136.053C165.543 136.074 165.547 136.095 165.551 136.116C165.65 136.655 165.729 137.198 165.812 137.737L164.963 99.0105L146.84 96.1241L146.881 95.5227L145.614 95.9291L143.056 95.5227L143.143 96.7213L124.486 102.706L123.951 145.584Z" fill="black"/>
<path d="M164.814 34.2021C138.269 25.8164 120.362 36.1181 120.362 36.1181L125.061 70.851L124.482 102.71H165.179C164.938 100.313 165.344 73.9656 165.344 73.9656L164.814 34.2021Z" fill="#C4C4C4"/>
<path opacity="0.1" d="M137.3 80.5182C148.119 78.0963 154.574 76.7526 165.348 73.6836L160.976 52.3379C158.74 54.9506 160.611 59.9273 158.181 60.736C148.724 63.8837 131.856 63.3695 127.438 59.7614C126.436 58.9403 126.241 56.3441 125.608 52.7111L125.061 70.8511L124.481 102.71C124.871 102.519 126.688 84.313 128.427 83.442C130.543 82.3845 135.069 81.0159 137.3 80.5182Z" fill="black"/>
<path d="M128.047 80.9118C133.781 80.5842 157.113 75.1638 157.113 75.1638L156.264 68.9346L126.37 68.6941L120.42 36.1177C120.42 36.1177 117.791 38.5148 117.791 42.3468C117.791 46.1788 117.087 74.7905 117.803 75.7485C118.523 76.7065 118.619 81.4509 128.047 80.9118Z" fill="#C4C4C4"/>
<path opacity="0.1" d="M132.431 73.2975C134.568 73.397 153.821 76.7272 158.988 76.2254L156.268 68.9346L126.374 68.6941L125.086 61.6396C124.556 64.0658 122.693 66.1477 119.488 66.1477C118.751 66.1477 118.084 66.0357 117.488 65.8366C117.476 69.9673 117.513 73.426 117.658 74.9398C119.861 75.9766 128.419 73.115 132.431 73.2975Z" fill="black"/>
<path d="M122.399 62.7055C121.231 62.8797 117.646 63.8419 117.646 63.8419L115.314 66.8984C115.314 66.8984 115.136 67.5951 115.584 68.0347C115.584 68.0347 115.493 70.3032 115.944 70.7428C115.944 70.7428 116.035 72.7501 116.929 72.663L117.559 72.8372C117.559 72.8372 117.111 74.8444 118.188 74.7573C119.265 74.6703 120.697 73.1856 120.697 73.1856L127.512 72.4017C127.512 72.4017 129.752 71.4396 130.651 70.4816L135.942 70.3945L135.226 63.9331L131.011 63.2364L127.065 60.5282L120.072 58.521C120.072 58.521 119.534 59.7444 121.057 60.5282C122.581 61.3121 123.297 62.013 123.297 62.013C123.297 62.013 123.562 62.5314 122.399 62.7055Z" fill="#F8C5AC"/>
<path opacity="0.1" d="M118.184 74.7539C119.26 74.6668 120.693 73.1821 120.693 73.1821L127.508 72.3982C127.508 72.3982 129.748 71.4361 130.647 70.4781L135.938 70.391L135.835 69.4703C135.727 69.4827 135.62 69.4993 135.508 69.5076C132.361 69.7233 129.136 69.6403 126.113 70.644C122.291 71.9172 119.252 72.1494 116.014 69.3749C115.857 69.2422 115.712 69.0971 115.58 68.9478C115.6 69.632 115.679 70.4864 115.94 70.7394C115.94 70.7394 116.031 72.7466 116.925 72.6595L117.555 72.8337C117.555 72.8337 117.107 74.841 118.184 74.7539Z" fill="black"/>
<path d="M134.564 71.7008C134.564 71.7008 159.266 78.1 164.827 78.1C170.387 78.1 171.104 68.578 171.104 67.8605C171.104 67.143 169.178 44.267 168.64 40.1322C168.102 36.0016 164.777 34.2058 164.777 34.2058L159.672 49.8325L160.876 64.0865L134.559 63.1866V71.7008H134.564Z" fill="#C4C4C4"/>
<path d="M149.755 30.8842L149.184 20.8147L137.885 23.6887L137.147 30.6104C136.791 34.3305 139.71 37.5529 143.441 37.5529C147.064 37.557 149.946 34.5088 149.755 30.8842Z" fill="#F8C5AC"/>
<path opacity="0.1" d="M149.503 26.4671L149.18 20.8186L137.88 23.6926L137.508 27.1763C138.174 27.6491 139.127 30.3157 139.731 30.9171C145.035 36.2006 148.509 29.2126 149.503 26.4671Z" fill="black"/>
<path d="M135.793 23.8712C137.164 26.0526 139.201 27.9355 139.598 28.2963C140.327 29.1713 141.544 29.7105 143.503 29.7105C145.565 29.7105 146.761 29.2211 147.457 28.4207L147.469 28.4497C147.469 28.4497 149.689 26.2932 151.212 23.8671C152.082 22.4819 152.612 17.4637 152.885 15.1081C152.964 12.4 153.311 13.3539 153.311 12.1304C153.311 6.77221 149.08 2.93604 143.499 2.93604C137.917 2.93604 133.88 7.27817 133.88 12.6364C133.88 13.2751 133.951 13.9096 134.071 14.5358L134.1 14.963C134.112 14.9671 134.518 21.8391 135.793 23.8712Z" fill="#F8C5AC"/>
<path d="M135.106 21.4038C136.005 21.043 134.423 15.2162 134.423 15.2162C134.423 15.2162 133.081 14.2291 132.812 15.1291C132.543 16.029 133.529 18.8118 133.62 19.3509C133.711 19.8859 134.208 21.7646 135.106 21.4038Z" fill="#F8C5AC"/>
<path d="M153.37 19.3511C153.461 18.812 154.446 16.0292 154.177 15.1292C153.908 14.2293 152.832 15.1292 152.832 15.1292C152.832 15.1292 151.126 21.1468 152.024 21.5077C152.918 21.8643 153.279 19.8861 153.37 19.3511Z" fill="#F8C5AC"/>
<path d="M150.571 8.43528C151.738 9.15275 152.024 17.3518 152.024 17.3518C152.831 16.4809 153.622 12.823 153.668 11.6535C153.8 8.18645 153.138 5.76862 152.831 5.28339C152.376 4.56178 152.794 2.38034 149.602 1.30206C148.273 0.854163 144.174 -0.211672 141.317 0.0371608C138.456 0.285994 134.071 3.10196 133.454 5.90548C132.709 9.29375 133.963 14.6768 134.05 15.216C134.141 15.7551 135.479 17.2689 135.479 17.2689C135.479 17.2689 135.309 10.9526 136.932 8.51822C138.298 6.46535 149.403 7.71781 150.571 8.43528Z" fill="#C47939"/>
<path d="M155.026 59.8437L150.674 63.5845L162.582 64.1693L160.409 59.4829L155.026 59.8437Z" fill="#F8C5AC"/>
<path d="M144.886 30.5395C146.695 30.5395 148.165 28.8101 148.165 26.9978V25.0735H139.689V27.3296C139.689 29.0963 141.122 30.5395 142.886 30.5395H144.886Z" fill="#C47939"/>
<path d="M146.335 23.7217H140.87C140.87 25.6958 142.091 27.2924 143.602 27.2924C145.114 27.2924 146.335 25.6958 146.335 23.7217Z" fill="#F8C5AC"/>
<path d="M148.882 25.5336C148.882 23.9038 147.474 22.5808 145.735 22.5808H143.424C143.424 24.2107 144.832 25.5336 146.571 25.5336H148.882Z" fill="#C47939"/>
<path d="M143.785 22.5811H141.474C139.739 22.5811 138.327 23.904 138.327 25.5339H140.638C142.377 25.5339 143.785 24.2151 143.785 22.5811Z" fill="#C47939"/>
<path d="M141.056 36.1186C138.058 33.4312 137.238 29.6614 137.238 29.6614L134.568 31.5981C134.489 35.679 138.332 38.777 138.332 38.777L141.056 36.1186Z" fill="#F7F8F9"/>
<path d="M140.393 36.7729C141.118 37.1337 141.843 37.3494 141.843 37.3494L141.052 36.1177L140.393 36.7729Z" fill="#D5DEE2"/>
<path d="M152.418 31.4488L149.668 29.6614C149.668 29.6614 148.844 33.4312 145.851 36.1186L148.579 38.777C148.579 38.777 152.496 35.5256 152.418 31.4488Z" fill="#F7F8F9"/>
<path d="M145.06 37.3494C145.06 37.3494 145.789 37.1337 146.509 36.7729L145.851 36.1177L145.06 37.3494Z" fill="#D5DEE2"/>
<path d="M300.42 103.635C300.213 105.045 299.923 113.65 299.683 118.448C299.422 123.69 300.552 154.89 300.552 154.89L305.658 205.793L312.738 205.532C312.738 205.532 315.363 175.257 313.968 163.844C313.268 158.129 312.879 150.17 312.879 150.17L315.669 103.763L300.42 103.635Z" fill="#F0C6A8"/>
<path opacity="0.06" d="M300.42 103.635C300.213 105.045 299.923 113.65 299.683 118.448C299.546 121.144 299.782 130.687 300.039 139.33C300.105 139.35 300.171 139.355 300.238 139.384C304.755 141.063 307.33 143.597 308.129 148.441C309.297 155.512 311.011 161.808 311.744 168.945C312.539 176.692 312.295 184.489 312.622 192.261C312.742 195.11 312.941 197.951 313.106 200.787C313.777 191.804 315.011 172.462 313.959 163.852C313.26 158.137 312.87 150.179 312.87 150.179L315.661 103.771L300.42 103.635Z" fill="black"/>
<path d="M328.666 103.767H312.75L314.241 117.137L317.81 152.621L326.629 205.797L333.709 204.225C333.709 204.225 332.376 167.87 332.053 164.897C331.507 159.833 330.438 151.223 330.438 147.553C330.438 145.957 330.964 121.073 330.964 115.304C330.964 110.913 329.412 105.911 328.666 103.767Z" fill="#F0C6A8"/>
<path opacity="0.06" d="M328.666 103.767H312.75L314.241 117.137L316.485 139.458C316.708 139.458 316.944 139.487 317.197 139.57C321.839 141.117 325.279 143.365 326.993 148.134C329.482 155.06 328.633 162.251 329.937 169.455C331.022 175.435 332.861 198.199 333.705 204.225C333.316 194.255 332.219 166.477 332.049 164.897C331.502 159.833 330.434 151.223 330.434 147.553C330.434 145.957 330.96 121.073 330.96 115.304C330.964 110.913 329.411 105.911 328.666 103.767Z" fill="black"/>
<path d="M334.115 204.155L326.497 204.487L320.667 208.373C315.88 209.011 315.661 212.229 315.661 212.229H335.598C336.136 207.9 334.115 204.155 334.115 204.155Z" fill="#E9E2DF"/>
<path d="M320.795 208.286L320.671 208.369C315.885 209.007 315.665 212.225 315.665 212.225H326.323C326.244 212.072 326.165 211.919 326.108 211.749C325.122 208.987 323.648 208.219 320.795 208.286Z" fill="#C0A9A8"/>
<path d="M316.39 210.517C315.719 211.408 315.661 212.229 315.661 212.229H335.598C335.668 211.645 335.693 211.072 335.684 210.517H316.39Z" fill="#C0A9A8"/>
<path d="M312.999 204.221L305.397 204.353L296.018 208.48C291.232 209.119 291.013 212.225 291.013 212.225H315.028C315.558 207.899 312.999 204.221 312.999 204.221Z" fill="#E9E2DF"/>
<path d="M299.103 209.949C298.718 209.007 298.205 208.443 297.008 208.286C296.88 208.269 296.755 208.236 296.627 208.211L296.014 208.481C291.228 209.119 291.008 212.225 291.008 212.225H299.438C299.438 211.811 299.422 211.396 299.36 210.994C299.401 211.238 298.979 209.65 299.103 209.949Z" fill="#C0A9A8"/>
<path d="M315.061 210.251H292.006C291.079 211.23 291.004 212.225 291.004 212.225H315.019C315.106 211.549 315.11 210.89 315.061 210.251Z" fill="#C0A9A8"/>
<path d="M327.9 83.6448H302.606C302.606 83.6448 297.898 95.8169 297.53 115.159L297.173 138.43H334.893C334.893 138.43 334.777 116.47 334.488 107.972C334.198 99.4747 327.9 83.6448 327.9 83.6448Z" fill="#2F2B27"/>
<path opacity="0.1" d="M334.798 126.042C334.732 119.568 334.633 112.149 334.488 107.977C334.198 99.4747 327.9 83.6448 327.9 83.6448H302.606C302.606 83.6448 300.08 90.8817 298.581 101.561C308.784 103.186 321.056 103.439 327.884 112.377C331.002 116.449 333.221 121.156 334.798 126.042Z" fill="black"/>
<path d="M337.158 48.9993C336.604 47.8007 334.923 44.964 331.064 44.0682L321.329 41.02C321.441 44.0973 319.288 47.2533 314.849 47.2533C311.703 47.2533 309.703 45.6566 308.846 43.6286C308.817 43.5706 308.796 43.5166 308.771 43.4586C308.771 43.4544 308.767 43.4503 308.767 43.4461C308.506 42.8614 308.336 42.2434 308.27 41.6131L300.238 44.1221C297.29 44.8728 295.646 46.7556 294.818 48.0952L294.457 48.738C294.209 49.2274 294.101 49.5508 294.101 49.5508L292.996 57.0656C294.938 57.7997 295.931 57.8909 299.19 59.612C298.908 61.5612 298.784 63.0293 298.784 63.0293V63.4109C298.784 65.472 300.917 79.6431 300.391 83.6493C300.064 86.1376 297.898 100.723 297.898 100.723H333.312C333.312 100.723 330.037 83.471 329.648 80.3854C328.993 75.1973 329.701 61.0345 329.701 61.0345C331.507 55.8214 337.158 48.9993 337.158 48.9993Z" fill="#E9E2DF"/>
<path opacity="0.05" d="M300.892 59.0938C300.627 58.3971 301.049 72.987 300.328 72.9912C300.138 72.9912 299.964 72.9704 299.798 72.9372C300.258 77.1964 300.651 81.6671 300.391 83.6495C300.337 84.0684 300.229 84.79 300.088 85.6899C308.518 85.748 317.449 86.0922 325.403 88.9911C327.333 89.692 329.701 91.3758 331.809 92.649C330.889 88.0912 329.85 82.0445 329.643 80.3898C328.989 75.2016 329.697 61.0389 329.697 61.0389C331.506 55.8258 337.158 49.0036 337.158 49.0036C337.071 48.817 336.951 48.5848 336.806 48.3276C330.79 54.0964 329.014 61.2545 325.764 70.4862C323.432 77.1135 311.313 73.1985 304.564 73.0824C298.581 72.9787 302.386 63.0005 300.892 59.0938Z" fill="black"/>
<path d="M314.725 38.154C317.748 38.2162 324.087 34.6247 324.182 30.0337L327.416 21.2333L305.898 15.7217L306.275 28.068C306.175 32.6589 309.599 38.0503 314.725 38.154Z" fill="#F0C6A8"/>
<path d="M321.516 42.4914L322.004 31.4183L310.949 30.929L310.461 42.002C310.341 44.735 312.353 47.2856 315.409 47.4224C315.409 47.4224 321.396 45.2244 321.516 42.4914Z" fill="#F0C6A8"/>
<path opacity="0.1" d="M310.713 36.3079L310.655 37.6225C310.655 37.6225 314.605 39.833 318.419 36.5733C318.419 36.5733 313.285 39.5469 310.713 36.3079Z" fill="black"/>
<path d="M318.899 19.5494C320.708 19.5742 322.153 20.9096 322.12 22.5271L322.096 23.8085L323.073 23.8293C323.073 23.8293 323.127 22.6681 323.946 22.6846C324.555 22.6971 325.329 22.7593 325.296 24.5011C325.201 29.2746 323.176 28.9718 323.176 28.9718L321.47 35.1387C324.762 33.3554 327.896 25.1357 327.934 21.8262C328.079 9.66653 316.423 10.1476 316.423 10.1476C316.423 10.1476 316.614 17.8573 315.533 19.3337L318.899 19.5494Z" fill="#302A2A"/>
<path d="M309.811 17.4144C312.204 20.1723 318.969 19.5129 318.969 19.5129L316.634 10.2356H314.332C304.059 10.5591 304.449 19.0153 304.449 19.0153C304.577 23.0961 306.08 24.8628 306.08 24.8628C305.985 21.7732 309.811 17.4144 309.811 17.4144Z" fill="#302A2A"/>
<path d="M329.399 16.866C327.217 14.7426 325.275 17.9775 325.275 17.9775C329.54 19.6571 325.71 28.2045 325.71 28.2045C331.523 29.0257 331.581 18.9894 329.399 16.866Z" fill="#302A2A"/>
<path d="M321.573 39.0793C321.573 39.0793 314.183 47.2825 314.166 47.4028L317.536 51.1975L324.679 41.9907L321.573 39.0793Z" fill="#F7F8F9"/>
<path d="M310.386 39.7427L306.233 42.4135L311.181 51.1973L314.551 47.4026C314.539 47.2823 310.386 39.7427 310.386 39.7427Z" fill="#F7F8F9"/>
<path d="M335.717 46.8259C332.471 46.6849 330.633 51.6326 329.929 54.6061C329.221 57.5755 327.395 75.9228 327.395 75.9228L305.897 77.1463L304.353 82.3013C304.353 82.3013 327.892 86.5729 332.127 86.4319C336.363 86.2909 336.715 76.9099 337.705 73.7995C338.694 70.689 337.837 59.9768 338.259 55.0291C338.682 50.0815 335.717 46.8259 335.717 46.8259Z" fill="#E9E2DF"/>
<path opacity="0.05" d="M335.593 82.9275C336.736 79.8876 337.104 75.6906 337.705 73.7994C337.775 73.5755 337.837 73.3059 337.891 73.0073C334.74 73.7663 331.564 74.4091 328.471 75.3961C328.095 75.5164 327.751 75.533 327.44 75.4791C327.411 75.7611 327.395 75.9187 327.395 75.9187L305.897 77.1421L304.353 82.2971C304.353 82.2971 307.93 82.9482 312.547 83.7279C320.211 82.7035 327.883 82.8653 335.593 82.9275Z" fill="black"/>
<path d="M338.467 72.3318L335.291 71.7678L330.844 72.0498L325.9 74.9487L319.901 75.5833C318.207 76.3629 320.182 81.3106 320.182 81.3106L326.393 80.9581C326.393 80.9581 332.111 82.3018 334.016 82.4428C335.92 82.5838 336.061 81.8787 336.488 81.3811C336.91 80.8876 336.98 79.6849 336.98 79.6849L337.829 78.8347C337.97 78.2707 337.829 77.7025 337.829 77.7025C338.463 77.209 338.04 75.8653 338.04 75.8653C339.241 75.0856 338.322 74.0986 338.322 74.0986C338.322 74.0986 338.04 74.3806 338.533 73.746C339.03 73.1115 338.467 72.3318 338.467 72.3318Z" fill="#F0C6A8"/>
<path d="M294.105 49.5509C294.105 49.5509 290.217 61.4202 289.944 79.5643C289.886 83.2512 291.029 85.3456 294.462 85.3621C304.353 85.4078 324.683 81.0573 324.683 81.0573L323.971 75.1558L299.451 74.9485L301.045 61.3788C301.041 61.3746 300.743 46.2953 294.105 49.5509Z" fill="#E9E2DF"/>
<path d="M290.851 70.6688C290.851 70.6688 290.851 71.378 291.062 71.5895C291.273 71.801 293.393 70.955 293.393 70.955L292.122 71.8756C292.122 71.8756 290.851 72.4397 290.921 72.8668C290.991 73.2899 291.699 73.7875 292.122 73.7875C292.544 73.7875 296.13 74.8865 297.401 75.0275C298.672 75.1685 300.763 75.1063 305.276 75.0192L301.086 69.1924L297.132 66.646L292.047 67.2805C292.047 67.2805 292.118 68.4127 293.107 68.4832C294.097 68.5537 295.861 68.3422 295.861 68.3422L296.353 68.8357L292.54 69.2587L290.851 70.6688Z" fill="#F0C6A8"/>
<g opacity="0.5">
<path opacity="0.5" d="M319.085 25.0235C319.595 23.0038 318.617 22.5186 315.831 22.7135C313.09 22.9001 312.709 23.5098 312.717 24.3475C312.746 26.9271 314.663 27.6653 315.636 27.7938C317.872 28.08 318.588 26.9851 319.085 25.0235Z" fill="#E3F3F4"/>
</g>
<g opacity="0.5">
<path opacity="0.5" d="M308.821 28.0346C309.757 27.8438 311.599 26.9729 311.5 24.4016C311.467 23.568 311.061 23.004 308.39 23.0828C305.757 23.1616 304.879 23.7173 305.442 25.6084C305.993 27.4581 306.713 28.4659 308.821 28.0346Z" fill="#E3F3F4"/>
</g>
<path d="M304.564 23.701L304.598 24.1613C304.602 24.2443 304.672 24.3106 304.751 24.3065L304.813 24.3023C304.813 24.3023 305.02 24.3562 305.061 24.6756C305.07 24.7253 305.078 24.7709 305.086 24.8041C305.103 25.0571 305.157 25.3391 305.256 25.6585C305.753 27.309 306.411 28.379 308.059 28.321C308.303 28.3127 308.572 28.2795 308.858 28.2214C310.104 27.9643 311.529 26.9648 311.682 24.9451L311.69 24.9617C311.69 24.9327 311.69 24.9078 311.69 24.8829C311.694 24.8041 311.699 24.7212 311.699 24.6382C311.744 24.1489 311.951 24.0825 312.046 24.0784V24.0825C312.046 24.0825 312.055 24.0784 312.071 24.0784C312.088 24.0784 312.096 24.0825 312.096 24.0825V24.0784C312.208 24.0701 312.477 24.1157 312.535 24.6963C312.539 24.7295 312.539 24.7627 312.543 24.7917C312.547 24.8332 312.547 24.8788 312.547 24.9285L312.556 24.8995C312.808 26.9151 314.307 27.8192 315.603 27.9892C315.905 28.0265 316.187 28.0431 316.444 28.0348C318.187 27.9726 318.837 26.8197 319.284 25.0654C319.367 24.7461 319.408 24.4641 319.416 24.2111C319.429 24.1696 319.441 24.1074 319.45 24.0244C319.479 23.6885 319.702 23.6139 319.702 23.6139L319.772 23.6097C319.859 23.6056 319.93 23.5309 319.934 23.4438L319.946 22.9586C319.951 22.8715 319.88 22.801 319.793 22.8052C319.793 22.8052 318.464 22.4112 316.845 22.4568L316.862 22.4609C316.655 22.4609 316.431 22.4651 316.191 22.4775C316.075 22.4817 315.955 22.49 315.831 22.4983C314.746 22.5729 313.972 22.7098 313.45 22.942C313.371 22.9752 313.272 23.0167 313.16 23.0664C312.858 23.2074 312.336 23.419 312.063 23.4438C311.794 23.448 311.309 23.2862 311.003 23.1743C310.904 23.1369 310.812 23.1079 310.734 23.0872C310.208 22.9047 309.446 22.8466 308.386 22.8757C308.27 22.8798 308.154 22.884 308.042 22.8881C307.79 22.9006 307.554 22.9171 307.339 22.942L307.363 22.9296C305.844 23.0416 304.635 23.5434 304.635 23.5434L304.647 23.5517C304.593 23.5807 304.56 23.6388 304.564 23.701ZM315.835 22.9254C315.955 22.9171 316.071 22.9088 316.187 22.9047C317.648 22.8342 318.456 22.9959 318.799 23.4314C319.048 23.7466 319.077 24.2443 318.891 24.9866C318.477 26.6372 317.947 27.5869 316.452 27.6408C316.216 27.6491 315.955 27.6367 315.673 27.5994C315.218 27.5413 312.949 27.11 312.92 24.3438C312.912 23.6761 313.123 23.1079 315.835 22.9254ZM305.629 24.0493C305.923 23.6014 306.672 23.3692 308.055 23.2987C308.163 23.2945 308.274 23.2904 308.39 23.2862C311.032 23.2074 311.272 23.7507 311.297 24.4101C311.409 27.1597 309.214 27.7528 308.775 27.8399C308.506 27.8938 308.258 27.927 308.034 27.9353C306.618 27.985 306.08 27.1058 305.616 25.5506C305.413 24.858 305.417 24.377 305.629 24.0493Z" fill="#2F2B27"/>
<path d="M323.234 23.4105L319.719 22.9253L319.768 23.6096L323.139 23.8626L323.234 23.4105Z" fill="#2F2B27"/>
<path d="M192.286 16.3149C192.44 11.4171 188.61 7.32377 183.724 7.16618L178.428 7.00029C173.546 6.84684 169.464 10.6913 169.307 15.5892L168.433 40.0246L193.524 41.2688L192.286 16.3149Z" fill="#CE982B"/>
<path d="M179.38 212.47C183.67 212.47 186.514 212.486 190.104 212.47C190.8 212.465 191.375 211.798 191.392 211.101C191.499 206.63 190.104 202.736 190.104 202.736L182.026 202.359C182.026 202.359 178.237 207.543 177.231 207.667C171.31 208.409 172.689 212.47 172.689 212.47C172.689 212.47 173.828 212.47 179.38 212.47Z" fill="#E6EBEE"/>
<path d="M191.396 211.101C191.47 207.95 191.607 207.929 191.205 206.51C189.441 208.24 187.794 210.89 187.628 212.478C188.431 212.478 189.247 212.474 190.108 212.47C190.8 212.466 191.379 211.798 191.396 211.101Z" fill="#544B3F"/>
<path d="M179.38 212.47C179.86 212.47 181.529 212.47 181.976 212.47C181.864 211.408 180.767 207.721 177.546 207.522C177.426 207.597 177.318 207.655 177.231 207.663C171.31 208.406 172.689 212.466 172.689 212.466C172.689 212.466 173.828 212.47 179.38 212.47Z" fill="#544B3F"/>
<path d="M196.124 94.1747C184.589 94.3904 173.062 94.5687 161.584 93.4614L157.8 119.688C157.8 119.688 152.161 153.58 151.362 157.992C150.562 162.405 147.958 202.737 147.958 202.737L156.794 203.114C156.794 203.114 160.098 187.027 161.589 177.074C162.346 172.018 162.673 159.871 163.357 157.984C164.872 153.783 176.043 123.417 177.687 118.954C179.082 132.694 181.451 156.275 181.451 158.253C181.451 161.061 181.848 202.351 181.848 202.351L190.241 202.981C193.586 179.786 195.098 163.856 194.671 159.456C194.555 158.258 194.27 148.624 194.27 148.624C194.27 148.624 198.377 111.983 198.319 109.175C198.157 101.876 197.006 96.9326 196.124 94.1747Z" fill="#C0A9A8"/>
<path opacity="0.2" d="M196.124 94.1747C184.589 94.3904 173.062 94.5687 161.584 93.4614L160.645 99.9643C167.008 99.4542 173.625 99.7528 179.583 101.412C183.31 102.453 187.057 104.315 189.057 107.794C191.081 111.324 191.495 115.587 191.603 119.581C191.702 123.421 191.305 127.232 191.181 131.064C190.994 136.758 191.119 142.465 190.957 148.163C190.597 160.891 189.479 173.511 187.38 186.069C186.411 191.871 184.788 197.507 181.844 202.318C181.844 202.338 181.844 202.355 181.844 202.355L190.237 202.985C193.582 179.79 195.094 163.86 194.667 159.46C194.551 158.262 194.265 148.628 194.265 148.628C194.265 148.628 198.373 111.987 198.315 109.179C198.157 101.876 197.006 96.9326 196.124 94.1747Z" fill="black"/>
<path opacity="0.2" d="M163.352 157.988C164.868 153.787 176.039 123.421 177.683 118.959C178.122 123.284 177.931 113.389 177.803 113.343C176.705 112.937 162.35 143.029 161.054 146.882C159.589 151.24 158.992 155.657 158.392 160.194C154.218 191.929 147.954 202.737 147.954 202.737L156.79 203.114C156.79 203.114 160.094 187.027 161.584 177.074C162.342 172.018 162.673 159.875 163.352 157.988Z" fill="black"/>
<path d="M166.383 38.6599C166.383 38.6599 160.702 39.6718 159.696 42.832C158.914 45.2789 155.278 53.4489 152.852 72.3892C152.256 77.0383 152.649 78.0709 154.674 79.087C156.699 80.1031 165.348 81.5629 175.749 82.3343L175.559 75.6324L162.127 71.8294L163.593 65.3597L166.383 38.6599Z" fill="#2F2B27"/>
<path d="M197.429 98.7038C197.429 98.7038 194.274 83.4088 194.796 71.9832C195.011 67.3176 199.069 39.7966 199.069 39.7966C199.069 39.7966 181.625 32.4063 163.386 39.7095L164.172 50.8407C164.172 50.8407 162.322 57.1362 161.949 59.1144C160.86 64.8583 162.955 67.0563 162.955 67.0563L160.322 100.595L197.429 98.7038Z" fill="#2F2B27"/>
<path opacity="0.1" d="M186.838 80.0867C179.327 82.7285 169.75 82.2225 161.87 80.9286L161.734 82.6829C165.382 81.7788 169.708 82.6787 173.787 83.757C179.153 85.1795 186.78 87.4356 190.485 92.1883C192.502 93.6937 193.471 96.5387 193.024 98.9275L197.429 98.7036C197.429 98.7036 194.274 83.4087 194.796 71.9831C194.907 69.4989 196.112 60.5409 197.214 52.7026C196.116 54.3366 192.278 51.9727 191.421 53.2003C188.324 57.642 189.09 67.1267 183.451 68.5409C180.875 69.1878 177.277 68.5823 174.656 68.5284C171.601 68.4662 168.549 68.433 165.497 68.2589C164.508 68.2008 163.688 67.4501 162.955 67.0562L162.794 69.1049C163.166 69.1173 163.543 69.1505 163.916 69.2169C169.949 70.2868 181.919 73.6502 187.765 71.5974C195.036 69.0468 194.03 77.5569 186.838 80.0867Z" fill="black"/>
<path d="M193.984 79.2908C201.685 65.8953 202.899 50.4718 203.102 45.5988C203.304 40.7259 198.642 39.7139 198.642 39.7139C193.375 38.9011 192.767 47.0213 192.767 47.0213L187.5 71.1747L168.947 69.7937C166.719 71.8217 167.307 75.0068 167.307 75.0068C167.307 75.0068 181.621 80.9166 186.486 81.1198C191.351 81.3188 193.984 79.2908 193.984 79.2908Z" fill="#2F2B27"/>
<path d="M168.483 70.2788L162.446 68.6489L159.726 71.3405L167.278 73.2855C167.278 73.2855 167.452 72.1036 167.597 71.6432C167.924 70.6064 168.483 70.2788 168.483 70.2788Z" fill="#F8C5AC"/>
<path d="M185.856 37.0839L184.568 27.9807L175.815 27.7029L175.463 38.7925C175.376 41.5297 177.517 43.819 180.246 43.9061C182.978 43.989 185.769 39.8211 185.856 37.0839Z" fill="#F8C5AC"/>
<path opacity="0.1" d="M179.695 35.8148C182.134 35.4043 183.479 34.4919 185.247 32.7832L184.568 27.9766L175.815 27.7029L175.596 34.6163C176.114 35.9766 177.538 36.1798 179.695 35.8148Z" fill="black"/>
<path d="M188.096 26.5754L188.415 16.5308L171.828 16.0042L171.509 24.4272C171.365 29.0223 173.634 34.2353 177.737 34.4551C184.072 34.7952 187.951 31.1705 188.096 26.5754Z" fill="#F8C5AC"/>
<path d="M186.697 33.6712L189.351 29.2669L189.852 16.2322L184.568 15.5686C184.568 15.5686 186.133 20.6407 186.307 26.3306C186.494 32.427 184.668 36.7028 184.668 36.7028L186.697 33.6712Z" fill="#CE9B25"/>
<path d="M187.984 18.082L188.084 14.984L182.68 14.814L182.631 16.3401C185.343 16.4272 185.405 18.9736 185.405 18.9736L187.984 18.082Z" fill="#CE9B25"/>
<path d="M171.969 37.1637C171.745 44.7075 175.952 46.5447 175.952 46.5447L178.763 43.6251C175.182 42.074 175.608 34.4556 175.608 34.4556L171.969 37.1637Z" fill="#F7F8F9"/>
<path d="M188.895 37.147L185.434 34.2646C185.434 34.2646 182.796 42.3144 178.706 43.6249L181.326 46.7187C181.326 46.7146 186.461 44.9935 188.895 37.147Z" fill="#F7F8F9"/>
<path d="M157.346 212.247C158.042 212.243 158.617 211.576 158.634 210.879C158.742 206.408 157.346 202.514 157.346 202.514L148.51 202.136C148.51 202.136 140.751 207.424 138.163 207.698C132.23 208.328 133.323 212.247 133.323 212.247C133.323 212.247 153.752 212.264 157.346 212.247Z" fill="#E6EBEE"/>
<path d="M158.205 211.117C158.242 209.575 158.097 208.106 157.894 206.837C157.104 207.07 156.329 207.36 155.584 207.721C153.361 208.803 152.686 210.479 152.011 212.49C154.259 212.49 156.06 212.486 156.913 212.482C157.609 212.482 158.188 211.814 158.205 211.117Z" fill="#544B3F"/>
<path d="M139.814 209.672C139.814 209.663 139.805 209.634 139.785 209.584C139.797 209.613 139.805 209.642 139.814 209.672Z" fill="#DE5B3A"/>
<path d="M139.292 208.625C139.188 208.459 139.089 208.294 138.986 208.128C138.977 208.119 138.977 208.115 138.969 208.107C138.932 208.061 138.741 207.883 138.584 207.734C138.261 207.837 137.975 207.908 137.735 207.933C131.802 208.563 132.895 212.482 132.895 212.482C132.895 212.482 136.211 212.486 140.406 212.486C140.331 211.549 140.166 210.637 139.814 209.683C139.822 209.757 139.358 208.75 139.292 208.625Z" fill="#544B3F"/>
<path d="M179.38 212.47C183.67 212.47 186.514 212.487 190.104 212.47C190.8 212.466 191.375 211.798 191.392 211.102C191.392 211.056 191.392 211.015 191.392 210.969H172.586C172.466 211.807 172.689 212.47 172.689 212.47C172.689 212.47 173.828 212.47 179.38 212.47Z" fill="#2D5970"/>
<path d="M156.918 212.47C157.614 212.466 158.189 211.798 158.206 211.102C158.206 211.056 158.206 211.01 158.206 210.969H132.916C132.717 211.798 132.895 212.47 132.895 212.47C132.895 212.47 153.324 212.487 156.918 212.47Z" fill="#2D5970"/>
<path d="M183.45 80.9331L175.662 79.3862L175.749 81.9534L179.041 81.6382L183.45 80.9331Z" fill="#F8C5AC"/>
<path opacity="0.1" d="M162.446 68.6485L162.823 68.7522L162.955 67.0601C162.955 67.0601 161.117 63.7963 161.729 60.5656C162.342 57.3349 162.864 54.3406 162.864 54.3406L164.172 50.8445C164.172 50.8445 161.278 56.1903 160.98 57.2893C158.773 65.4386 160.404 64.9658 160.715 65.7745C161.026 66.5832 159.721 71.3442 159.721 71.3442L162.446 68.6485Z" fill="black"/>
<path d="M75.8967 204.222L82.476 205.794L90.6742 151.871L93.9907 116.388L95.3778 103.017H80.5838C79.8923 105.161 78.4473 110.163 78.4473 114.555C78.4473 120.323 78.9359 145.207 78.9359 146.803C78.9359 150.474 77.9421 159.83 77.437 164.894C77.1389 167.867 75.8967 204.222 75.8967 204.222Z" fill="#856451"/>
<path opacity="0.1" d="M75.8967 204.222C75.8967 204.222 77.6192 185.14 78.5798 178.119C79.7515 169.592 79.9213 159.133 80.9067 150.59C81.2504 147.6 80.9274 141.731 81.652 138.832C82.5257 135.345 91.407 136.087 92.1151 136.46L93.9907 116.388L95.3778 103.017H80.5838C79.8923 105.161 78.4473 110.163 78.4473 114.555C78.4473 120.323 78.9359 145.207 78.9359 146.803C78.9359 150.474 77.9421 159.83 77.437 164.894C77.1389 167.867 75.8967 204.222 75.8967 204.222Z" fill="black"/>
<path d="M88.0202 208.373L82.6003 204.487L75.8969 204.226C75.8969 204.226 74.2655 208.775 74.1371 212.23H92.67C92.6742 212.23 92.4713 209.012 88.0202 208.373Z" fill="#856451"/>
<path d="M88.0203 208.373C88.0203 208.373 86.1612 208.916 83.2421 209.011C79.4867 209.132 74.6175 208.804 74.4436 208.775C74.3276 209.666 74.0254 211.234 74.1413 212.234H92.6742C92.6742 212.229 92.4713 209.011 88.0203 208.373Z" fill="#C0A9A8"/>
<path d="M97.2866 205.536L103.692 205.797L108.313 154.148C108.313 154.148 109.336 122.948 109.099 117.706C108.884 112.908 108.619 104.302 108.433 102.892L94.6409 103.025L97.1666 149.432C97.1666 149.432 96.8146 158.137 96.1811 163.852C94.9141 175.261 97.2866 205.536 97.2866 205.536Z" fill="#856451"/>
<path opacity="0.1" d="M107.555 136.506C108.011 136.522 108.425 136.597 108.826 136.692C109.037 128.593 109.211 120.203 109.1 117.706C108.884 112.908 108.619 104.302 108.433 102.892L94.6409 103.025L97.1666 149.432C97.1666 149.432 96.8146 158.137 96.1811 163.852C95.5269 169.75 95.8458 180.673 96.3054 189.864C96.355 189.237 96.3964 188.62 96.4213 188.018C96.7608 180.205 99.9821 154.052 99.361 146.65C98.9056 141.262 100.727 136.232 107.555 136.506Z" fill="black"/>
<path d="M112.416 208.481L103.609 204.346L97.3487 204.226C97.3487 204.226 94.8809 209.053 95.2122 212.226H116.942C116.946 212.23 116.751 209.123 112.416 208.481Z" fill="#856451"/>
<path d="M112.416 208.481L112.221 208.385C111.323 209.057 110.164 209.472 108.735 209.472C108.735 209.472 95.8167 208.667 95.4606 208.605C95.3116 209.497 95.1045 211.226 95.2163 212.226H116.946C116.946 212.23 116.751 209.123 112.416 208.481Z" fill="#C0A9A8"/>
<path d="M104.164 52.0811L106.785 84.6284C106.785 84.6284 107.766 91.0566 108.276 92.9726C109.091 96.0416 112.064 102.967 113.857 107.036C113.571 108.052 112.959 110.42 113.211 111.415C113.489 112.51 113.816 115.285 113.903 116.073L113.609 117.748L112.507 120.137C112.507 120.137 112.081 121.107 112.834 121.609L114.669 119.515L114.652 119.909L114.023 122.472C114.023 122.472 113.787 123.509 114.623 123.853L115.124 122.936L115.07 123.106C115.07 123.106 114.764 124.156 115.72 124.475L117.542 121.12L117.232 122.376C117.232 122.376 116.996 123.413 117.832 123.757L119.091 121.456L119.857 115.89L119.807 115.886C119.84 115.778 119.861 115.675 119.848 115.567C119.778 114.862 119.811 111.784 119.546 110.557C119.434 110.034 119.095 109.122 118.735 108.23L114.147 84.9146V52.6451L104.164 52.0811Z" fill="#856451"/>
<path opacity="0.1" d="M114.155 63.3408V52.6575L104.164 52.0811L106.785 84.6284C106.785 84.6284 107.766 91.0566 108.276 92.9726C109.091 96.0416 112.064 102.967 113.857 107.036C113.571 108.052 112.959 110.42 113.211 111.415C113.489 112.51 113.816 115.285 113.903 116.073L113.609 117.748L112.507 120.137C112.507 120.137 112.081 121.107 112.834 121.609L114.669 119.515L114.652 119.909L114.023 122.472C114.023 122.472 113.932 122.878 114.064 123.264C114.176 122.464 114.491 121.634 115.066 120.792C120.006 113.622 115.248 104.087 112.855 96.8503C111.261 92.0229 109.352 86.6689 109.468 81.5222C109.572 76.8897 111.824 72.6181 111.832 68.0064C111.845 65.8457 112.793 64.2863 114.155 63.3408Z" fill="black"/>
<path d="M113.613 49.2484C112.83 47.8259 111.269 45.8228 108.474 45.0224L94.3675 40.0748C94.3551 39.9835 93.1709 39.9835 93.1585 40.0748L79.234 44.9643C75.5738 45.9182 73.9755 48.9332 73.4497 50.2064L70.9199 60.5537C71.5202 60.7528 75.611 63.1831 80.53 63.7969L82.1903 87.9544L76.729 102.627C75.905 105.286 75.5324 111.822 75.6276 114.604L76.2363 134.47H110.727V112.547C110.727 110.37 110.495 104.44 110.031 102.312L106.259 87.9586L107.112 71.436C108.743 70.4283 109.849 68.5081 109.849 66.3184V65.9119C109.849 65.9119 109.749 64.6305 109.534 62.8472C112.076 62.0426 114.644 61.0265 115.078 60.8772L114.275 50.787H114.292L113.613 49.2484Z" fill="#C0A9A8"/>
<path d="M108.474 45.0215L107.688 44.7478H79.851L79.2341 44.9635C76.9526 45.5607 75.4703 46.9541 74.5511 48.2315H112.963C112.068 46.9914 110.648 45.6436 108.474 45.0215Z" fill="#E9E2DF"/>
<path d="M72.6549 53.4578L71.8019 56.9414H114.764L114.486 53.4578H72.6549Z" fill="#E9E2DF"/>
<path d="M74.4641 62.167C76.1286 62.8347 78.2361 63.5148 80.5299 63.7969L80.6583 65.6507H109.832C109.791 65.1903 109.7 64.1577 109.538 62.8513C110.234 62.6315 110.929 62.3951 111.584 62.167H74.4641Z" fill="#E9E2DF"/>
<path d="M107.112 71.4356C107.373 71.2739 107.617 71.0789 107.849 70.8757H81.0145L81.2547 74.3594H106.959L107.112 71.4356Z" fill="#E9E2DF"/>
<path d="M106.69 79.5845H81.6149L81.855 83.0681H106.512L106.69 79.5845Z" fill="#E9E2DF"/>
<path d="M82.0619 88.2942L80.7659 91.7779H107.261L106.346 88.2942H82.0619Z" fill="#E9E2DF"/>
<path d="M78.82 97.0034L77.524 100.487H109.551L108.636 97.0034H78.82Z" fill="#E9E2DF"/>
<path d="M76.1286 105.712C75.9837 106.807 75.8677 108.01 75.7849 109.196H110.64C110.594 108.064 110.524 106.845 110.437 105.712H76.1286Z" fill="#E9E2DF"/>
<path d="M110.727 117.906V114.422H75.6193C75.6193 114.48 75.6193 114.546 75.6235 114.604L75.7228 117.906H110.727Z" fill="#E9E2DF"/>
<path d="M110.727 123.131H75.8844L75.9921 126.614H110.727V123.131Z" fill="#E9E2DF"/>
<path d="M110.727 131.84H76.1534L76.2363 134.469H110.727V131.84Z" fill="#E9E2DF"/>
<path d="M107.592 44.7158L94.3635 40.0792C94.3511 39.9879 93.1669 39.9879 93.1545 40.0792L81.0021 44.3467C81.5114 45.5908 86.2398 47.963 87.5524 48.6722C93.8915 52.0812 107.12 48.4814 107.592 44.7158Z" fill="#856451"/>
<path opacity="0.1" d="M75.6237 114.604L76.2323 134.47H79.1389C79.1389 134.47 78.7083 118.988 79.0437 113.725C79.7352 102.976 81.7309 97.5221 84.6996 88.0415L84.7617 88.0291C84.7617 88.0249 84.7576 87.9586 84.7535 87.8673C84.7576 87.859 84.7576 87.8508 84.7617 87.8425H84.7535C84.7535 87.8134 84.7493 87.7844 84.7493 87.7471L84.7617 87.8425L84.857 70.984L83.4161 68.3381C83.267 66.7953 83.118 65.5885 82.9855 64.9664C82.8654 64.8959 80.613 63.8757 80.5012 63.801L82.1905 87.9669L76.7292 102.636C75.9052 105.282 75.5326 111.822 75.6237 114.604Z" fill="black"/>
<path d="M107.849 22.0464C108.106 12.7607 104.545 8.51397 96.4792 7.8048C84.4511 6.74726 79.0063 13.0676 78.7951 21.1796C78.5012 32.6674 83.9873 36.1262 92.0861 36.3377C100.181 36.545 107.468 35.9022 107.849 22.0464Z" fill="#302A2A"/>
<path d="M99.3568 38.8674C102.384 36.6154 104.11 33.0115 104.205 29.2375L104.342 23.9706C104.371 22.855 103.497 21.9219 102.384 21.8804L94.2723 21.5776C91.4071 21.4698 88.9601 23.6098 88.6661 26.4672C88.3431 29.5693 88.0947 33.1401 88.5005 34.2018C90.3057 38.9254 94.2061 42.6994 99.3568 38.8674Z" fill="#856451"/>
<path d="M99.3238 43.7948L99.477 33.3272L88.985 33.0576L88.8318 43.5252C88.7572 46.4324 91.2581 49.5304 94.1523 49.605C97.0507 49.6755 99.2493 46.6978 99.3238 43.7948Z" fill="#856451"/>
<path opacity="0.1" d="M99.3776 39.7675L99.4024 38.822C96.0817 40.6301 92.1027 38.1003 92.1027 38.1003C95.4897 41.8287 99.3776 39.7675 99.3776 39.7675Z" fill="black"/>
<path d="M80.5714 63.838L72.1869 60.7483C70.3237 72.9328 70.2988 83.5124 70.2988 83.5124L73.4704 106.915L71.8142 116.122L73.694 121.621L76.8118 124.831C76.8118 124.831 78.3438 125.802 78.3231 124.321C78.3148 123.857 76.9899 121.746 76.9526 120.634C76.8698 118.187 77.1306 114.55 77.1306 114.55C77.1306 114.55 78.0374 114.048 78.3562 115.293C78.675 116.537 79.4659 118.374 80.9233 118.146L79.7847 112.207L77.8055 106.928H77.7807L78.6419 83.6451L80.5714 63.838Z" fill="#856451"/>
<path opacity="0.1" d="M77.1886 62.5938L72.1869 60.7483C70.3237 72.9328 70.2988 83.5124 70.2988 83.5124L73.4704 106.915L71.8142 116.122L73.4332 120.858C72.8742 114.928 74.0543 108.732 73.9921 102.876C73.9425 98.4258 73.5491 93.9924 73.28 89.5507C73.0357 85.4864 73.6568 81.4927 73.574 77.445C73.458 71.9748 72.5264 66.2185 77.1886 62.5938Z" fill="black"/>
<path d="M118.362 119.398C119.107 118.776 119.294 115.044 119.294 115.044L116.892 109.752C116.892 109.752 116.167 112.058 116.892 114.235C117.617 116.412 117.236 118.838 117.236 118.838C117.236 118.838 117.617 120.02 118.362 119.398Z" fill="#856451"/>
<path d="M237.492 111.668L237.426 112.717H237.418L234.631 122.48L235.716 128.767L237.898 131.699C237.898 131.699 239.413 132.143 239.666 130.526C239.914 128.912 240.867 121.638 240.867 121.638C240.867 121.638 241.972 121.24 242.096 122.646C242.221 124.052 242.763 126.179 244.436 126.163L244.258 119.519L242.987 113.277L243.26 111.863C241.401 112.543 239.244 112.473 237.492 111.668Z" fill="#BD8B6F"/>
<path d="M284.946 104.8C284.806 104.829 248.464 105.036 248.274 104.904L247.785 124.147L249.4 156.615L253.541 203.288H261.478L262.993 157.416L265.42 123.351L267.233 123.268L270.877 156.263L277.879 203.292H285.534L284.847 156.101L285.634 122.442L284.946 104.8Z" fill="#6CBF84"/>
<path opacity="0.08" d="M284.946 104.8C284.901 104.808 281.087 104.837 275.941 104.866C276.231 105.339 247.467 112.327 248.096 112.423C259.039 114.135 280.665 113.721 280.839 117.905C281.075 123.591 279.82 155.172 280.326 164.661C280.847 174.453 281.526 200.211 281.866 203.292H285.534L284.847 156.101L285.634 122.442L284.946 104.8Z" fill="black"/>
<path opacity="0.08" d="M261.478 203.292L262.993 157.42L265.42 123.355C265.42 123.355 260.112 145.712 259.532 154.239C258.774 165.399 258.137 176.58 258.199 187.769C258.228 192.958 258.244 198.137 258.004 203.297H261.478V203.292Z" fill="black"/>
<path opacity="0.1" d="M282.798 60.2263L282.404 65.6675L280.839 87.0339L282.404 104.738L284.947 104.801L284.752 100.691L283.295 87.1584L283.97 65.4145L282.798 60.2263Z" fill="black"/>
<path d="M285.576 203.293H277.879L272.798 206.802C268.19 207.262 267.871 212.23 267.871 212.23H286.996C287.41 207.635 286.064 204.906 285.576 203.293Z" fill="#19313D"/>
<path d="M261.466 203.293H253.541L244.221 206.802C239.612 207.262 239.298 212.23 239.298 212.23H262.331C262.791 207.635 261.959 204.778 261.466 203.293Z" fill="#19313D"/>
<path d="M248.448 43.5375C243.798 44.7029 242.13 48.0538 241.678 49.2275H241.666L239.728 82.4509L236.875 113.373L243.413 114.675L248.332 86.3327C248.332 86.3327 249.078 71.8423 249.049 69.3125L249.401 87.0004L248.39 100.446H248.378L248.1 112.423C260.493 112.282 272.885 112.298 285.278 112.298L284.756 100.446H284.727L283.299 87.1621L283.324 86.37L293.377 87.7469C296.147 88.033 298.515 85.8308 298.333 83.131L297.803 80.1699L292.317 49.2233H292.304C291.853 48.0538 290.184 44.7029 285.535 43.5334L267.35 36.9185C267.345 36.8812 267.341 36.8439 267.337 36.8066C267.333 36.7858 267.341 36.7651 267.341 36.7485L267.225 36.707L266.994 36.79L266.762 36.707L266.646 36.7485C266.646 36.7692 266.654 36.7858 266.65 36.8066C266.646 36.8439 266.642 36.8812 266.637 36.9185L248.448 43.5375ZM284.015 65.5883L285.535 75.9853L283.667 76.0185L284.015 65.5883Z" fill="#544B3F"/>
<path opacity="0.14" d="M283.667 76.018C283.667 76.018 283.957 66.9605 284.015 65.5878C283.655 68.3125 282.123 71.821 279.746 73.3555C276.728 75.3047 272.918 75.1844 269.465 75.031C262.691 74.7282 255.942 75.4747 249.181 75.848L249.404 87.004C249.404 87.004 252.874 87.0289 256.7 87.2238C257.545 87.2653 258.348 86.7303 258.543 85.905C258.754 85.0051 258.377 84.0927 259.557 84.0388C266.389 83.707 273.978 86.581 280.102 89.3265L283.746 91.2674L283.303 87.1658L283.328 86.3736L293.381 87.7505C296.151 88.0367 298.519 85.8345 298.337 83.1347L297.807 80.1735L292.321 49.227H292.308C291.99 48.3976 291.05 46.4732 288.876 45.0051C291.182 49.1275 292.006 56.1653 292.126 56.8745C293.091 62.4732 293.414 68.072 294.441 73.708C294.929 76.3871 295.94 80.3311 293.948 82.7697C291.762 85.4488 271.415 83.4333 265.71 82.7116C262.89 82.355 266.588 77.2954 266.588 77.2954L283.667 76.018Z" fill="black"/>
<path d="M232.644 86.6646H255.201C256.149 86.6646 256.92 86.254 256.92 85.3126L254.071 70.8056C254.071 69.8683 253.301 69.155 252.353 69.155L229.596 69.1177C228.383 69.1177 228.077 69.5531 228.077 70.4904L230.926 85.2462C230.926 86.1918 231.692 86.6646 232.644 86.6646Z" fill="#C4C4C4"/>
<path d="M263.263 82.2027L265.706 82.7128L265.184 77.2965L262.48 75.3515L256.286 72.9834L254.464 72.9958L256.025 81.6179L259.267 82.6423C260.613 82.8828 262.128 82.9035 263.263 82.2027Z" fill="#BD8B6F"/>
<path d="M250.497 81.3107L256.923 83.0483L261.495 82.7539C261.495 82.7539 262.169 82.5963 262.819 82.3599L265.817 82.7663L266.579 77.292L258.083 74.7539L247.019 75.4299L248.212 79.2122C248.572 80.2365 249.425 81.0245 250.497 81.3107Z" fill="#BD8B6F"/>
<path d="M265.031 35.7449C270.264 35.1228 274.169 25.2566 274.115 21.7729L273.287 14.0881L253.317 16.4645L254.651 27.6993C255.251 32.7714 259.801 36.3711 265.031 35.7449Z" fill="#BD8B6F"/>
<path d="M265.818 49.12C267.606 46.5736 272.095 41.1118 272.136 39.7432L271.06 27.9402L260.617 28.7447L260.253 40.4938C260.783 42.4596 263.445 46.8515 264.58 49.1242C264.807 49.1034 265.644 49.1034 265.818 49.12Z" fill="#BD8B6F"/>
<path opacity="0.1" d="M271.564 33.4636L271.125 28.6777C269.415 32.6508 264.298 35.1433 260.377 36.516L260.315 38.4818C262.521 40.1614 266.72 38.6062 268.703 37.1049C269.991 36.1303 270.927 34.8695 271.564 33.4636Z" fill="black"/>
<path d="M271.225 25.8372L270.931 29.6153L271.424 31.183C274.169 25.3934 274.442 21.2379 274.442 21.2379L273.589 14.0549C272.616 5.84345 262.998 6.72266 262.998 6.72266L250.783 9.02022C248.684 15.3655 253.321 16.4686 253.321 16.4686L265.304 15.042C268.405 14.6729 268.488 17.6299 268.488 17.6299L269.035 20.7652L270.583 20.5827C270.583 20.5827 270.993 19.239 271.796 19.1394C272.393 19.0689 272.985 19.0523 273.204 20.9103C273.809 25.9906 271.225 25.8372 271.225 25.8372Z" fill="#302A2A"/>
<path opacity="0.1" d="M268.476 33.634C268.476 33.634 265.068 36.7486 260.211 35.2141L260.336 36.2551C260.336 36.2551 264.99 38.113 268.476 33.634Z" fill="black"/>
<path d="M260.282 30.8267C254.526 31.4944 254.526 26.5799 254.526 26.5799C254.526 26.5799 254.518 38.3622 261.478 37.9889C272.161 37.4166 271.337 25.9413 271.337 25.9413L270.48 19.0444L268.969 19.2228C269.627 29.9433 265.441 30.2295 260.282 30.8267Z" fill="#302A2A"/>
<path d="M259.354 35.7943L261.83 35.4999C263.689 35.2801 265.023 33.6046 264.803 31.7632L264.691 30.8343C264.472 28.9929 262.787 27.6782 260.928 27.898L258.452 28.1925C256.593 28.4123 255.259 30.0878 255.479 31.9291L255.59 32.8581C255.81 34.6995 257.495 36.0141 259.354 35.7943Z" fill="#302A2A"/>
<path d="M260.054 32.5719C261.387 32.4143 262.476 32.3397 262.298 30.8176L257.462 31.3941C257.64 32.912 258.716 32.7295 260.054 32.5719Z" fill="#BD8B6F"/>
<path d="M245.318 77.08L255.437 77.2667L255.247 74.4839L245.276 75.3092C244.755 75.3465 244.37 75.7986 244.436 76.3045C244.494 76.7358 244.867 77.0676 245.318 77.08Z" fill="#BD8B6F"/>
<path d="M259.694 37.7942L257.462 39.7185C257.462 42.4764 259.222 46.8268 259.222 46.8268L262.828 42.352C259.743 40.5894 260.335 37.9352 260.335 37.9352L259.694 37.7942Z" fill="#F7F8F9"/>
<path d="M262.828 42.3508L260.58 45.1378C260.99 48.8827 264.579 49.1232 264.579 49.1232L262.828 42.3508Z" fill="#D5DEE2"/>
<path d="M271.887 36.9846C271.887 36.9846 270.947 40.8208 268.476 42.1479L271.846 45.9882C271.846 45.9882 273.428 43.3216 274.438 40.0453L271.887 36.9846Z" fill="#F7F8F9"/>
<path d="M268.476 42.1484L265.817 49.1199C265.817 49.1199 268.372 48.3817 269.142 47.6269C271.051 45.7524 271.014 44.9478 271.014 44.9478L268.476 42.1484Z" fill="#D5DEE2"/>
<path d="M39.4067 206.987L34.9101 204.565L26.981 203.213C26.981 203.213 24.8694 207.444 25.6064 212.225H44.3836C44.3794 212.229 43.7501 208.227 39.4067 206.987Z" fill="white"/>
<path d="M43.7459 210.471H25.8341C25.7016 210.471 25.5774 210.459 25.449 210.45C25.4615 211.031 25.507 211.624 25.6022 212.225H44.3794C44.3794 212.23 44.2552 211.45 43.7459 210.471Z" fill="#577A8D"/>
<path d="M73.9964 207.448L62.2787 203.239H54.565C54.565 203.239 52.4657 207.448 53.1945 212.205H79.6564C79.6564 212.205 79.2879 207.995 73.9964 207.448Z" fill="white"/>
<path d="M79.0768 210.471H53.0455C53.0579 211.035 53.1034 211.616 53.1945 212.205H79.6565C79.6565 212.205 79.5861 211.413 79.0768 210.471Z" fill="#577A8D"/>
<path d="M34.9142 204.562L42.806 159.403L48.8801 122.082L53.0413 159.403L54.2006 204.267L64.0467 203.877L65.5994 155.168L65.8686 102.847C65.4669 102.926 65.0446 102.976 64.5891 102.976C56.983 103.013 49.497 103.1 41.924 102.258C38.0941 101.835 34.2641 101.3 30.4176 101.064C30.1029 101.043 29.7924 101.039 29.4777 101.031C29.4446 103.361 29.4197 106.48 29.4197 110.565C29.4197 124.483 29.4901 152.551 29.4901 152.551L26.5007 204.533L34.9142 204.562Z" fill="#2D5970"/>
<path opacity="0.1" d="M29.5936 204.545C30.3017 197.706 31.3161 190.897 32.3057 184.103C34.0985 171.782 33.9577 159.39 34.2517 146.973C34.3925 141.064 34.79 135.195 35.3034 129.306C35.6719 125.043 35.9079 120.489 38.239 116.757C43.4353 108.442 56.2378 108.84 64.6181 106.302C65.0446 106.173 65.4545 106.094 65.852 106.053L65.8686 102.847C65.4669 102.926 65.0446 102.976 64.5891 102.976C56.983 103.013 49.497 103.1 41.924 102.258C38.0941 101.835 34.2641 101.3 30.4176 101.064C30.1029 101.043 29.7924 101.039 29.4777 101.031C29.4446 103.361 29.4197 106.48 29.4197 110.565C29.4197 124.483 29.4901 152.551 29.4901 152.551L26.5007 204.533L29.5936 204.545Z" fill="black"/>
<path opacity="0.1" d="M62.3451 203.943C61.8813 201.455 61.4342 198.992 61.1899 196.586C60.3121 188.035 60.2831 179.301 60.2251 170.708C60.1672 162.243 59.7407 154.185 57.7326 145.932C55.8445 138.189 53.2111 130.658 49.6337 123.533C49.5799 123.421 49.5385 123.313 49.4888 123.205C49.377 123.027 49.2694 122.853 49.1741 122.675C49.1079 122.728 49.0334 122.778 48.9713 122.836L53.0496 159.406L54.209 204.271L62.3451 203.943Z" fill="black"/>
<path d="M67.6118 47.046C64.7134 39.6308 63.7818 39.7718 61.4342 38.6354C41.1126 28.8231 29.3577 38.8138 23.7018 41.4556C22.5549 41.9905 21.7061 46.0839 21.8593 47.3446C23.6976 62.623 27.7098 70.793 28.5379 77.723C29.6061 86.6644 29.4198 104.655 29.4198 104.655C41.833 111.668 65.8935 104.655 65.8935 104.655C65.8935 104.655 65.3055 92.147 64.2704 72.6758C63.9268 66.2269 70.0754 53.3498 67.6118 47.046Z" fill="#F26968"/>
<path opacity="0.1" d="M61.6286 62.6313C58.1547 61.2627 57.7241 61.1217 53.7658 61.2295C48.2092 61.3788 42.5864 61.8641 37.858 62.3783C37.1003 62.4613 35.9078 56.9786 35.0217 54.8843C34.9845 55.2368 34.9182 55.6017 34.8106 55.9791C34.3882 57.5012 30.2312 74.878 28.2562 75.8443C28.3638 76.483 28.459 77.1134 28.5336 77.7272C28.5998 78.2953 28.7696 80.1823 28.8317 80.8542C29.5646 90.2932 29.4155 104.663 29.4155 104.663C29.7343 104.842 30.0614 105.008 30.3927 105.169C30.1732 101.802 29.2706 89.7583 33.3407 80.1989C38.7523 77.3539 42.3049 75.836 44.9258 75.3757C51.7162 74.1813 62.9784 76.5328 64.6843 76.2508C64.5808 75.3259 64.3862 73.6256 64.2661 72.6883C63.9845 70.4778 64.5808 67.496 65.3799 64.2777C65.028 64.1699 59.4797 55.2409 59.3555 55.2078C58.9 55.046 62.0054 62.8511 61.6286 62.6313Z" fill="black"/>
<path d="M65.9389 101.847C57.2894 104.094 46.5696 105.397 45.7001 105.235C40.2719 105.339 34.2351 104.812 29.4279 102.46C29.4238 103.837 29.4155 104.658 29.4155 104.658C41.8287 111.671 65.8892 104.658 65.8892 104.658C65.8892 104.658 65.9265 103.634 65.9389 101.847Z" fill="#FF0000"/>
<path d="M44.8679 42.1524C50.8716 41.9326 50.8716 35.2473 50.8716 34.9072C44.7313 33.4515 40.9013 34.2188 36.943 35.3551C36.9885 35.5168 36.8271 42.4468 44.8679 42.1524Z" fill="#FF0000"/>
<path d="M61.4341 66.7575L59.2273 61.2293L36.2061 63.7923C36.2061 63.7923 33.4941 45.0219 31.8586 43.3174C28.8815 40.2195 24.6541 40.3065 23.031 41.982C21.557 43.5041 21.7226 46.7638 21.6439 47.9457C20.9028 58.9068 26.8485 78.3697 31.0263 78.2453C32.2519 78.208 61.4341 66.7575 61.4341 66.7575Z" fill="#F26968"/>
<path d="M59.2272 61.2292L56.4448 61.5403C57.6993 63.4231 58.6641 65.4262 59.3597 67.5703C60.6598 67.0644 61.4341 66.7575 61.4341 66.7575L59.2272 61.2292Z" fill="#FF0000"/>
<path d="M54.8217 69.6274L46.1432 72.6798L57.2895 74.7576L54.8217 69.6274Z" fill="#EA9C72"/>
<path d="M47.0582 31.9503C52.2089 31.5522 54.0183 26.6004 53.7368 22.2914L52.8631 10.9985L32.8521 12.5496L32.9059 19.3967C34.8106 29.5408 41.9074 32.3484 47.0582 31.9503Z" fill="#E0A373"/>
<path d="M44.6775 40.5553C47.7456 40.3189 50.0436 37.6315 49.8034 34.5542L48.9753 24.3728L37.8622 25.2354L38.6903 35.4127C38.9264 38.4899 41.6053 40.7916 44.6775 40.5553Z" fill="#E0A373"/>
<path d="M39.183 12.4168L52.8673 10.986C52.8673 10.986 55.1736 10.6832 54.6188 3.521L40.3299 4.6283C40.3299 4.6283 31.4071 4.1182 32.053 12.4748L32.6161 19.7864C32.6161 19.7864 33.643 27.7988 38.2928 29.7895L36.914 23.7055C36.914 23.7055 34.4421 24.7548 33.2538 19.4753C32.8356 17.6257 33.3821 17.2276 33.9701 17.1819C34.7651 17.1197 35.1501 18.6044 35.1501 18.6044L36.1853 18.3515L36.4668 15.6018C36.4585 15.606 36.1314 12.6532 39.183 12.4168Z" fill="#593F2B"/>
<path opacity="0.1" d="M49.4969 31.3076C45.7249 33.0909 39.0629 29.657 39.0629 29.657C45.6877 36.3796 49.6211 32.3071 49.6211 32.3071L49.4969 31.3076Z" fill="black"/>
<path d="M55.3972 74.7573C55.3972 74.7573 68.2287 75.4458 71.9468 74.8652C74.0336 74.5375 77.0189 73.621 75.2344 67.0767C74.191 63.2488 66.5311 44.4246 66.5311 44.4246C64.8956 49.3349 62.1752 59.6158 62.1752 59.6158L66.0383 65.4178L54.8217 69.2457L55.3972 74.7573Z" fill="#F26968"/>
<path d="M56.863 68.5488L54.8217 69.2456L55.3972 74.7572C55.3972 74.7572 56.1632 74.7987 57.3598 74.8526C57.2729 72.7458 57.0245 70.6515 56.863 68.5488Z" fill="#FF0000"/>
<path d="M59.3556 61.5532L61.4341 66.758L66.9907 65.3355C64.7631 62.0592 59.3556 61.5532 59.3556 61.5532Z" fill="#EA9C72"/>
<path d="M64.6482 201.057L53.4665 201.521L53.5961 204.653L64.7778 204.189L64.6482 201.057Z" fill="#577A8D"/>
<path d="M36.0653 201.671H25.8506V204.806H36.0653V201.671Z" fill="#577A8D"/>
<path opacity="0.18" d="M248.274 86.6646H239.339C239.339 86.6646 246.005 87.6101 245.844 89.2566C245.682 90.903 243.413 114.671 243.413 114.671L248.274 86.6646Z" fill="black"/>
</svg>
